<svg width="498" height="475" viewBox="0 0 498 475" fill="none" xmlns="http://www.w3.org/2000/svg">
<rect x="1.26392" width="496.486" height="474.18" rx="8" fill="#4DC66B" fill-opacity="0.2"/>
<path d="M463.816 348.297L453.734 351.708L445.74 328.076L461.904 322.609L466.705 320.985L468.437 326.105C464.54 335.675 469.256 337.313 472.101 336.936L478.961 357.22L474.16 358.844C469.007 360.06 465.117 352.32 463.816 348.297Z" fill="#636F73"/>
<path d="M453.734 351.708L463.816 348.297M453.734 351.708L445.74 328.076L461.904 322.609M453.734 351.708C453.094 349.29 453.602 346.046 456.643 345.018C459.091 344.19 463.017 345.934 463.816 348.297M463.816 348.297C465.117 352.32 469.007 360.06 474.16 358.844M474.16 358.844L461.904 322.609M474.16 358.844L478.961 357.22L472.101 336.936C469.256 337.313 464.54 335.675 468.437 326.105L466.705 320.985L461.904 322.609" stroke="black" stroke-width="0.675951"/>
<path d="M372.884 268.015C388.791 333.513 425.125 340.419 457.57 316.085V358.839C407.719 376.244 369.992 351.887 345.323 285.368L372.884 268.015Z" fill="#636F73" stroke="black" stroke-width="0.675951"/>
<path d="M457.401 333.491C407.719 347.01 376.896 337.086 362.846 276.861M457.401 347.179C402.142 373.372 352.06 325.245 360.634 276.861" stroke="#A6A6A6" stroke-width="0.675951"/>
<rect x="162.478" y="77.3965" width="144.992" height="152.089" rx="5.40761" fill="#064D47"/>
<path d="M225.722 99.0116C225.87 99.0116 226.004 99.2229 226.123 99.6453H226.187C226.426 99.4623 226.761 99.3531 227.19 99.3179C228.436 99.3179 229.271 100.445 229.693 102.698L229.852 104.462C229.852 106.475 229.133 107.785 227.697 108.39L227.148 108.454H227.127C226.972 108.454 226.739 108.401 226.43 108.295V108.39L226.461 108.591C226.461 108.69 226.363 108.788 226.166 108.887C225.898 108.887 225.764 108.598 225.764 108.021C225.581 105.549 225.49 104.032 225.49 103.469L225.595 100.364C225.595 100.047 225.518 99.6982 225.363 99.3179C225.363 99.156 225.483 99.0539 225.722 99.0116ZM226.123 103.426L226.282 106.922C226.458 107.528 226.715 107.831 227.053 107.831H227.327C227.708 107.831 228.127 107.542 228.584 106.965C228.986 106.324 229.186 105.567 229.186 104.694V104.134C229.186 102.726 228.898 101.539 228.32 100.575C227.982 100.173 227.672 99.9728 227.391 99.9728H226.989C226.539 99.9728 226.282 100.251 226.218 100.807L226.123 103.426ZM231.848 99.2757C232.791 99.2757 233.552 100.596 234.129 103.236C234.207 103.786 234.259 104.349 234.288 104.926C234.288 106.637 233.833 107.792 232.925 108.39C232.566 108.524 232.288 108.591 232.091 108.591C231.344 108.591 230.848 107.993 230.602 106.796C230.482 106.338 230.422 105.806 230.422 105.201V105.032C230.422 103.391 230.704 101.642 231.267 99.7827V99.677L231.225 99.6453C231.302 99.3989 231.51 99.2757 231.848 99.2757ZM231.89 99.8988C231.334 101.518 231.056 103.229 231.056 105.032V105.127C231.056 106.683 231.313 107.602 231.827 107.884L232.091 107.957H232.196C232.816 107.957 233.256 107.401 233.517 106.289C233.587 106.007 233.622 105.68 233.622 105.306V104.694C233.622 102.99 233.179 101.473 232.291 100.142C232.122 99.9798 231.989 99.8988 231.89 99.8988ZM235.967 98.5469C236.157 98.5469 236.301 99.0433 236.4 100.036C236.914 102.986 237.446 105.215 237.995 106.722H238.058C238.262 103.743 238.364 101.395 238.364 99.677V99.5714C238.364 99.3461 238.343 99.2334 238.301 99.2334C238.371 98.994 238.495 98.8743 238.671 98.8743C238.889 98.8743 238.998 99.0926 238.998 99.5292V99.7721C238.857 105.49 238.657 108.348 238.396 108.348L238.227 108.422C238.03 108.422 237.819 108.067 237.593 107.355C237.22 106.496 236.812 105.064 236.368 103.057C236.249 102.374 236.16 102.032 236.104 102.032V102.096L236.136 104.462C236.136 106.306 236.136 107.465 236.136 107.936V108.464C236.136 108.64 236.034 108.728 235.83 108.728C235.604 108.728 235.492 108.556 235.492 108.211V107.873C235.492 107.5 235.495 106.387 235.502 104.535L235.47 101.832C235.47 99.6559 235.569 98.5681 235.766 98.5681L235.967 98.5469ZM240.107 98.1773C240.283 98.1773 240.385 98.311 240.413 98.5786H240.382L240.413 98.6842C240.653 98.6842 241.318 98.6103 242.41 98.4624C242.586 98.5258 242.674 98.6349 242.674 98.7898C242.674 99.0152 242.198 99.1595 241.248 99.2229L240.318 99.3496V99.8143C240.318 100.145 240.452 101.487 240.72 103.838H242.072C242.255 103.838 242.367 103.94 242.41 104.145C242.41 104.363 242.244 104.472 241.913 104.472H240.72V104.514L240.688 106.701C240.688 107.222 240.741 107.602 240.846 107.841L242.938 107.704C243.163 107.732 243.276 107.831 243.276 108C243.276 108.225 243.029 108.338 242.536 108.338C241.269 108.408 240.635 108.475 240.635 108.538C240.382 108.538 240.206 108.151 240.107 107.377L240.054 106.574L240.075 104.176L239.685 99.8143V99.4869C239.685 98.6138 239.815 98.1773 240.075 98.1773H240.107Z" fill="#191A15"/>
<g filter="url(#filter0_d_2454_1884)">
<rect x="186.812" y="126.065" width="95.9851" height="37.1773" rx="2.02785" fill="white"/>
<line x1="206.415" y1="148.948" x2="275.7" y2="148.948" stroke="black" stroke-width="2.7038"/>
<line x1="206.415" y1="154.018" x2="253.056" y2="154.018" stroke="#A6A6A6" stroke-width="2.02785"/>
<circle cx="198.642" cy="151.314" r="4.73166" fill="#D9D9D9"/>
<path d="M216.063 134.152C216.165 133.84 216.605 133.84 216.706 134.152L217.171 135.581C217.216 135.72 217.346 135.814 217.492 135.814H218.994C219.322 135.814 219.458 136.233 219.193 136.425L217.977 137.308C217.859 137.395 217.809 137.547 217.855 137.686L218.319 139.115C218.42 139.426 218.064 139.685 217.799 139.493L216.584 138.61C216.465 138.524 216.305 138.524 216.186 138.61L214.971 139.493C214.706 139.685 214.35 139.426 214.451 139.115L214.915 137.686C214.96 137.547 214.911 137.395 214.792 137.308L213.577 136.425C213.312 136.233 213.448 135.814 213.776 135.814H215.278C215.424 135.814 215.554 135.72 215.599 135.581L216.063 134.152Z" fill="#D9D9D9"/>
<path d="M206.826 134.178C206.901 133.944 207.232 133.944 207.308 134.178L207.772 135.607C207.828 135.781 207.991 135.899 208.174 135.899H209.676C209.921 135.899 210.024 136.213 209.825 136.357L208.61 137.24C208.462 137.348 208.4 137.538 208.456 137.712L208.92 139.141C208.996 139.375 208.729 139.569 208.53 139.425L207.315 138.542C207.167 138.434 206.966 138.434 206.818 138.542L205.603 139.425C205.404 139.569 205.137 139.375 205.213 139.141L205.677 137.712C205.734 137.538 205.672 137.348 205.524 137.24L204.308 136.357C204.11 136.213 204.212 135.899 204.457 135.899H205.96C206.143 135.899 206.305 135.781 206.361 135.607L206.826 134.178Z" stroke="#D9D9D9" stroke-width="0.168988"/>
<path d="M197.506 134.178C197.582 133.944 197.912 133.944 197.988 134.178L198.453 135.607C198.509 135.781 198.671 135.899 198.854 135.899H200.357C200.602 135.899 200.704 136.213 200.506 136.357L199.29 137.24C199.142 137.348 199.08 137.538 199.137 137.712L199.601 139.141C199.677 139.375 199.41 139.569 199.211 139.425L197.996 138.542C197.848 138.434 197.647 138.434 197.499 138.542L196.284 139.425C196.085 139.569 195.818 139.375 195.894 139.141L196.358 137.712C196.414 137.538 196.352 137.348 196.204 137.24L194.989 136.357C194.79 136.213 194.892 135.899 195.138 135.899H196.64C196.823 135.899 196.985 135.781 197.042 135.607L197.506 134.178Z" stroke="#D9D9D9" stroke-width="0.168988"/>
<path d="M225.383 134.152C225.484 133.84 225.924 133.84 226.026 134.152L226.49 135.581C226.535 135.72 226.665 135.814 226.811 135.814H228.313C228.641 135.814 228.777 136.233 228.512 136.425L227.297 137.308C227.178 137.395 227.129 137.547 227.174 137.686L227.638 139.115C227.739 139.426 227.383 139.685 227.118 139.493L225.903 138.61C225.784 138.524 225.624 138.524 225.506 138.61L224.29 139.493C224.025 139.685 223.669 139.426 223.77 139.115L224.234 137.686C224.28 137.547 224.23 137.395 224.112 137.308L222.896 136.425C222.631 136.233 222.768 135.814 223.095 135.814H224.597C224.744 135.814 224.873 135.72 224.919 135.581L225.383 134.152Z" fill="#D9D9D9"/>
<path d="M234.702 134.152C234.803 133.84 235.244 133.84 235.345 134.152L235.809 135.581C235.854 135.72 235.984 135.814 236.131 135.814H237.633C237.96 135.814 238.096 136.233 237.831 136.425L236.616 137.308C236.498 137.395 236.448 137.547 236.493 137.686L236.958 139.115C237.059 139.426 236.702 139.685 236.437 139.493L235.222 138.61C235.104 138.524 234.943 138.524 234.825 138.61L233.61 139.493C233.345 139.685 232.988 139.426 233.089 139.115L233.554 137.686C233.599 137.547 233.549 137.395 233.431 137.308L232.216 136.425C231.951 136.233 232.087 135.814 232.414 135.814H233.916C234.063 135.814 234.193 135.72 234.238 135.581L234.702 134.152Z" fill="#D9D9D9"/>
</g>
<rect x="33.0336" y="124.713" width="144.992" height="152.089" rx="5.40761" fill="#D9D9D9"/>
<path d="M97.6927 145.568H98.2208C98.9179 145.568 99.3861 145.691 99.6255 145.937L99.6889 146.138V146.17C99.6889 146.346 99.5797 146.444 99.3615 146.465C99.1502 146.289 98.7278 146.201 98.0941 146.201H97.9884V146.244C97.9884 147.546 98.0025 149.352 98.0307 151.662C98.0659 153.971 98.175 155.249 98.3581 155.496C98.2877 155.693 98.168 155.791 97.999 155.791C97.7033 156.108 97.5237 154.897 97.4604 152.158C97.397 149.419 97.3653 147.448 97.3653 146.244V146.201L96.4253 146.265C96.2493 146.187 96.1613 146.078 96.1613 145.937C96.1613 145.691 96.6717 145.568 97.6927 145.568ZM101.611 146.592C102.555 146.592 103.315 147.912 103.892 150.553C103.97 151.102 104.023 151.665 104.051 152.243C104.051 153.954 103.597 155.108 102.688 155.707C102.329 155.841 102.051 155.908 101.854 155.908C101.108 155.908 100.611 155.309 100.365 154.112C100.245 153.654 100.185 153.123 100.185 152.517V152.348C100.185 150.708 100.467 148.958 101.03 147.099V146.993L100.988 146.962C101.065 146.715 101.273 146.592 101.611 146.592ZM101.653 147.215C101.097 148.835 100.819 150.546 100.819 152.348V152.443C100.819 153.999 101.076 154.918 101.59 155.2L101.854 155.274H101.96C102.579 155.274 103.019 154.718 103.28 153.605C103.35 153.323 103.385 152.996 103.385 152.623V152.01C103.385 150.306 102.942 148.789 102.055 147.458C101.886 147.296 101.752 147.215 101.653 147.215ZM107.853 146.328C108.001 146.328 108.135 146.539 108.254 146.962H108.318C108.557 146.779 108.892 146.67 109.321 146.634C110.567 146.634 111.402 147.761 111.824 150.014L111.983 151.778C111.983 153.792 111.265 155.101 109.828 155.707L109.279 155.77H109.258C109.103 155.77 108.871 155.717 108.561 155.612V155.707L108.592 155.908C108.592 156.006 108.494 156.105 108.297 156.203C108.029 156.203 107.895 155.915 107.895 155.337C107.712 152.866 107.621 151.348 107.621 150.785L107.726 147.68C107.726 147.363 107.649 147.015 107.494 146.634C107.494 146.472 107.614 146.37 107.853 146.328ZM108.254 150.743L108.413 154.239C108.589 154.844 108.846 155.147 109.184 155.147H109.458C109.839 155.147 110.258 154.858 110.715 154.281C111.117 153.64 111.317 152.883 111.317 152.01V151.45C111.317 150.042 111.029 148.856 110.451 147.891C110.113 147.49 109.804 147.289 109.522 147.289H109.121C108.67 147.289 108.413 147.567 108.35 148.124L108.254 150.743ZM113.979 146.592C114.922 146.592 115.683 147.912 116.26 150.553C116.338 151.102 116.391 151.665 116.419 152.243C116.419 153.954 115.965 155.108 115.056 155.707C114.697 155.841 114.419 155.908 114.222 155.908C113.475 155.908 112.979 155.309 112.733 154.112C112.613 153.654 112.553 153.123 112.553 152.517V152.348C112.553 150.708 112.835 148.958 113.398 147.099V146.993L113.356 146.962C113.433 146.715 113.641 146.592 113.979 146.592ZM114.021 147.215C113.465 148.835 113.187 150.546 113.187 152.348V152.443C113.187 153.999 113.444 154.918 113.958 155.2L114.222 155.274H114.327C114.947 155.274 115.387 154.718 115.648 153.605C115.718 153.323 115.753 152.996 115.753 152.623V152.01C115.753 150.306 115.31 148.789 114.423 147.458C114.254 147.296 114.12 147.215 114.021 147.215Z" fill="#191A15"/>
<g filter="url(#filter1_d_2454_1884)">
<rect x="58.3818" y="171.691" width="95.9851" height="37.1773" rx="2.02785" fill="white"/>
<line x1="77.9844" y1="194.575" x2="147.269" y2="194.575" stroke="black" stroke-width="2.7038"/>
<line x1="77.9844" y1="199.644" x2="124.625" y2="199.644" stroke="#A6A6A6" stroke-width="2.02785"/>
<circle cx="70.2109" cy="196.941" r="4.73166" fill="#D9D9D9"/>
<path d="M87.6326 179.778C87.7338 179.467 88.1743 179.467 88.2755 179.778L88.7397 181.207C88.785 181.346 88.9147 181.441 89.0612 181.441H90.5633C90.8908 181.441 91.0269 181.86 90.762 182.052L89.5467 182.935C89.4282 183.021 89.3787 183.174 89.4239 183.313L89.8881 184.741C89.9893 185.053 89.6329 185.312 89.368 185.119L88.1527 184.236C88.0343 184.15 87.8739 184.15 87.7554 184.236L86.5401 185.119C86.2752 185.312 85.9189 185.053 86.02 184.741L86.4842 183.313C86.5295 183.174 86.4799 183.021 86.3615 182.935L85.1462 182.052C84.8813 181.86 85.0174 181.441 85.3448 181.441H86.847C86.9934 181.441 87.1232 181.346 87.1684 181.207L87.6326 179.778Z" fill="#D9D9D9"/>
<path d="M78.3948 179.804C78.4706 179.571 78.801 179.571 78.8769 179.804L79.3411 181.233C79.3977 181.407 79.5599 181.525 79.7429 181.525H81.2451C81.4907 181.525 81.5928 181.839 81.3941 181.984L80.1788 182.867C80.0307 182.974 79.9688 183.165 80.0253 183.339L80.4895 184.768C80.5654 185.001 80.2981 185.195 80.0995 185.051L78.8842 184.168C78.7361 184.06 78.5356 184.06 78.3875 184.168L77.1722 185.051C76.9736 185.195 76.7063 185.001 76.7822 184.768L77.2464 183.339C77.3029 183.165 77.241 182.974 77.0929 182.867L75.8776 181.984C75.6789 181.839 75.781 181.525 76.0266 181.525H77.5288C77.7118 181.525 77.874 181.407 77.9306 181.233L78.3948 179.804Z" stroke="#D9D9D9" stroke-width="0.168988"/>
<path d="M69.0754 179.804C69.1513 179.571 69.4817 179.571 69.5576 179.804L70.0218 181.233C70.0783 181.407 70.2406 181.525 70.4236 181.525H71.9258C72.1713 181.525 72.2734 181.839 72.0748 181.984L70.8595 182.867C70.7114 182.974 70.6494 183.165 70.706 183.339L71.1702 184.768C71.2461 185.001 70.9788 185.195 70.7801 185.051L69.5648 184.168C69.4168 184.06 69.2163 184.06 69.0682 184.168L67.8529 185.051C67.6542 185.195 67.3869 185.001 67.4628 184.768L67.927 183.339C67.9836 183.165 67.9216 182.974 67.7735 182.867L66.5582 181.984C66.3596 181.839 66.4617 181.525 66.7072 181.525H68.2094C68.3925 181.525 68.5547 181.407 68.6112 181.233L69.0754 179.804Z" stroke="#D9D9D9" stroke-width="0.168988"/>
<path d="M96.952 179.778C97.0532 179.467 97.4937 179.467 97.5949 179.778L98.0591 181.207C98.1043 181.346 98.2341 181.441 98.3805 181.441H99.8827C100.21 181.441 100.346 181.86 100.081 182.052L98.866 182.935C98.7476 183.021 98.698 183.174 98.7433 183.313L99.2075 184.741C99.3086 185.053 98.9523 185.312 98.6874 185.119L97.4721 184.236C97.3536 184.15 97.1932 184.15 97.0748 184.236L95.8595 185.119C95.5946 185.312 95.2382 185.053 95.3394 184.741L95.8036 183.313C95.8488 183.174 95.7992 183.021 95.6808 182.935L94.4655 182.052C94.2006 181.86 94.3367 181.441 94.6641 181.441H96.1663C96.3128 181.441 96.4425 181.346 96.4878 181.207L96.952 179.778Z" fill="#D9D9D9"/>
<path d="M106.271 179.778C106.372 179.467 106.813 179.467 106.914 179.778L107.378 181.207C107.424 181.346 107.553 181.441 107.7 181.441H109.202C109.529 181.441 109.666 181.86 109.401 182.052L108.185 182.935C108.067 183.021 108.017 183.174 108.063 183.313L108.527 184.741C108.628 185.053 108.272 185.312 108.007 185.119L106.791 184.236C106.673 184.15 106.513 184.15 106.394 184.236L105.179 185.119C104.914 185.312 104.558 185.053 104.659 184.741L105.123 183.313C105.168 183.174 105.119 183.021 105 182.935L103.785 182.052C103.52 181.86 103.656 181.441 103.983 181.441H105.486C105.632 181.441 105.762 181.346 105.807 181.207L106.271 179.778Z" fill="#D9D9D9"/>
</g>
<path d="M330.452 159.525H364.643L364.588 197.378H330.452V159.525Z" fill="#0F172A"/>
<path fill-rule="evenodd" clip-rule="evenodd" d="M317.615 274.256L317.611 274.427L313.871 425.589L313.867 425.762L314.04 425.762L345.207 425.78L345.374 425.78L345.376 425.613L347.122 275.591L347.124 275.426L346.96 275.42L317.787 274.262L317.615 274.256ZM346.782 275.751L345.04 425.442L314.213 425.424L317.944 274.607L346.782 275.751Z" fill="#0F172A"/>
<path fill-rule="evenodd" clip-rule="evenodd" d="M317.615 274.256L317.611 274.427L313.871 425.589L313.867 425.762L314.04 425.762L345.207 425.78L345.374 425.78L345.376 425.613L347.122 275.591L347.124 275.426L346.96 275.42L317.787 274.262L317.615 274.256ZM346.782 275.751L345.04 425.442L314.213 425.424L317.944 274.607L346.782 275.751Z" fill="#064D47"/>
<path d="M317.611 274.427L317.442 274.423L317.442 274.423L317.611 274.427ZM317.615 274.256L317.446 274.251L317.45 274.08L317.622 274.087L317.615 274.256ZM313.871 425.589L313.702 425.585L313.871 425.589ZM313.867 425.762L313.867 425.931L313.693 425.931L313.698 425.758L313.867 425.762ZM314.04 425.762L314.04 425.593L314.04 425.593L314.04 425.762ZM345.207 425.78L345.207 425.611L345.207 425.611L345.207 425.78ZM345.374 425.78L345.543 425.782L345.541 425.949L345.374 425.949L345.374 425.78ZM345.376 425.613L345.207 425.611L345.207 425.611L345.376 425.613ZM347.122 275.591L346.953 275.589L346.953 275.589L347.122 275.591ZM347.124 275.426L347.13 275.257L347.295 275.264L347.293 275.428L347.124 275.426ZM346.96 275.42L346.953 275.589L346.96 275.42ZM317.787 274.262L317.793 274.094L317.793 274.094L317.787 274.262ZM345.04 425.442L345.209 425.444L345.207 425.611L345.04 425.611L345.04 425.442ZM346.782 275.751L346.789 275.582L346.953 275.589L346.951 275.753L346.782 275.751ZM314.213 425.424L314.213 425.593L314.04 425.593L314.044 425.42L314.213 425.424ZM317.944 274.607L317.776 274.603L317.78 274.431L317.951 274.438L317.944 274.607ZM317.442 274.423L317.446 274.251L317.784 274.26L317.78 274.431L317.442 274.423ZM313.702 425.585L317.442 274.423L317.78 274.431L314.04 425.593L313.702 425.585ZM313.698 425.758L313.702 425.585L314.04 425.593L314.036 425.766L313.698 425.758ZM314.04 425.931L313.867 425.931L313.867 425.593L314.04 425.593L314.04 425.931ZM345.207 425.949L314.04 425.931L314.04 425.593L345.207 425.611L345.207 425.949ZM345.374 425.949L345.207 425.949L345.207 425.611L345.374 425.611L345.374 425.949ZM345.545 425.615L345.543 425.782L345.205 425.778L345.207 425.611L345.545 425.615ZM347.291 275.593L345.545 425.615L345.207 425.611L346.953 275.589L347.291 275.593ZM347.293 275.428L347.291 275.593L346.953 275.589L346.955 275.424L347.293 275.428ZM346.966 275.251L347.13 275.257L347.117 275.595L346.953 275.589L346.966 275.251ZM317.793 274.094L346.966 275.251L346.953 275.589L317.78 274.431L317.793 274.094ZM317.622 274.087L317.793 274.094L317.78 274.431L317.608 274.424L317.622 274.087ZM344.871 425.44L346.613 275.749L346.951 275.753L345.209 425.444L344.871 425.44ZM314.213 425.255L345.04 425.273L345.04 425.611L314.213 425.593L314.213 425.255ZM318.113 274.611L314.382 425.428L314.044 425.42L317.776 274.603L318.113 274.611ZM346.775 275.92L317.938 274.776L317.951 274.438L346.789 275.582L346.775 275.92Z" fill="black"/>
<path d="M319.073 425.556L319.035 434.155M319.073 425.556L337.516 425.636L337.456 439.421M319.073 425.556C320.916 425.7 323.063 426.938 323.051 429.531C323.042 431.619 320.879 434.163 319.035 434.155M319.035 434.155C315.91 434.096 309.564 435.042 309.176 439.298M309.176 439.298L337.456 439.421M309.176 439.298L309.159 443.393L324.989 443.462C325.409 441.189 327.687 438.014 333.442 443.499L337.438 443.516L337.456 439.421" stroke="black" stroke-width="0.675951"/>
<path d="M318.623 425.512L323.355 279.845" stroke="#A6A6A6" stroke-width="0.337976"/>
<path d="M332.142 284.238L328.086 425.174" stroke="#A6A6A6" stroke-width="0.337976"/>
<path d="M309.034 253.193C308.976 257.56 309.779 261.896 311.396 265.953C313.014 270.01 315.415 273.709 318.462 276.838C321.509 279.968 325.143 282.466 329.155 284.191C333.168 285.916 337.481 286.834 341.849 286.892C346.216 286.95 350.552 286.147 354.609 284.53C358.666 282.912 362.365 280.511 365.494 277.464C368.623 274.417 371.122 270.783 372.847 266.771C374.572 262.758 375.49 258.445 375.548 254.077L342.291 253.635L309.034 253.193Z" fill="#0F172A"/>
<path d="M309.034 253.193C308.976 257.56 309.779 261.896 311.396 265.953C313.014 270.01 315.415 273.709 318.462 276.838C321.509 279.968 325.143 282.466 329.155 284.191C333.168 285.916 337.481 286.834 341.849 286.892C346.216 286.95 350.552 286.147 354.609 284.53C358.666 282.912 362.365 280.511 365.494 277.464C368.623 274.417 371.122 270.783 372.847 266.771C374.572 262.758 375.49 258.445 375.548 254.077L342.291 253.635L309.034 253.193Z" fill="#636F73"/>
<path d="M309.034 253.193L308.696 253.188L308.701 252.85L309.039 252.855L309.034 253.193ZM311.396 265.953L311.71 265.828L311.396 265.953ZM318.462 276.838L318.704 276.603L318.462 276.838ZM329.155 284.191L329.289 283.881L329.155 284.191ZM341.849 286.892L341.853 286.554L341.849 286.892ZM354.609 284.53L354.484 284.216L354.609 284.53ZM365.494 277.464L365.258 277.222L365.494 277.464ZM372.847 266.771L372.536 266.637L372.847 266.771ZM375.548 254.077L375.552 253.739L375.89 253.744L375.886 254.082L375.548 254.077ZM342.291 253.635L342.286 253.973L342.291 253.635ZM309.372 253.197C309.315 257.52 310.109 261.812 311.71 265.828L311.082 266.078C309.448 261.98 308.637 257.6 308.696 253.188L309.372 253.197ZM311.71 265.828C313.311 269.844 315.688 273.505 318.704 276.603L318.22 277.074C315.142 273.913 312.716 270.177 311.082 266.078L311.71 265.828ZM318.704 276.603C321.72 279.7 325.317 282.173 329.289 283.881L329.022 284.502C324.968 282.759 321.298 280.235 318.22 277.074L318.704 276.603ZM329.289 283.881C333.261 285.588 337.53 286.496 341.853 286.554L341.844 287.23C337.432 287.171 333.075 286.244 329.022 284.502L329.289 283.881ZM341.853 286.554C346.176 286.611 350.468 285.817 354.484 284.216L354.734 284.844C350.636 286.478 346.256 287.288 341.844 287.23L341.853 286.554ZM354.484 284.216C358.5 282.614 362.161 280.238 365.258 277.222L365.73 277.706C362.569 280.784 358.833 283.209 354.734 284.844L354.484 284.216ZM365.258 277.222C368.356 274.206 370.829 270.609 372.536 266.637L373.157 266.904C371.415 270.957 368.891 274.628 365.73 277.706L365.258 277.222ZM372.536 266.637C374.244 262.665 375.152 258.396 375.21 254.073L375.886 254.082C375.827 258.494 374.9 262.851 373.157 266.904L372.536 266.637ZM375.543 254.415L342.286 253.973L342.295 253.297L375.552 253.739L375.543 254.415ZM342.286 253.973L309.03 253.531L309.039 252.855L342.295 253.297L342.286 253.973Z" fill="black"/>
<ellipse cx="11.9027" cy="8.41522" rx="11.9027" ry="8.41522" transform="matrix(-0.964158 -0.265329 -0.265329 0.964158 366.656 152.997)" fill="#0F172A"/>
<path d="M335.992 193.387H350.368L348.326 175.184H335.992V193.387Z" fill="white" stroke="#0F172A" stroke-width="0.675951"/>
<path d="M378.694 227.753C378.694 208.35 362.965 192.622 343.563 192.622C324.161 192.622 308.432 208.35 308.432 227.753V265.946H378.694V227.753Z" fill="#064D47"/>
<path d="M349.007 203.169C363.229 190.648 354.933 183.888 349.007 182.074C350.708 189.559 345.633 192.225 342.882 192.622C337.778 193.358 336.19 187.546 335.907 184.2C332.913 184.404 330.374 188.453 330.293 191.005C330.157 195.293 332.845 200.901 334.206 203.169L341.266 197.3L349.007 203.169Z" fill="#064D47" stroke="#064D47" stroke-width="0.337976"/>
<path d="M356.917 191.601C356.379 194.096 354.008 199.937 348.836 203.34L341.436 197.3L334.035 203.34C332.986 201.553 330.735 196.705 330.122 191.601" stroke="#0F172A" stroke-width="1.3519"/>
<mask id="path-41-inside-1_2454_1884" fill="white">
<path fill-rule="evenodd" clip-rule="evenodd" d="M328.639 173.561C330.528 179.142 335.81 183.16 342.03 183.16C348.25 183.16 353.531 179.142 355.421 173.56C357.712 173.211 359.468 171.232 359.468 168.843C359.468 166.406 357.642 164.396 355.284 164.106C353.286 158.726 348.106 154.892 342.03 154.892C335.954 154.892 330.774 158.726 328.776 164.106C326.417 164.396 324.591 166.406 324.591 168.843C324.591 171.232 326.347 173.211 328.639 173.561ZM328.648 164.466C328.16 165.896 327.896 167.43 327.896 169.026C327.896 170.478 328.115 171.879 328.522 173.197C326.475 172.804 324.929 171.004 324.929 168.843C324.929 166.637 326.539 164.808 328.648 164.466Z"/>
</mask>
<path fill-rule="evenodd" clip-rule="evenodd" d="M328.639 173.561C330.528 179.142 335.81 183.16 342.03 183.16C348.25 183.16 353.531 179.142 355.421 173.56C357.712 173.211 359.468 171.232 359.468 168.843C359.468 166.406 357.642 164.396 355.284 164.106C353.286 158.726 348.106 154.892 342.03 154.892C335.954 154.892 330.774 158.726 328.776 164.106C326.417 164.396 324.591 166.406 324.591 168.843C324.591 171.232 326.347 173.211 328.639 173.561ZM328.648 164.466C328.16 165.896 327.896 167.43 327.896 169.026C327.896 170.478 328.115 171.879 328.522 173.197C326.475 172.804 324.929 171.004 324.929 168.843C324.929 166.637 326.539 164.808 328.648 164.466Z" fill="white"/>
<path d="M328.639 173.561L328.69 173.226L328.893 173.257L328.959 173.452L328.639 173.561ZM355.421 173.56L355.101 173.452L355.167 173.257L355.37 173.226L355.421 173.56ZM355.284 164.106L355.243 164.442L355.039 164.417L354.967 164.224L355.284 164.106ZM328.776 164.106L329.093 164.224L329.021 164.417L328.817 164.442L328.776 164.106ZM328.648 164.466L328.594 164.132L329.149 164.042L328.968 164.575L328.648 164.466ZM328.522 173.197L328.845 173.098L329.01 173.636L328.458 173.529L328.522 173.197ZM342.03 183.498C335.661 183.498 330.253 179.384 328.319 173.669L328.959 173.452C330.804 178.901 335.959 182.822 342.03 182.822V183.498ZM355.741 173.669C353.806 179.384 348.399 183.498 342.03 183.498V182.822C348.101 182.822 353.256 178.901 355.101 173.452L355.741 173.669ZM359.806 168.843C359.806 171.401 357.926 173.52 355.472 173.895L355.37 173.226C357.499 172.902 359.13 171.062 359.13 168.843H359.806ZM355.325 163.771C357.851 164.081 359.806 166.234 359.806 168.843H359.13C359.13 166.579 357.433 164.711 355.243 164.442L355.325 163.771ZM342.03 154.554C348.252 154.554 353.555 158.48 355.601 163.989L354.967 164.224C353.017 158.972 347.96 155.23 342.03 155.23V154.554ZM328.459 163.988C330.504 158.48 335.808 154.554 342.03 154.554V155.23C336.1 155.23 331.043 158.972 329.093 164.224L328.459 163.988ZM324.253 168.843C324.253 166.233 326.209 164.081 328.735 163.771L328.817 164.442C326.626 164.711 324.929 166.579 324.929 168.843H324.253ZM328.588 173.895C326.134 173.521 324.253 171.402 324.253 168.843H324.929C324.929 171.063 326.561 172.902 328.69 173.226L328.588 173.895ZM327.558 169.026C327.558 167.393 327.829 165.822 328.328 164.357L328.968 164.575C328.492 165.971 328.234 167.468 328.234 169.026H327.558ZM328.199 173.297C327.782 171.947 327.558 170.512 327.558 169.026H328.234C328.234 170.444 328.448 171.811 328.845 173.098L328.199 173.297ZM328.458 173.529C326.255 173.106 324.591 171.169 324.591 168.843H325.267C325.267 170.839 326.695 172.502 328.585 172.865L328.458 173.529ZM324.591 168.843C324.591 166.469 326.324 164.501 328.594 164.132L328.702 164.799C326.754 165.116 325.267 166.806 325.267 168.843H324.591Z" fill="black" mask="url(#path-41-inside-1_2454_1884)"/>
<path fill-rule="evenodd" clip-rule="evenodd" d="M335.242 161.125C329.86 161.125 325.496 158.16 325.496 154.502C325.496 150.844 329.86 147.878 335.242 147.878C339.764 147.878 343.566 149.971 344.667 152.809C345.57 152.321 346.617 152.042 347.733 152.042C351.13 152.042 353.883 154.626 353.883 157.814C353.883 161.001 351.13 163.586 347.733 163.586C344.919 163.586 342.547 161.813 341.815 159.392C340.082 160.469 337.775 161.125 335.242 161.125Z" fill="#0F172A"/>
<path d="M345.521 167.16C344.97 165.936 343.355 164.223 341.299 167.16M337.995 167.163C337.444 165.939 335.829 164.226 333.773 167.163" stroke="black" stroke-width="0.337976"/>
<ellipse cx="2.63696" cy="2.5519" rx="2.63696" ry="2.5519" transform="matrix(-1 0 0 1 341.947 174.035)" fill="#0F172A"/>
<path d="M226.153 210.448C225.632 211.665 225.48 212.886 225.641 213.869C225.803 214.858 226.267 215.557 226.93 215.841C227.593 216.125 228.419 215.979 229.246 215.414C230.069 214.852 230.849 213.9 231.37 212.684C231.892 211.468 232.043 210.247 231.882 209.263C231.72 208.275 231.256 207.576 230.593 207.292C229.93 207.007 229.104 207.154 228.277 207.718C227.454 208.28 226.674 209.232 226.153 210.448Z" fill="white" stroke="black" stroke-width="0.675951"/>
<mask id="path-47-inside-2_2454_1884" fill="white">
<path d="M0.25 445.452H497.75V474.18H0.25V445.452Z"/>
</mask>
<path d="M0.25 445.452H497.75V474.18H0.25V445.452Z" fill="white"/>
<path d="M0.25 445.79H497.75V445.114H0.25V445.79Z" fill="black" mask="url(#path-47-inside-2_2454_1884)"/>
<rect x="106.374" y="222.05" width="144.992" height="152.089" rx="5.40761" fill="#CB9D1D"/>
<g filter="url(#filter2_d_2454_1884)">
<rect x="131.047" y="270.718" width="95.9851" height="37.1773" rx="2.02785" fill="white"/>
<line x1="150.649" y1="293.602" x2="219.934" y2="293.602" stroke="black" stroke-width="2.7038"/>
<line x1="150.649" y1="298.671" x2="197.29" y2="298.671" stroke="#A6A6A6" stroke-width="2.02785"/>
<circle cx="142.876" cy="295.967" r="4.73166" fill="#D9D9D9"/>
<path d="M160.297 278.805C160.399 278.494 160.839 278.494 160.94 278.805L161.405 280.234C161.45 280.373 161.58 280.467 161.726 280.467H163.228C163.556 280.467 163.692 280.886 163.427 281.079L162.211 281.962C162.093 282.048 162.043 282.2 162.089 282.34L162.553 283.768C162.654 284.08 162.298 284.339 162.033 284.146L160.818 283.263C160.699 283.177 160.539 283.177 160.42 283.263L159.205 284.146C158.94 284.339 158.584 284.08 158.685 283.768L159.149 282.34C159.194 282.2 159.145 282.048 159.026 281.962L157.811 281.079C157.546 280.886 157.682 280.467 158.01 280.467H159.512C159.658 280.467 159.788 280.373 159.833 280.234L160.297 278.805Z" fill="#D9D9D9"/>
<path d="M151.06 278.831C151.135 278.598 151.466 278.598 151.542 278.831L152.006 280.26C152.062 280.434 152.225 280.552 152.408 280.552H153.91C154.155 280.552 154.258 280.866 154.059 281.01L152.844 281.893C152.696 282.001 152.634 282.192 152.69 282.366L153.154 283.794C153.23 284.028 152.963 284.222 152.764 284.078L151.549 283.195C151.401 283.087 151.2 283.087 151.052 283.195L149.837 284.078C149.638 284.222 149.371 284.028 149.447 283.794L149.911 282.366C149.968 282.192 149.906 282.001 149.758 281.893L148.542 281.01C148.344 280.866 148.446 280.552 148.691 280.552H150.194C150.377 280.552 150.539 280.434 150.595 280.26L151.06 278.831Z" stroke="#D9D9D9" stroke-width="0.168988"/>
<path d="M141.74 278.831C141.816 278.598 142.146 278.598 142.222 278.831L142.687 280.26C142.743 280.434 142.905 280.552 143.088 280.552H144.591C144.836 280.552 144.938 280.866 144.74 281.01L143.524 281.893C143.376 282.001 143.314 282.192 143.371 282.366L143.835 283.794C143.911 284.028 143.644 284.222 143.445 284.078L142.23 283.195C142.082 283.087 141.881 283.087 141.733 283.195L140.518 284.078C140.319 284.222 140.052 284.028 140.128 283.794L140.592 282.366C140.648 282.192 140.586 282.001 140.438 281.893L139.223 281.01C139.024 280.866 139.126 280.552 139.372 280.552H140.874C141.057 280.552 141.219 280.434 141.276 280.26L141.74 278.831Z" stroke="#D9D9D9" stroke-width="0.168988"/>
<path d="M169.617 278.805C169.718 278.494 170.158 278.494 170.26 278.805L170.724 280.234C170.769 280.373 170.899 280.467 171.045 280.467H172.547C172.875 280.467 173.011 280.886 172.746 281.079L171.531 281.962C171.412 282.048 171.363 282.2 171.408 282.34L171.872 283.768C171.973 284.08 171.617 284.339 171.352 284.146L170.137 283.263C170.018 283.177 169.858 283.177 169.74 283.263L168.524 284.146C168.259 284.339 167.903 284.08 168.004 283.768L168.468 282.34C168.514 282.2 168.464 282.048 168.346 281.962L167.13 281.079C166.865 280.886 167.002 280.467 167.329 280.467H168.831C168.978 280.467 169.107 280.373 169.153 280.234L169.617 278.805Z" fill="#D9D9D9"/>
<path d="M178.936 278.805C179.037 278.494 179.478 278.494 179.579 278.805L180.043 280.234C180.088 280.373 180.218 280.467 180.365 280.467H181.867C182.194 280.467 182.33 280.886 182.065 281.079L180.85 281.962C180.732 282.048 180.682 282.2 180.727 282.34L181.192 283.768C181.293 284.08 180.936 284.339 180.672 284.146L179.456 283.263C179.338 283.177 179.177 283.177 179.059 283.263L177.844 284.146C177.579 284.339 177.222 284.08 177.323 283.768L177.788 282.34C177.833 282.2 177.783 282.048 177.665 281.962L176.45 281.079C176.185 280.886 176.321 280.467 176.648 280.467H178.15C178.297 280.467 178.427 280.373 178.472 280.234L178.936 278.805Z" fill="#D9D9D9"/>
</g>
<path d="M154.673 243.031H154.705C155.261 243.052 155.539 243.13 155.539 243.264V243.475C155.49 243.58 155.402 243.654 155.275 243.697L154.81 243.665H154.578V243.697C154.677 249.351 154.832 252.178 155.043 252.178L156.173 252.019C156.328 252.09 156.405 252.188 156.405 252.315V252.347C156.405 252.572 155.972 252.72 155.106 252.79C154.529 252.896 154.085 252.949 153.775 252.949C153.621 252.885 153.543 252.783 153.543 252.642C153.543 252.403 153.807 252.283 154.335 252.283V252.241C154.159 251.093 154.029 248.256 153.944 243.728H153.902L152.941 243.897C152.765 243.82 152.677 243.7 152.677 243.538C152.677 243.334 153.121 243.19 154.008 243.105C154.008 243.07 154.23 243.045 154.673 243.031ZM158.011 243.2C158.201 243.2 158.345 243.697 158.444 244.689C158.958 247.64 159.489 249.868 160.039 251.375H160.102C160.306 248.397 160.408 246.048 160.408 244.33V244.225C160.408 243.999 160.387 243.887 160.345 243.887C160.415 243.647 160.538 243.528 160.714 243.528C160.933 243.528 161.042 243.746 161.042 244.182V244.425C160.901 250.143 160.7 253.002 160.44 253.002L160.271 253.075C160.074 253.075 159.863 252.72 159.637 252.009C159.264 251.15 158.856 249.717 158.412 247.71C158.292 247.027 158.204 246.686 158.148 246.686V246.749L158.18 249.115C158.18 250.96 158.18 252.118 158.18 252.59V253.118C158.18 253.294 158.078 253.382 157.873 253.382C157.648 253.382 157.535 253.209 157.535 252.864V252.526C157.535 252.153 157.539 251.041 157.546 249.189L157.514 246.485C157.514 244.309 157.613 243.221 157.81 243.221L158.011 243.2ZM168.477 242.926C169.167 242.926 169.692 243.355 170.051 244.214L170.114 244.616C170.114 245.418 169.66 246.471 168.752 247.773C168.449 248.069 168.171 248.259 167.918 248.344L167.949 248.64L168.013 252.769C168.013 252.931 167.904 253.03 167.685 253.065C167.488 253.065 167.389 252.931 167.389 252.664C167.389 249.587 167.323 248.048 167.189 248.048C167.013 247.802 166.925 247.615 166.925 247.488C166.925 247.347 167.034 247.256 167.252 247.214L167.147 243.961C167.147 243.426 167.263 243.158 167.495 243.158L167.685 243.19C167.953 243.014 168.217 242.926 168.477 242.926ZM167.823 243.918L167.896 247.383L167.918 247.615C168.382 247.432 168.836 246.731 169.28 245.513C169.421 245.182 169.491 244.851 169.491 244.52C169.294 243.88 168.984 243.559 168.562 243.559H168.414C168.189 243.559 167.992 243.679 167.823 243.918ZM172.818 242.809C173.452 242.866 173.832 243.443 173.959 244.542V244.985C173.874 245.865 173.431 246.749 172.628 247.636C172.783 247.967 173.103 249.03 173.589 250.826L174.476 252.854C174.385 253.044 174.265 253.128 174.117 253.107C173.927 253.1 173.631 252.554 173.23 251.47C172.956 250.928 172.653 249.928 172.322 248.471C172.237 248.217 172.17 248.087 172.121 248.08L171.414 248.449C171.428 249.991 171.491 251.445 171.604 252.811C171.59 252.924 171.502 253.026 171.34 253.118L171.234 253.107C171.037 253.093 170.938 252.875 170.938 252.452C170.748 248.601 170.723 245.901 170.864 244.351C170.723 244.225 170.66 244.098 170.674 243.971C170.681 243.922 170.759 243.827 170.907 243.686C170.928 243.397 171.051 243.267 171.276 243.295L171.435 243.369C172.026 242.961 172.487 242.774 172.818 242.809ZM171.498 244.109C171.421 245.651 171.396 246.851 171.424 247.71L171.519 247.721C172.209 247.397 172.783 246.636 173.241 245.439L173.315 244.985L173.325 244.89C173.389 244.249 173.244 243.767 172.892 243.443L172.723 243.433C172.484 243.411 172.075 243.637 171.498 244.109ZM176.378 243.929C177.321 243.929 178.081 245.249 178.659 247.89C178.736 248.439 178.789 249.002 178.817 249.58C178.817 251.291 178.363 252.445 177.455 253.044C177.096 253.178 176.818 253.244 176.62 253.244C175.874 253.244 175.378 252.646 175.131 251.449C175.012 250.991 174.952 250.46 174.952 249.854V249.685C174.952 248.045 175.233 246.295 175.797 244.436V244.33L175.754 244.299C175.832 244.052 176.04 243.929 176.378 243.929ZM176.42 244.552C175.864 246.172 175.585 247.883 175.585 249.685V249.78C175.585 251.336 175.842 252.255 176.356 252.537L176.62 252.611H176.726C177.346 252.611 177.786 252.055 178.046 250.942C178.117 250.66 178.152 250.333 178.152 249.96V249.347C178.152 247.643 177.708 246.126 176.821 244.795C176.652 244.633 176.518 244.552 176.42 244.552ZM181.489 242.852C181.687 242.929 181.785 243.042 181.785 243.19C181.785 243.352 181.584 243.485 181.183 243.591C180.493 244.091 180.148 245.309 180.148 247.245C180.148 249.576 180.56 251.241 181.384 252.241C181.574 252.396 181.715 252.473 181.806 252.473C182.299 252.473 182.602 251.738 182.715 250.266L182.757 249.801C182.736 249.47 182.697 249.305 182.641 249.305C182.394 249.404 182.021 249.608 181.521 249.918L181.32 249.949C181.201 249.949 181.099 249.847 181.014 249.643C181.014 249.474 181.257 249.284 181.743 249.073C182.158 248.805 182.472 248.671 182.683 248.671C183.084 248.671 183.317 248.985 183.38 249.611V249.675C183.38 251.477 182.989 252.597 182.208 253.033C181.996 253.047 181.891 253.068 181.891 253.097C180.87 253.097 180.134 251.878 179.683 249.442C179.578 248.71 179.525 248.03 179.525 247.404V247.182C179.525 245.056 179.976 243.679 180.877 243.052C181.187 242.919 181.391 242.852 181.489 242.852ZM186.274 242.809C186.908 242.866 187.288 243.443 187.415 244.542V244.985C187.33 245.865 186.886 246.749 186.084 247.636C186.239 247.967 186.559 249.03 187.045 250.826L187.932 252.854C187.841 253.044 187.721 253.128 187.573 253.107C187.383 253.1 187.087 252.554 186.686 251.47C186.411 250.928 186.108 249.928 185.777 248.471C185.693 248.217 185.626 248.087 185.577 248.08L184.869 248.449C184.883 249.991 184.947 251.445 185.059 252.811C185.045 252.924 184.957 253.026 184.795 253.118L184.69 253.107C184.492 253.093 184.394 252.875 184.394 252.452C184.204 248.601 184.179 245.901 184.32 244.351C184.179 244.225 184.116 244.098 184.13 243.971C184.137 243.922 184.214 243.827 184.362 243.686C184.383 243.397 184.507 243.267 184.732 243.295L184.89 243.369C185.482 242.961 185.943 242.774 186.274 242.809ZM184.954 244.109C184.876 245.651 184.852 246.851 184.88 247.71L184.975 247.721C185.665 247.397 186.239 246.636 186.696 245.439L186.77 244.985L186.781 244.89C186.844 244.249 186.7 243.767 186.348 243.443L186.179 243.433C185.939 243.411 185.531 243.637 184.954 244.109ZM189.02 242.831C189.196 242.831 189.298 242.964 189.326 243.232H189.295L189.326 243.338C189.566 243.338 190.231 243.264 191.322 243.116C191.498 243.179 191.586 243.288 191.586 243.443C191.586 243.668 191.111 243.813 190.161 243.876L189.231 244.003V244.468C189.231 244.799 189.365 246.14 189.633 248.492H190.984C191.167 248.492 191.28 248.594 191.322 248.798C191.322 249.016 191.157 249.125 190.826 249.125H189.633V249.168L189.601 251.354C189.601 251.875 189.654 252.255 189.759 252.495L191.85 252.357C192.076 252.385 192.188 252.484 192.188 252.653C192.188 252.878 191.942 252.991 191.449 252.991C190.182 253.061 189.548 253.128 189.548 253.192C189.295 253.192 189.119 252.804 189.02 252.03L188.967 251.227L188.988 248.83L188.597 244.468V244.14C188.597 243.267 188.728 242.831 188.988 242.831H189.02ZM194.692 243.116C195.396 243.116 195.896 243.538 196.191 244.383C196.234 244.468 196.255 244.591 196.255 244.753C196.255 244.929 196.146 245.027 195.927 245.049C195.737 245.049 195.617 244.816 195.568 244.351C195.329 243.95 195.061 243.749 194.766 243.749H194.618C194.188 243.749 193.935 244.172 193.857 245.017V245.049C193.857 246.062 194.501 247.594 195.79 249.643C196.191 250.424 196.392 251.079 196.392 251.607C196.392 252.326 196.026 252.882 195.294 253.276L194.924 253.34C194.276 253.34 193.657 252.896 193.065 252.009C192.952 251.812 192.896 251.6 192.896 251.375C192.896 251.016 193.019 250.815 193.266 250.773H193.361C193.516 250.879 193.593 250.977 193.593 251.069L193.53 251.375V251.396C193.53 251.854 193.906 252.276 194.66 252.664L194.861 252.706H194.956C195.322 252.706 195.589 252.392 195.758 251.766V251.639C195.758 250.886 195.269 249.777 194.29 248.312C193.586 246.925 193.234 245.837 193.234 245.049C193.234 244.161 193.576 243.542 194.259 243.19L194.692 243.116ZM198.874 243.116C199.578 243.116 200.078 243.538 200.374 244.383C200.416 244.468 200.437 244.591 200.437 244.753C200.437 244.929 200.328 245.027 200.11 245.049C199.92 245.049 199.8 244.816 199.751 244.351C199.511 243.95 199.244 243.749 198.948 243.749H198.8C198.371 243.749 198.117 244.172 198.04 245.017V245.049C198.04 246.062 198.684 247.594 199.972 249.643C200.374 250.424 200.574 251.079 200.574 251.607C200.574 252.326 200.208 252.882 199.476 253.276L199.106 253.34C198.459 253.34 197.839 252.896 197.248 252.009C197.135 251.812 197.079 251.6 197.079 251.375C197.079 251.016 197.202 250.815 197.448 250.773H197.543C197.698 250.879 197.776 250.977 197.776 251.069L197.712 251.375V251.396C197.712 251.854 198.089 252.276 198.842 252.664L199.043 252.706H199.138C199.504 252.706 199.772 252.392 199.941 251.766V251.639C199.941 250.886 199.451 249.777 198.473 248.312C197.769 246.925 197.417 245.837 197.417 245.049C197.417 244.161 197.758 243.542 198.441 243.19L198.874 243.116Z" fill="#191A15"/>
<path d="M270.878 223.734C291.885 237.905 299.337 223.635 300.1 215.601L322 224.062C311.679 248.89 289.331 252.445 279.785 250.247C258.583 245.266 233.871 224.24 224.166 214.351L231.346 191.044C235.77 196.036 249.871 209.563 270.878 223.734Z" fill="white" stroke="#0F172A" stroke-width="0.675951"/>
<path d="M330.71 212.376C333.909 204.096 329.79 194.79 321.51 191.591C314.102 188.729 305.776 192.414 302.914 199.823L296.263 217.037L324.67 228.011L330.71 212.376Z" fill="#0F172A"/>
<rect x="184.67" y="170.003" width="95.9851" height="37.1773" rx="2.02785" transform="rotate(2.42844 184.67 170.003)" fill="#EDEDED"/>
<line x1="203.285" y1="193.697" x2="272.508" y2="196.633" stroke="black" stroke-width="2.7038"/>
<line x1="203.07" y1="198.762" x2="249.669" y2="200.738" stroke="#064D47" stroke-width="2.02785"/>
<circle cx="195.418" cy="195.731" r="4.73166" transform="rotate(2.42844 195.418 195.731)" fill="#064D47"/>
<path d="M213.552 179.322C213.666 179.016 214.106 179.034 214.194 179.35L214.597 180.797C214.637 180.938 214.762 181.037 214.908 181.044L216.409 181.107C216.736 181.121 216.855 181.546 216.582 181.727L215.33 182.557C215.208 182.638 215.152 182.789 215.192 182.93L215.595 184.377C215.683 184.692 215.316 184.936 215.059 184.732L213.882 183.798C213.768 183.707 213.607 183.701 213.485 183.782L212.234 184.612C211.961 184.793 211.616 184.52 211.73 184.213L212.255 182.805C212.306 182.668 212.263 182.513 212.148 182.422L210.971 181.489C210.715 181.285 210.868 180.872 211.195 180.886L212.696 180.95C212.843 180.956 212.976 180.867 213.027 180.73L213.552 179.322Z" fill="#064D47"/>
<path d="M204.321 178.957C204.407 178.727 204.737 178.741 204.803 178.978L205.206 180.425C205.255 180.601 205.412 180.726 205.595 180.734L207.096 180.797C207.341 180.808 207.43 181.126 207.225 181.262L205.974 182.092C205.821 182.194 205.751 182.381 205.8 182.558L206.204 184.005C206.27 184.241 205.994 184.424 205.802 184.271L204.625 183.338C204.482 183.224 204.281 183.215 204.129 183.317L202.877 184.147C202.673 184.283 202.414 184.078 202.5 183.848L203.024 182.44C203.088 182.268 203.034 182.075 202.891 181.962L201.714 181.028C201.521 180.875 201.637 180.566 201.882 180.576L203.383 180.64C203.566 180.647 203.733 180.537 203.797 180.365L204.321 178.957Z" stroke="#064D47" stroke-width="0.168988"/>
<path d="M195.01 178.562C195.096 178.332 195.426 178.346 195.492 178.583L195.895 180.03C195.944 180.206 196.101 180.331 196.284 180.339L197.785 180.402C198.03 180.413 198.119 180.731 197.914 180.867L196.663 181.697C196.51 181.799 196.44 181.986 196.489 182.163L196.893 183.61C196.959 183.846 196.683 184.029 196.491 183.876L195.314 182.943C195.171 182.829 194.971 182.82 194.818 182.922L193.566 183.752C193.362 183.888 193.103 183.683 193.189 183.453L193.713 182.045C193.777 181.873 193.723 181.68 193.58 181.567L192.403 180.633C192.211 180.48 192.326 180.171 192.571 180.181L194.072 180.245C194.255 180.252 194.422 180.142 194.486 179.97L195.01 178.562Z" stroke="#064D47" stroke-width="0.168988"/>
<path d="M222.863 179.717C222.977 179.411 223.417 179.429 223.505 179.745L223.908 181.192C223.948 181.333 224.073 181.432 224.22 181.439L225.72 181.502C226.048 181.516 226.166 181.941 225.893 182.122L224.641 182.952C224.519 183.033 224.463 183.184 224.503 183.325L224.906 184.772C224.994 185.087 224.627 185.331 224.37 185.127L223.194 184.193C223.079 184.102 222.919 184.096 222.797 184.177L221.545 185.007C221.272 185.188 220.927 184.915 221.041 184.608L221.566 183.2C221.617 183.063 221.574 182.908 221.459 182.817L220.282 181.884C220.026 181.68 220.18 181.267 220.507 181.281L222.007 181.345C222.154 181.351 222.287 181.262 222.339 181.125L222.863 179.717Z" fill="#064D47"/>
<path d="M232.174 180.112C232.288 179.806 232.728 179.824 232.816 180.14L233.219 181.587C233.259 181.728 233.384 181.827 233.531 181.834L235.031 181.897C235.359 181.911 235.477 182.336 235.204 182.517L233.952 183.347C233.83 183.428 233.774 183.579 233.814 183.72L234.217 185.167C234.305 185.482 233.938 185.726 233.681 185.522L232.504 184.589C232.39 184.498 232.23 184.491 232.108 184.572L230.856 185.402C230.583 185.583 230.238 185.31 230.352 185.003L230.877 183.595C230.928 183.458 230.885 183.303 230.77 183.212L229.593 182.279C229.337 182.075 229.49 181.662 229.818 181.676L231.318 181.74C231.465 181.746 231.598 181.657 231.649 181.52L232.174 180.112Z" fill="#064D47"/>
<path d="M215.666 208.656C216.873 207.447 217.647 206.057 217.934 204.8C218.223 203.537 218.013 202.463 217.344 201.795C216.675 201.126 215.6 200.919 214.338 201.21C213.081 201.5 211.692 202.276 210.485 203.485C209.278 204.694 208.505 206.085 208.217 207.342C207.929 208.604 208.138 209.679 208.807 210.347C209.477 211.015 210.552 211.222 211.814 210.931C213.07 210.642 214.459 209.866 215.666 208.656Z" fill="white" stroke="black" stroke-width="0.675951"/>
<path d="M220.827 210.268C221.875 209.197 222.553 207.984 222.813 206.902C223.074 205.813 222.903 204.922 222.36 204.391C221.817 203.86 220.922 203.708 219.839 203.994C218.764 204.278 217.566 204.983 216.518 206.054C215.47 207.126 214.793 208.339 214.533 209.42C214.271 210.509 214.443 211.401 214.986 211.932C215.529 212.463 216.424 212.614 217.507 212.328C218.582 212.044 219.779 211.34 220.827 210.268Z" fill="white" stroke="black" stroke-width="0.675951"/>
<path d="M220.373 209.514C219.852 210.73 219.701 211.952 219.861 212.935C220.023 213.923 220.487 214.623 221.15 214.907C221.813 215.191 222.639 215.044 223.466 214.48C224.289 213.918 225.069 212.966 225.591 211.75C226.112 210.534 226.263 209.313 226.102 208.329C225.94 207.341 225.477 206.642 224.813 206.357C224.15 206.073 223.324 206.22 222.497 206.784C221.674 207.346 220.894 208.298 220.373 209.514Z" fill="white" stroke="black" stroke-width="0.675951"/>
<path d="M385.84 208.014C385.84 199.137 378.645 191.941 369.768 191.941C361.826 191.941 355.388 198.38 355.388 206.322V224.776H385.84V208.014Z" fill="#0F172A"/>
<path d="M358.45 222.053C360.634 229.822 358.825 245.82 334.122 240.172C309.42 234.523 291.392 226.987 285.466 223.924C284.864 223.636 283.861 223.319 283.049 223.374C280.751 223.527 283.183 226.737 285.213 227.826L291.42 231.155C290.12 231.155 288.934 231.899 288.369 233.07L283.795 242.54C282.659 244.892 281.798 247.771 283.459 249.788C284.999 251.659 287.967 252.772 293.122 250.769C307.804 256.596 333.294 264.287 351.985 261.693C361.683 260.303 381.247 248.933 381.928 222.053H358.45Z" fill="white" stroke="#0F172A" stroke-width="0.675951"/>
<defs>
<filter id="filter0_d_2454_1884" x="181.27" y="121.874" width="107.071" height="48.2628" filterUnits="userSpaceOnUse" color-interpolation-filters="sRGB">
<feFlood flood-opacity="0" result="BackgroundImageFix"/>
<feColorMatrix in="SourceAlpha" type="matrix" values="0 0 0 0 0 0 0 0 0 0 0 0 0 0 0 0 0 0 127 0" result="hardAlpha"/>
<feOffset dy="1.3519"/>
<feGaussianBlur stdDeviation="2.7714"/>
<feComposite in2="hardAlpha" operator="out"/>
<feColorMatrix type="matrix" values="0 0 0 0 0 0 0 0 0 0 0 0 0 0 0 0 0 0 0.25 0"/>
<feBlend mode="normal" in2="BackgroundImageFix" result="effect1_dropShadow_2454_1884"/>
<feBlend mode="normal" in="SourceGraphic" in2="effect1_dropShadow_2454_1884" result="shape"/>
</filter>
<filter id="filter1_d_2454_1884" x="54.6979" y="169.359" width="103.353" height="44.5451" filterUnits="userSpaceOnUse" color-interpolation-filters="sRGB">
<feFlood flood-opacity="0" result="BackgroundImageFix"/>
<feColorMatrix in="SourceAlpha" type="matrix" values="0 0 0 0 0 0 0 0 0 0 0 0 0 0 0 0 0 0 127 0" result="hardAlpha"/>
<feOffset dy="1.3519"/>
<feGaussianBlur stdDeviation="1.84197"/>
<feComposite in2="hardAlpha" operator="out"/>
<feColorMatrix type="matrix" values="0 0 0 0 0 0 0 0 0 0 0 0 0 0 0 0 0 0 0.25 0"/>
<feBlend mode="normal" in2="BackgroundImageFix" result="effect1_dropShadow_2454_1884"/>
<feBlend mode="normal" in="SourceGraphic" in2="effect1_dropShadow_2454_1884" result="shape"/>
</filter>
<filter id="filter2_d_2454_1884" x="127.363" y="268.386" width="103.353" height="44.5451" filterUnits="userSpaceOnUse" color-interpolation-filters="sRGB">
<feFlood flood-opacity="0" result="BackgroundImageFix"/>
<feColorMatrix in="SourceAlpha" type="matrix" values="0 0 0 0 0 0 0 0 0 0 0 0 0 0 0 0 0 0 127 0" result="hardAlpha"/>
<feOffset dy="1.3519"/>
<feGaussianBlur stdDeviation="1.84197"/>
<feComposite in2="hardAlpha" operator="out"/>
<feColorMatrix type="matrix" values="0 0 0 0 0 0 0 0 0 0 0 0 0 0 0 0 0 0 0.25 0"/>
<feBlend mode="normal" in2="BackgroundImageFix" result="effect1_dropShadow_2454_1884"/>
<feBlend mode="normal" in="SourceGraphic" in2="effect1_dropShadow_2454_1884" result="shape"/>
</filter>
</defs>
</svg>
