<svg width="1167" height="777" viewBox="0 0 1167 777" fill="none" xmlns="http://www.w3.org/2000/svg">
<mask id="mask0_2454_883" style="mask-type:alpha" maskUnits="userSpaceOnUse" x="0" y="0" width="1167" height="777">
<rect width="1167" height="777" rx="32" fill="white"/>
</mask>
<g mask="url(#mask0_2454_883)">
<rect x="-77.9998" y="-243" width="1335" height="1127" rx="32" fill="#2D2D2D"/>
<g opacity="0.5">
<path d="M303.106 -122.952C342.144 -0.305886 495.449 143.824 750.652 38.0007" stroke="url(#paint0_linear_2454_883)" stroke-width="130.846"/>
<path d="M766.381 30.1705C875.734 -23.3842 1120.44 -62.2261 1224.44 210.843" stroke="url(#paint1_linear_2454_883)" stroke-opacity="0.99" stroke-width="130.846"/>
</g>
<path d="M780.877 776.006C866.635 732.787 1057.34 694.28 1134.09 886" stroke="url(#paint2_linear_2454_883)" stroke-width="130.846"/>
<path d="M761.975 784.416C644.672 844.717 429.165 837.55 321.553 575.687" stroke="url(#paint3_linear_2454_883)" stroke-width="130.846"/>
<path d="M315.871 558.604C275.723 440.462 127.046 234.642 -146.475 356.493" stroke="url(#paint4_linear_2454_883)" stroke-opacity="0.99" stroke-width="130.846"/>
</g>
<defs>
<linearGradient id="paint0_linear_2454_883" x1="763.191" y1="98.8062" x2="431.355" y2="-35.046" gradientUnits="userSpaceOnUse">
<stop stop-color="#2D2D2D"/>
<stop offset="1" stop-color="#A6A6A6"/>
</linearGradient>
<linearGradient id="paint1_linear_2454_883" x1="1231.54" y1="239.209" x2="898.862" y2="107.874" gradientUnits="userSpaceOnUse">
<stop stop-color="#2D2D2D"/>
<stop offset="1" stop-color="#A6A6A6"/>
</linearGradient>
<linearGradient id="paint2_linear_2454_883" x1="1139.18" y1="906.076" x2="894.459" y2="799.101" gradientUnits="userSpaceOnUse">
<stop stop-color="#064D47"/>
<stop offset="1" stop-color="#54BD95"/>
</linearGradient>
<linearGradient id="paint3_linear_2454_883" x1="268.323" y1="610.534" x2="605.418" y2="754.806" gradientUnits="userSpaceOnUse">
<stop stop-color="#064D47"/>
<stop offset="1" stop-color="#54BD95"/>
</linearGradient>
<linearGradient id="paint4_linear_2454_883" x1="-172.212" y1="371.84" x2="163.665" y2="518.545" gradientUnits="userSpaceOnUse">
<stop stop-color="#064D47"/>
<stop offset="1" stop-color="#54BD95"/>
</linearGradient>
</defs>
</svg>
