<svg width="1280" height="1245" viewBox="0 0 1280 1245" fill="none" xmlns="http://www.w3.org/2000/svg">
<g clip-path="url(#clip0_2381_1494)">
<rect width="1280" height="1245" fill="#FCFCFC"/>
<path d="M1283.5 -7.5H2L1 998.5C125.4 1060.5 262.5 1059.67 317.5 1053C481.9 1026.2 629.333 912.833 679.5 858C777.5 728.5 895.5 693.728 941 682C1108.6 638.8 1257 750 1277.5 778L1283.5 -7.5Z" fill="#2D2D2D" stroke="black"/>
<g filter="url(#filter0_f_2381_1494)">
<circle cy="-841" r="317" fill="#4DC66B" fill-opacity="0.5"/>
</g>
<g filter="url(#filter1_f_2381_1494)">
<circle cx="898" cy="-925" r="317" fill="#FFD6D6"/>
</g>
<path d="M-87.2173 829.295C36.5734 977.002 330.866 1089.52 624.235 797.865" stroke="url(#paint0_linear_2381_1494)" stroke-width="162"/>
<path d="M641.573 778.078C762.615 641.733 1079.52 448.833 1378.8 767.989" stroke="url(#paint1_linear_2381_1494)" stroke-width="162"/>
</g>
<defs>
<filter id="filter0_f_2381_1494" x="-1317" y="-2158" width="2634" height="2634" filterUnits="userSpaceOnUse" color-interpolation-filters="sRGB">
<feFlood flood-opacity="0" result="BackgroundImageFix"/>
<feBlend mode="normal" in="SourceGraphic" in2="BackgroundImageFix" result="shape"/>
<feGaussianBlur stdDeviation="500" result="effect1_foregroundBlur_2381_1494"/>
</filter>
<filter id="filter1_f_2381_1494" x="-419" y="-2242" width="2634" height="2634" filterUnits="userSpaceOnUse" color-interpolation-filters="sRGB">
<feFlood flood-opacity="0" result="BackgroundImageFix"/>
<feBlend mode="normal" in="SourceGraphic" in2="BackgroundImageFix" result="shape"/>
<feGaussianBlur stdDeviation="500" result="effect1_foregroundBlur_2381_1494"/>
</filter>
<linearGradient id="paint0_linear_2381_1494" x1="676.168" y1="874.968" x2="140.407" y2="878.169" gradientUnits="userSpaceOnUse">
<stop stop-color="#064D47"/>
<stop offset="1" stop-color="#54BD95"/>
</linearGradient>
<linearGradient id="paint1_linear_2381_1494" x1="1404.76" y1="803.247" x2="869.261" y2="810.414" gradientUnits="userSpaceOnUse">
<stop stop-color="#064D47"/>
<stop offset="1" stop-color="#54BD95"/>
</linearGradient>
<clipPath id="clip0_2381_1494">
<rect width="1280" height="1245" fill="white"/>
</clipPath>
</defs>
</svg>
