<svg width="326" height="326" viewBox="0 0 326 326" fill="none" xmlns="http://www.w3.org/2000/svg">
<mask id="mask0_2266_725" style="mask-type:alpha" maskUnits="userSpaceOnUse" x="0" y="0" width="326" height="326">
<circle cx="163" cy="163" r="163" fill="#D9D9D9"/>
</mask>
<g mask="url(#mask0_2266_725)">
<circle cx="163" cy="163" r="163" fill="#A6A6A6"/>
<path d="M207.353 181.119C172.489 193.607 167.084 170.708 168.903 159.055L134.834 163.134C140.492 202.021 170.858 215.121 185.171 215.452C216.995 216.049 259.579 195.191 276.894 184.687L275.135 149.089C267.068 154.562 242.217 168.631 207.353 181.119Z" fill="white" stroke="#0F172A" stroke-width="0.987879"/>
<path d="M126.717 143.44C125.174 130.56 134.366 118.868 147.247 117.325C158.771 115.945 169.233 124.169 170.613 135.694L173.819 162.473L129.629 167.764L126.717 143.44Z" fill="#0F172A"/>
<path d="M280.483 129.278C282.325 126.24 286.226 125.18 289.353 126.867L307.53 136.678C310.665 138.37 311.916 142.228 310.372 145.438L286.402 195.253C284.752 198.681 280.574 200.037 277.226 198.23L254.356 185.886C251 184.074 249.844 179.822 251.821 176.561L280.483 129.278Z" fill="#A6A6A6" stroke="black" stroke-width="0.493939"/>
<path d="M283.948 132.94C285.051 131.167 287.342 130.558 289.179 131.549L303.732 139.4C305.568 140.391 306.318 142.638 305.444 144.533L285.246 188.33C284.291 190.401 281.787 191.236 279.781 190.153L259.955 179.452C257.951 178.37 257.274 175.822 258.477 173.887L283.948 132.94Z" fill="#DBE5FA"/>
<rect width="19.7737" height="7.48594" transform="matrix(0.884846 0.465883 -0.523945 0.851752 271.657 162.853)" fill="#9DB1E0"/>
<rect width="19.7737" height="7.48594" transform="matrix(0.884846 0.465883 -0.523945 0.851752 267.521 169.955)" fill="#9DB1E0"/>
<circle cx="268.061" cy="188.344" r="2.22273" transform="rotate(28.3578 268.061 188.344)" fill="#D9D9D9"/>
<path d="M270.841 151.658C271.145 153.489 270.902 155.21 270.289 156.509C269.675 157.81 268.716 158.643 267.594 158.829C266.472 159.016 265.296 158.537 264.294 157.504C263.294 156.473 262.508 154.922 262.204 153.092C261.901 151.262 262.143 149.541 262.757 148.242C263.371 146.941 264.329 146.107 265.451 145.921C266.573 145.735 267.75 146.214 268.751 147.247C269.751 148.278 270.537 149.828 270.841 151.658Z" fill="white" stroke="black" stroke-width="0.987879"/>
<path d="M303.726 166.81C301.304 166.203 299.289 165.043 297.983 163.684C296.672 162.319 296.126 160.816 296.462 159.475C296.798 158.134 297.989 157.066 299.789 156.481C301.582 155.899 303.906 155.826 306.328 156.434C308.749 157.041 310.765 158.201 312.07 159.56C313.382 160.925 313.928 162.428 313.592 163.769C313.256 165.11 312.065 166.178 310.265 166.763C308.472 167.345 306.148 167.418 303.726 166.81Z" fill="white" stroke="black" stroke-width="0.987879"/>
<path d="M298.474 172.713C296.354 172.159 294.593 171.148 293.454 169.989C292.307 168.821 291.851 167.575 292.132 166.502C292.413 165.428 293.42 164.565 294.992 164.108C296.553 163.655 298.583 163.637 300.703 164.192C302.822 164.746 304.584 165.756 305.722 166.915C306.87 168.083 307.325 169.329 307.044 170.403C306.763 171.477 305.756 172.34 304.184 172.796C302.623 173.249 300.593 173.268 298.474 172.713Z" fill="white" stroke="black" stroke-width="0.987879"/>
<path d="M291.935 176.943C293.503 178.075 294.611 179.492 295.149 180.845C295.69 182.205 295.635 183.43 295.017 184.285C294.4 185.14 293.255 185.578 291.794 185.492C290.34 185.407 288.647 184.802 287.079 183.67C285.511 182.538 284.403 181.121 283.865 179.768C283.324 178.408 283.379 177.183 283.996 176.328C284.613 175.473 285.758 175.036 287.219 175.121C288.674 175.206 290.367 175.811 291.935 176.943Z" fill="white" stroke="black" stroke-width="0.987879"/>
<path d="M298.474 171.425C300.042 172.557 301.15 173.973 301.688 175.327C302.229 176.686 302.174 177.911 301.557 178.766C300.939 179.621 299.794 180.059 298.333 179.974C296.879 179.889 295.186 179.283 293.618 178.151C292.05 177.019 290.942 175.603 290.404 174.249C289.863 172.89 289.918 171.665 290.535 170.81C291.153 169.955 292.298 169.517 293.759 169.602C295.213 169.687 296.906 170.293 298.474 171.425Z" fill="white" stroke="black" stroke-width="0.987879"/>
<line x1="282.904" y1="144.65" x2="296.893" y2="151.771" stroke="black" stroke-width="2.4697"/>
<line x1="280.662" y1="149.051" x2="294.651" y2="156.172" stroke="black" stroke-width="2.4697"/>
<path d="M84.3957 216.364C61.1484 312.088 8.04737 322.181 -39.3708 286.617V349.1C33.4852 374.538 88.6225 338.941 124.674 241.725L84.3957 216.364Z" fill="white" stroke="black" stroke-width="0.987879"/>
<path d="M-39.1239 312.055C33.4852 331.813 78.5315 317.309 99.0653 229.293M-39.1239 332.059C41.6352 370.34 114.829 300.004 102.298 229.293" stroke="#A6A6A6" stroke-width="0.987879"/>
<path fill-rule="evenodd" clip-rule="evenodd" d="M149.928 233.776C154.422 229.242 157.978 223.868 160.394 217.959L115.403 199.56L70.4117 181.161C67.9955 187.069 66.7667 193.396 66.7954 199.779C66.8242 206.162 68.1099 212.477 70.5792 218.363C73.0485 224.25 76.653 229.592 81.1869 234.085C84.694 237.561 88.7042 240.476 93.0752 242.737L123.55 454.859L168.706 448.881L136.43 243.385C141.441 240.98 146.008 237.732 149.928 233.776Z" fill="#0F172A"/>
<path fill-rule="evenodd" clip-rule="evenodd" d="M149.928 233.776C154.422 229.242 157.978 223.868 160.394 217.959L115.403 199.56L70.4117 181.161C67.9955 187.069 66.7667 193.396 66.7954 199.779C66.8242 206.162 68.1099 212.477 70.5792 218.363C73.0485 224.25 76.653 229.592 81.1869 234.085C84.694 237.561 88.7042 240.476 93.0752 242.737L123.55 454.859L168.706 448.881L136.43 243.385C141.441 240.98 146.008 237.732 149.928 233.776Z" fill="#0F172A"/>
<path d="M160.394 217.959L160.623 218.053L160.716 217.824L160.488 217.731L160.394 217.959ZM149.928 233.776L149.753 233.602L149.928 233.776ZM115.403 199.56L115.309 199.789L115.309 199.789L115.403 199.56ZM70.4117 181.161L70.5052 180.932L70.2766 180.839L70.1831 181.067L70.4117 181.161ZM66.7954 199.779L66.5485 199.78L66.7954 199.779ZM70.5792 218.363L70.3514 218.459L70.5792 218.363ZM81.1869 234.085L81.3608 233.91L81.1869 234.085ZM93.0752 242.737L93.3197 242.701L93.3016 242.576L93.1887 242.517L93.0752 242.737ZM123.55 454.859L123.306 454.894L123.341 455.136L123.583 455.104L123.55 454.859ZM168.706 448.881L168.738 449.126L168.989 449.093L168.95 448.843L168.706 448.881ZM136.43 243.385L136.323 243.162L136.158 243.241L136.186 243.423L136.43 243.385ZM160.165 217.866C157.762 223.744 154.223 229.091 149.753 233.602L150.104 233.95C154.62 229.393 158.194 223.991 160.623 218.053L160.165 217.866ZM115.309 199.789L160.301 218.188L160.488 217.731L115.496 199.331L115.309 199.789ZM70.3183 181.389L115.309 199.789L115.496 199.331L70.5052 180.932L70.3183 181.389ZM67.0424 199.778C67.0138 193.427 68.2364 187.133 70.6403 181.254L70.1831 181.067C67.7547 187.006 66.5196 193.364 66.5485 199.78L67.0424 199.778ZM70.8069 218.268C68.3502 212.411 67.071 206.128 67.0424 199.778L66.5485 199.78C66.5773 206.196 67.8696 212.543 70.3514 218.459L70.8069 218.268ZM81.3608 233.91C76.8499 229.44 73.2637 224.124 70.8069 218.268L70.3514 218.459C72.8333 224.375 76.4561 229.745 81.0131 234.261L81.3608 233.91ZM93.1887 242.517C88.8398 240.268 84.8501 237.368 81.3608 233.91L81.0131 234.261C84.538 237.754 88.5685 240.684 92.9618 242.956L93.1887 242.517ZM92.8308 242.772L123.306 454.894L123.795 454.824L93.3197 242.701L92.8308 242.772ZM123.583 455.104L168.738 449.126L168.674 448.636L123.518 454.614L123.583 455.104ZM168.95 448.843L136.674 243.346L136.186 243.423L168.462 448.919L168.95 448.843ZM149.753 233.602C145.852 237.538 141.308 240.77 136.323 243.162L136.537 243.607C141.573 241.191 146.163 237.926 150.104 233.95L149.753 233.602Z" fill="black"/>
<path d="M116.508 71.3923C119.944 83.8778 115.431 96.0078 106.428 98.4853C97.4254 100.963 76.2922 106.219 72.8563 93.7338C69.4203 81.2483 84.9828 55.7486 93.9856 53.2711C102.988 50.7936 113.072 58.9067 116.508 71.3923Z" fill="#0F172A"/>
<path d="M122.687 118.029H101.677L104.661 91.4254H122.687V118.029Z" fill="white" stroke="#0F172A" stroke-width="0.987879"/>
<path d="M60.2798 168.254C60.2798 139.898 83.2668 116.911 111.623 116.911C139.979 116.911 162.966 139.898 162.966 168.254V224.072H60.2798V168.254Z" fill="#064D47"/>
<path d="M103.666 132.326C82.8803 114.026 95.0053 104.147 103.666 101.495C101.18 112.435 108.597 116.33 112.617 116.911C120.076 117.987 122.397 109.493 122.811 104.603C127.187 104.902 130.897 110.819 131.016 114.549C131.215 120.814 127.286 129.011 125.297 132.326L114.979 123.748L103.666 132.326Z" fill="#064D47" stroke="#064D47" stroke-width="0.493939"/>
<path d="M92.1052 115.419C92.8926 119.065 96.3569 127.602 103.915 132.575L114.731 123.748L125.546 132.575C127.08 129.964 130.37 122.878 131.265 115.419" stroke="#0F172A" stroke-width="1.97576"/>
<path d="M89.8665 159.924C86.6757 171.278 89.3195 194.658 125.421 186.403C161.523 178.148 187.87 167.134 196.53 162.658C197.411 162.237 198.876 161.774 200.063 161.853C203.421 162.077 199.867 166.769 196.9 168.36L187.828 173.226C189.729 173.226 191.461 174.313 192.288 176.024L198.972 189.865C200.632 193.302 201.891 197.51 199.464 200.457C197.213 203.191 192.875 204.818 185.342 201.891L185.342 201.891C163.884 210.406 126.631 221.647 99.3146 217.855C85.1425 215.825 56.5496 199.208 55.555 159.924H89.8665Z" fill="white" stroke="#0F172A" stroke-width="0.987879"/>
<path d="M49.8365 139.405C49.8365 126.432 60.3529 115.916 73.3256 115.916C84.9326 115.916 94.342 125.325 94.342 136.932V163.902H49.8365V139.405Z" fill="#0F172A"/>
<mask id="path-28-inside-1_2266_725" fill="white">
<path fill-rule="evenodd" clip-rule="evenodd" d="M113.862 103.083C125.271 103.083 134.519 93.8348 134.519 82.4266C134.519 71.0185 125.271 61.7703 113.862 61.7703C104.983 61.7703 97.4117 67.3733 94.4918 75.2367C91.0458 75.6607 88.3776 78.5983 88.3776 82.159C88.3776 85.6507 90.9432 88.5431 94.2922 89.0538C97.0536 97.2113 104.772 103.083 113.862 103.083Z"/>
</mask>
<path fill-rule="evenodd" clip-rule="evenodd" d="M113.862 103.083C125.271 103.083 134.519 93.8348 134.519 82.4266C134.519 71.0185 125.271 61.7703 113.862 61.7703C104.983 61.7703 97.4117 67.3733 94.4918 75.2367C91.0458 75.6607 88.3776 78.5983 88.3776 82.159C88.3776 85.6507 90.9432 88.5431 94.2922 89.0538C97.0536 97.2113 104.772 103.083 113.862 103.083Z" fill="white"/>
<path d="M94.4918 75.2367L94.5522 75.727L94.8503 75.6903L94.9549 75.4087L94.4918 75.2367ZM94.2922 89.0538L94.76 88.8954L94.6637 88.6108L94.3666 88.5655L94.2922 89.0538ZM134.025 82.4266C134.025 93.562 124.998 102.589 113.862 102.589V103.577C125.543 103.577 135.013 94.1076 135.013 82.4266H134.025ZM113.862 62.2643C124.998 62.2643 134.025 71.2913 134.025 82.4266H135.013C135.013 70.7457 125.543 61.2764 113.862 61.2764V62.2643ZM94.9549 75.4087C97.8052 67.7325 105.196 62.2643 113.862 62.2643V61.2764C104.77 61.2764 97.0182 67.0141 94.0288 75.0648L94.9549 75.4087ZM88.8715 82.159C88.8715 78.8508 91.3506 76.1209 94.5522 75.727L94.4315 74.7465C90.7409 75.2006 87.8836 78.3458 87.8836 82.159H88.8715ZM94.3666 88.5655C91.2553 88.091 88.8715 85.4029 88.8715 82.159H87.8836C87.8836 85.8984 90.6312 88.9951 94.2177 89.5421L94.3666 88.5655ZM113.862 102.589C104.99 102.589 97.4556 96.8584 94.76 88.8954L93.8243 89.2122C96.6516 97.5642 104.554 103.577 113.862 103.577V102.589Z" fill="black" mask="url(#path-28-inside-1_2266_725)"/>
<path fill-rule="evenodd" clip-rule="evenodd" d="M123.782 70.88C131.649 70.88 138.026 66.5461 138.026 61.1998C138.026 55.8536 131.649 51.5197 123.782 51.5197C117.174 51.5197 111.617 54.5779 110.008 58.7254C108.689 58.0125 107.159 57.6046 105.528 57.6046C100.564 57.6046 96.5391 61.3814 96.5391 66.0402C96.5391 70.6991 100.564 74.4758 105.528 74.4758C109.64 74.4758 113.107 71.8848 114.176 68.3475C116.709 69.9205 120.081 70.88 123.782 70.88Z" fill="#0F172A"/>
<path d="M108.762 79.6998C109.567 77.9114 111.928 75.4076 114.932 79.6998M119.761 79.704C120.566 77.9156 122.927 75.4118 125.931 79.704" stroke="black" stroke-width="0.493939"/>
<path d="M120.326 92.0297C120.326 92.54 120.218 93.0449 120.008 93.5131C119.798 93.9812 119.491 94.4028 119.107 94.7516C118.722 95.1005 118.267 95.3692 117.771 95.5411C117.274 95.7131 116.747 95.7846 116.22 95.7513C115.694 95.718 115.181 95.5805 114.712 95.3474C114.243 95.1143 113.828 94.7906 113.493 94.3962C113.159 94.0018 112.911 93.5451 112.766 93.0545C112.622 92.5639 112.582 92.0497 112.651 91.5437L116.472 92.0297H120.326Z" fill="#0F172A"/>
<line x1="278.887" y1="152.789" x2="292.693" y2="160.259" stroke="#565050" stroke-width="0.493939"/>
<line x1="278.299" y1="153.875" x2="292.105" y2="161.345" stroke="#565050" stroke-width="0.493939"/>
<line x1="277.711" y1="154.962" x2="291.518" y2="162.432" stroke="#565050" stroke-width="0.493939"/>
</g>
</svg>
