<svg width="103" height="102" viewBox="0 0 103 102" fill="none" xmlns="http://www.w3.org/2000/svg">
<path d="M89.75 27.0938C89.75 38.5364 72.6249 47.8125 51.5 47.8125C30.3751 47.8125 13.25 38.5364 13.25 27.0938C13.25 15.6511 30.3751 6.375 51.5 6.375C72.6249 6.375 89.75 15.6511 89.75 27.0938Z" fill="white"/>
<path d="M51.5 54.1875C62.9121 54.1875 73.5597 51.6957 81.5831 47.3496C84.5156 45.7612 87.3053 43.7934 89.6425 41.4661C89.7137 41.9828 89.75 42.5047 89.75 43.0313C89.75 54.4739 72.6249 63.75 51.5 63.75C30.3751 63.75 13.25 54.4739 13.25 43.0313C13.25 42.5047 13.2863 41.9828 13.3575 41.4661C15.6947 43.7934 18.4844 45.7612 21.4169 47.3496C29.4403 51.6957 40.0879 54.1875 51.5 54.1875Z" fill="white"/>
<path d="M51.5 70.125C62.9121 70.125 73.5597 67.6331 81.5831 63.2871C84.5156 61.6987 87.3053 59.7309 89.6425 57.4036C89.7137 57.9203 89.75 58.4422 89.75 58.9687C89.75 70.4114 72.6249 79.6875 51.5 79.6875C30.3751 79.6875 13.25 70.4114 13.25 58.9687C13.25 58.4422 13.2863 57.9203 13.3575 57.4036C15.6947 59.7309 18.4844 61.6987 21.4169 63.2871C29.4403 67.6331 40.0879 70.125 51.5 70.125Z" fill="white"/>
<path d="M51.5 86.0625C62.9121 86.0625 73.5597 83.5706 81.5831 79.2246C84.5156 77.6362 87.3053 75.6684 89.6425 73.3411C89.7137 73.8578 89.75 74.3797 89.75 74.9062C89.75 86.3489 72.6249 95.625 51.5 95.625C30.3751 95.625 13.25 86.3489 13.25 74.9062C13.25 74.3797 13.2863 73.8578 13.3575 73.3411C15.6947 75.6684 18.4844 77.6362 21.4169 79.2246C29.4403 83.5706 40.0879 86.0625 51.5 86.0625Z" fill="white"/>
</svg>
