<svg width="76" height="76" viewBox="0 0 76 76" fill="none" xmlns="http://www.w3.org/2000/svg">
<g filter="url(#filter0_d_2153_4497)">
<rect x="7.77683" y="4.90385" width="59.7692" height="59.7692" rx="12.5192" stroke="#4DC66B" stroke-width="0.807692" shape-rendering="crispEdges"/>
<path fill-rule="evenodd" clip-rule="evenodd" d="M27.9691 28.327C27.9691 26.5427 29.4156 25.0962 31.1999 25.0962H44.123C45.9073 25.0962 47.3538 26.5427 47.3538 28.327V41.25C47.3538 43.0343 45.9073 44.4808 44.123 44.4808H31.1999C29.4156 44.4808 27.9691 43.0343 27.9691 41.25V28.327ZM43.3153 34.7885C43.3153 35.0027 43.2302 35.2082 43.0787 35.3596L40.6557 37.7827C40.3402 38.0981 39.8288 38.0981 39.5134 37.7827C39.198 37.4673 39.198 36.9559 39.5134 36.6404L41.3654 34.7885L39.5134 32.9365C39.198 32.6211 39.198 32.1097 39.5134 31.7943C39.8288 31.4789 40.3402 31.4789 40.6557 31.7943L43.0787 34.2174C43.2302 34.3688 43.3153 34.5743 43.3153 34.7885ZM32.2442 34.2174C32.0927 34.3688 32.0076 34.5743 32.0076 34.7885C32.0076 35.0027 32.0927 35.2082 32.2442 35.3596L34.6673 37.7827C34.9827 38.0981 35.4941 38.0981 35.8095 37.7827C36.1249 37.4673 36.1249 36.9559 35.8095 36.6405L33.9575 34.7885L35.8095 32.9365C36.1249 32.6211 36.1249 32.1097 35.8095 31.7943C35.4941 31.4789 34.9827 31.4789 34.6673 31.7943L32.2442 34.2174Z" fill="#4DC66B"/>
</g>
<defs>
<filter id="filter0_d_2153_4497" x="0.103756" y="0.461539" width="75.1154" height="75.1156" filterUnits="userSpaceOnUse" color-interpolation-filters="sRGB">
<feFlood flood-opacity="0" result="BackgroundImageFix"/>
<feColorMatrix in="SourceAlpha" type="matrix" values="0 0 0 0 0 0 0 0 0 0 0 0 0 0 0 0 0 0 127 0" result="hardAlpha"/>
<feOffset dy="3.23077"/>
<feGaussianBlur stdDeviation="3.63461"/>
<feComposite in2="hardAlpha" operator="out"/>
<feColorMatrix type="matrix" values="0 0 0 0 0 0 0 0 0 0 0 0 0 0 0 0 0 0 0.05 0"/>
<feBlend mode="normal" in2="BackgroundImageFix" result="effect1_dropShadow_2153_4497"/>
<feBlend mode="normal" in="SourceGraphic" in2="effect1_dropShadow_2153_4497" result="shape"/>
</filter>
</defs>
</svg>
