<svg width="103" height="102" viewBox="0 0 103 102" fill="none" xmlns="http://www.w3.org/2000/svg">
<path fill-rule="evenodd" clip-rule="evenodd" d="M13.25 25.5C13.25 18.4584 18.9584 12.75 26 12.75H77C84.0416 12.75 89.75 18.4584 89.75 25.5V76.5C89.75 83.5416 84.0416 89.25 77 89.25H26C18.9584 89.25 13.25 83.5416 13.25 76.5V25.5ZM73.8125 51C73.8125 51.8454 73.4767 52.6561 72.8789 53.2539L63.3164 62.8164C62.0716 64.0612 60.0534 64.0612 58.8086 62.8164C57.5638 61.5716 57.5638 59.5534 58.8086 58.3086L66.1172 51L58.8086 43.6914C57.5638 42.4466 57.5638 40.4284 58.8086 39.1836C60.0534 37.9388 62.0716 37.9388 63.3164 39.1836L72.8789 48.7461C73.4767 49.3439 73.8125 50.1546 73.8125 51ZM30.1211 48.7461C29.5233 49.3439 29.1875 50.1546 29.1875 51C29.1875 51.8454 29.5233 52.6561 30.1211 53.2539L39.6836 62.8164C40.9284 64.0612 42.9466 64.0612 44.1914 62.8164C45.4362 61.5716 45.4362 59.5534 44.1914 58.3086L36.8828 51L44.1914 43.6914C45.4362 42.4466 45.4362 40.4284 44.1914 39.1836C42.9466 37.9388 40.9284 37.9388 39.6836 39.1836L30.1211 48.7461Z" fill="white"/>
</svg>
