<svg width="103" height="102" viewBox="0 0 103 102" fill="none" xmlns="http://www.w3.org/2000/svg">
<path fill-rule="evenodd" clip-rule="evenodd" d="M10.0625 25.5C10.0625 18.4584 15.7709 12.75 22.8125 12.75H80.1875C87.2291 12.75 92.9375 18.4584 92.9375 25.5V76.5C92.9375 83.5416 87.2291 89.25 80.1875 89.25H22.8125C15.7709 89.25 10.0625 83.5416 10.0625 76.5V25.5ZM26.9336 29.6211C28.1784 28.3763 30.1966 28.3763 31.4414 29.6211L41.0039 39.1836C42.2487 40.4284 42.2487 42.4466 41.0039 43.6914L31.4414 53.2539C30.1966 54.4987 28.1784 54.4987 26.9336 53.2539C25.6888 52.0091 25.6888 49.9909 26.9336 48.7461L34.2422 41.4375L26.9336 34.1289C25.6888 32.8841 25.6888 30.8659 26.9336 29.6211ZM45.125 47.8125C43.3646 47.8125 41.9375 49.2396 41.9375 51C41.9375 52.7604 43.3646 54.1875 45.125 54.1875H57.875C59.6354 54.1875 61.0625 52.7604 61.0625 51C61.0625 49.2396 59.6354 47.8125 57.875 47.8125H45.125Z" fill="white"/>
</svg>
