<svg width="93" height="93" viewBox="0 0 93 93" fill="none" xmlns="http://www.w3.org/2000/svg">
<g filter="url(#filter0_d_2153_4493)">
<rect x="9" y="5" width="75" height="75" rx="16" fill="white" shape-rendering="crispEdges"/>
<path d="M58.5 35C58.5 38.5899 53.1274 41.5 46.5 41.5C39.8726 41.5 34.5 38.5899 34.5 35C34.5 31.4101 39.8726 28.5 46.5 28.5C53.1274 28.5 58.5 31.4101 58.5 35Z" fill="#064D47"/>
<path d="M46.5 43.5C50.0803 43.5 53.4207 42.7182 55.9378 41.3548C56.8578 40.8565 57.733 40.2391 58.4663 39.509C58.4886 39.6711 58.5 39.8348 58.5 40C58.5 43.5899 53.1274 46.5 46.5 46.5C39.8726 46.5 34.5 43.5899 34.5 40C34.5 39.8348 34.5114 39.6711 34.5337 39.509C35.267 40.2391 36.1422 40.8565 37.0622 41.3548C39.5793 42.7182 42.9197 43.5 46.5 43.5Z" fill="#064D47"/>
<path d="M46.5 48.5C50.0803 48.5 53.4207 47.7182 55.9378 46.3548C56.8578 45.8564 57.733 45.2391 58.4663 44.509C58.4886 44.6711 58.5 44.8348 58.5 45C58.5 48.5898 53.1274 51.5 46.5 51.5C39.8726 51.5 34.5 48.5898 34.5 45C34.5 44.8348 34.5114 44.6711 34.5337 44.509C35.267 45.2391 36.1422 45.8564 37.0622 46.3548C39.5793 47.7182 42.9197 48.5 46.5 48.5Z" fill="#064D47"/>
<path d="M46.5 53.5C50.0803 53.5 53.4207 52.7182 55.9378 51.3548C56.8578 50.8564 57.733 50.2391 58.4663 49.509C58.4886 49.6711 58.5 49.8348 58.5 50C58.5 53.5898 53.1274 56.5 46.5 56.5C39.8726 56.5 34.5 53.5898 34.5 50C34.5 49.8348 34.5114 49.6711 34.5337 49.509C35.267 50.2391 36.1422 50.8564 37.0622 51.3548C39.5793 52.7182 42.9197 53.5 46.5 53.5Z" fill="#064D47"/>
</g>
<defs>
<filter id="filter0_d_2153_4493" x="0" y="0" width="93" height="93" filterUnits="userSpaceOnUse" color-interpolation-filters="sRGB">
<feFlood flood-opacity="0" result="BackgroundImageFix"/>
<feColorMatrix in="SourceAlpha" type="matrix" values="0 0 0 0 0 0 0 0 0 0 0 0 0 0 0 0 0 0 127 0" result="hardAlpha"/>
<feOffset dy="4"/>
<feGaussianBlur stdDeviation="4.5"/>
<feComposite in2="hardAlpha" operator="out"/>
<feColorMatrix type="matrix" values="0 0 0 0 0 0 0 0 0 0 0 0 0 0 0 0 0 0 0.05 0"/>
<feBlend mode="normal" in2="BackgroundImageFix" result="effect1_dropShadow_2153_4493"/>
<feBlend mode="normal" in="SourceGraphic" in2="effect1_dropShadow_2153_4493" result="shape"/>
</filter>
</defs>
</svg>
