<svg width="76" height="76" viewBox="0 0 76 76" fill="none" xmlns="http://www.w3.org/2000/svg">
<g filter="url(#filter0_d_2153_4493)">
<rect x="7.77683" y="4.51957" width="59.7692" height="59.7692" rx="12.5192" stroke="#4DC66B" stroke-width="0.807692" shape-rendering="crispEdges"/>
<path d="M47.3538 28.3462C47.3538 31.2457 43.0144 33.5962 37.6615 33.5962C32.3085 33.5962 27.9691 31.2457 27.9691 28.3462C27.9691 25.4467 32.3085 23.0962 37.6615 23.0962C43.0144 23.0962 47.3538 25.4467 47.3538 28.3462Z" fill="#4DC66B"/>
<path d="M37.6615 35.2116C40.5532 35.2116 43.2512 34.5802 45.2843 33.4789C46.0274 33.0764 46.7343 32.5778 47.3265 31.9881C47.3446 32.119 47.3538 32.2512 47.3538 32.3847C47.3538 35.2841 43.0144 37.6347 37.6615 37.6347C32.3085 37.6347 27.9691 35.2841 27.9691 32.3847C27.9691 32.2512 27.9783 32.119 27.9964 31.9881C28.5886 32.5778 29.2955 33.0764 30.0386 33.4789C32.0717 34.5802 34.7697 35.2116 37.6615 35.2116Z" fill="#4DC66B"/>
<path d="M37.6615 39.25C40.5532 39.25 43.2512 38.6186 45.2843 37.5173C46.0274 37.1149 46.7343 36.6162 47.3265 36.0265C47.3446 36.1574 47.3538 36.2897 47.3538 36.4231C47.3538 39.3226 43.0144 41.6731 37.6615 41.6731C32.3085 41.6731 27.9691 39.3226 27.9691 36.4231C27.9691 36.2897 27.9783 36.1574 27.9964 36.0265C28.5886 36.6162 29.2955 37.1149 30.0386 37.5173C32.0717 38.6186 34.7697 39.25 37.6615 39.25Z" fill="#4DC66B"/>
<path d="M37.6615 43.2885C40.5532 43.2885 43.2512 42.6571 45.2843 41.5558C46.0274 41.1533 46.7343 40.6547 47.3265 40.065C47.3446 40.1959 47.3538 40.3281 47.3538 40.4616C47.3538 43.3611 43.0144 45.7116 37.6615 45.7116C32.3085 45.7116 27.9691 43.3611 27.9691 40.4616C27.9691 40.3281 27.9783 40.1959 27.9964 40.065C28.5886 40.6547 29.2955 41.1533 30.0386 41.5558C32.0717 42.6571 34.7697 43.2885 37.6615 43.2885Z" fill="#4DC66B"/>
</g>
<defs>
<filter id="filter0_d_2153_4493" x="0.103756" y="0.0772617" width="75.1154" height="75.1156" filterUnits="userSpaceOnUse" color-interpolation-filters="sRGB">
<feFlood flood-opacity="0" result="BackgroundImageFix"/>
<feColorMatrix in="SourceAlpha" type="matrix" values="0 0 0 0 0 0 0 0 0 0 0 0 0 0 0 0 0 0 127 0" result="hardAlpha"/>
<feOffset dy="3.23077"/>
<feGaussianBlur stdDeviation="3.63461"/>
<feComposite in2="hardAlpha" operator="out"/>
<feColorMatrix type="matrix" values="0 0 0 0 0 0 0 0 0 0 0 0 0 0 0 0 0 0 0.05 0"/>
<feBlend mode="normal" in2="BackgroundImageFix" result="effect1_dropShadow_2153_4493"/>
<feBlend mode="normal" in="SourceGraphic" in2="effect1_dropShadow_2153_4493" result="shape"/>
</filter>
</defs>
</svg>
