<svg width="1797" height="1200" viewBox="0 0 1797 1200" fill="none" xmlns="http://www.w3.org/2000/svg">
<rect x="665" y="39" width="429" height="450" rx="16" fill="#54BD95"/>
<g filter="url(#filter0_d_2191_1502)">
<rect x="738" y="183" width="284" height="110" rx="6" fill="white"/>
<line x1="796" y1="250.707" x2="1001" y2="250.707" stroke="black" stroke-width="8"/>
<line x1="796" y1="265.707" x2="934" y2="265.707" stroke="#A6A6A6" stroke-width="6"/>
<circle cx="773" cy="257.707" r="14" fill="#D9D9D9"/>
<path d="M824.547 206.927C824.846 206.006 826.15 206.006 826.449 206.927L827.823 211.154C827.957 211.566 828.341 211.845 828.774 211.845H833.218C834.187 211.845 834.59 213.085 833.806 213.654L830.21 216.267C829.86 216.521 829.713 216.973 829.847 217.385L831.221 221.612C831.52 222.533 830.466 223.299 829.682 222.73L826.086 220.117C825.735 219.863 825.261 219.863 824.91 220.117L821.315 222.73C820.531 223.299 819.476 222.533 819.776 221.612L821.149 217.385C821.283 216.973 821.136 216.521 820.786 216.267L817.19 213.654C816.406 213.085 816.809 211.845 817.778 211.845H822.223C822.656 211.845 823.04 211.566 823.174 211.154L824.547 206.927Z" fill="#D9D9D9"/>
<path d="M798.641 207.004L800.015 211.231C800.182 211.746 800.662 212.095 801.203 212.095H805.648C806.375 212.095 806.677 213.025 806.089 213.452L802.493 216.064C802.055 216.383 801.872 216.947 802.039 217.462L803.413 221.689C803.637 222.38 802.846 222.955 802.258 222.528L798.663 219.915C798.224 219.597 797.631 219.597 797.193 219.915L793.597 222.528C793.01 222.955 792.219 222.38 792.443 221.689L793.817 217.462C793.984 216.947 793.801 216.383 793.363 216.064L789.767 213.452C789.179 213.025 789.481 212.095 790.208 212.095H794.652C795.194 212.095 795.674 211.746 795.841 211.231L797.215 207.004C797.439 206.313 798.417 206.313 798.641 207.004Z" stroke="#D9D9D9" stroke-width="0.5"/>
<path d="M771.067 207.004L772.44 211.231C772.608 211.746 773.088 212.095 773.629 212.095H778.074C778.8 212.095 779.103 213.025 778.515 213.452L774.919 216.064C774.481 216.383 774.298 216.947 774.465 217.462L775.838 221.689C776.063 222.38 775.272 222.955 774.684 222.528L771.088 219.915C770.65 219.597 770.057 219.597 769.619 219.915L766.023 222.528C765.435 222.955 764.644 222.38 764.869 221.689L766.242 217.462C766.41 216.947 766.226 216.383 765.788 216.064L762.193 213.452C761.605 213.025 761.907 212.095 762.633 212.095H767.078C767.62 212.095 768.1 211.746 768.267 211.231L769.64 207.004C769.865 206.313 770.842 206.313 771.067 207.004Z" stroke="#D9D9D9" stroke-width="0.5"/>
<path d="M852.121 206.927C852.421 206.006 853.724 206.006 854.023 206.927L855.397 211.154C855.531 211.566 855.915 211.845 856.348 211.845H860.793C861.761 211.845 862.164 213.085 861.38 213.654L857.785 216.267C857.434 216.521 857.288 216.973 857.421 217.385L858.795 221.612C859.094 222.533 858.04 223.299 857.256 222.73L853.66 220.117C853.31 219.863 852.835 219.863 852.485 220.117L848.889 222.73C848.105 223.299 847.051 222.533 847.35 221.612L848.723 217.385C848.857 216.973 848.711 216.521 848.36 216.267L844.764 213.654C843.981 213.085 844.383 211.845 845.352 211.845H849.797C850.23 211.845 850.614 211.566 850.748 211.154L852.121 206.927Z" fill="#D9D9D9"/>
<path d="M879.696 206.927C879.995 206.006 881.298 206.006 881.598 206.927L882.971 211.154C883.105 211.566 883.489 211.845 883.922 211.845H888.367C889.336 211.845 889.738 213.085 888.955 213.654L885.359 216.267C885.008 216.521 884.862 216.973 884.996 217.385L886.369 221.612C886.668 222.533 885.614 223.299 884.83 222.73L881.234 220.117C880.884 219.863 880.409 219.863 880.059 220.117L876.463 222.73C875.679 223.299 874.625 222.533 874.924 221.612L876.298 217.385C876.432 216.973 876.285 216.521 875.934 216.267L872.339 213.654C871.555 213.085 871.958 211.845 872.926 211.845H877.371C877.804 211.845 878.188 211.566 878.322 211.154L879.696 206.927Z" fill="#D9D9D9"/>
</g>
<rect x="218" y="39" width="429" height="450" rx="16" fill="#D9D9D9"/>
<rect x="1112" y="39" width="429" height="450" rx="16" fill="#064D47"/>
<path d="M358.344 101C358.844 101 359.146 101.49 359.25 102.469C361.604 104.115 363.24 106.542 364.156 109.75C364.865 112.167 365.219 114.49 365.219 116.719V118C365.219 121.104 364.635 124.125 363.469 127.062C363.469 127.854 364.094 129.375 365.344 131.625C365.344 132 365.042 132.312 364.438 132.562C363.771 132.562 363.052 131.552 362.281 129.531H362.094C360.552 131.177 359.146 132 357.875 132C354.875 132 352.927 127.688 352.031 119.062V118.5C352.198 109.208 353.75 103.594 356.688 101.656C357.375 101.219 357.927 101 358.344 101ZM353.906 118.281C353.906 122.927 354.896 126.708 356.875 129.625C357.354 129.938 357.781 130.094 358.156 130.094C359.281 130.094 360.396 128.979 361.5 126.75C361.396 125.375 360.74 123.573 359.531 121.344C358.74 120.573 358.344 120.094 358.344 119.906C358.448 119.24 358.75 118.906 359.25 118.906C360.292 118.906 361.406 120.448 362.594 123.531H362.781C363.24 121.49 363.469 119.552 363.469 117.719C363.469 111.344 361.823 106.823 358.531 104.156L357.344 103.531C356.594 103.531 355.708 105.469 354.688 109.344C354.167 112.323 353.906 115.302 353.906 118.281ZM376.281 100.781C377.135 100.781 377.562 103.073 377.562 107.656C377.688 108.573 377.75 110.969 377.75 114.844L377.656 120.531C378.135 125.823 378.76 128.948 379.531 129.906C380.135 130.323 380.438 130.646 380.438 130.875C380.312 131.375 380.073 131.708 379.719 131.875H379.344C378.302 131.875 377.448 130.5 376.781 127.75C376.656 127.792 376.302 128.646 375.719 130.312C374.969 131.354 374.208 131.875 373.438 131.875C370.792 131.875 369.219 128.365 368.719 121.344L367.125 102.844C367.333 102.385 367.625 102.156 368 102.156C368.729 102.156 369.094 103.135 369.094 105.094L370.969 125.375C371.635 128.458 372.458 130 373.438 130C374.583 129.688 375.344 126.438 375.719 120.25C375.365 114.771 375.188 109.823 375.188 105.406V101.75C375.188 101.208 375.552 100.885 376.281 100.781ZM390.812 101.938C391.125 101.938 391.427 102.24 391.719 102.844L391.625 103.312C393.438 115.292 394.708 124.417 395.438 130.688C395.229 131.271 394.906 131.562 394.469 131.562C393.74 131.562 393.302 130 393.156 126.875L392.812 124.406L391.094 124.5C390.01 124.5 388.375 124.365 386.188 124.094C384.646 129.365 383.594 132 383.031 132H382.969C382.302 131.812 381.969 131.479 381.969 131C383.656 126.875 385.49 119.812 387.469 109.812C388.323 106.729 389.104 104.24 389.812 102.344C390.104 102.073 390.438 101.938 390.812 101.938ZM386.688 122.219C387.833 122.49 389.042 122.625 390.312 122.625H392C392.229 122.625 392.427 122.531 392.594 122.344L390.312 107.156H390.25C389.833 107.802 389.229 110.073 388.438 113.969L386.688 122.219ZM398.031 101.531C398.677 101.531 399 102.51 399 104.469C399.521 120.76 400.021 128.906 400.5 128.906L401.375 128.688L404.906 128.781L406.094 128.5C406.406 128.5 406.708 128.802 407 129.406C406.792 130.24 405.938 130.656 404.438 130.656L401.156 130.594C400.906 130.594 400.448 130.812 399.781 131.25H399.312C398.667 131.25 398.24 128.823 398.031 123.969C397.781 120.865 397.448 113.604 397.031 102.188C397.198 101.75 397.531 101.531 398.031 101.531ZM413.562 101.656H413.656C415.302 101.719 416.125 101.948 416.125 102.344V102.969C415.979 103.281 415.719 103.5 415.344 103.625L413.969 103.531H413.281V103.625C413.573 120.354 414.031 128.719 414.656 128.719L418 128.25C418.458 128.458 418.688 128.75 418.688 129.125V129.219C418.688 129.885 417.406 130.323 414.844 130.531C413.135 130.844 411.823 131 410.906 131C410.448 130.812 410.219 130.51 410.219 130.094C410.219 129.385 411 129.031 412.562 129.031V128.906C412.042 125.51 411.656 117.115 411.406 103.719H411.281L408.438 104.219C407.917 103.99 407.656 103.635 407.656 103.156C407.656 102.552 408.969 102.125 411.594 101.875C411.594 101.771 412.25 101.698 413.562 101.656ZM421.656 102.375C422.115 102.375 422.406 102.771 422.531 103.562H428.031C428.76 103.562 429.125 103.917 429.125 104.625C429 105.167 428.604 105.438 427.938 105.438H422.812L423.812 115.156H426.656C427.385 115.156 427.75 115.521 427.75 116.25C427.625 116.771 427.229 117.031 426.562 117.031H424V117.125C424.583 123.375 424.875 127.208 424.875 128.625V130.531C424.875 131.323 424.583 131.719 424 131.719H423.594C423.219 131.469 423.031 131.177 423.031 130.844V129.344C423.031 125.74 422.24 117.01 420.656 103.156C420.802 102.635 421.135 102.375 421.656 102.375ZM436.125 101.656H436.219C437.865 101.719 438.688 101.948 438.688 102.344V102.969C438.542 103.281 438.281 103.5 437.906 103.625L436.531 103.531H435.844V103.625C436.135 120.354 436.594 128.719 437.219 128.719L440.562 128.25C441.021 128.458 441.25 128.75 441.25 129.125V129.219C441.25 129.885 439.969 130.323 437.406 130.531C435.698 130.844 434.385 131 433.469 131C433.01 130.812 432.781 130.51 432.781 130.094C432.781 129.385 433.562 129.031 435.125 129.031V128.906C434.604 125.51 434.219 117.115 433.969 103.719H433.844L431 104.219C430.479 103.99 430.219 103.635 430.219 103.156C430.219 102.552 431.531 102.125 434.156 101.875C434.156 101.771 434.812 101.698 436.125 101.656ZM444.656 101.062C445.177 101.062 445.479 101.458 445.562 102.25H445.469L445.562 102.562C446.271 102.562 448.24 102.344 451.469 101.906C451.99 102.094 452.25 102.417 452.25 102.875C452.25 103.542 450.844 103.969 448.031 104.156L445.281 104.531V105.906C445.281 106.885 445.677 110.854 446.469 117.812H450.469C451.01 117.812 451.344 118.115 451.469 118.719C451.469 119.365 450.979 119.688 450 119.688H446.469V119.812L446.375 126.281C446.375 127.823 446.531 128.948 446.844 129.656L453.031 129.25C453.698 129.333 454.031 129.625 454.031 130.125C454.031 130.792 453.302 131.125 451.844 131.125C448.094 131.333 446.219 131.531 446.219 131.719C445.469 131.719 444.948 130.573 444.656 128.281L444.5 125.906L444.562 118.812L443.406 105.906V104.938C443.406 102.354 443.792 101.062 444.562 101.062H444.656ZM457.031 103.531C457.469 103.531 457.865 104.156 458.219 105.406H458.406C459.115 104.865 460.104 104.542 461.375 104.438C465.062 104.438 467.531 107.771 468.781 114.438L469.25 119.656C469.25 125.615 467.125 129.49 462.875 131.281L461.25 131.469H461.188C460.729 131.469 460.042 131.312 459.125 131V131.281L459.219 131.875C459.219 132.167 458.927 132.458 458.344 132.75C457.552 132.75 457.156 131.896 457.156 130.188C456.615 122.875 456.344 118.385 456.344 116.719L456.656 107.531C456.656 106.594 456.427 105.562 455.969 104.438C455.969 103.958 456.323 103.656 457.031 103.531ZM458.219 116.594L458.688 126.938C459.208 128.729 459.969 129.625 460.969 129.625H461.781C462.906 129.625 464.146 128.771 465.5 127.062C466.688 125.167 467.281 122.927 467.281 120.344V118.688C467.281 114.521 466.427 111.01 464.719 108.156C463.719 106.969 462.802 106.375 461.969 106.375H460.781C459.448 106.375 458.688 107.198 458.5 108.844L458.219 116.594Z" fill="#191A15"/>
<path d="M784.125 103.531C784.562 103.531 784.958 104.156 785.312 105.406H785.5C786.208 104.865 787.198 104.542 788.469 104.438C792.156 104.438 794.625 107.771 795.875 114.438L796.344 119.656C796.344 125.615 794.219 129.49 789.969 131.281L788.344 131.469H788.281C787.823 131.469 787.135 131.312 786.219 131V131.281L786.312 131.875C786.312 132.167 786.021 132.458 785.438 132.75C784.646 132.75 784.25 131.896 784.25 130.188C783.708 122.875 783.438 118.385 783.438 116.719L783.75 107.531C783.75 106.594 783.521 105.562 783.062 104.438C783.062 103.958 783.417 103.656 784.125 103.531ZM785.312 116.594L785.781 126.938C786.302 128.729 787.062 129.625 788.062 129.625H788.875C790 129.625 791.24 128.771 792.594 127.062C793.781 125.167 794.375 122.927 794.375 120.344V118.688C794.375 114.521 793.521 111.01 791.812 108.156C790.812 106.969 789.896 106.375 789.062 106.375H787.875C786.542 106.375 785.781 107.198 785.594 108.844L785.312 116.594ZM799.844 101.062C800.365 101.062 800.667 101.458 800.75 102.25H800.656L800.75 102.562C801.458 102.562 803.427 102.344 806.656 101.906C807.177 102.094 807.438 102.417 807.438 102.875C807.438 103.542 806.031 103.969 803.219 104.156L800.469 104.531V105.906C800.469 106.885 800.865 110.854 801.656 117.812H805.656C806.198 117.812 806.531 118.115 806.656 118.719C806.656 119.365 806.167 119.688 805.188 119.688H801.656V119.812L801.562 126.281C801.562 127.823 801.719 128.948 802.031 129.656L808.219 129.25C808.885 129.333 809.219 129.625 809.219 130.125C809.219 130.792 808.49 131.125 807.031 131.125C803.281 131.333 801.406 131.531 801.406 131.719C800.656 131.719 800.135 130.573 799.844 128.281L799.688 125.906L799.75 118.812L798.594 105.906V104.938C798.594 102.354 798.979 101.062 799.75 101.062H799.844ZM812.156 101.156C812.635 101.156 813 102.01 813.25 103.719C815.875 108.135 817.188 110.802 817.188 111.719L817.969 114.844H818.062C818.958 109.865 819.906 106.323 820.906 104.219C821.677 102.573 822.302 101.75 822.781 101.75C823.469 101.75 823.896 102.646 824.062 104.438C824.438 106.5 824.625 109.25 824.625 112.688V120.469C824.792 125.906 825.156 128.625 825.719 128.625C826.115 128.833 826.312 129.167 826.312 129.625C826.312 130.771 826.021 131.521 825.438 131.875H824.844C823.74 131.354 823.01 127.021 822.656 118.875L822.781 115.344V112.5C822.74 108.083 822.573 105.875 822.281 105.875H822.188C821.396 107.708 820.573 110.99 819.719 115.719C819.469 118.49 819.042 119.875 818.438 119.875H817.969C817.344 119.875 816.448 117.083 815.281 111.5L814 108.656H813.719L814 116.812L813.906 130.688C813.823 131.354 813.5 131.688 812.938 131.688C812.354 131.562 812.062 131.292 812.062 130.875L812.156 116.125C812.156 111.5 811.792 106.812 811.062 102.062C811.062 101.583 811.427 101.281 812.156 101.156ZM832 104.312C834.792 104.312 837.042 108.219 838.75 116.031C838.979 117.656 839.135 119.323 839.219 121.031C839.219 126.094 837.875 129.51 835.188 131.281C834.125 131.677 833.302 131.875 832.719 131.875C830.51 131.875 829.042 130.104 828.312 126.562C827.958 125.208 827.781 123.635 827.781 121.844V121.344C827.781 116.49 828.615 111.312 830.281 105.812V105.5L830.156 105.406C830.385 104.677 831 104.312 832 104.312ZM832.125 106.156C830.479 110.948 829.656 116.01 829.656 121.344V121.625C829.656 126.229 830.417 128.948 831.938 129.781L832.719 130H833.031C834.865 130 836.167 128.354 836.938 125.062C837.146 124.229 837.25 123.26 837.25 122.156V120.344C837.25 115.302 835.938 110.812 833.312 106.875C832.812 106.396 832.417 106.156 832.125 106.156ZM854.875 101.906C856.958 101.906 858.438 103.156 859.312 105.656C859.438 105.906 859.5 106.271 859.5 106.75C859.5 107.271 859.177 107.562 858.531 107.625C857.969 107.625 857.615 106.938 857.469 105.562C856.76 104.375 855.969 103.781 855.094 103.781H854.656C853.385 103.781 852.635 105.031 852.406 107.531V107.625C852.406 110.625 854.312 115.156 858.125 121.219C859.312 123.531 859.906 125.469 859.906 127.031C859.906 129.156 858.823 130.802 856.656 131.969L855.562 132.156C853.646 132.156 851.812 130.844 850.062 128.219C849.729 127.635 849.562 127.01 849.562 126.344C849.562 125.281 849.927 124.688 850.656 124.562H850.938C851.396 124.875 851.625 125.167 851.625 125.438L851.438 126.344V126.406C851.438 127.76 852.552 129.01 854.781 130.156L855.375 130.281H855.656C856.74 130.281 857.531 129.354 858.031 127.5V127.125C858.031 124.896 856.583 121.615 853.688 117.281C851.604 113.177 850.562 109.958 850.562 107.625C850.562 105 851.573 103.167 853.594 102.125L854.875 101.906ZM868.844 103.875C869.26 103.875 869.562 104.229 869.75 104.938C869.75 108.625 869.448 110.469 868.844 110.469L868.562 110.562C867.917 110.562 867.594 109.906 867.594 108.594C867.323 107.073 866.927 106.312 866.406 106.312C864.594 107.792 863.688 110.75 863.688 115.188C864.125 122.104 864.698 126.208 865.406 127.5C866.26 129 867.208 129.75 868.25 129.75H868.656C870.156 129.75 871.375 128.271 872.312 125.312C872.583 125.062 872.833 124.938 873.062 124.938C873.583 124.938 873.885 125.26 873.969 125.906C873.802 127.323 872.99 128.833 871.531 130.438C870.302 131.229 869.271 131.625 868.438 131.625C865.646 131.625 863.812 129.458 862.938 125.125C862.229 120.854 861.875 117.615 861.875 115.406V115C861.875 111.062 862.781 107.844 864.594 105.344C865.198 104.74 865.896 104.438 866.688 104.438L867.781 104.719C867.781 104.281 868.135 104 868.844 103.875ZM883.031 101.75C883.635 101.75 883.938 102.146 883.938 102.938V104.906C883.938 107.635 884.781 115.833 886.469 129.5V130C886.469 130.979 886.146 131.469 885.5 131.469C884.917 131.385 884.625 131.094 884.625 130.594V129.906C884.625 128.677 884.094 124.312 883.031 116.812C880.156 116.979 878.719 117.208 878.719 117.5L878.812 117.625V117.688C879.083 122 879.219 125.938 879.219 129.5V132C879.219 132.958 878.854 133.438 878.125 133.438C877.646 133.438 877.385 133.073 877.344 132.344V130C877.344 125.833 877.208 121.802 876.938 117.906H876.75C876.229 117.906 875.833 117.677 875.562 117.219V116.719C875.917 116.219 876.312 115.958 876.75 115.938C876.75 114.354 876.219 110.125 875.156 103.25C875.156 102.729 875.552 102.427 876.344 102.344C876.865 102.344 877.26 103.854 877.531 106.875C877.802 108.208 878.156 111.031 878.594 115.344H878.719L882.938 114.938C882.271 109.583 881.938 105.74 881.938 103.406C881.938 102.302 882.302 101.75 883.031 101.75ZM889.781 101.062C890.302 101.062 890.604 101.458 890.688 102.25H890.594L890.688 102.562C891.396 102.562 893.365 102.344 896.594 101.906C897.115 102.094 897.375 102.417 897.375 102.875C897.375 103.542 895.969 103.969 893.156 104.156L890.406 104.531V105.906C890.406 106.885 890.802 110.854 891.594 117.812H895.594C896.135 117.812 896.469 118.115 896.594 118.719C896.594 119.365 896.104 119.688 895.125 119.688H891.594V119.812L891.5 126.281C891.5 127.823 891.656 128.948 891.969 129.656L898.156 129.25C898.823 129.333 899.156 129.625 899.156 130.125C899.156 130.792 898.427 131.125 896.969 131.125C893.219 131.333 891.344 131.531 891.344 131.719C890.594 131.719 890.073 130.573 889.781 128.281L889.625 125.906L889.688 118.812L888.531 105.906V104.938C888.531 102.354 888.917 101.062 889.688 101.062H889.781ZM902.156 103.531C902.594 103.531 902.99 104.156 903.344 105.406H903.531C904.24 104.865 905.229 104.542 906.5 104.438C910.188 104.438 912.656 107.771 913.906 114.438L914.375 119.656C914.375 125.615 912.25 129.49 908 131.281L906.375 131.469H906.312C905.854 131.469 905.167 131.312 904.25 131V131.281L904.344 131.875C904.344 132.167 904.052 132.458 903.469 132.75C902.677 132.75 902.281 131.896 902.281 130.188C901.74 122.875 901.469 118.385 901.469 116.719L901.781 107.531C901.781 106.594 901.552 105.562 901.094 104.438C901.094 103.958 901.448 103.656 902.156 103.531ZM903.344 116.594L903.812 126.938C904.333 128.729 905.094 129.625 906.094 129.625H906.906C908.031 129.625 909.271 128.771 910.625 127.062C911.812 125.167 912.406 122.927 912.406 120.344V118.688C912.406 114.521 911.552 111.01 909.844 108.156C908.844 106.969 907.927 106.375 907.094 106.375H905.906C904.573 106.375 903.812 107.198 903.625 108.844L903.344 116.594ZM925.312 100.781C926.167 100.781 926.594 103.073 926.594 107.656C926.719 108.573 926.781 110.969 926.781 114.844L926.688 120.531C927.167 125.823 927.792 128.948 928.562 129.906C929.167 130.323 929.469 130.646 929.469 130.875C929.344 131.375 929.104 131.708 928.75 131.875H928.375C927.333 131.875 926.479 130.5 925.812 127.75C925.688 127.792 925.333 128.646 924.75 130.312C924 131.354 923.24 131.875 922.469 131.875C919.823 131.875 918.25 128.365 917.75 121.344L916.156 102.844C916.365 102.385 916.656 102.156 917.031 102.156C917.76 102.156 918.125 103.135 918.125 105.094L920 125.375C920.667 128.458 921.49 130 922.469 130C923.615 129.688 924.375 126.438 924.75 120.25C924.396 114.771 924.219 109.823 924.219 105.406V101.75C924.219 101.208 924.583 100.885 925.312 100.781ZM931.719 101.531C932.365 101.531 932.688 102.51 932.688 104.469C933.208 120.76 933.708 128.906 934.188 128.906L935.062 128.688L938.594 128.781L939.781 128.5C940.094 128.5 940.396 128.802 940.688 129.406C940.479 130.24 939.625 130.656 938.125 130.656L934.844 130.594C934.594 130.594 934.135 130.812 933.469 131.25H933C932.354 131.25 931.927 128.823 931.719 123.969C931.469 120.865 931.135 113.604 930.719 102.188C930.885 101.75 931.219 101.531 931.719 101.531ZM943.844 101.062C944.365 101.062 944.667 101.458 944.75 102.25H944.656L944.75 102.562C945.458 102.562 947.427 102.344 950.656 101.906C951.177 102.094 951.438 102.417 951.438 102.875C951.438 103.542 950.031 103.969 947.219 104.156L944.469 104.531V105.906C944.469 106.885 944.865 110.854 945.656 117.812H949.656C950.198 117.812 950.531 118.115 950.656 118.719C950.656 119.365 950.167 119.688 949.188 119.688H945.656V119.812L945.562 126.281C945.562 127.823 945.719 128.948 946.031 129.656L952.219 129.25C952.885 129.333 953.219 129.625 953.219 130.125C953.219 130.792 952.49 131.125 951.031 131.125C947.281 131.333 945.406 131.531 945.406 131.719C944.656 131.719 944.135 130.573 943.844 128.281L943.688 125.906L943.75 118.812L942.594 105.906V104.938C942.594 102.354 942.979 101.062 943.75 101.062H943.844ZM956.219 103.531C956.656 103.531 957.052 104.156 957.406 105.406H957.594C958.302 104.865 959.292 104.542 960.562 104.438C964.25 104.438 966.719 107.771 967.969 114.438L968.438 119.656C968.438 125.615 966.312 129.49 962.062 131.281L960.438 131.469H960.375C959.917 131.469 959.229 131.312 958.312 131V131.281L958.406 131.875C958.406 132.167 958.115 132.458 957.531 132.75C956.74 132.75 956.344 131.896 956.344 130.188C955.802 122.875 955.531 118.385 955.531 116.719L955.844 107.531C955.844 106.594 955.615 105.562 955.156 104.438C955.156 103.958 955.51 103.656 956.219 103.531ZM957.406 116.594L957.875 126.938C958.396 128.729 959.156 129.625 960.156 129.625H960.969C962.094 129.625 963.333 128.771 964.688 127.062C965.875 125.167 966.469 122.927 966.469 120.344V118.688C966.469 114.521 965.615 111.01 963.906 108.156C962.906 106.969 961.99 106.375 961.156 106.375H959.969C958.635 106.375 957.875 107.198 957.688 108.844L957.406 116.594Z" fill="#191A15"/>
<g filter="url(#filter1_d_2191_1502)">
<rect x="1184" y="183" width="284" height="110" rx="6" fill="white"/>
<line x1="1242" y1="250.707" x2="1447" y2="250.707" stroke="black" stroke-width="8"/>
<line x1="1242" y1="265.707" x2="1380" y2="265.707" stroke="#A6A6A6" stroke-width="6"/>
<circle cx="1219" cy="257.707" r="14" fill="#D9D9D9"/>
<path d="M1270.55 206.927C1270.85 206.006 1272.15 206.006 1272.45 206.927L1273.82 211.154C1273.96 211.566 1274.34 211.845 1274.77 211.845H1279.22C1280.19 211.845 1280.59 213.085 1279.81 213.654L1276.21 216.267C1275.86 216.521 1275.71 216.973 1275.85 217.385L1277.22 221.612C1277.52 222.533 1276.47 223.299 1275.68 222.73L1272.09 220.117C1271.74 219.863 1271.26 219.863 1270.91 220.117L1267.31 222.73C1266.53 223.299 1265.48 222.533 1265.78 221.612L1267.15 217.385C1267.28 216.973 1267.14 216.521 1266.79 216.267L1263.19 213.654C1262.41 213.085 1262.81 211.845 1263.78 211.845H1268.22C1268.66 211.845 1269.04 211.566 1269.17 211.154L1270.55 206.927Z" fill="#D9D9D9"/>
<path d="M1244.64 207.004L1246.01 211.231C1246.18 211.746 1246.66 212.095 1247.2 212.095H1251.65C1252.37 212.095 1252.68 213.025 1252.09 213.452L1248.49 216.064C1248.06 216.383 1247.87 216.947 1248.04 217.462L1249.41 221.689C1249.64 222.38 1248.85 222.955 1248.26 222.528L1244.66 219.915C1244.22 219.597 1243.63 219.597 1243.19 219.915L1239.6 222.528C1239.01 222.955 1238.22 222.38 1238.44 221.689L1239.82 217.462C1239.98 216.947 1239.8 216.383 1239.36 216.064L1235.77 213.452C1235.18 213.025 1235.48 212.095 1236.21 212.095H1240.65C1241.19 212.095 1241.67 211.746 1241.84 211.231L1243.21 207.004C1243.44 206.313 1244.42 206.313 1244.64 207.004Z" stroke="#D9D9D9" stroke-width="0.5"/>
<path d="M1217.07 207.004L1218.44 211.231C1218.61 211.746 1219.09 212.095 1219.63 212.095H1224.07C1224.8 212.095 1225.1 213.025 1224.51 213.452L1220.92 216.064C1220.48 216.383 1220.3 216.947 1220.46 217.462L1221.84 221.689C1222.06 222.38 1221.27 222.955 1220.68 222.528L1217.09 219.915C1216.65 219.597 1216.06 219.597 1215.62 219.915L1212.02 222.528C1211.44 222.955 1210.64 222.38 1210.87 221.689L1212.24 217.462C1212.41 216.947 1212.23 216.383 1211.79 216.064L1208.19 213.452C1207.6 213.025 1207.91 212.095 1208.63 212.095H1213.08C1213.62 212.095 1214.1 211.746 1214.27 211.231L1215.64 207.004C1215.86 206.313 1216.84 206.313 1217.07 207.004Z" stroke="#D9D9D9" stroke-width="0.5"/>
<path d="M1298.12 206.927C1298.42 206.006 1299.72 206.006 1300.02 206.927L1301.4 211.154C1301.53 211.566 1301.91 211.845 1302.35 211.845H1306.79C1307.76 211.845 1308.16 213.085 1307.38 213.654L1303.78 216.267C1303.43 216.521 1303.29 216.973 1303.42 217.385L1304.79 221.612C1305.09 222.533 1304.04 223.299 1303.26 222.73L1299.66 220.117C1299.31 219.863 1298.84 219.863 1298.48 220.117L1294.89 222.73C1294.11 223.299 1293.05 222.533 1293.35 221.612L1294.72 217.385C1294.86 216.973 1294.71 216.521 1294.36 216.267L1290.76 213.654C1289.98 213.085 1290.38 211.845 1291.35 211.845H1295.8C1296.23 211.845 1296.61 211.566 1296.75 211.154L1298.12 206.927Z" fill="#D9D9D9"/>
<path d="M1325.7 206.927C1325.99 206.006 1327.3 206.006 1327.6 206.927L1328.97 211.154C1329.11 211.566 1329.49 211.845 1329.92 211.845H1334.37C1335.34 211.845 1335.74 213.085 1334.95 213.654L1331.36 216.267C1331.01 216.521 1330.86 216.973 1331 217.385L1332.37 221.612C1332.67 222.533 1331.61 223.299 1330.83 222.73L1327.23 220.117C1326.88 219.863 1326.41 219.863 1326.06 220.117L1322.46 222.73C1321.68 223.299 1320.62 222.533 1320.92 221.612L1322.3 217.385C1322.43 216.973 1322.28 216.521 1321.93 216.267L1318.34 213.654C1317.55 213.085 1317.96 211.845 1318.93 211.845H1323.37C1323.8 211.845 1324.19 211.566 1324.32 211.154L1325.7 206.927Z" fill="#D9D9D9"/>
</g>
<g filter="url(#filter2_d_2191_1502)">
<rect x="293" y="178" width="284" height="110" rx="6" fill="white"/>
<line x1="351" y1="245.707" x2="556" y2="245.707" stroke="black" stroke-width="8"/>
<line x1="351" y1="260.707" x2="489" y2="260.707" stroke="#A6A6A6" stroke-width="6"/>
<circle cx="328" cy="252.707" r="14" fill="#D9D9D9"/>
<path d="M379.547 201.927C379.846 201.006 381.15 201.006 381.449 201.927L382.823 206.154C382.957 206.566 383.341 206.845 383.774 206.845H388.218C389.187 206.845 389.59 208.085 388.806 208.654L385.21 211.267C384.86 211.521 384.713 211.973 384.847 212.385L386.221 216.612C386.52 217.533 385.466 218.299 384.682 217.73L381.086 215.117C380.735 214.863 380.261 214.863 379.91 215.117L376.315 217.73C375.531 218.299 374.476 217.533 374.776 216.612L376.149 212.385C376.283 211.973 376.136 211.521 375.786 211.267L372.19 208.654C371.406 208.085 371.809 206.845 372.778 206.845H377.223C377.656 206.845 378.04 206.566 378.174 206.154L379.547 201.927Z" fill="#D9D9D9"/>
<path d="M353.641 202.004L355.015 206.231C355.182 206.746 355.662 207.095 356.203 207.095H360.648C361.375 207.095 361.677 208.025 361.089 208.452L357.493 211.064C357.055 211.383 356.872 211.947 357.039 212.462L358.413 216.689C358.637 217.38 357.846 217.955 357.258 217.528L353.663 214.915C353.224 214.597 352.631 214.597 352.193 214.915L348.597 217.528C348.01 217.955 347.219 217.38 347.443 216.689L348.817 212.462C348.984 211.947 348.801 211.383 348.363 211.064L344.767 208.452C344.179 208.025 344.481 207.095 345.208 207.095H349.652C350.194 207.095 350.674 206.746 350.841 206.231L352.215 202.004C352.439 201.313 353.417 201.313 353.641 202.004Z" stroke="#D9D9D9" stroke-width="0.5"/>
<path d="M326.067 202.004L327.44 206.231C327.608 206.746 328.088 207.095 328.629 207.095H333.074C333.8 207.095 334.103 208.025 333.515 208.452L329.919 211.064C329.481 211.383 329.298 211.947 329.465 212.462L330.838 216.689C331.063 217.38 330.272 217.955 329.684 217.528L326.088 214.915C325.65 214.597 325.057 214.597 324.619 214.915L321.023 217.528C320.435 217.955 319.644 217.38 319.869 216.689L321.242 212.462C321.41 211.947 321.226 211.383 320.788 211.064L317.193 208.452C316.605 208.025 316.907 207.095 317.633 207.095H322.078C322.62 207.095 323.1 206.746 323.267 206.231L324.64 202.004C324.865 201.313 325.842 201.313 326.067 202.004Z" stroke="#D9D9D9" stroke-width="0.5"/>
<path d="M407.121 201.927C407.421 201.006 408.724 201.006 409.023 201.927L410.397 206.154C410.531 206.566 410.915 206.845 411.348 206.845H415.793C416.761 206.845 417.164 208.085 416.38 208.654L412.785 211.267C412.434 211.521 412.288 211.973 412.421 212.385L413.795 216.612C414.094 217.533 413.04 218.299 412.256 217.73L408.66 215.117C408.31 214.863 407.835 214.863 407.485 215.117L403.889 217.73C403.105 218.299 402.051 217.533 402.35 216.612L403.723 212.385C403.857 211.973 403.711 211.521 403.36 211.267L399.764 208.654C398.981 208.085 399.383 206.845 400.352 206.845H404.797C405.23 206.845 405.614 206.566 405.748 206.154L407.121 201.927Z" fill="#D9D9D9"/>
<path d="M434.696 201.927C434.995 201.006 436.298 201.006 436.598 201.927L437.971 206.154C438.105 206.566 438.489 206.845 438.922 206.845H443.367C444.336 206.845 444.738 208.085 443.955 208.654L440.359 211.267C440.008 211.521 439.862 211.973 439.996 212.385L441.369 216.612C441.668 217.533 440.614 218.299 439.83 217.73L436.234 215.117C435.884 214.863 435.409 214.863 435.059 215.117L431.463 217.73C430.679 218.299 429.625 217.533 429.924 216.612L431.298 212.385C431.432 211.973 431.285 211.521 430.934 211.267L427.339 208.654C426.555 208.085 426.958 206.845 427.926 206.845H432.371C432.804 206.845 433.188 206.566 433.322 206.154L434.696 201.927Z" fill="#D9D9D9"/>
</g>
<path d="M1241.22 101.344C1243.26 101.344 1244.81 102.615 1245.88 105.156L1246.06 106.344C1246.06 108.719 1244.72 111.833 1242.03 115.688C1241.14 116.562 1240.31 117.125 1239.56 117.375L1239.66 118.25L1239.84 130.469C1239.84 130.948 1239.52 131.24 1238.88 131.344C1238.29 131.344 1238 130.948 1238 130.156C1238 121.052 1237.8 116.5 1237.41 116.5C1236.89 115.771 1236.62 115.219 1236.62 114.844C1236.62 114.427 1236.95 114.156 1237.59 114.031L1237.28 104.406C1237.28 102.823 1237.62 102.031 1238.31 102.031L1238.88 102.125C1239.67 101.604 1240.45 101.344 1241.22 101.344ZM1239.28 104.281L1239.5 114.531L1239.56 115.219C1240.94 114.677 1242.28 112.604 1243.59 109C1244.01 108.021 1244.22 107.042 1244.22 106.062C1243.64 104.167 1242.72 103.219 1241.47 103.219H1241.03C1240.36 103.219 1239.78 103.573 1239.28 104.281ZM1254.06 101C1255.94 101.167 1257.06 102.875 1257.44 106.125V107.438C1257.19 110.042 1255.88 112.656 1253.5 115.281C1253.96 116.26 1254.91 119.406 1256.34 124.719L1258.97 130.719C1258.7 131.281 1258.34 131.531 1257.91 131.469C1257.34 131.448 1256.47 129.833 1255.28 126.625C1254.47 125.021 1253.57 122.062 1252.59 117.75C1252.34 117 1252.15 116.615 1252 116.594L1249.91 117.688C1249.95 122.25 1250.14 126.552 1250.47 130.594C1250.43 130.927 1250.17 131.229 1249.69 131.5L1249.38 131.469C1248.79 131.427 1248.5 130.781 1248.5 129.531C1247.94 118.135 1247.86 110.146 1248.28 105.562C1247.86 105.188 1247.68 104.812 1247.72 104.438C1247.74 104.292 1247.97 104.01 1248.41 103.594C1248.47 102.74 1248.83 102.354 1249.5 102.438L1249.97 102.656C1251.72 101.448 1253.08 100.896 1254.06 101ZM1250.16 104.844C1249.93 109.406 1249.85 112.958 1249.94 115.5L1250.22 115.531C1252.26 114.573 1253.96 112.323 1255.31 108.781L1255.53 107.438L1255.56 107.156C1255.75 105.26 1255.32 103.833 1254.28 102.875L1253.78 102.844C1253.07 102.781 1251.86 103.448 1250.16 104.844ZM1264.59 104.312C1267.39 104.312 1269.64 108.219 1271.34 116.031C1271.57 117.656 1271.73 119.323 1271.81 121.031C1271.81 126.094 1270.47 129.51 1267.78 131.281C1266.72 131.677 1265.9 131.875 1265.31 131.875C1263.1 131.875 1261.64 130.104 1260.91 126.562C1260.55 125.208 1260.38 123.635 1260.38 121.844V121.344C1260.38 116.49 1261.21 111.312 1262.88 105.812V105.5L1262.75 105.406C1262.98 104.677 1263.59 104.312 1264.59 104.312ZM1264.72 106.156C1263.07 110.948 1262.25 116.01 1262.25 121.344V121.625C1262.25 126.229 1263.01 128.948 1264.53 129.781L1265.31 130H1265.62C1267.46 130 1268.76 128.354 1269.53 125.062C1269.74 124.229 1269.84 123.26 1269.84 122.156V120.344C1269.84 115.302 1268.53 110.812 1265.91 106.875C1265.41 106.396 1265.01 106.156 1264.72 106.156ZM1278.16 101.344C1280.2 101.344 1281.75 102.615 1282.81 105.156L1283 106.344C1283 108.719 1281.66 111.833 1278.97 115.688C1278.07 116.562 1277.25 117.125 1276.5 117.375L1276.59 118.25L1276.78 130.469C1276.78 130.948 1276.46 131.24 1275.81 131.344C1275.23 131.344 1274.94 130.948 1274.94 130.156C1274.94 121.052 1274.74 116.5 1274.34 116.5C1273.82 115.771 1273.56 115.219 1273.56 114.844C1273.56 114.427 1273.89 114.156 1274.53 114.031L1274.22 104.406C1274.22 102.823 1274.56 102.031 1275.25 102.031L1275.81 102.125C1276.6 101.604 1277.39 101.344 1278.16 101.344ZM1276.22 104.281L1276.44 114.531L1276.5 115.219C1277.88 114.677 1279.22 112.604 1280.53 109C1280.95 108.021 1281.16 107.042 1281.16 106.062C1280.57 104.167 1279.66 103.219 1278.41 103.219H1277.97C1277.3 103.219 1276.72 103.573 1276.22 104.281ZM1288.47 104.312C1291.26 104.312 1293.51 108.219 1295.22 116.031C1295.45 117.656 1295.6 119.323 1295.69 121.031C1295.69 126.094 1294.34 129.51 1291.66 131.281C1290.59 131.677 1289.77 131.875 1289.19 131.875C1286.98 131.875 1285.51 130.104 1284.78 126.562C1284.43 125.208 1284.25 123.635 1284.25 121.844V121.344C1284.25 116.49 1285.08 111.312 1286.75 105.812V105.5L1286.62 105.406C1286.85 104.677 1287.47 104.312 1288.47 104.312ZM1288.59 106.156C1286.95 110.948 1286.12 116.01 1286.12 121.344V121.625C1286.12 126.229 1286.89 128.948 1288.41 129.781L1289.19 130H1289.5C1291.33 130 1292.64 128.354 1293.41 125.062C1293.61 124.229 1293.72 123.26 1293.72 122.156V120.344C1293.72 115.302 1292.41 110.812 1289.78 106.875C1289.28 106.396 1288.89 106.156 1288.59 106.156ZM1304.25 101C1306.12 101.167 1307.25 102.875 1307.62 106.125V107.438C1307.38 110.042 1306.06 112.656 1303.69 115.281C1304.15 116.26 1305.09 119.406 1306.53 124.719L1309.16 130.719C1308.89 131.281 1308.53 131.531 1308.09 131.469C1307.53 131.448 1306.66 129.833 1305.47 126.625C1304.66 125.021 1303.76 122.062 1302.78 117.75C1302.53 117 1302.33 116.615 1302.19 116.594L1300.09 117.688C1300.14 122.25 1300.32 126.552 1300.66 130.594C1300.61 130.927 1300.35 131.229 1299.88 131.5L1299.56 131.469C1298.98 131.427 1298.69 130.781 1298.69 129.531C1298.12 118.135 1298.05 110.146 1298.47 105.562C1298.05 105.188 1297.86 104.812 1297.91 104.438C1297.93 104.292 1298.16 104.01 1298.59 103.594C1298.66 102.74 1299.02 102.354 1299.69 102.438L1300.16 102.656C1301.91 101.448 1303.27 100.896 1304.25 101ZM1300.34 104.844C1300.11 109.406 1300.04 112.958 1300.12 115.5L1300.41 115.531C1302.45 114.573 1304.15 112.323 1305.5 108.781L1305.72 107.438L1305.75 107.156C1305.94 105.26 1305.51 103.833 1304.47 102.875L1303.97 102.844C1303.26 102.781 1302.05 103.448 1300.34 104.844ZM1316.41 101.906C1318.49 101.906 1319.97 103.156 1320.84 105.656C1320.97 105.906 1321.03 106.271 1321.03 106.75C1321.03 107.271 1320.71 107.562 1320.06 107.625C1319.5 107.625 1319.15 106.938 1319 105.562C1318.29 104.375 1317.5 103.781 1316.62 103.781H1316.19C1314.92 103.781 1314.17 105.031 1313.94 107.531V107.625C1313.94 110.625 1315.84 115.156 1319.66 121.219C1320.84 123.531 1321.44 125.469 1321.44 127.031C1321.44 129.156 1320.35 130.802 1318.19 131.969L1317.09 132.156C1315.18 132.156 1313.34 130.844 1311.59 128.219C1311.26 127.635 1311.09 127.01 1311.09 126.344C1311.09 125.281 1311.46 124.688 1312.19 124.562H1312.47C1312.93 124.875 1313.16 125.167 1313.16 125.438L1312.97 126.344V126.406C1312.97 127.76 1314.08 129.01 1316.31 130.156L1316.91 130.281H1317.19C1318.27 130.281 1319.06 129.354 1319.56 127.5V127.125C1319.56 124.896 1318.11 121.615 1315.22 117.281C1313.14 113.177 1312.09 109.958 1312.09 107.625C1312.09 105 1313.1 103.167 1315.12 102.125L1316.41 101.906ZM1332.16 101.938C1332.47 101.938 1332.77 102.24 1333.06 102.844L1332.97 103.312C1334.78 115.292 1336.05 124.417 1336.78 130.688C1336.57 131.271 1336.25 131.562 1335.81 131.562C1335.08 131.562 1334.65 130 1334.5 126.875L1334.16 124.406L1332.44 124.5C1331.35 124.5 1329.72 124.365 1327.53 124.094C1325.99 129.365 1324.94 132 1324.38 132H1324.31C1323.65 131.812 1323.31 131.479 1323.31 131C1325 126.875 1326.83 119.812 1328.81 109.812C1329.67 106.729 1330.45 104.24 1331.16 102.344C1331.45 102.073 1331.78 101.938 1332.16 101.938ZM1328.03 122.219C1329.18 122.49 1330.39 122.625 1331.66 122.625H1333.34C1333.57 122.625 1333.77 122.531 1333.94 122.344L1331.66 107.156H1331.59C1331.18 107.802 1330.57 110.073 1329.78 113.969L1328.03 122.219ZM1339.38 101.531C1340.02 101.531 1340.34 102.51 1340.34 104.469C1340.86 120.76 1341.36 128.906 1341.84 128.906L1342.72 128.688L1346.25 128.781L1347.44 128.5C1347.75 128.5 1348.05 128.802 1348.34 129.406C1348.14 130.24 1347.28 130.656 1345.78 130.656L1342.5 130.594C1342.25 130.594 1341.79 130.812 1341.12 131.25H1340.66C1340.01 131.25 1339.58 128.823 1339.38 123.969C1339.12 120.865 1338.79 113.604 1338.38 102.188C1338.54 101.75 1338.88 101.531 1339.38 101.531ZM1359.06 101.156C1359.54 101.156 1359.91 102.01 1360.16 103.719C1362.78 108.135 1364.09 110.802 1364.09 111.719L1364.88 114.844H1364.97C1365.86 109.865 1366.81 106.323 1367.81 104.219C1368.58 102.573 1369.21 101.75 1369.69 101.75C1370.38 101.75 1370.8 102.646 1370.97 104.438C1371.34 106.5 1371.53 109.25 1371.53 112.688V120.469C1371.7 125.906 1372.06 128.625 1372.62 128.625C1373.02 128.833 1373.22 129.167 1373.22 129.625C1373.22 130.771 1372.93 131.521 1372.34 131.875H1371.75C1370.65 131.354 1369.92 127.021 1369.56 118.875L1369.69 115.344V112.5C1369.65 108.083 1369.48 105.875 1369.19 105.875H1369.09C1368.3 107.708 1367.48 110.99 1366.62 115.719C1366.38 118.49 1365.95 119.875 1365.34 119.875H1364.88C1364.25 119.875 1363.35 117.083 1362.19 111.5L1360.91 108.656H1360.62L1360.91 116.812L1360.81 130.688C1360.73 131.354 1360.41 131.688 1359.84 131.688C1359.26 131.562 1358.97 131.292 1358.97 130.875L1359.06 116.125C1359.06 111.5 1358.7 106.812 1357.97 102.062C1357.97 101.583 1358.33 101.281 1359.06 101.156ZM1383.91 101.938C1384.22 101.938 1384.52 102.24 1384.81 102.844L1384.72 103.312C1386.53 115.292 1387.8 124.417 1388.53 130.688C1388.32 131.271 1388 131.562 1387.56 131.562C1386.83 131.562 1386.4 130 1386.25 126.875L1385.91 124.406L1384.19 124.5C1383.1 124.5 1381.47 124.365 1379.28 124.094C1377.74 129.365 1376.69 132 1376.12 132H1376.06C1375.4 131.812 1375.06 131.479 1375.06 131C1376.75 126.875 1378.58 119.812 1380.56 109.812C1381.42 106.729 1382.2 104.24 1382.91 102.344C1383.2 102.073 1383.53 101.938 1383.91 101.938ZM1379.78 122.219C1380.93 122.49 1382.14 122.625 1383.41 122.625H1385.09C1385.32 122.625 1385.52 122.531 1385.69 122.344L1383.41 107.156H1383.34C1382.93 107.802 1382.32 110.073 1381.53 113.969L1379.78 122.219ZM1391.47 103.531C1391.91 103.531 1392.3 104.156 1392.66 105.406H1392.84C1393.55 104.865 1394.54 104.542 1395.81 104.438C1399.5 104.438 1401.97 107.771 1403.22 114.438L1403.69 119.656C1403.69 125.615 1401.56 129.49 1397.31 131.281L1395.69 131.469H1395.62C1395.17 131.469 1394.48 131.312 1393.56 131V131.281L1393.66 131.875C1393.66 132.167 1393.36 132.458 1392.78 132.75C1391.99 132.75 1391.59 131.896 1391.59 130.188C1391.05 122.875 1390.78 118.385 1390.78 116.719L1391.09 107.531C1391.09 106.594 1390.86 105.562 1390.41 104.438C1390.41 103.958 1390.76 103.656 1391.47 103.531ZM1392.66 116.594L1393.12 126.938C1393.65 128.729 1394.41 129.625 1395.41 129.625H1396.22C1397.34 129.625 1398.58 128.771 1399.94 127.062C1401.12 125.167 1401.72 122.927 1401.72 120.344V118.688C1401.72 114.521 1400.86 111.01 1399.16 108.156C1398.16 106.969 1397.24 106.375 1396.41 106.375H1395.22C1393.89 106.375 1393.12 107.198 1392.94 108.844L1392.66 116.594ZM1407.19 101.062C1407.71 101.062 1408.01 101.458 1408.09 102.25H1408L1408.09 102.562C1408.8 102.562 1410.77 102.344 1414 101.906C1414.52 102.094 1414.78 102.417 1414.78 102.875C1414.78 103.542 1413.38 103.969 1410.56 104.156L1407.81 104.531V105.906C1407.81 106.885 1408.21 110.854 1409 117.812H1413C1413.54 117.812 1413.88 118.115 1414 118.719C1414 119.365 1413.51 119.688 1412.53 119.688H1409V119.812L1408.91 126.281C1408.91 127.823 1409.06 128.948 1409.38 129.656L1415.56 129.25C1416.23 129.333 1416.56 129.625 1416.56 130.125C1416.56 130.792 1415.83 131.125 1414.38 131.125C1410.62 131.333 1408.75 131.531 1408.75 131.719C1408 131.719 1407.48 130.573 1407.19 128.281L1407.03 125.906L1407.09 118.812L1405.94 105.906V104.938C1405.94 102.354 1406.32 101.062 1407.09 101.062H1407.19Z" fill="#191A15"/>
<path d="M572.796 505.915C502.212 531.198 491.27 484.837 494.951 461.245L425.979 469.504C437.433 548.232 498.91 574.753 527.887 575.424C592.315 576.632 678.529 534.404 713.583 513.139L710.023 441.068C693.69 452.149 643.38 480.632 572.796 505.915Z" fill="white" stroke="#0F172A" stroke-width="2"/>
<path d="M409.543 429.633C406.421 403.556 425.029 379.885 451.107 376.762V376.762C474.439 373.968 495.619 390.618 498.412 413.95L504.904 468.165L415.44 478.877L409.543 429.633Z" fill="#0F172A"/>
<path d="M738.806 396.08L775.607 415.943C781.954 419.369 784.487 427.178 781.36 433.677L732.832 534.53C729.492 541.47 721.032 544.214 714.255 540.556L667.953 515.565C661.159 511.898 658.818 503.289 662.821 496.687L720.849 400.962C724.578 394.81 732.476 392.663 738.806 396.08Z" fill="#A6A6A6" stroke="black"/>
<path d="M727.864 408.374C730.096 404.785 734.736 403.552 738.455 405.559L767.917 421.454C771.635 423.459 773.153 428.009 771.384 431.845L730.492 520.515C728.559 524.706 723.49 526.397 719.428 524.204L679.29 502.54C675.232 500.35 673.861 495.191 676.297 491.275L727.864 408.374Z" fill="#DBE5FA"/>
<rect width="40.0326" height="15.1556" transform="matrix(0.884846 0.465883 -0.523945 0.851752 702.979 468.936)" fill="#9DB1E0"/>
<rect width="40.0326" height="15.1556" transform="matrix(0.884846 0.465883 -0.523945 0.851752 694.607 483.312)" fill="#9DB1E0"/>
<circle cx="695.701" cy="520.541" r="4.5" transform="rotate(28.3578 695.701 520.541)" fill="#D9D9D9"/>
<path d="M701.329 446.272C701.944 449.977 701.452 453.462 700.211 456.091C698.968 458.725 697.027 460.413 694.755 460.79C692.484 461.167 690.102 460.197 688.074 458.106C686.05 456.019 684.459 452.88 683.844 449.175C683.229 445.469 683.72 441.985 684.962 439.355C686.205 436.721 688.146 435.034 690.417 434.657C692.689 434.28 695.071 435.25 697.098 437.34C699.123 439.428 700.714 442.567 701.329 446.272Z" fill="white" stroke="black" stroke-width="2"/>
<path d="M767.906 476.947C763.003 475.718 758.923 473.369 756.28 470.617C753.625 467.854 752.519 464.81 753.2 462.096C753.88 459.381 756.291 457.219 759.935 456.034C763.564 454.855 768.27 454.709 773.173 455.938C778.076 457.168 782.156 459.516 784.799 462.268C787.454 465.031 788.56 468.075 787.879 470.79C787.199 473.504 784.788 475.667 781.143 476.851C777.514 478.03 772.809 478.176 767.906 476.947Z" fill="white" stroke="black" stroke-width="2"/>
<path d="M757.272 488.898C752.981 487.776 749.415 485.731 747.109 483.384C744.787 481.019 743.865 478.497 744.433 476.323C745.002 474.149 747.041 472.402 750.224 471.478C753.384 470.56 757.494 470.524 761.785 471.646C766.076 472.769 769.642 474.814 771.948 477.161C774.27 479.525 775.192 482.048 774.623 484.221C774.055 486.395 772.016 488.143 768.833 489.067C765.673 489.984 761.563 490.021 757.272 488.898Z" fill="white" stroke="black" stroke-width="2"/>
<path d="M744.033 497.462C747.207 499.754 749.451 502.622 750.54 505.362C751.635 508.115 751.524 510.594 750.274 512.326C749.025 514.057 746.706 514.943 743.748 514.77C740.804 514.598 737.376 513.372 734.202 511.081C731.028 508.789 728.785 505.921 727.695 503.181C726.6 500.428 726.711 497.948 727.961 496.217C729.211 494.486 731.529 493.6 734.487 493.773C737.431 493.945 740.859 495.171 744.033 497.462Z" fill="white" stroke="black" stroke-width="2"/>
<path d="M757.272 486.289C760.447 488.58 762.69 491.448 763.78 494.188C764.875 496.941 764.763 499.421 763.513 501.152C762.264 502.883 759.945 503.769 756.988 503.596C754.044 503.425 750.616 502.198 747.441 499.907C744.267 497.615 742.024 494.747 740.934 492.007C739.839 489.254 739.951 486.775 741.2 485.044C742.45 483.313 744.768 482.426 747.726 482.599C750.67 482.771 754.098 483.997 757.272 486.289Z" fill="white" stroke="black" stroke-width="2"/>
<path d="M770.5 289.288C769.479 280.314 763.916 279.013 762.197 279.207L726.089 283.992C721.889 284.469 719.457 287.744 719.924 291.849L723.279 321.35C724.159 329.083 730.956 330.179 733.912 329.811L765.513 326.217C771.337 325.554 774.083 320.794 773.779 318.12L770.5 289.288Z" fill="#064D47"/>
<path fill-rule="evenodd" clip-rule="evenodd" d="M755.917 285.822L755.94 285.82C757.144 285.683 758.932 286.065 760.509 287.363C762.165 288.727 763.437 290.964 763.816 294.297L765.896 312.581C766.086 314.251 765.354 316.059 764.185 317.428C762.946 318.879 761.051 320.052 758.58 320.333L738.61 322.605C737.277 322.768 735.219 322.61 733.329 321.569C731.296 320.451 729.615 318.389 729.247 315.155L727.119 296.447C726.911 294.614 727.338 292.813 728.437 291.385C729.539 289.953 731.175 288.642 733.072 288.42L755.917 285.822ZM761.2 313.309L759.121 295.026C759.108 294.915 759.096 294.803 759.083 294.69C758.861 292.677 758.618 290.474 756.477 290.718L733.629 293.316C731.554 293.552 731.684 294.635 731.833 295.883C731.841 295.956 731.85 296.029 731.859 296.103L733.986 314.81C734.176 316.48 734.923 317.218 735.646 317.616C736.505 318.089 737.137 318.203 738.06 318.098L738.073 318.096L758.066 315.822C759.668 315.64 761.434 315.367 761.2 313.31C761.2 313.306 761.2 313.306 761.2 313.309Z" fill="white"/>
<path d="M754.462 303.877C754.912 307.832 752.071 311.402 748.116 311.852C744.162 312.302 740.591 309.461 740.142 305.506C739.692 301.551 742.533 297.981 746.487 297.531C750.442 297.082 754.012 299.923 754.462 303.877ZM743.876 305.081C744.091 306.973 745.8 308.333 747.692 308.117C749.584 307.902 750.943 306.194 750.728 304.302C750.512 302.41 748.804 301.051 746.912 301.266C745.02 301.481 743.661 303.189 743.876 305.081Z" fill="white"/>
<circle cx="754.767" cy="294.657" r="1.92173" transform="rotate(-6.48889 754.767 294.657)" fill="white"/>
<path d="M832.418 379.326C839.448 369.538 835.112 363.267 833.238 361.92L793.246 334.306C788.664 331.016 783.325 332.076 780.11 336.553L757.001 368.732C750.944 377.167 756.684 384.34 759.937 386.624L794.406 411.377C800.759 415.939 807.739 413.692 809.833 410.776L832.418 379.326Z" fill="#064D47"/>
<path fill-rule="evenodd" clip-rule="evenodd" d="M821.103 362.837L821.128 362.855C822.44 363.799 823.867 365.778 824.264 368.474C824.68 371.306 823.934 374.658 821.323 378.294L807.001 398.238C805.693 400.059 803.349 401.192 800.967 401.498C798.441 401.823 795.517 401.286 792.821 399.35L771.039 383.707C769.574 382.675 767.682 380.675 766.744 377.953C765.735 375.026 765.92 371.481 768.453 367.953L783.107 347.547C784.543 345.548 786.579 344.149 788.945 343.722C791.318 343.293 794.11 343.462 796.185 344.943L821.103 362.837ZM801.705 394.752L816.027 374.808C816.114 374.687 816.202 374.565 816.291 374.443C817.874 372.253 819.607 369.857 817.272 368.18L792.35 350.283C790.087 348.658 789.244 349.844 788.274 351.212C788.217 351.291 788.16 351.372 788.103 351.452L773.449 371.858C772.141 373.679 772.218 375.078 772.577 376.12C773.003 377.356 773.525 378.034 774.532 378.758L774.546 378.768L796.355 394.429C798.102 395.684 800.093 396.995 801.703 394.752C801.707 394.748 801.708 394.748 801.705 394.752Z" fill="white"/>
<path d="M803.489 379.387C800.392 383.701 794.384 384.687 790.07 381.589C785.757 378.491 784.771 372.483 787.869 368.17C790.966 363.856 796.974 362.871 801.288 365.968C805.601 369.066 806.587 375.074 803.489 379.387ZM791.942 371.095C790.46 373.159 790.932 376.033 792.996 377.515C795.059 378.997 797.934 378.526 799.416 376.462C800.898 374.398 800.426 371.524 798.362 370.042C796.299 368.56 793.424 369.031 791.942 371.095Z" fill="white"/>
<circle cx="812.052" cy="370.541" r="2.56416" transform="rotate(35.6833 812.052 370.541)" fill="white"/>
<path d="M745.26 353.609L743.538 360.365L739.439 376.451C737.291 384.881 731.539 385.716 728.932 385.08L707.376 379.588C699.48 376.959 698.699 370.724 699.296 367.935L704.276 348.39C706.802 338.207 712.902 337.283 715.636 338.094L739.364 344.14C745.458 346.31 745.834 351.356 745.26 353.609Z" fill="#FFC728"/>
<path d="M735.004 353.337L732.518 356.993C732.196 357.467 731.54 357.567 731.064 357.248C726.366 354.096 724.608 356.583 724.199 358.832C724.114 359.299 724.437 359.726 724.897 359.843L727.642 360.542C728.177 360.679 728.5 361.223 728.364 361.758L727.546 364.968C727.409 365.503 726.865 365.826 726.33 365.69L723.764 365.036C723.228 364.9 722.684 365.223 722.548 365.758L720.193 375C720.056 375.535 719.512 375.859 718.977 375.722L713.193 374.249C712.658 374.112 712.335 373.568 712.471 373.033L714.826 363.791C714.962 363.255 714.639 362.711 714.104 362.575L711.94 362.023C711.405 361.887 711.082 361.343 711.218 360.807L712.036 357.598C712.172 357.063 712.717 356.739 713.252 356.876L715.416 357.427C715.951 357.563 716.496 357.235 716.636 356.701C718.332 350.226 718.91 350.083 720.803 348.739C725.219 345.605 732.867 349.629 735.004 352.319C735.239 352.615 735.216 353.025 735.004 353.337Z" fill="white"/>
<path d="M865.682 286.496L866.821 295.069L869.534 315.482C870.955 326.178 864.719 329.797 861.424 330.27L834.071 333.904C823.767 334.526 819.987 327.709 819.385 324.223L816.09 299.421C814.294 286.531 820.89 282.65 824.412 282.32L854.521 278.319C862.538 278.002 865.302 283.638 865.682 286.496Z" fill="#FFC728"/>
<path d="M853.78 290.777L852.522 296.527C852.399 297.087 851.827 297.425 851.268 297.299C844.013 295.661 843.235 299.602 843.89 302.431C843.997 302.893 844.454 303.169 844.925 303.106L848.84 302.586C849.387 302.513 849.89 302.898 849.963 303.446L850.568 307.995C850.64 308.543 850.255 309.046 849.708 309.118L845.975 309.614C845.428 309.687 845.043 310.19 845.115 310.737L846.737 322.942C846.81 323.489 846.425 323.992 845.878 324.065L838.062 325.103C837.514 325.176 837.012 324.791 836.939 324.244L835.317 312.039C835.244 311.492 834.742 311.107 834.194 311.18L830.972 311.608C830.424 311.681 829.921 311.296 829.849 310.748L829.244 306.199C829.171 305.651 829.556 305.149 830.104 305.076L833.326 304.648C833.874 304.575 834.258 304.069 834.188 303.521C833.107 295.051 833.703 294.634 835.276 292.189C838.956 286.472 849.834 287.669 853.41 289.827C853.733 290.022 853.861 290.408 853.78 290.777Z" fill="white"/>
<line x1="725.75" y1="432.083" x2="754.072" y2="446.5" stroke="black" stroke-width="5"/>
<line x1="721.211" y1="440.993" x2="749.533" y2="455.41" stroke="black" stroke-width="5"/>
<path d="M84.6438 824.901L54.8122 814.81M84.6438 824.901L108.294 754.98L60.4689 738.804M84.6438 824.901C86.5353 817.748 85.0328 808.15 76.036 805.106C68.7926 802.656 57.1773 807.818 54.8122 814.81M54.8122 814.81C50.9627 826.711 39.4518 849.613 24.2051 846.015M24.2051 846.015L60.4689 738.804M24.2051 846.015L9.99963 841.21L30.2995 781.195C38.717 782.31 52.6694 777.463 41.1392 749.148L46.2634 733.999L60.4689 738.804" stroke="black" stroke-width="2"/>
<path d="M323.862 577.27C276.797 771.067 169.292 791.499 73.292 719.499V845.999C220.792 897.499 332.42 825.431 405.408 628.613L323.862 577.27Z" fill="white" stroke="black" stroke-width="2"/>
<path d="M73.792 770.999C220.792 810.999 311.99 781.636 353.561 603.443M73.792 811.499C237.292 888.999 385.475 746.602 360.105 603.443" stroke="#A6A6A6" stroke-width="2"/>
<path fill-rule="evenodd" clip-rule="evenodd" d="M456.536 612.521C465.633 603.342 472.833 592.461 477.724 580.5L386.638 543.25L295.552 506C290.66 517.962 288.172 530.77 288.23 543.693C288.289 556.616 290.892 569.401 295.891 581.318C300.89 593.235 308.187 604.051 317.367 613.148C324.467 620.184 332.585 626.086 341.435 630.662L403.133 1060.11L494.552 1048.01L429.209 631.974C439.353 627.107 448.599 620.53 456.536 612.521Z" fill="#0F172A"/>
<path fill-rule="evenodd" clip-rule="evenodd" d="M456.536 612.521C465.633 603.342 472.833 592.461 477.724 580.5L386.638 543.25L295.552 506C290.66 517.962 288.172 530.77 288.23 543.693C288.289 556.616 290.892 569.401 295.891 581.318C300.89 593.235 308.187 604.051 317.367 613.148C324.467 620.184 332.585 626.086 341.435 630.662L403.133 1060.11L494.552 1048.01L429.209 631.974C439.353 627.107 448.599 620.53 456.536 612.521Z" fill="#0F172A"/>
<path d="M477.724 580.5L478.187 580.689L478.377 580.226L477.914 580.037L477.724 580.5ZM456.536 612.521L456.181 612.169L456.181 612.169L456.536 612.521ZM386.638 543.25L386.449 543.713L386.449 543.713L386.638 543.25ZM295.552 506L295.741 505.537L295.278 505.348L295.089 505.811L295.552 506ZM288.23 543.693L287.73 543.695L287.73 543.695L288.23 543.693ZM295.891 581.318L295.43 581.511L295.43 581.511L295.891 581.318ZM317.367 613.148L317.015 613.503L317.015 613.503L317.367 613.148ZM341.435 630.662L341.93 630.591L341.893 630.336L341.665 630.218L341.435 630.662ZM403.133 1060.11L402.638 1060.18L402.709 1060.67L403.199 1060.61L403.133 1060.11ZM494.552 1048.01L494.618 1048.51L495.126 1048.44L495.046 1047.93L494.552 1048.01ZM429.209 631.974L428.992 631.524L428.657 631.684L428.715 632.052L429.209 631.974ZM477.262 580.31C472.395 592.211 465.232 603.037 456.181 612.169L456.891 612.873C466.034 603.648 473.271 592.711 478.187 580.689L477.262 580.31ZM386.449 543.713L477.535 580.962L477.914 580.037L386.827 542.787L386.449 543.713ZM295.362 506.463L386.449 543.713L386.827 542.787L295.741 505.537L295.362 506.463ZM288.73 543.69C288.673 530.833 291.148 518.09 296.015 506.189L295.089 505.811C290.172 517.833 287.672 530.706 287.73 543.695L288.73 543.69ZM296.352 581.125C291.378 569.268 288.788 556.548 288.73 543.69L287.73 543.695C287.789 556.684 290.405 569.534 295.43 581.511L296.352 581.125ZM317.718 612.793C308.586 603.742 301.326 592.981 296.352 581.125L295.43 581.511C300.454 593.489 307.789 604.36 317.015 613.503L317.718 612.793ZM341.665 630.218C332.86 625.665 324.783 619.794 317.718 612.793L317.015 613.503C324.151 620.575 332.311 626.507 341.205 631.106L341.665 630.218ZM340.94 630.733L402.638 1060.18L403.628 1060.04L341.93 630.591L340.94 630.733ZM403.199 1060.61L494.618 1048.51L494.487 1047.51L403.068 1059.62L403.199 1060.61ZM495.046 1047.93L429.703 631.897L428.715 632.052L494.059 1048.09L495.046 1047.93ZM456.181 612.169C448.284 620.138 439.085 626.681 428.992 631.524L429.425 632.425C439.621 627.533 448.914 620.923 456.891 612.873L456.181 612.169Z" fill="black"/>
<path d="M472.018 1050.44L475.452 1075.65M472.018 1050.44L417.948 1057.8L423.453 1098.22M472.018 1050.44C466.665 1051.57 460.848 1056.03 461.884 1063.64C462.717 1069.76 470.045 1076.38 475.452 1075.65M475.452 1075.65C484.596 1074.26 503.579 1074.59 506.361 1086.92M506.361 1086.92L423.453 1098.22M506.361 1086.92L507.997 1098.93L461.586 1105.25C459.476 1098.74 451.566 1090.31 436.804 1108.63L425.089 1110.22L423.453 1098.22" stroke="black" stroke-width="2"/>
<path d="M388.875 283.77C395.831 309.047 386.695 333.605 368.468 338.621C350.242 343.637 307.457 354.279 300.5 329.001C293.544 303.724 325.051 252.099 343.278 247.083C361.504 242.067 381.919 258.492 388.875 283.77Z" fill="#0F172A"/>
<path d="M401.384 378.187H358.85L364.89 324.326H401.384V378.187Z" fill="white" stroke="#0F172A" stroke-width="2"/>
<path d="M275.039 479.868C275.039 422.46 321.577 375.922 378.985 375.922V375.922C436.393 375.922 482.931 422.46 482.931 479.868V592.874H275.039V479.868Z" fill="#064D47"/>
<path d="M362.876 407.131C320.794 370.083 345.342 350.082 362.876 344.713C357.842 366.861 372.86 374.747 380.998 375.922C396.099 378.101 400.797 360.905 401.636 351.005C410.495 351.609 418.007 363.589 418.247 371.14C418.65 383.825 410.696 400.419 406.669 407.131L385.78 389.764L362.876 407.131Z" fill="#064D47" stroke="#064D47"/>
<path d="M339.471 372.902C341.065 380.285 348.078 397.567 363.381 407.635L385.277 389.765L407.174 407.635C410.278 402.349 416.939 388.003 418.751 372.902" stroke="#0F172A" stroke-width="4"/>
<path d="M334.939 463.004C328.479 485.991 333.831 533.324 406.92 516.612C480.01 499.9 533.35 477.601 550.884 468.541C552.666 467.687 555.632 466.75 558.035 466.91C564.835 467.363 557.638 476.862 551.632 480.083L533.266 489.934C537.113 489.934 540.621 492.136 542.295 495.6L555.827 523.621C559.188 530.58 561.737 539.099 556.824 545.065C552.265 550.6 543.484 553.893 528.232 547.969C484.79 565.208 409.37 587.965 354.067 580.289C325.375 576.178 267.487 542.536 265.474 463.004H334.939Z" fill="white"/>
<path d="M334.939 463.004C328.479 485.991 333.831 533.324 406.92 516.612C480.01 499.9 533.35 477.601 550.884 468.541C552.666 467.687 555.632 466.75 558.035 466.91C564.835 467.363 557.638 476.862 551.632 480.083L533.266 489.934V489.934C537.113 489.934 540.621 492.136 542.295 495.6L555.827 523.621C559.188 530.58 561.737 539.099 556.824 545.065C552.265 550.6 543.484 553.893 528.232 547.969L545.85 540.523C508.517 557.47 417.894 589.148 354.067 580.289C325.375 576.178 267.487 542.536 265.474 463.004H334.939Z" stroke="#0F172A" stroke-width="2"/>
<path d="M253.896 421.463C253.896 395.199 275.187 373.908 301.451 373.908V373.908C324.95 373.908 344 392.958 344 416.457V471.059H253.896V421.463Z" fill="#0F172A"/>
<mask id="path-74-inside-1_2191_1502" fill="white">
<path fill-rule="evenodd" clip-rule="evenodd" d="M423.14 319.526C417.549 336.041 401.922 347.928 383.519 347.928C365.116 347.928 349.489 336.041 343.898 319.526C337.118 318.492 331.924 312.636 331.924 305.567C331.924 298.358 337.326 292.411 344.302 291.552C350.214 275.633 365.542 264.289 383.519 264.289C401.496 264.289 416.824 275.632 422.735 291.552C429.713 292.41 435.116 298.357 435.116 305.567C435.116 312.636 429.921 318.492 423.14 319.526ZM423.114 292.616C424.556 296.849 425.339 301.388 425.339 306.109C425.339 310.405 424.691 314.55 423.487 318.451C429.542 317.287 434.116 311.961 434.116 305.567C434.116 299.042 429.353 293.629 423.114 292.616Z"/>
</mask>
<path fill-rule="evenodd" clip-rule="evenodd" d="M423.14 319.526C417.549 336.041 401.922 347.928 383.519 347.928C365.116 347.928 349.489 336.041 343.898 319.526C337.118 318.492 331.924 312.636 331.924 305.567C331.924 298.358 337.326 292.411 344.302 291.552C350.214 275.633 365.542 264.289 383.519 264.289C401.496 264.289 416.824 275.632 422.735 291.552C429.713 292.41 435.116 298.357 435.116 305.567C435.116 312.636 429.921 318.492 423.14 319.526ZM423.114 292.616C424.556 296.849 425.339 301.388 425.339 306.109C425.339 310.405 424.691 314.55 423.487 318.451C429.542 317.287 434.116 311.961 434.116 305.567C434.116 299.042 429.353 293.629 423.114 292.616Z" fill="white"/>
<path d="M423.14 319.526L422.989 318.537L422.388 318.629L422.193 319.205L423.14 319.526ZM343.898 319.526L344.845 319.205L344.65 318.629L344.049 318.537L343.898 319.526ZM344.302 291.552L344.425 292.545L345.028 292.471L345.24 291.9L344.302 291.552ZM422.735 291.552L421.798 291.9L422.01 292.47L422.613 292.545L422.735 291.552ZM423.114 292.616L423.275 291.629L421.631 291.362L422.168 292.939L423.114 292.616ZM423.487 318.451L422.532 318.156L422.041 319.748L423.676 319.433L423.487 318.451ZM383.519 348.928C402.364 348.928 418.363 336.755 424.087 319.846L422.193 319.205C416.735 335.326 401.481 346.928 383.519 346.928V348.928ZM342.951 319.846C348.675 336.755 364.674 348.928 383.519 348.928V346.928C365.557 346.928 350.303 335.326 344.845 319.205L342.951 319.846ZM330.924 305.567C330.924 313.137 336.486 319.407 343.747 320.514L344.049 318.537C337.75 317.576 332.924 312.134 332.924 305.567H330.924ZM344.18 290.56C336.708 291.479 330.924 297.847 330.924 305.567H332.924C332.924 298.869 337.943 293.342 344.425 292.545L344.18 290.56ZM383.519 263.289C365.11 263.289 349.417 274.905 343.365 291.204L345.24 291.9C351.01 276.36 365.973 265.289 383.519 265.289V263.289ZM423.673 291.204C417.621 274.905 401.928 263.289 383.519 263.289V265.289C401.065 265.289 416.027 276.36 421.798 291.9L423.673 291.204ZM436.116 305.567C436.116 297.846 430.33 291.478 422.858 290.56L422.613 292.545C429.096 293.342 434.116 298.869 434.116 305.567H436.116ZM423.29 320.514C430.552 319.408 436.116 313.138 436.116 305.567H434.116C434.116 312.135 429.289 317.577 422.989 318.537L423.29 320.514ZM426.339 306.109C426.339 301.276 425.538 296.629 424.061 292.294L422.168 292.939C423.575 297.069 424.339 301.499 424.339 306.109H426.339ZM424.443 318.746C425.675 314.75 426.339 310.506 426.339 306.109H424.339C424.339 310.304 423.706 314.35 422.532 318.156L424.443 318.746ZM423.676 319.433C430.193 318.18 435.116 312.449 435.116 305.567H433.116C433.116 311.472 428.891 316.394 423.298 317.469L423.676 319.433ZM435.116 305.567C435.116 298.544 429.989 292.72 423.275 291.629L422.954 293.603C428.716 294.539 433.116 299.54 433.116 305.567H435.116Z" fill="black" mask="url(#path-74-inside-1_2191_1502)"/>
<path fill-rule="evenodd" clip-rule="evenodd" d="M403.602 282.731C419.528 282.731 432.439 273.957 432.439 263.133C432.439 252.309 419.528 243.535 403.602 243.535C390.223 243.535 378.973 249.727 375.715 258.124C373.045 256.68 369.948 255.855 366.645 255.855C356.595 255.855 348.447 263.501 348.447 272.933C348.447 282.365 356.595 290.011 366.645 290.011C374.97 290.011 381.989 284.765 384.154 277.604C389.282 280.788 396.108 282.731 403.602 282.731Z" fill="#0F172A"/>
<path d="M373.193 300.587C374.823 296.966 379.602 291.897 385.685 300.587M395.461 300.596C397.09 296.975 401.87 291.906 407.952 300.596" stroke="black"/>
<path d="M396.604 325.551C396.604 326.584 396.385 327.606 395.961 328.554C395.536 329.501 394.915 330.355 394.136 331.061C393.357 331.767 392.436 332.311 391.431 332.66C390.426 333.008 389.358 333.152 388.293 333.085C387.228 333.018 386.188 332.739 385.238 332.267C384.289 331.795 383.449 331.14 382.772 330.342C382.094 329.543 381.594 328.619 381.3 327.625C381.007 326.632 380.927 325.591 381.067 324.567L388.802 325.551H396.604Z" fill="#0F172A"/>
<line x1="717.617" y1="448.56" x2="745.569" y2="463.683" stroke="#565050"/>
<line x1="716.427" y1="450.759" x2="744.379" y2="465.882" stroke="#565050"/>
<line x1="715.238" y1="452.961" x2="743.19" y2="468.083" stroke="#565050"/>
<path d="M1496 271.002H1597.16L1597 383.002H1496V271.002Z" fill="#0F172A"/>
<path fill-rule="evenodd" clip-rule="evenodd" d="M1458.02 610.465L1458.01 610.973L1446.94 1058.23L1446.93 1058.74L1447.44 1058.74L1539.66 1058.79L1540.15 1058.79L1540.16 1058.3L1545.32 614.416L1545.33 613.929L1544.84 613.91L1458.53 610.485L1458.02 610.465ZM1544.32 614.89L1539.16 1057.79L1447.95 1057.74L1458.99 611.505L1544.32 614.89Z" fill="#0F172A"/>
<path fill-rule="evenodd" clip-rule="evenodd" d="M1458.02 610.465L1458.01 610.973L1446.94 1058.23L1446.93 1058.74L1447.44 1058.74L1539.66 1058.79L1540.15 1058.79L1540.16 1058.3L1545.32 614.416L1545.33 613.929L1544.84 613.91L1458.53 610.485L1458.02 610.465ZM1544.32 614.89L1539.16 1057.79L1447.95 1057.74L1458.99 611.505L1544.32 614.89Z" fill="#064D47"/>
<path d="M1458.01 610.973L1458.51 610.985L1458.51 610.985L1458.01 610.973ZM1458.02 610.465L1457.52 610.453L1457.53 609.946L1458.04 609.966L1458.02 610.465ZM1446.94 1058.23L1446.44 1058.22L1446.44 1058.22L1446.94 1058.23ZM1446.93 1058.74L1446.93 1059.24L1446.42 1059.24L1446.43 1058.73L1446.93 1058.74ZM1447.44 1058.74L1447.44 1058.24L1447.44 1058.24L1447.44 1058.74ZM1539.66 1058.79L1539.66 1058.29L1539.66 1058.29L1539.66 1058.79ZM1540.15 1058.79L1540.65 1058.8L1540.65 1059.29L1540.15 1059.29L1540.15 1058.79ZM1540.16 1058.3L1540.66 1058.31L1540.66 1058.31L1540.16 1058.3ZM1545.32 614.416L1544.82 614.41L1544.82 614.41L1545.32 614.416ZM1545.33 613.929L1545.35 613.43L1545.83 613.449L1545.83 613.935L1545.33 613.929ZM1544.84 613.91L1544.86 613.411L1544.86 613.411L1544.84 613.91ZM1458.53 610.485L1458.55 609.986L1458.55 609.986L1458.53 610.485ZM1539.16 1057.79L1539.66 1057.8L1539.66 1058.29L1539.16 1058.29L1539.16 1057.79ZM1544.32 614.89L1544.34 614.391L1544.82 614.41L1544.82 614.896L1544.32 614.89ZM1447.95 1057.74L1447.95 1058.24L1447.44 1058.24L1447.45 1057.73L1447.95 1057.74ZM1458.99 611.505L1458.49 611.492L1458.51 610.985L1459.01 611.005L1458.99 611.505ZM1457.51 610.96L1457.52 610.453L1458.52 610.478L1458.51 610.985L1457.51 610.96ZM1446.44 1058.22L1457.51 610.96L1458.51 610.985L1447.44 1058.24L1446.44 1058.22ZM1446.43 1058.73L1446.44 1058.22L1447.44 1058.24L1447.43 1058.75L1446.43 1058.73ZM1447.44 1059.24L1446.93 1059.24L1446.93 1058.24L1447.44 1058.24L1447.44 1059.24ZM1539.66 1059.29L1447.44 1059.24L1447.44 1058.24L1539.66 1058.29L1539.66 1059.29ZM1540.15 1059.29L1539.66 1059.29L1539.66 1058.29L1540.15 1058.29L1540.15 1059.29ZM1540.66 1058.31L1540.65 1058.8L1539.65 1058.79L1539.66 1058.29L1540.66 1058.31ZM1545.82 614.421L1540.66 1058.31L1539.66 1058.29L1544.82 614.41L1545.82 614.421ZM1545.83 613.935L1545.82 614.421L1544.82 614.41L1544.83 613.924L1545.83 613.935ZM1544.86 613.411L1545.35 613.43L1545.31 614.429L1544.82 614.41L1544.86 613.411ZM1458.55 609.986L1544.86 613.411L1544.82 614.41L1458.51 610.985L1458.55 609.986ZM1458.04 609.966L1458.55 609.986L1458.51 610.985L1458 610.965L1458.04 609.966ZM1538.66 1057.79L1543.82 614.884L1544.82 614.896L1539.66 1057.8L1538.66 1057.79ZM1447.95 1057.24L1539.16 1057.29L1539.16 1058.29L1447.95 1058.24L1447.95 1057.24ZM1459.49 611.517L1448.45 1057.75L1447.45 1057.73L1458.49 611.492L1459.49 611.517ZM1544.3 615.39L1458.97 612.004L1459.01 611.005L1544.34 614.391L1544.3 615.39Z" fill="black"/>
<path d="M1462.33 1058.13L1462.22 1083.57M1462.33 1058.13L1516.9 1058.37L1516.72 1099.16M1462.33 1058.13C1467.79 1058.56 1474.14 1062.22 1474.1 1069.89C1474.08 1076.07 1467.68 1083.6 1462.22 1083.57M1462.22 1083.57C1452.97 1083.4 1434.2 1086.2 1433.05 1098.79M1433.05 1098.79L1516.72 1099.16M1433.05 1098.79L1433 1110.91L1479.84 1111.11C1481.08 1104.39 1487.82 1094.99 1504.85 1111.22L1516.67 1111.27L1516.72 1099.16" stroke="black" stroke-width="2"/>
<path d="M1461 1058L1475 627.002" stroke="#A6A6A6"/>
<path d="M1501 640.002L1489 1057" stroke="#A6A6A6"/>
<path d="M1432.63 548.146C1432.46 561.068 1434.83 573.897 1439.62 585.902C1444.4 597.906 1451.51 608.85 1460.52 618.108C1469.54 627.367 1480.29 634.76 1492.16 639.864C1504.04 644.967 1516.8 647.683 1529.72 647.855C1542.64 648.027 1555.47 645.652 1567.48 640.865C1579.48 636.079 1590.42 628.975 1599.68 619.959C1608.94 610.944 1616.33 600.193 1621.44 588.32C1626.54 576.447 1629.26 563.686 1629.43 550.763L1531.03 549.455L1432.63 548.146Z" fill="#0F172A"/>
<path d="M1432.63 548.146C1432.46 561.068 1434.83 573.897 1439.62 585.902C1444.4 597.906 1451.51 608.85 1460.52 618.108C1469.54 627.367 1480.29 634.76 1492.16 639.864C1504.04 644.967 1516.8 647.683 1529.72 647.855C1542.64 648.027 1555.47 645.652 1567.48 640.865C1579.48 636.079 1590.42 628.975 1599.68 619.959C1608.94 610.944 1616.33 600.193 1621.44 588.32C1626.54 576.447 1629.26 563.686 1629.43 550.763L1531.03 549.455L1432.63 548.146Z" fill="#0F172A"/>
<path d="M1432.63 548.146L1432.13 548.139L1432.14 547.639L1432.64 547.646L1432.63 548.146ZM1460.52 618.108L1460.88 617.76L1460.52 618.108ZM1492.16 639.864L1492.36 639.404L1492.16 639.864ZM1529.72 647.855L1529.73 647.355L1529.72 647.855ZM1567.48 640.865L1567.29 640.401L1567.48 640.865ZM1599.68 619.959L1600.03 620.318L1599.68 619.959ZM1629.43 550.763L1629.44 550.264L1629.94 550.27L1629.93 550.77L1629.43 550.763ZM1531.03 549.455L1531.02 549.955L1531.02 549.955L1531.03 549.455ZM1433.13 548.152C1432.96 561.009 1435.32 573.773 1440.08 585.716L1439.15 586.087C1434.34 574.021 1431.96 561.127 1432.13 548.139L1433.13 548.152ZM1440.08 585.716C1444.85 597.66 1451.91 608.548 1460.88 617.76L1460.17 618.457C1451.1 609.151 1443.96 598.152 1439.15 586.087L1440.08 585.716ZM1460.88 617.76C1469.85 626.971 1480.55 634.326 1492.36 639.404L1491.97 640.323C1480.03 635.193 1469.23 627.763 1460.17 618.457L1460.88 617.76ZM1492.36 639.404C1504.17 644.482 1516.87 647.184 1529.73 647.355L1529.71 648.355C1516.73 648.182 1503.9 645.453 1491.97 640.323L1492.36 639.404ZM1529.73 647.355C1542.58 647.526 1555.35 645.163 1567.29 640.401L1567.66 641.33C1555.6 646.14 1542.7 648.527 1529.71 648.355L1529.73 647.355ZM1567.29 640.401C1579.23 635.639 1590.12 628.571 1599.33 619.601L1600.03 620.318C1590.73 629.379 1579.73 636.519 1567.66 641.33L1567.29 640.401ZM1599.33 619.601C1608.55 610.631 1615.9 599.935 1620.98 588.122L1621.9 588.517C1616.77 600.45 1609.34 611.256 1600.03 620.318L1599.33 619.601ZM1620.98 588.122C1626.06 576.31 1628.76 563.613 1628.93 550.757L1629.93 550.77C1629.76 563.758 1627.03 576.584 1621.9 588.517L1620.98 588.122ZM1629.42 551.263L1531.02 549.955L1531.04 548.955L1629.44 550.264L1629.42 551.263ZM1531.02 549.955L1432.62 548.646L1432.64 547.646L1531.04 548.955L1531.02 549.955Z" fill="black"/>
<path d="M1537.8 1057.26L1549.58 1079.81M1537.8 1057.26L1586.17 1032L1605.05 1068.16M1537.8 1057.26C1542.82 1055.09 1550.15 1055.37 1553.7 1062.17C1556.56 1067.65 1554.41 1077.29 1549.58 1079.81M1549.58 1079.81C1541.32 1083.97 1526.01 1095.21 1530.88 1106.89M1530.88 1106.89L1605.05 1068.16M1530.88 1106.89L1536.48 1117.63L1578.01 1095.95C1575.97 1089.42 1577.54 1077.97 1600.18 1084.37L1610.66 1078.9L1605.05 1068.16" stroke="black" stroke-width="2"/>
<path d="M1520.03 609.348L1606.35 612.773L1601.18 1056.66L1508.97 1056.6L1520.03 609.348Z" fill="#0F172A"/>
<path d="M1520.03 609.348L1606.35 612.773L1601.18 1056.66L1508.97 1056.6L1520.03 609.348Z" fill="#0F172A"/>
<ellipse cx="35.2178" cy="24.8989" rx="35.2178" ry="24.8989" transform="matrix(-0.964158 -0.265329 -0.265329 0.964158 1603.12 251.689)" fill="#0F172A"/>
<path d="M1512.39 371.193H1554.93L1548.89 317.332H1512.39V371.193Z" fill="white" stroke="#0F172A" stroke-width="2"/>
<path d="M1319.73 460.984C1381.89 502.913 1403.94 460.69 1406.2 436.919L1471 461.953C1440.46 535.415 1374.33 545.935 1346.09 539.43C1283.36 524.692 1210.24 462.483 1181.52 433.22L1202.77 364.261C1215.86 379.032 1257.58 419.055 1319.73 460.984Z" fill="white" stroke="#0F172A" stroke-width="2"/>
<path d="M1496.77 427.375C1506.23 402.876 1494.04 375.343 1469.54 365.878V365.878C1447.62 357.409 1422.99 368.314 1414.52 390.234L1394.84 441.166L1478.89 473.638L1496.77 427.375Z" fill="#0F172A"/>
<path d="M1638.74 472.874C1638.74 415.466 1592.2 368.928 1534.79 368.928V368.928C1477.39 368.928 1430.85 415.466 1430.85 472.874V585.88H1638.74V472.874Z" fill="#A9A7B6"/>
<path d="M1550.9 400.137C1592.98 363.089 1568.43 343.088 1550.9 337.719C1555.93 359.867 1540.92 367.753 1532.78 368.928C1517.68 371.107 1512.98 353.91 1512.14 344.011C1503.28 344.615 1495.77 356.595 1495.53 364.146C1495.13 376.831 1503.08 393.425 1507.11 400.137L1528 382.77L1550.9 400.137Z" fill="#064D47" stroke="#064D47"/>
<path d="M1574.31 365.908C1572.71 373.291 1565.7 390.573 1550.4 400.641L1528.5 382.771L1506.6 400.641C1503.5 395.355 1496.84 381.009 1495.02 365.908" stroke="#0F172A" stroke-width="4"/>
<path d="M1578.84 456.01C1585.3 478.997 1579.95 526.33 1506.86 509.618C1433.77 492.906 1380.43 470.607 1362.9 461.546C1361.11 460.692 1358.15 459.756 1355.75 459.916C1348.95 460.369 1356.14 469.867 1362.15 473.089L1380.51 482.94C1376.67 482.94 1373.16 485.142 1371.49 488.606L1357.95 516.627C1354.59 523.586 1352.04 532.105 1356.96 538.07C1361.51 543.606 1370.3 546.899 1385.55 540.975C1428.99 558.214 1504.41 580.971 1559.71 573.295C1588.41 569.184 1646.29 535.542 1648.31 456.01H1578.84Z" fill="white"/>
<path d="M1578.84 456.01C1585.3 478.997 1579.95 526.33 1506.86 509.618C1433.77 492.906 1380.43 470.607 1362.9 461.546C1361.11 460.692 1358.15 459.756 1355.75 459.916C1348.95 460.369 1356.14 469.867 1362.15 473.089L1380.51 482.94V482.94C1376.67 482.94 1373.16 485.142 1371.49 488.606L1357.95 516.627C1354.59 523.586 1352.04 532.105 1356.96 538.07C1361.51 543.606 1370.3 546.899 1385.55 540.975L1367.93 533.529C1405.26 550.475 1495.89 582.154 1559.71 573.295C1588.41 569.184 1646.29 535.542 1648.31 456.01H1578.84Z" stroke="#0F172A" stroke-width="2"/>
<path d="M1659.88 414.468C1659.88 388.205 1638.59 366.914 1612.33 366.914V366.914C1588.83 366.914 1569.78 385.964 1569.78 409.463V464.064H1659.88V414.468Z" fill="#0F172A"/>
<mask id="path-102-inside-2_2191_1502" fill="white">
<path fill-rule="evenodd" clip-rule="evenodd" d="M1490.64 312.53C1496.23 329.045 1511.85 340.932 1530.26 340.932C1548.66 340.932 1564.29 329.045 1569.88 312.529C1576.66 311.495 1581.85 305.64 1581.85 298.571C1581.85 291.362 1576.45 285.415 1569.47 284.556C1563.56 268.636 1548.23 257.293 1530.26 257.293C1512.28 257.293 1496.95 268.636 1491.04 284.556C1484.06 285.414 1478.66 291.361 1478.66 298.571C1478.66 305.64 1483.86 311.496 1490.64 312.53ZM1490.66 285.62C1489.22 289.853 1488.44 294.391 1488.44 299.113C1488.44 303.409 1489.09 307.554 1490.29 311.455C1484.23 310.291 1479.66 304.965 1479.66 298.571C1479.66 292.046 1484.42 286.633 1490.66 285.62Z"/>
</mask>
<path fill-rule="evenodd" clip-rule="evenodd" d="M1490.64 312.53C1496.23 329.045 1511.85 340.932 1530.26 340.932C1548.66 340.932 1564.29 329.045 1569.88 312.529C1576.66 311.495 1581.85 305.64 1581.85 298.571C1581.85 291.362 1576.45 285.415 1569.47 284.556C1563.56 268.636 1548.23 257.293 1530.26 257.293C1512.28 257.293 1496.95 268.636 1491.04 284.556C1484.06 285.414 1478.66 291.361 1478.66 298.571C1478.66 305.64 1483.86 311.496 1490.64 312.53ZM1490.66 285.62C1489.22 289.853 1488.44 294.391 1488.44 299.113C1488.44 303.409 1489.09 307.554 1490.29 311.455C1484.23 310.291 1479.66 304.965 1479.66 298.571C1479.66 292.046 1484.42 286.633 1490.66 285.62Z" fill="white"/>
<path d="M1490.64 312.53L1490.79 311.541L1491.39 311.633L1491.58 312.209L1490.64 312.53ZM1569.88 312.529L1568.93 312.209L1569.13 311.633L1569.73 311.541L1569.88 312.529ZM1569.47 284.556L1569.35 285.549L1568.75 285.474L1568.54 284.904L1569.47 284.556ZM1491.04 284.556L1491.98 284.904L1491.77 285.474L1491.16 285.549L1491.04 284.556ZM1490.66 285.62L1490.5 284.633L1492.15 284.366L1491.61 285.943L1490.66 285.62ZM1490.29 311.455L1491.24 311.16L1491.74 312.752L1490.1 312.437L1490.29 311.455ZM1530.26 341.932C1511.41 341.932 1495.41 329.759 1489.69 312.85L1491.58 312.209C1497.04 328.33 1512.3 339.932 1530.26 339.932V341.932ZM1570.83 312.85C1565.1 329.759 1549.1 341.932 1530.26 341.932V339.932C1548.22 339.932 1563.47 328.33 1568.93 312.209L1570.83 312.85ZM1582.85 298.571C1582.85 306.141 1577.29 312.411 1570.03 313.518L1569.73 311.541C1576.03 310.58 1580.85 305.138 1580.85 298.571H1582.85ZM1569.6 283.564C1577.07 284.483 1582.85 290.851 1582.85 298.571H1580.85C1580.85 291.873 1575.83 286.346 1569.35 285.549L1569.6 283.564ZM1530.26 256.293C1548.67 256.293 1564.36 267.909 1570.41 284.208L1568.54 284.904C1562.77 269.364 1547.8 258.293 1530.26 258.293V256.293ZM1490.1 284.208C1496.16 267.909 1511.85 256.293 1530.26 256.293V258.293C1512.71 258.293 1497.75 269.364 1491.98 284.904L1490.1 284.208ZM1477.66 298.571C1477.66 290.85 1483.45 284.482 1490.92 283.564L1491.16 285.549C1484.68 286.345 1479.66 291.873 1479.66 298.571H1477.66ZM1490.49 313.518C1483.22 312.412 1477.66 306.142 1477.66 298.571H1479.66C1479.66 305.139 1484.49 310.581 1490.79 311.541L1490.49 313.518ZM1487.44 299.113C1487.44 294.28 1488.24 289.633 1489.72 285.298L1491.61 285.943C1490.2 290.073 1489.44 294.503 1489.44 299.113H1487.44ZM1489.33 311.75C1488.1 307.754 1487.44 303.51 1487.44 299.113H1489.44C1489.44 303.308 1490.07 307.353 1491.24 311.16L1489.33 311.75ZM1490.1 312.437C1483.58 311.184 1478.66 305.453 1478.66 298.571H1480.66C1480.66 304.476 1484.89 309.398 1490.48 310.473L1490.1 312.437ZM1478.66 298.571C1478.66 291.548 1483.79 285.724 1490.5 284.633L1490.82 286.607C1485.06 287.543 1480.66 292.544 1480.66 298.571H1478.66Z" fill="black" mask="url(#path-102-inside-2_2191_1502)"/>
<path fill-rule="evenodd" clip-rule="evenodd" d="M1510.17 275.737C1494.25 275.737 1481.34 266.963 1481.34 256.139C1481.34 245.315 1494.25 236.541 1510.17 236.541C1523.55 236.541 1534.8 242.733 1538.06 251.129C1540.73 249.686 1543.83 248.86 1547.13 248.86C1557.18 248.86 1565.33 256.507 1565.33 265.939C1565.33 275.371 1557.18 283.017 1547.13 283.017C1538.81 283.017 1531.79 277.771 1529.62 270.61C1524.49 273.794 1517.67 275.737 1510.17 275.737Z" fill="#0F172A"/>
<path d="M1540.59 293.593C1538.96 289.972 1534.18 284.903 1528.1 293.593M1518.32 293.601C1516.69 289.981 1511.91 284.912 1505.83 293.601" stroke="black"/>
<ellipse cx="13.5" cy="7.5" rx="13.5" ry="7.5" transform="matrix(-1 0 0 1 1541 314)" fill="#0F172A"/>
<rect x="1064.66" y="302.004" width="284" height="110" rx="6" transform="rotate(2.42844 1064.66 302.004)" fill="#EDEDED"/>
<line x1="1119.74" y1="372.109" x2="1324.56" y2="380.795" stroke="black" stroke-width="8"/>
<line x1="1119.11" y1="387.096" x2="1256.98" y2="392.944" stroke="#54BD95" stroke-width="6"/>
<circle cx="1096.46" cy="378.128" r="14" transform="rotate(2.42844 1096.46 378.128)" fill="#064D47"/>
<path d="M1150.12 329.576C1150.46 328.668 1151.76 328.724 1152.02 329.657L1153.21 333.938C1153.33 334.356 1153.7 334.651 1154.13 334.669L1158.57 334.857C1159.54 334.898 1159.89 336.154 1159.08 336.69L1155.38 339.147C1155.02 339.387 1154.85 339.832 1154.97 340.249L1156.16 344.531C1156.42 345.464 1155.34 346.184 1154.58 345.582L1151.1 342.82C1150.76 342.551 1150.28 342.53 1149.92 342.77L1146.22 345.228C1145.41 345.764 1144.39 344.953 1144.73 344.046L1146.28 339.88C1146.43 339.474 1146.3 339.017 1145.96 338.748L1142.48 335.986C1141.72 335.383 1142.18 334.162 1143.15 334.203L1147.59 334.391C1148.02 334.41 1148.41 334.147 1148.57 333.741L1150.12 329.576Z" fill="#FFC728"/>
<path d="M1124.23 328.556L1125.42 332.837C1125.57 333.359 1126.03 333.728 1126.58 333.751L1131.02 333.939C1131.74 333.97 1132 334.912 1131.4 335.313L1127.7 337.771C1127.25 338.071 1127.04 338.627 1127.18 339.148L1128.38 343.43C1128.57 344.13 1127.76 344.67 1127.19 344.219L1123.71 341.456C1123.28 341.119 1122.69 341.094 1122.24 341.394L1118.53 343.852C1117.93 344.253 1117.16 343.646 1117.42 342.965L1118.97 338.8C1119.16 338.292 1119 337.721 1118.57 337.384L1115.09 334.622C1114.52 334.17 1114.86 333.254 1115.59 333.285L1120.03 333.473C1120.57 333.496 1121.07 333.168 1121.25 332.661L1122.81 328.495C1123.06 327.815 1124.04 327.856 1124.23 328.556Z" stroke="#FFC728" stroke-width="0.5"/>
<path d="M1096.68 327.388L1097.87 331.669C1098.02 332.191 1098.48 332.56 1099.03 332.583L1103.47 332.771C1104.19 332.802 1104.46 333.744 1103.85 334.145L1100.15 336.603C1099.7 336.903 1099.49 337.459 1099.63 337.98L1100.83 342.262C1101.02 342.962 1100.21 343.502 1099.64 343.051L1096.16 340.288C1095.73 339.951 1095.14 339.926 1094.69 340.226L1090.98 342.684C1090.38 343.085 1089.61 342.478 1089.87 341.797L1091.42 337.632C1091.61 337.124 1091.45 336.553 1091.02 336.216L1087.54 333.454C1086.97 333.002 1087.31 332.086 1088.04 332.117L1092.48 332.305C1093.02 332.328 1093.52 332 1093.71 331.493L1095.26 327.327C1095.51 326.647 1096.49 326.688 1096.68 327.388Z" stroke="#FFC728" stroke-width="0.5"/>
<path d="M1177.67 330.746C1178 329.838 1179.31 329.893 1179.57 330.827L1180.76 335.108C1180.88 335.526 1181.25 335.821 1181.68 335.839L1186.12 336.027C1187.09 336.068 1187.44 337.324 1186.63 337.859L1182.93 340.317C1182.57 340.557 1182.4 341.002 1182.52 341.419L1183.71 345.7C1183.97 346.634 1182.89 347.354 1182.13 346.752L1178.65 343.99C1178.31 343.721 1177.83 343.7 1177.47 343.94L1173.77 346.398C1172.96 346.933 1171.94 346.123 1172.28 345.216L1173.83 341.05C1173.98 340.644 1173.85 340.187 1173.51 339.918L1170.03 337.155C1169.27 336.553 1169.73 335.332 1170.7 335.373L1175.14 335.561C1175.57 335.58 1175.96 335.317 1176.12 334.911L1177.67 330.746Z" fill="#FFC728"/>
<path d="M1205.22 331.914C1205.55 331.006 1206.86 331.061 1207.12 331.995L1208.31 336.276C1208.43 336.693 1208.8 336.988 1209.23 337.007L1213.67 337.195C1214.64 337.236 1214.99 338.492 1214.18 339.027L1210.48 341.485C1210.12 341.725 1209.95 342.17 1210.07 342.587L1211.26 346.868C1211.52 347.802 1210.44 348.522 1209.68 347.92L1206.2 345.158C1205.86 344.888 1205.38 344.868 1205.02 345.108L1201.32 347.566C1200.51 348.101 1199.49 347.291 1199.83 346.384L1201.38 342.218C1201.53 341.812 1201.4 341.355 1201.06 341.086L1197.58 338.323C1196.82 337.721 1197.28 336.5 1198.24 336.541L1202.69 336.729C1203.12 336.748 1203.51 336.485 1203.67 336.079L1205.22 331.914Z" fill="#FFC728"/>
<path d="M1156.37 416.372C1159.94 412.794 1162.23 408.681 1163.08 404.961C1163.94 401.225 1163.32 398.046 1161.34 396.069C1159.36 394.092 1156.18 393.479 1152.44 394.34C1148.72 395.197 1144.61 397.494 1141.04 401.071C1137.47 404.649 1135.18 408.762 1134.33 412.482C1133.48 416.218 1134.1 419.397 1136.08 421.374C1138.06 423.351 1141.24 423.964 1144.97 423.103C1148.69 422.246 1152.8 419.949 1156.37 416.372Z" fill="white" stroke="black" stroke-width="2"/>
<path d="M1171.64 421.142C1174.75 417.971 1176.75 414.383 1177.52 411.183C1178.29 407.961 1177.78 405.324 1176.18 403.753C1174.57 402.182 1171.92 401.733 1168.72 402.579C1165.54 403.419 1162 405.503 1158.89 408.674C1155.79 411.846 1153.79 415.434 1153.02 418.633C1152.25 421.856 1152.75 424.493 1154.36 426.064C1155.97 427.635 1158.61 428.084 1161.82 427.238C1165 426.398 1168.54 424.314 1171.64 421.142Z" fill="white" stroke="black" stroke-width="2"/>
<path d="M1187.4 421.673C1185.86 425.272 1185.41 428.885 1185.89 431.795C1186.37 434.719 1187.74 436.788 1189.7 437.628C1191.66 438.469 1194.11 438.036 1196.55 436.365C1198.99 434.703 1201.3 431.887 1202.84 428.288C1204.38 424.69 1204.83 421.076 1204.35 418.166C1203.87 415.242 1202.5 413.174 1200.54 412.333C1198.58 411.492 1196.13 411.925 1193.69 413.596C1191.25 415.259 1188.94 418.075 1187.4 421.673Z" fill="white" stroke="black" stroke-width="2"/>
<path d="M1170.3 418.907C1168.76 422.506 1168.31 426.119 1168.79 429.029C1169.26 431.953 1170.64 434.022 1172.6 434.863C1174.56 435.704 1177 435.27 1179.45 433.6C1181.89 431.937 1184.2 429.121 1185.74 425.523C1187.28 421.924 1187.73 418.311 1187.25 415.401C1186.77 412.477 1185.4 410.408 1183.44 409.567C1181.48 408.726 1179.03 409.16 1176.58 410.83C1174.15 412.493 1171.84 415.309 1170.3 418.907Z" fill="white" stroke="black" stroke-width="2"/>
<mask id="path-120-inside-3_2191_1502" fill="white">
<path d="M0 1109H1736V1200H0V1109Z"/>
</mask>
<path d="M0 1109H1736V1200H0V1109Z" fill="white"/>
<path d="M0 1110H1736V1108H0V1110Z" fill="black" mask="url(#path-120-inside-3_2191_1502)"/>
<defs>
<filter id="filter0_d_2191_1502" x="727.1" y="176.1" width="305.8" height="131.8" filterUnits="userSpaceOnUse" color-interpolation-filters="sRGB">
<feFlood flood-opacity="0" result="BackgroundImageFix"/>
<feColorMatrix in="SourceAlpha" type="matrix" values="0 0 0 0 0 0 0 0 0 0 0 0 0 0 0 0 0 0 127 0" result="hardAlpha"/>
<feOffset dy="4"/>
<feGaussianBlur stdDeviation="5.45"/>
<feComposite in2="hardAlpha" operator="out"/>
<feColorMatrix type="matrix" values="0 0 0 0 0 0 0 0 0 0 0 0 0 0 0 0 0 0 0.25 0"/>
<feBlend mode="normal" in2="BackgroundImageFix" result="effect1_dropShadow_2191_1502"/>
<feBlend mode="normal" in="SourceGraphic" in2="effect1_dropShadow_2191_1502" result="shape"/>
</filter>
<filter id="filter1_d_2191_1502" x="1167.6" y="170.6" width="316.8" height="142.8" filterUnits="userSpaceOnUse" color-interpolation-filters="sRGB">
<feFlood flood-opacity="0" result="BackgroundImageFix"/>
<feColorMatrix in="SourceAlpha" type="matrix" values="0 0 0 0 0 0 0 0 0 0 0 0 0 0 0 0 0 0 127 0" result="hardAlpha"/>
<feOffset dy="4"/>
<feGaussianBlur stdDeviation="8.2"/>
<feComposite in2="hardAlpha" operator="out"/>
<feColorMatrix type="matrix" values="0 0 0 0 0 0 0 0 0 0 0 0 0 0 0 0 0 0 0.25 0"/>
<feBlend mode="normal" in2="BackgroundImageFix" result="effect1_dropShadow_2191_1502"/>
<feBlend mode="normal" in="SourceGraphic" in2="effect1_dropShadow_2191_1502" result="shape"/>
</filter>
<filter id="filter2_d_2191_1502" x="282.1" y="171.1" width="305.8" height="131.8" filterUnits="userSpaceOnUse" color-interpolation-filters="sRGB">
<feFlood flood-opacity="0" result="BackgroundImageFix"/>
<feColorMatrix in="SourceAlpha" type="matrix" values="0 0 0 0 0 0 0 0 0 0 0 0 0 0 0 0 0 0 127 0" result="hardAlpha"/>
<feOffset dy="4"/>
<feGaussianBlur stdDeviation="5.45"/>
<feComposite in2="hardAlpha" operator="out"/>
<feColorMatrix type="matrix" values="0 0 0 0 0 0 0 0 0 0 0 0 0 0 0 0 0 0 0.25 0"/>
<feBlend mode="normal" in2="BackgroundImageFix" result="effect1_dropShadow_2191_1502"/>
<feBlend mode="normal" in="SourceGraphic" in2="effect1_dropShadow_2191_1502" result="shape"/>
</filter>
</defs>
</svg>
