<svg width="399" height="360" viewBox="0 0 399 360" fill="none" xmlns="http://www.w3.org/2000/svg">
<g clip-path="url(#clip0_2265_2109)">
<mask id="path-1-inside-1_2265_2109" fill="white">
<path d="M0.5 332.366H277.422V359.639H0.5V332.366Z"/>
</mask>
<path d="M0.5 332.366H277.422V359.639H0.5V332.366Z" fill="white"/>
<path d="M0.5 332.666H277.422V332.067H0.5V332.666Z" fill="black" mask="url(#path-1-inside-1_2265_2109)"/>
<path fill-rule="evenodd" clip-rule="evenodd" d="M136.293 103.616V132.467H103.896V103.616V103.329H103.9C104.081 95.8915 111.262 89.9097 120.095 89.9097C128.927 89.9097 136.109 95.8915 136.29 103.329H136.293V103.616Z" fill="#0F172A"/>
<mask id="path-4-inside-2_2265_2109" fill="white">
<path fill-rule="evenodd" clip-rule="evenodd" d="M136.06 115.925C134.146 121.579 128.796 125.649 122.496 125.649C116.195 125.649 110.845 121.579 108.931 115.925C106.61 115.571 104.832 113.566 104.832 111.146C104.832 108.678 106.681 106.641 109.07 106.348C111.094 100.898 116.341 97.0142 122.496 97.0142C128.65 97.0142 133.898 100.898 135.922 106.348C138.31 106.641 140.16 108.678 140.16 111.146C140.16 113.566 138.381 115.571 136.06 115.925ZM136.036 106.666C136.539 108.129 136.813 109.698 136.813 111.331C136.813 112.819 136.586 114.254 136.165 115.603C138.268 115.209 139.86 113.363 139.86 111.146C139.86 108.883 138.203 107.007 136.036 106.666Z"/>
</mask>
<path fill-rule="evenodd" clip-rule="evenodd" d="M136.06 115.925C134.146 121.579 128.796 125.649 122.496 125.649C116.195 125.649 110.845 121.579 108.931 115.925C106.61 115.571 104.832 113.566 104.832 111.146C104.832 108.678 106.681 106.641 109.07 106.348C111.094 100.898 116.341 97.0142 122.496 97.0142C128.65 97.0142 133.898 100.898 135.922 106.348C138.31 106.641 140.16 108.678 140.16 111.146C140.16 113.566 138.381 115.571 136.06 115.925ZM136.036 106.666C136.539 108.129 136.813 109.698 136.813 111.331C136.813 112.819 136.586 114.254 136.165 115.603C138.268 115.209 139.86 113.363 139.86 111.146C139.86 108.883 138.203 107.007 136.036 106.666Z" fill="white"/>
<path d="M136.06 115.925L136.015 115.628L135.835 115.656L135.776 115.828L136.06 115.925ZM108.931 115.925L109.215 115.828L109.157 115.656L108.976 115.628L108.931 115.925ZM109.07 106.348L109.106 106.645L109.287 106.623L109.351 106.452L109.07 106.348ZM135.922 106.348L135.641 106.452L135.704 106.623L135.885 106.645L135.922 106.348ZM136.036 106.666L136.082 106.37L135.59 106.293L135.752 106.764L136.036 106.666ZM136.165 115.603L135.879 115.513L135.73 115.989L136.22 115.897L136.165 115.603ZM122.496 125.948C128.929 125.948 134.39 121.793 136.344 116.021L135.776 115.828C133.902 121.365 128.664 125.349 122.496 125.349V125.948ZM108.647 116.021C110.601 121.793 116.063 125.948 122.496 125.948V125.349C116.327 125.349 111.089 121.365 109.215 115.828L108.647 116.021ZM104.532 111.146C104.532 113.716 106.421 115.845 108.886 116.221L108.976 115.628C106.799 115.296 105.131 113.415 105.131 111.146H104.532ZM109.033 106.05C106.496 106.362 104.532 108.524 104.532 111.146H105.131C105.131 108.831 106.866 106.921 109.106 106.645L109.033 106.05ZM122.496 96.7145C116.212 96.7145 110.855 100.68 108.789 106.243L109.351 106.452C111.332 101.116 116.47 97.3139 122.496 97.3139V96.7145ZM136.203 106.243C134.136 100.68 128.779 96.7145 122.496 96.7145V97.3139C128.521 97.3139 133.659 101.116 135.641 106.452L136.203 106.243ZM140.459 111.146C140.459 108.524 138.495 106.362 135.958 106.05L135.885 106.645C138.125 106.921 139.86 108.831 139.86 111.146H140.459ZM136.105 116.221C138.571 115.845 140.459 113.716 140.459 111.146H139.86C139.86 113.415 138.192 115.296 136.015 115.628L136.105 116.221ZM137.113 111.331C137.113 109.664 136.833 108.062 136.319 106.569L135.752 106.764C136.245 108.195 136.513 109.732 136.513 111.331H137.113ZM136.451 115.692C136.881 114.314 137.113 112.85 137.113 111.331H136.513C136.513 112.788 136.291 114.193 135.879 115.513L136.451 115.692ZM136.22 115.897C138.462 115.478 140.16 113.51 140.16 111.146H139.56C139.56 113.216 138.074 114.941 136.11 115.308L136.22 115.897ZM140.16 111.146C140.16 108.733 138.393 106.734 136.082 106.37L135.989 106.962C138.013 107.281 139.56 109.033 139.56 111.146H140.16Z" fill="black" mask="url(#path-4-inside-2_2265_2109)"/>
<path fill-rule="evenodd" clip-rule="evenodd" d="M129.372 103.329C134.824 103.329 139.244 100.325 139.244 96.6191C139.244 92.9136 134.824 89.9097 129.372 89.9097C124.792 89.9097 120.94 92.0293 119.825 94.9039C118.911 94.4098 117.85 94.1271 116.72 94.1271C113.279 94.1271 110.49 96.7448 110.49 99.9739C110.49 103.203 113.279 105.821 116.72 105.821C119.57 105.821 121.973 104.025 122.714 101.573C124.47 102.664 126.806 103.329 129.372 103.329Z" fill="#0F172A"/>
<path d="M118.963 109.442C119.52 108.202 121.157 106.467 123.239 109.442M126.586 109.445C127.144 108.205 128.78 106.47 130.863 109.445" stroke="black" stroke-width="0.299699"/>
<circle cx="125.285" cy="118.955" r="2.60313" fill="#0F172A"/>
<path d="M127.179 124.861C126.074 135.642 115.848 130.678 114.985 127.222L114.256 125.496C111.61 126.896 107.162 130.39 109.368 135.642C110.389 138.052 114.554 142.466 123.039 140.846C131.524 139.226 133.126 133.059 132.866 130.178C132.693 128.11 132.902 124.498 127.179 124.861Z" fill="#0F172A"/>
<path d="M127.179 124.861C126.074 135.642 115.848 130.678 114.985 127.222L114.256 125.496M127.179 124.861C123.976 125.873 118.242 126.216 114.985 123.326L114.256 125.496M127.179 124.861C132.902 124.498 132.693 128.11 132.866 130.178C133.126 133.059 131.524 139.226 123.039 140.846C114.554 142.466 110.389 138.052 109.368 135.642C107.162 130.39 111.61 126.896 114.256 125.496" stroke="black" stroke-width="0.149849"/>
<path d="M77.6624 311.569H49.1003C49.1003 201.544 95.5306 193.665 118.813 193.666V218.979C74.549 218.979 72.8343 280.029 77.6624 311.569Z" fill="#0F172A"/>
<path d="M160.1 311.569H188.662C188.662 201.544 147.917 193.665 118.949 193.666V218.979C163.484 218.979 164.928 280.029 160.1 311.569Z" stroke="#0F172A" stroke-width="0.299699" stroke-linecap="round"/>
<path d="M53.9381 311.461V321.226M53.9381 311.461H72.6538V327.116M53.9381 311.461C55.8097 311.616 57.9932 313.011 57.9932 315.956C57.9932 318.327 55.8097 321.226 53.9381 321.226M53.9381 321.226C50.7668 321.175 44.3307 322.28 43.9564 327.116M43.9564 327.116H72.6538M43.9564 327.116V331.766H60.0207C60.4366 329.183 62.7345 325.566 68.5987 331.766H72.6538V327.116" stroke="black" stroke-width="0.299699"/>
<path d="M183.418 311.461V321.226M183.418 311.461H164.702V327.116M183.418 311.461C181.546 311.616 179.363 313.011 179.363 315.956C179.363 318.327 181.546 321.226 183.418 321.226M183.418 321.226C186.589 321.175 193.025 322.28 193.4 327.116M193.4 327.116H164.702M193.4 327.116V331.766H177.335C176.919 329.183 174.622 325.566 168.757 331.766H164.702V327.116" stroke="black" stroke-width="0.299699"/>
<path d="M152.384 197.777H87.5437V144.849C87.5437 130.364 97.6961 131.448 107.036 131.448C110.15 131.448 119.906 131.447 133.839 131.448C148.187 131.448 152.384 140.651 152.384 147.691V197.777Z" fill="#064D47"/>
<path d="M119.031 210.688C136.463 207.641 171.089 223.485 170.13 311.237M119.031 205.743C140.609 194.005 183.017 198.67 180.02 311.237" stroke="#0F172A" stroke-width="0.239759"/>
<path d="M76.5191 137.047C40.7982 151.161 62.0293 106.683 78.0229 85.7147L77.6017 81.4217L86.1284 75.4727L86.2359 74.6896C86.3922 73.5509 85.4938 72.5422 84.3446 72.5661L76.576 77.4371C78.6972 75.823 83.2342 72.4653 84.4122 71.9483C85.5903 71.4312 85.2875 69.601 84.9889 68.7505C83.8717 67.147 82.4543 67.2916 81.8853 67.5643L71.4256 74.6871L77.0621 66.7371C78.9164 63.9945 77.4381 62.2326 76.4672 61.6945C74.5745 60.8034 72.8751 62.4161 72.262 63.3338L65.1885 72.5777L69.8308 63.9596C69.8523 62.0981 68.0059 60.7895 66.2566 61.4265L65.0227 61.8758L60.9953 70.8726C59.1732 73.3492 44.0767 103.459 39.3983 112.389C17.429 162.45 60.8119 163.786 85.2495 158.196L76.5191 137.047Z" fill="white" stroke="#0F172A" stroke-width="0.299699"/>
<path d="M78.872 159.319L76.1981 136.485C94.8689 129.386 100.342 140.114 100.745 146.365C103.05 156.299 87.1234 159.14 78.872 159.319Z" fill="#0F172A"/>
<path d="M70.283 74.0128C70.1818 73.6617 69.9332 73.3936 69.8026 73.0607C70.0305 73.0624 70.7368 73.0261 70.9768 72.9251C71.6867 72.6266 72.1637 72.6501 72.9034 72.456C73.7061 72.2454 74.3417 72.1791 75.6279 72.1464C76.914 72.1136 77.0828 71.9929 77.94 71.947C78.7928 71.9012 79.6392 71.7409 80.4887 71.6551C82.3465 71.4673 84.0986 71.0162 85.9387 70.7727C87.3074 70.5915 87.3939 70.5499 88.746 70.2716C88.9384 70.2321 90.1451 69.9451 90.1609 70.1287C90.3238 72.0226 90.9018 74.1773 91.0909 76.0484L91.3328 78.442C91.3604 78.7149 91.3779 78.8883 91.4982 79.3186C91.3667 79.4176 89.983 79.5593 89.8233 79.5836C89.0681 79.6982 85.5193 79.8972 84.7605 79.9995C82.345 80.3253 81.9793 80.4297 79.6398 80.5171C78.06 80.5761 76.8907 80.5908 75.1052 80.7712L72.7807 81.0062C72.1225 81.1506 71.5132 81.1216 70.8969 81.3879C70.8373 81.4136 70.7733 81.4881 70.7503 81.4084C70.5627 80.7574 70.8546 79.9844 70.8313 79.3251C70.784 77.9839 70.5543 76.6067 70.4326 75.2667C70.3957 74.8608 70.3963 74.4061 70.283 74.0128Z" fill="#FFC728"/>
<path d="M69.7964 73.0444C69.925 73.3849 70.1801 73.656 70.283 74.0128C70.3963 74.4061 70.3957 74.8608 70.4326 75.2667C70.5543 76.6067 70.784 77.9839 70.8313 79.3251C70.8546 79.9844 70.5627 80.7574 70.7503 81.4084C70.7733 81.4881 70.8373 81.4136 70.8969 81.3879C71.5132 81.1216 72.1225 81.1506 72.7807 81.0062C74.1956 80.8632 73.825 80.9006 75.1052 80.7712C76.8907 80.5908 78.06 80.5761 79.6398 80.5171C81.9793 80.4297 82.345 80.3253 84.7605 79.9995C85.5193 79.8972 89.0681 79.6982 89.8233 79.5836C89.983 79.5593 91.3667 79.4176 91.4982 79.3186C91.3779 78.8883 91.3604 78.7149 91.3328 78.442C91.2522 77.6442 91.1715 76.8463 91.0909 76.0484C90.9018 74.1773 90.3238 72.0226 90.1609 70.1287C90.1451 69.9451 88.9384 70.2321 88.746 70.2716C87.3939 70.5499 87.3074 70.5915 85.9387 70.7727C84.0986 71.0162 82.3465 71.4673 80.4887 71.6551C79.6392 71.7409 78.7928 71.9012 77.94 71.947C77.0828 71.9929 76.914 72.1136 75.6279 72.1464C74.3417 72.1791 73.7061 72.2454 72.9034 72.456C72.1637 72.6501 71.6867 72.6266 70.9768 72.9251C70.6475 73.0636 69.4403 73.0804 69.7957 73.0445" stroke="#CB9D1D" stroke-width="0.899096" stroke-linecap="round"/>
<path d="M83.7991 73.5057C83.9052 73.495 84.0118 73.5905 84.119 73.7924L84.1645 73.7878C84.327 73.6792 84.5615 73.6006 84.868 73.5519C85.7623 73.4615 86.4178 73.9624 86.8344 75.0547L87.0369 75.9223C87.1384 76.9259 86.689 77.6307 85.6888 78.0367L85.2978 78.1081L85.2827 78.1097C85.1715 78.1209 85.0021 78.1114 84.7745 78.0813L84.7793 78.1286L84.8121 78.2264C84.8171 78.2755 84.7513 78.3318 84.6148 78.3952C84.4228 78.4146 84.3123 78.2804 84.2832 77.9927C84.0273 76.7742 83.8852 76.0246 83.8568 75.7439L83.7762 74.1887C83.7603 74.0307 83.6871 73.8627 83.5568 73.6844C83.5487 73.6037 83.6294 73.5441 83.7991 73.5057ZM84.3094 75.6769L84.5992 77.4077C84.7561 77.6967 84.9557 77.829 85.1982 77.8045L85.3953 77.7845C85.6681 77.757 85.9542 77.5827 86.2536 77.2618C86.5093 76.9133 86.6152 76.5215 86.5712 76.0864L86.543 75.8074C86.472 75.1055 86.2051 74.5352 85.7422 74.0963C85.4795 73.9208 85.2471 73.8432 85.0449 73.8637L84.7569 73.8928C84.4336 73.9255 84.2632 74.0827 84.2457 74.3645L84.3094 75.6769Z" fill="#CB9D1D"/>
<path d="M81.9379 73.4224C82.0137 73.4147 82.0921 73.4582 82.1731 73.5528L82.1584 73.6341C82.8019 75.6074 83.2655 77.1133 83.5491 78.1517C83.5085 78.2551 83.4351 78.3121 83.329 78.3229C83.1522 78.3407 83.0195 78.0883 82.9309 77.5655L82.8055 77.158L82.3903 77.216C82.1275 77.2425 81.7286 77.2598 81.1934 77.2678C80.9093 78.1934 80.699 78.6631 80.5626 78.6769L80.5474 78.6784C80.3825 78.6632 80.296 78.6152 80.2879 78.5345C80.6269 77.7983 80.9513 76.5638 81.261 74.8308C81.4157 74.2905 81.5628 73.852 81.7023 73.5153C81.7684 73.4626 81.847 73.4316 81.9379 73.4224ZM81.2828 76.9397C81.5653 76.9572 81.8607 76.9504 82.1689 76.9193L82.5781 76.8779C82.6337 76.8723 82.6801 76.8517 82.7173 76.816L81.9055 74.3137L81.8903 74.3152C81.8003 74.4342 81.6924 74.8315 81.5668 75.5072L81.2828 76.9397Z" fill="#CB9D1D"/>
<path d="M77.0345 73.7697C77.1609 73.7569 77.2409 73.8162 77.2745 73.9475L77.2518 73.9498L77.2799 74.0001C77.4517 73.9827 77.9254 73.8976 78.7011 73.7448C78.8306 73.7636 78.8993 73.8116 78.9071 73.8888C78.9184 74.0011 78.5846 74.1075 77.9057 74.208L77.2452 74.3386L77.2686 74.5702C77.2853 74.7352 77.4488 75.394 77.7593 76.5466L78.7294 76.4486C78.8608 76.4353 78.9467 76.478 78.9873 76.5767C78.9983 76.6855 78.8851 76.7519 78.6476 76.7759L77.7912 76.8625L77.7933 76.8835L77.8807 77.9754C77.907 78.2351 77.964 78.4208 78.0519 78.5324L79.5456 78.3123C79.7087 78.31 79.7945 78.351 79.803 78.4352C79.8143 78.5475 79.6432 78.6215 79.2895 78.6573C78.3836 78.7843 77.9322 78.8636 77.9354 78.8952C77.7535 78.9135 77.6077 78.7333 77.4979 78.3544L77.4196 77.9582L77.314 76.7618L76.8138 74.6162L76.7974 74.453C76.7534 74.0179 76.8249 73.7908 77.0118 73.772L77.0345 73.7697Z" fill="#CB9D1D"/>
<path d="M74.1017 74.1454C74.2583 74.1296 74.3533 74.2866 74.3867 74.6165C74.7904 77.3479 75.0503 78.7077 75.1665 78.696L75.375 78.6377L76.233 78.5669L76.5162 78.4905C76.592 78.4828 76.6704 78.5263 76.7514 78.6209C76.7151 78.7664 76.515 78.8575 76.1512 78.8943L75.3544 78.9642C75.2938 78.9703 75.1863 79.0184 75.0321 79.1084L74.9184 79.1199C74.7618 79.1357 74.6169 78.7374 74.4837 77.9248C74.3702 77.4081 74.1658 76.1933 73.8704 74.2805C73.9033 74.2027 73.9805 74.1577 74.1017 74.1454Z" fill="#CB9D1D"/>
<path d="M162.421 137.047C198.142 151.161 176.911 106.683 160.917 85.7147L161.339 81.4217L152.812 75.4727L152.704 74.6896C152.548 73.5509 153.447 72.5422 154.596 72.5661L162.364 77.4371C160.243 75.823 155.706 72.4653 154.528 71.9483C153.35 71.4312 153.653 69.601 153.951 68.7505C155.069 67.147 156.486 67.2916 157.055 67.5643L167.515 74.6871L161.878 66.7371C160.024 63.9945 161.502 62.2326 162.473 61.6945C164.366 60.8034 166.065 62.4161 166.678 63.3338L173.752 72.5777L169.11 63.9596C169.088 62.0981 170.934 60.7895 172.684 61.4265L173.918 61.8758L177.945 70.8726C179.767 73.3492 194.864 103.459 199.542 112.389C221.511 162.45 178.128 163.786 153.691 158.196L162.421 137.047Z" fill="white" stroke="#0F172A" stroke-width="0.299699"/>
<path d="M160.068 159.319L162.742 136.485C144.071 129.386 138.598 140.114 138.196 146.365C135.89 156.299 151.817 159.14 160.068 159.319Z" fill="#0F172A"/>
<path d="M168.657 74.0128C168.759 73.6617 169.007 73.3936 169.138 73.0607C168.91 73.0624 168.204 73.0261 167.964 72.9251C167.254 72.6266 166.777 72.6501 166.037 72.456C165.234 72.2454 164.599 72.1791 163.313 72.1464C162.026 72.1136 161.858 71.9929 161 71.947C160.148 71.9012 159.301 71.7409 158.452 71.6551C156.594 71.4673 154.842 71.0162 153.002 70.7727C151.633 70.5915 151.547 70.5499 150.194 70.2716C150.002 70.2321 148.795 69.9451 148.779 70.1287C148.617 72.0226 148.039 74.1773 147.849 76.0484L147.608 78.442C147.58 78.7149 147.562 78.8883 147.442 79.3186C147.574 79.4176 148.957 79.5593 149.117 79.5836C149.872 79.6982 153.421 79.8972 154.18 79.9995C156.595 80.3253 156.961 80.4297 159.301 80.5171C160.88 80.5761 162.05 80.5908 163.835 80.7712L166.16 81.0062C166.818 81.1506 167.427 81.1216 168.043 81.3879C168.103 81.4136 168.167 81.4881 168.19 81.4084C168.378 80.7574 168.086 79.9844 168.109 79.3251C168.156 77.9839 168.386 76.6067 168.508 75.2667C168.545 74.8608 168.544 74.4061 168.657 74.0128Z" fill="#FFC728"/>
<path d="M169.144 73.0444C169.015 73.3849 168.76 73.656 168.657 74.0128C168.544 74.4061 168.545 74.8608 168.508 75.2667C168.386 76.6067 168.156 77.9839 168.109 79.3251C168.086 79.9844 168.378 80.7574 168.19 81.4084C168.167 81.4881 168.103 81.4136 168.043 81.3879C167.427 81.1216 166.818 81.1506 166.16 81.0062C164.745 80.8632 165.115 80.9006 163.835 80.7712C162.05 80.5908 160.88 80.5761 159.301 80.5171C156.961 80.4297 156.595 80.3253 154.18 79.9995C153.421 79.8972 149.872 79.6982 149.117 79.5836C148.957 79.5593 147.574 79.4176 147.442 79.3186C147.562 78.8883 147.58 78.7149 147.608 78.442C147.688 77.6442 147.769 76.8463 147.849 76.0484C148.039 74.1773 148.617 72.0226 148.779 70.1287C148.795 69.9451 150.002 70.2321 150.194 70.2716C151.547 70.5499 151.633 70.5915 153.002 70.7727C154.842 71.0162 156.594 71.4673 158.452 71.6551C159.301 71.7409 160.148 71.9012 161 71.947C161.858 71.9929 162.026 72.1136 163.313 72.1464C164.599 72.1791 165.234 72.2454 166.037 72.456C166.777 72.6501 167.254 72.6266 167.964 72.9251C168.293 73.0636 169.5 73.0804 169.145 73.0445" stroke="#CB9D1D" stroke-width="0.899096" stroke-linecap="round"/>
<path d="M155.141 73.5057C155.035 73.495 154.929 73.5905 154.821 73.7924L154.776 73.7878C154.613 73.6792 154.379 73.6006 154.072 73.5519C153.178 73.4615 152.523 73.9624 152.106 75.0547L151.903 75.9223C151.802 76.9259 152.251 77.6307 153.252 78.0367L153.643 78.1081L153.658 78.1097C153.769 78.1209 153.938 78.1114 154.166 78.0813L154.161 78.1286L154.128 78.2264C154.123 78.2755 154.189 78.3318 154.326 78.3952C154.518 78.4146 154.628 78.2804 154.657 77.9927C154.913 76.7742 155.055 76.0246 155.084 75.7439L155.164 74.1887C155.18 74.0307 155.253 73.8627 155.384 73.6844C155.392 73.6037 155.311 73.5441 155.141 73.5057ZM154.631 75.6769L154.341 77.4077C154.184 77.6967 153.985 77.829 153.742 77.8045L153.545 77.7845C153.272 77.757 152.986 77.5827 152.687 77.2618C152.431 76.9133 152.325 76.5215 152.369 76.0864L152.397 75.8074C152.468 75.1055 152.735 74.5352 153.198 74.0963C153.461 73.9208 153.693 73.8432 153.895 73.8637L154.183 73.8928C154.507 73.9255 154.677 74.0827 154.695 74.3645L154.631 75.6769Z" fill="#CB9D1D"/>
<path d="M157.002 73.4224C156.927 73.4147 156.848 73.4582 156.767 73.5528L156.782 73.6341C156.138 75.6074 155.675 77.1133 155.391 78.1517C155.432 78.2551 155.505 78.3121 155.611 78.3229C155.788 78.3407 155.921 78.0883 156.009 77.5655L156.135 77.158L156.55 77.216C156.813 77.2425 157.212 77.2598 157.747 77.2678C158.031 78.1934 158.241 78.6631 158.378 78.6769L158.393 78.6784C158.558 78.6632 158.644 78.6152 158.652 78.5345C158.313 77.7983 157.989 76.5638 157.679 74.8308C157.525 74.2905 157.378 73.852 157.238 73.5153C157.172 73.4626 157.093 73.4316 157.002 73.4224ZM157.658 76.9397C157.375 76.9572 157.08 76.9504 156.772 76.9193L156.362 76.8779C156.307 76.8723 156.26 76.8517 156.223 76.816L157.035 74.3137L157.05 74.3152C157.14 74.4342 157.248 74.8315 157.374 75.5072L157.658 76.9397Z" fill="#CB9D1D"/>
<path d="M161.906 73.7697C161.78 73.7569 161.7 73.8162 161.666 73.9475L161.689 73.9498L161.661 74.0001C161.489 73.9827 161.015 73.8976 160.239 73.7448C160.11 73.7636 160.041 73.8116 160.033 73.8888C160.022 74.0011 160.356 74.1075 161.035 74.208L161.695 74.3386L161.672 74.5702C161.655 74.7352 161.492 75.394 161.181 76.5466L160.211 76.4486C160.08 76.4353 159.994 76.478 159.953 76.5767C159.942 76.6855 160.055 76.7519 160.293 76.7759L161.149 76.8625L161.147 76.8835L161.06 77.9754C161.033 78.2351 160.976 78.4208 160.889 78.5324L159.395 78.3123C159.232 78.31 159.146 78.351 159.137 78.4352C159.126 78.5475 159.297 78.6215 159.651 78.6573C160.557 78.7843 161.008 78.8636 161.005 78.8952C161.187 78.9135 161.333 78.7333 161.442 78.3544L161.521 77.9582L161.626 76.7618L162.127 74.6162L162.143 74.453C162.187 74.0179 162.116 73.7908 161.929 73.772L161.906 73.7697Z" fill="#CB9D1D"/>
<path d="M164.839 74.1454C164.682 74.1296 164.587 74.2866 164.554 74.6165C164.15 77.3479 163.89 78.7077 163.774 78.696L163.565 78.6377L162.707 78.5669L162.424 78.4905C162.348 78.4828 162.27 78.5263 162.189 78.6209C162.225 78.7664 162.425 78.8575 162.789 78.8943L163.586 78.9642C163.647 78.9703 163.754 79.0184 163.908 79.1084L164.022 79.1199C164.179 79.1357 164.323 78.7374 164.457 77.9248C164.57 77.4081 164.775 76.1933 165.07 74.2805C165.037 74.2027 164.96 74.1577 164.839 74.1454Z" fill="#CB9D1D"/>
<path d="M123.115 21.8471C126.537 22.8774 128.391 26.0757 132.199 26.5594C133.642 26.1518 136.589 24.0056 138.181 24.0263C141.496 24.0695 145.926 24.087 149.089 24.9203C152.844 25.9096 157.227 27.7887 159.536 29.6326C161.846 31.4765 165.33 34.8611 165.76 37.8092C166.342 41.7969 163.412 44.9493 161.846 48.4258C160.907 50.5093 161.205 53.6025 163.737 54.8889C169.549 57.8424 176.792 57.8751 181.53 62.5254C183.787 64.741 182.159 67.2535 181.266 69.808C180.683 71.4721 179.862 73.0555 179.176 74.6879C178.054 77.361 174.556 78.2458 171.589 79.0836C168.08 80.0741 163.884 80.9122 160.174 80.1266C159.673 80.0205 159.623 79.8507 158.986 79.8658C152.817 80.013 148.784 84.7291 145.285 88.564C142.645 91.4569 138.984 93.7912 135.344 95.7349C130.916 98.0989 124.133 96.6968 119.574 95.3251C113.436 93.4778 107.641 90.281 101.364 88.9179C95.1753 87.574 91.2185 84.0566 85.5729 81.7657C82.9925 80.7186 81.5241 80.382 79.0628 80.5364C75.7126 80.7465 72.4126 80.8716 69.0339 80.8716C64.4631 80.8716 62.3893 74.4524 62.5459 71.3353C62.675 68.7652 63.3599 65.9959 64.6353 63.6616C66.532 60.1898 72.9108 60.7805 74.5762 57.2544C75.2627 55.801 75.192 54.4353 75.192 52.896C75.192 51.2768 72.0122 49.0997 70.8594 48.0347C68.671 46.013 65.7651 43.8695 64.7672 41.1805C63.554 37.9113 67.5202 34.2465 68.9679 31.4765C70.005 29.4924 70.6727 28.0625 72.8168 26.7084C74.2906 25.7775 75.9406 25.0604 77.4793 24.2125C86.3123 19.3457 96.9153 19.0045 107.192 19.2023C112.566 19.3057 118.053 20.3228 123.115 21.8471Z" fill="#FFF2CE"/>
<path d="M89.5817 20.0672C96.6174 16.4314 104.575 14.0422 112.402 16.7479C117.136 18.3842 120.956 22.1217 124.317 25.6972C126.722 28.257 129.463 31.2123 130.497 34.6583C131.797 38.9954 129.967 42.5806 126.498 45.0269C125.299 45.8726 124.19 46.7775 122.886 47.4666C121.351 48.2778 122.178 47.3162 122.909 46.5752C124.366 45.1001 125.893 43.6945 127.365 42.2354C128.062 41.5456 128.342 41.2092 128.397 40.1828C128.877 31.3103 121.742 23.7525 113.715 20.8413C110.335 19.6154 105.993 18.7711 102.376 19.1993C98.5321 19.6542 97.1061 23.8215 95.4451 26.7529C90.4546 35.5603 97.0714 23.8516 92.2554 32.1717C91.2076 33.982 90.1878 35.5982 90.6137 37.7666C91.3594 41.5637 94.34 45.94 97.5794 48.0531C99.3699 49.221 104.438 50.7393 106.292 48.5574C106.525 48.2839 106.468 47.8466 106.468 47.5135C106.468 46.8587 107.205 46.1371 107.559 45.6955C109.381 43.4243 111.098 41.3448 112.168 38.5759C113.647 34.7442 115.339 28.3522 111.722 25.1108C108.625 22.3354 102.959 21.2027 98.9983 22.1081C94.6476 23.1027 90.5993 26.7631 88.9016 30.8815C87.9314 33.2349 87.8309 36.2328 88.6436 38.6463C89.2825 40.5436 91.3225 42.932 93.5805 42.6694C96.2802 42.3554 97.026 38.4916 96.9931 36.3473C96.9205 31.6334 93.1669 29.3208 88.9485 28.3363C83.7023 27.1119 78.9218 27.8568 75.1108 31.8668C72.9549 34.1353 71.2944 36.8474 69.822 39.5846C68.2347 42.5355 66.4463 46.0294 67.465 49.5075C68.715 53.7754 73.1085 57.8969 76.6353 60.3687C77.7799 61.1709 79.0087 61.7781 80.2941 62.2923" stroke="#2D2D2D" stroke-width="0.299699" stroke-linecap="round"/>
<path d="M134.573 26.3088C137.845 25.6287 140.912 24.3008 144.157 23.5209C147.077 22.8191 148.579 24.6552 150.179 26.8945C151.937 29.3551 153.218 32.3638 153.132 35.4459C153.056 38.1886 149.699 39.5522 148.937 36.3596C148.247 33.4665 150.954 30.6181 153.366 29.4951C156.971 27.8172 163.328 27.1659 166.184 30.5025C170.046 35.0127 167.464 39.9627 163.489 43.224C159.927 46.1474 155.611 48.4067 151.187 49.6902C147.237 50.8363 142.208 51.8348 139.025 48.4251C137.675 46.9794 135.976 43.9112 137.338 41.9355C138.742 39.8978 143.186 39.7449 145.34 39.7449C150.67 39.7449 155.922 42.6413 157.678 47.8394C159.04 51.873 160.557 58.8725 155.674 61.2169C153.259 62.377 150.77 61.5041 148.527 60.3969C146.471 59.3818 143.893 58.0675 142.704 55.9924C139.885 51.0716 148.57 49.4162 151.515 48.964C156.629 48.1788 161.438 48.9376 165.645 52.1268C169.131 54.7686 171.681 58.6732 173.003 62.8101C173.427 64.1348 173.864 65.895 173.308 67.2614C172.397 69.5021 169.109 70.8233 167.133 71.7597C165.491 72.5379 162.053 74.4611 160.267 72.8842C159.174 71.9189 159.565 70.2652 160.666 69.5105C165.339 66.3084 171.84 70.2016 174.48 74.1962C177.897 79.3672 176.518 85.1819 171.574 88.6397C169.497 90.0926 166.768 91.6363 164.146 91.744C161.295 91.861 159.908 89.2277 159.271 86.8474C157.609 80.6273 164.001 77.3715 169.043 76.1642C171.881 75.4848 177.12 73.954 177.772 78.2141C178.914 85.6702 164.031 82.0197 161.193 81.1075C155.88 79.3999 150.999 76.6227 146.453 73.4348C143.593 71.4283 139.165 68.6197 137.83 65.1295C136.975 62.8927 138.188 60.421 139.306 58.5227C139.362 58.4275 141.378 55.9188 141.263 55.6879C141.224 55.6094 141.104 55.5887 141.017 55.5942C140.44 55.6298 138.853 56.094 138.533 56.2033C133.203 58.0243 128.272 60.9691 123.606 64.0752C118.803 67.2723 103.562 76.3786 110.389 83.9072C116.232 90.3496 126.015 87.1242 131.667 82.3492C134.422 80.0218 138.708 75.8079 136.986 71.7128C135.461 68.0841 131.375 65.0478 127.918 63.466C124.245 61.7856 118.83 61.2885 117.279 65.9729C116.301 68.9268 115.458 78.4806 121.122 77.0544C123.252 76.5181 125.385 74.8617 126.746 73.1888C129.569 69.7198 128.501 66.3352 125.715 63.1849C121.65 58.5896 116.069 54.8176 110.483 52.3376C107.383 50.9613 104.516 50.6018 101.25 50.1354" stroke="#2D2D2D" stroke-width="0.299699" stroke-linecap="round"/>
<path d="M147.402 39.4458C148.245 41.1283 148.228 41.181 146.092 40.9404C143.164 40.6105 140.262 40.0981 137.343 39.7027C134.355 39.2978 130.194 38.3427 127.238 39.4691C124.73 40.4245 121.677 44.5892 123.167 47.2807C124.375 49.4629 126.959 50.794 129.109 51.7995C133.438 53.8234 138.139 54.6247 142.537 56.4C145.494 57.5939 146.546 59.8284 145.671 62.8455C145.124 64.734 142.249 67.1649 142.63 69.1391C142.852 70.2875 144.615 70.5268 145.484 70.5986C148.3 70.8316 151.332 70.3887 153.987 69.4544C158.188 67.9764 165.891 62.7382 163.497 57.2174C161.739 53.1642 157.193 50.3241 153.531 48.2498C147.926 45.0749 140.967 42.9092 135.332 47.4558C133.088 49.266 131.006 52.8263 133.425 55.2674C134.704 56.5585 136.284 57.5479 137.741 58.6186C138.564 59.2229 140.006 59.8418 139.308 61.0706C138.204 63.0156 136.28 64.6639 134.665 66.1382C132.12 68.4617 129.364 70.5799 126.934 73.0274C125.868 74.1011 124.072 75.7594 124.536 77.5228C125.115 79.7239 128.523 80.6537 130.326 81.2593C136.506 83.3357 143.231 84.3447 148.759 80.08C153.992 76.0434 156.002 68.7581 149.847 64.632C147.454 63.0277 144.488 62.4018 141.636 62.4018C141.182 62.4018 140.27 62.3444 139.87 62.7287C139.6 62.9875 139.378 63.1721 138.981 62.8221C137.953 61.9156 137.3 60.361 136.431 59.3308C134.268 56.7672 131.591 54.6371 128.454 53.3641C125.914 52.3335 122.781 51.7182 120.22 53.0372C117.298 54.5419 116.625 58.5285 116.126 61.4093C115.677 64.0027 115.05 67.4392 116.15 69.9915C117.257 72.5619 120.189 73.6474 122.676 74.23C126.154 75.0448 129.854 75.0215 133.32 74.1249C136.289 73.3568 141.469 71.2438 141.437 67.3759C141.413 64.4574 138.083 61.7581 136.127 60.1832C132.799 57.5034 129.044 55.4019 124.875 54.345C116.249 52.1582 107.857 55.2348 101.529 61.129C97.3992 64.9759 90.9108 71.8176 92.4291 78.1533C94.4275 86.4923 105.977 86.9694 112.313 84.05C114.262 83.1519 115.414 81.7676 114.606 79.6479C114.062 78.2234 112.682 76.729 111.097 76.4602C106.543 75.688 99.5359 85.4916 104.792 88.1834C109.278 90.4805 116.568 85.9551 118.115 81.6213C118.743 79.8594 117.563 78.3596 116.243 77.3243C113.199 74.9368 109.02 74.1803 105.295 73.6812C103.569 73.45 100.694 72.883 98.9791 73.7279C97.7171 74.3499 98.3249 76.2402 98.7101 77.1959C99.2718 78.5892 100.118 79.3776 101.295 78.5387" stroke="#2D2D2D" stroke-width="0.599398" stroke-linecap="round"/>
<path d="M159.314 80.2265C162.076 77.2174 164.055 73.3086 166.088 69.7788C168.109 66.27 170.933 62.6271 171.435 58.4896C171.547 57.568 171.659 56.286 171.037 55.4978C169.873 54.0219 167.623 52.9569 165.889 52.4009C164.037 51.8067 160.612 50.8009 159.396 52.9735C158.525 54.5299 158.338 57.2355 159.326 58.7701C160.42 60.4701 162.233 61.4764 164.064 62.1825C164.973 62.5328 166.517 62.6337 166.17 63.9121C165.215 67.4353 161.332 69.3694 158.121 70.2696C153.978 71.431 150.116 71.4632 146.328 69.3581C138.704 65.1213 133.507 57.4708 125.514 53.6981C124.051 53.0073 122.344 52.8935 120.753 52.8333C117.337 52.7041 113.946 52.925 110.656 53.9201C107.261 54.9471 102.056 57.1731 101.46 61.2125C101.25 62.6325 100.782 64.9651 101.214 66.3663C102.195 69.5431 107.823 64.2131 108.491 63.3512C111.15 59.9214 112.529 54.7707 109.989 50.8933C108.182 48.1348 104.996 46.4849 102.197 44.9566C98.7982 43.1006 95.2688 41.3375 91.6908 39.8496C88.4458 38.5001 85.3551 37.7113 82.2376 39.7911C78.3683 42.3725 75.0546 47.0623 73.6267 51.4543C72.5133 54.8789 73.8439 57.7651 76.7154 59.7985C77.075 60.0531 81.4604 62.4186 80.4827 60.2426C79.4027 57.8391 76.6155 56.7827 74.1181 57.2041C70.2461 57.8574 69.2223 62.4438 68.631 65.7119C67.81 70.2496 69.5207 73.5921 73.1236 76.3933C76.1124 78.7171 79.5976 80.313 83.3374 80.9978C85.5005 81.394 89.3055 81.8077 91.2229 80.1798C93.0026 78.6687 89.6651 77.2577 88.5554 77.3049C85.7497 77.4241 84.9577 79.8721 84.8349 82.26C84.5367 88.0587 87.9033 93.2167 93.75 94.6243C101.323 96.4475 110.493 93.0378 115.02 86.7476C117.321 83.5505 118.836 78.8047 115.546 75.7623C113.586 73.9494 110.961 72.6795 108.702 71.298C106.549 69.9814 104.326 68.3909 101.834 67.7687C98.9181 67.0404 98.4128 69.3062 98.7808 71.6954C99.1379 74.0143 99.942 76.6217 101.624 78.345C103.766 80.5403 106.808 80.8028 109.708 80.6005C116.303 80.1403 122.188 76.6988 127.772 73.4717C129.553 72.4423 131.767 71.3832 133.365 70.0125C133.697 69.7276 133.213 69.4889 132.803 70.4215C131.326 73.7778 132.244 79.8669 135.4 82.0613C139.35 84.8074 145.164 84.1721 149.65 85.3569C152.702 86.1627 155.065 88.4467 158.144 89.155C162.051 90.0537 165.839 88.1424 166.989 84.1999C168.476 79.1022 165.069 74.7604 161.818 71.2513C159.653 68.9146 156.203 64.7174 152.505 65.3846C151.603 65.5473 148.795 67.9259 150.54 68.8555C151.154 69.183 152.614 67.2007 152.739 67.0441C154.336 65.0518 155.575 62.8508 156.237 60.3711C157.744 54.7343 154.373 51.0005 149.381 48.8716C148.361 48.4363 146.368 48.165 145.532 47.2705C145.016 46.7179 144.91 45.4043 144.678 44.7462C143.512 41.4345 141.415 38.3649 138.512 36.3319C136.027 34.5915 130.667 32.8716 129.995 37.4772C129.595 40.2199 133.255 41.4686 135.33 41.7545C136.442 41.9077 138.402 41.8785 138.887 40.4923C139.591 38.4762 136.327 37.2495 135.213 36.8461C123.292 32.5274 104.071 34.3544 98.7574 47.925C98.2007 49.3467 98.0576 50.8102 97.096 52.0152C95.5502 53.9524 95.0389 57.035 94.8029 59.4245C94.6265 61.2105 95.4618 62.46 96.862 63.5148C98.2181 64.5363 100.187 63.3623 98.9914 61.7384C98.0124 60.4085 95.6099 60.0212 94.1477 59.7985C92.0936 59.4856 89.5125 59.2599 87.7598 60.6633C84.5177 63.2592 85.5785 68.7177 88.5788 70.9474C95.8297 76.3361 109.611 64.6601 101.799 57.7884C99.0975 55.4118 95.1635 54.3449 91.6908 53.9085C89.4205 53.6232 85.8123 53.3118 84.2499 55.5913C82.4914 58.1571 84.2499 61.5915 85.6071 63.8186" stroke="#2D2D2D" stroke-width="0.299699" stroke-linecap="round"/>
<path d="M80.7923 23.3691C80.9304 24.2173 81.2551 24.8298 81.6818 25.5917C83.0884 28.1037 84.5381 30.6075 86.0357 33.0663C88.6044 37.2841 91.5061 41.7727 95.036 45.2551C97.6119 47.7963 100.811 50.4807 104.364 51.4899C107.017 52.2434 109.813 51.3327 112.065 49.899C115.572 47.6667 117.547 43.0199 115.237 39.2075C114.194 37.4862 113.191 38.7719 112.416 40.038C110.909 42.5029 109.763 46.5814 110.93 49.3024C113.823 56.0497 124.72 54.9941 126.438 47.8169C127.552 43.1627 122.912 39.5864 119.345 37.7453C114.392 35.1884 107.998 33.868 103.135 37.3827C99.67 39.8875 97.7368 44.2673 96.8033 48.3081C95.439 54.2144 96.544 59.9695 101.555 63.819C107.427 68.3293 115.895 69.5466 123.067 69.0829C129.123 68.6912 136.526 66.8714 140.998 62.4153C143.769 59.6542 141.542 56.7689 139.031 54.8587C134.299 51.258 128.089 49.5269 122.178 50.3903C114.683 51.4849 107.083 55.8342 101.625 60.9648C97.2513 65.0766 94.4346 70.4067 95.4925 76.5224C96.5107 82.4089 100.787 90.3572 107.875 87.6116C110.778 86.4874 112.959 84.0732 111.878 80.7803C109.942 74.88 104.006 70.1863 98.676 67.5388C92.1611 64.3026 84.4792 63.2034 77.281 63.9828C73.4502 64.3975 67.5097 65.5382 65.6941 69.5975C63.9814 73.4268 67.8619 77.4495 70.68 79.3766" stroke="#2D2D2D" stroke-width="0.299699" stroke-linecap="round"/>
<path d="M145.524 43.4262C145.344 43.1724 145.07 43.0264 144.872 42.7954C145.055 42.7331 145.613 42.5065 145.777 42.3583C146.264 41.92 146.654 41.8057 147.194 41.443C147.781 41.0494 148.273 40.8185 149.297 40.4328C150.321 40.047 150.423 39.9029 151.099 39.6264C151.772 39.3513 152.407 38.986 153.066 38.6796C154.506 38.0095 155.788 37.1574 157.199 36.4474C158.248 35.9194 158.306 35.8618 159.314 35.2603C159.458 35.1748 160.348 34.6069 160.412 34.7501C161.072 36.2264 162.138 37.7963 162.813 39.2471L163.676 41.1029C163.775 41.3144 163.837 41.4489 164.054 41.761C163.976 41.8773 162.904 42.3779 162.782 42.442C162.208 42.7452 159.412 43.8968 158.83 44.1911C156.98 45.1279 156.716 45.314 154.86 46.038C153.607 46.5269 152.672 46.8655 151.287 47.5095L149.485 48.3479C148.997 48.6478 148.499 48.7948 148.078 49.181C148.037 49.2184 148.007 49.2961 147.966 49.2385C147.633 48.7678 147.652 48.065 147.449 47.5418C147.036 46.4772 146.467 45.4348 145.994 44.392C145.851 44.0761 145.725 43.7106 145.524 43.4262Z" fill="#FFC728"/>
<path d="M144.862 42.7841C145.061 43.0217 145.341 43.1682 145.524 43.4262C145.725 43.7106 145.851 44.0761 145.994 44.392C146.467 45.4348 147.036 46.4772 147.449 47.5418C147.652 48.065 147.633 48.7678 147.966 49.2385C148.007 49.2961 148.037 49.2184 148.078 49.181C148.499 48.7948 148.997 48.6478 149.485 48.3479C150.582 47.8375 150.295 47.9712 151.287 47.5095C152.672 46.8655 153.607 46.5269 154.86 46.038C156.716 45.314 156.98 45.1279 158.83 44.1911C159.412 43.8968 162.208 42.7452 162.782 42.442C162.904 42.3779 163.976 41.8773 164.054 41.761C163.837 41.4489 163.775 41.3144 163.676 41.1029C163.389 40.4843 163.101 39.8657 162.813 39.2471C162.138 37.7963 161.072 36.2264 160.412 34.7501C160.348 34.6069 159.458 35.1748 159.314 35.2603C158.306 35.8618 158.248 35.9194 157.199 36.4474C155.788 37.1574 154.506 38.0095 153.066 38.6796C152.407 38.986 151.772 39.3513 151.099 39.6264C150.423 39.9029 150.321 40.047 149.297 40.4328C148.273 40.8185 147.781 41.0494 147.194 41.443C146.654 41.8057 146.264 41.92 145.777 42.3583C145.551 42.5617 144.586 42.9125 144.862 42.7843" stroke="#CB9D1D" stroke-width="0.299699" stroke-linecap="round"/>
<path d="M156.244 39.241C156.326 39.2028 156.439 39.2498 156.581 39.382L156.617 39.3656C156.717 39.2329 156.883 39.1042 157.116 38.9794C157.809 38.6569 158.476 38.8763 159.116 39.6376L159.521 40.2781C159.883 41.0562 159.719 41.7482 159.029 42.3539L158.735 42.5206L158.723 42.526C158.637 42.5661 158.498 42.6058 158.307 42.6452L158.324 42.6819L158.377 42.7513C158.395 42.7894 158.358 42.853 158.266 42.9421C158.117 43.0113 157.991 42.9344 157.887 42.7113C157.341 41.8037 157.017 41.2411 156.916 41.0234L156.417 39.7962C156.36 39.6738 156.254 39.5592 156.099 39.4523C156.07 39.3898 156.119 39.3193 156.244 39.241ZM157.261 40.8431L157.978 42.1529C158.184 42.3414 158.382 42.3918 158.57 42.3044L158.723 42.2333C158.934 42.1349 159.115 41.9149 159.266 41.5734C159.374 41.2219 159.35 40.8775 159.193 40.5401L159.092 40.3238C158.839 39.7796 158.465 39.3959 157.971 39.1726C157.71 39.105 157.502 39.1076 157.345 39.1805L157.122 39.2844C156.871 39.401 156.778 39.575 156.843 39.8064L157.261 40.8431Z" fill="#CB9D1D"/>
<path d="M154.725 39.6942C154.784 39.6669 154.859 39.6799 154.951 39.7333L154.962 39.8027C156.03 41.2086 156.823 42.2891 157.342 43.0443C157.338 43.1387 157.295 43.205 157.213 43.2433C157.075 43.3071 156.898 43.1413 156.681 42.7459L156.466 42.4536L156.149 42.6162C155.945 42.7109 155.629 42.8363 155.202 42.9923C155.232 43.8155 155.194 44.2517 155.088 44.3009L155.077 44.3064C154.94 44.3402 154.857 44.3258 154.828 44.2632C154.895 43.5769 154.81 42.4942 154.575 41.0151C154.548 40.5377 154.544 40.1443 154.562 39.8347C154.6 39.7738 154.655 39.727 154.725 39.6942ZM155.182 42.7037C155.414 42.6388 155.649 42.5508 155.888 42.4396L156.205 42.292C156.248 42.272 156.28 42.2424 156.3 42.2034L154.948 40.4195L154.937 40.4249C154.897 40.5457 154.922 40.8951 155.01 41.4732L155.182 42.7037Z" fill="#CB9D1D"/>
<path d="M150.881 41.3438C150.979 41.2982 151.06 41.3235 151.124 41.4196L151.106 41.4278L151.143 41.4604C151.276 41.3984 151.633 41.1977 152.214 40.8581C152.323 40.837 152.392 40.8564 152.419 40.9162C152.46 41.0033 152.221 41.1821 151.704 41.4526L151.21 41.7421L151.293 41.9217C151.353 42.0496 151.668 42.5332 152.24 43.3727L152.992 43.0228C153.094 42.9755 153.175 42.9857 153.235 43.0537C153.274 43.1381 153.202 43.2231 153.018 43.3087L152.354 43.6176L152.361 43.6339L152.737 44.4869C152.83 44.6883 152.928 44.8215 153.03 44.8867L154.169 44.2924C154.299 44.245 154.379 44.2539 154.41 44.3192C154.45 44.4062 154.334 44.5136 154.059 44.6411C153.367 44.9964 153.026 45.1862 153.038 45.2107C152.897 45.2763 152.729 45.1722 152.535 44.8985L152.361 44.602L151.942 43.6701L150.941 42.0857L150.882 41.9592C150.725 41.6218 150.719 41.4194 150.864 41.352L150.881 41.3438Z" fill="#CB9D1D"/>
<path d="M148.631 42.4653C148.752 42.4088 148.873 42.5084 148.992 42.7641C150.079 44.8462 150.668 45.8663 150.758 45.8244L150.91 45.7193L151.579 45.4226L151.785 45.282C151.844 45.2547 151.919 45.2677 152.011 45.3211C152.022 45.4482 151.887 45.5773 151.605 45.7085L150.984 45.9874C150.937 46.0092 150.864 46.0779 150.766 46.1933L150.677 46.2343C150.556 46.2908 150.328 46.0112 149.994 45.3955C149.759 45.012 149.255 44.093 148.483 42.6384C148.488 42.5667 148.537 42.509 148.631 42.4653Z" fill="#CB9D1D"/>
<path d="M110.111 49.6474C110.095 49.3369 109.942 49.0665 109.898 48.7654C110.087 48.8111 110.679 48.9184 110.897 48.8815C111.543 48.7724 111.934 48.8847 112.584 48.8678C113.29 48.8496 113.829 48.9183 114.901 49.1414C115.972 49.3645 116.136 49.2974 116.854 49.4261C117.57 49.5542 118.302 49.5861 119.022 49.6802C120.597 49.8862 122.136 49.8534 123.708 50.0097C124.876 50.126 124.956 50.1083 126.13 50.141C126.297 50.1456 127.353 50.1427 127.33 50.2979C127.096 51.8981 127.156 53.7952 126.948 55.3817L126.683 57.4112C126.653 57.6425 126.634 57.7896 126.649 58.1693C126.521 58.2258 125.348 58.0739 125.211 58.0629C124.563 58.011 121.585 57.4853 120.937 57.4225C118.873 57.2223 118.549 57.2377 116.595 56.8549C115.275 56.5963 114.304 56.381 112.79 56.1831L110.819 55.9254C110.246 55.917 109.747 55.7744 109.184 55.875C109.13 55.8848 109.062 55.934 109.059 55.8635C109.03 55.2879 109.422 54.7044 109.531 54.1539C109.753 53.0338 109.831 51.8485 109.991 50.715C110.039 50.3716 110.128 49.9951 110.111 49.6474Z" fill="#FFC728"/>
<path d="M109.896 48.7507C109.936 49.0577 110.095 49.3318 110.111 49.6474C110.128 49.9951 110.039 50.3716 109.991 50.715C109.831 51.8485 109.753 53.0338 109.531 54.1539C109.422 54.7044 109.03 55.2879 109.059 55.8635C109.062 55.934 109.13 55.8848 109.184 55.875C109.747 55.7744 110.246 55.917 110.819 55.9254C112.018 56.0822 111.704 56.0412 112.79 56.1831C114.304 56.381 115.275 56.5963 116.595 56.8549C118.549 57.2377 118.873 57.2223 120.937 57.4225C121.585 57.4853 124.563 58.011 125.211 58.0629C125.348 58.0739 126.521 58.2258 126.649 58.1693C126.634 57.7896 126.653 57.6425 126.683 57.4112C126.771 56.7347 126.86 56.0582 126.948 55.3817C127.156 53.7952 127.096 51.8981 127.33 50.2979C127.353 50.1427 126.297 50.1456 126.13 50.141C124.956 50.1083 124.876 50.126 123.708 50.0097C122.136 49.8534 120.597 49.8862 119.022 49.6802C118.302 49.5861 117.57 49.5542 116.854 49.4261C116.136 49.2974 115.972 49.3645 114.901 49.1414C113.829 48.9183 113.29 48.8496 112.584 48.8678C111.934 48.8847 111.543 48.7724 110.897 48.8815C110.597 48.9322 109.594 48.7112 109.896 48.7506" stroke="#CB9D1D" stroke-width="0.299699" stroke-linecap="round"/>
<path d="M121.404 51.8577C121.494 51.8694 121.564 51.9693 121.613 52.1574L121.652 52.1624C121.808 52.1041 122.017 52.0846 122.281 52.1039C123.039 52.203 123.484 52.7454 123.617 53.7312L123.616 54.4891C123.504 55.3401 122.995 55.8364 122.088 55.978L121.75 55.9611L121.737 55.9594C121.643 55.9471 121.505 55.9063 121.322 55.8371L121.317 55.8772L121.325 55.9645C121.319 56.0062 121.254 56.04 121.129 56.066C120.966 56.0447 120.9 55.9121 120.932 55.6681C120.957 54.6091 120.985 53.9607 121.017 53.7226L121.252 52.4189C121.27 52.285 121.242 52.1315 121.169 51.9585C121.178 51.8901 121.256 51.8565 121.404 51.8577ZM121.405 53.7552L121.308 55.2451C121.381 55.515 121.521 55.6634 121.727 55.6902L121.894 55.7121C122.125 55.7423 122.396 55.6537 122.706 55.4461C122.986 55.2072 123.15 54.9033 123.198 54.5344L123.229 54.2978C123.307 53.7028 123.197 53.1784 122.899 52.7249C122.715 52.5284 122.538 52.4189 122.366 52.3965L122.122 52.3646C121.848 52.3288 121.676 52.4259 121.607 52.6559L121.405 53.7552Z" fill="#CB9D1D"/>
<path d="M119.879 51.4262C119.943 51.4346 120 51.4859 120.048 51.58L120.02 51.6444C120.169 53.404 120.26 54.7414 120.293 55.6567C120.239 55.7344 120.167 55.7673 120.077 55.7556C119.928 55.736 119.867 55.5011 119.895 55.0508L119.871 54.689L119.515 54.6562C119.293 54.6271 118.959 54.5637 118.514 54.4663C118.099 55.1776 117.833 55.5257 117.717 55.5106L117.705 55.5089C117.571 55.4642 117.509 55.4076 117.518 55.3392C117.942 54.7954 118.45 53.836 119.044 52.461C119.277 52.0436 119.484 51.7091 119.666 51.4574C119.731 51.4265 119.802 51.4161 119.879 51.4262ZM118.652 54.2119C118.882 54.2814 119.128 54.3332 119.39 54.3674L119.737 54.4127C119.784 54.4189 119.826 54.4108 119.864 54.3885L119.679 52.1581L119.666 52.1564C119.568 52.2375 119.401 52.5456 119.166 53.0807L118.652 54.2119Z" fill="#CB9D1D"/>
<path d="M115.75 50.7597C115.857 50.7737 115.912 50.8383 115.914 50.9536L115.895 50.9511L115.908 50.9983C116.054 51.0173 116.463 51.039 117.135 51.0633C117.239 51.1041 117.286 51.1572 117.277 51.2227C117.265 51.3179 116.968 51.3411 116.386 51.2923L115.814 51.2719L115.788 51.4683C115.77 51.6081 115.777 52.1856 115.81 53.2006L116.632 53.3082C116.744 53.3227 116.807 53.3748 116.821 53.4645C116.809 53.5567 116.702 53.5897 116.501 53.5634L115.775 53.4684L115.772 53.4863L115.632 54.4076C115.604 54.6278 115.615 54.7927 115.666 54.9023L116.946 55.0106C117.081 55.0404 117.144 55.091 117.135 55.1624C117.123 55.2576 116.966 55.2856 116.666 55.2464C115.891 55.1754 115.502 55.1532 115.499 55.18C115.344 55.1599 115.259 54.9822 115.242 54.6471L115.254 54.3037L115.399 53.2922L115.402 51.4179L115.42 51.2795C115.469 50.9106 115.572 50.7364 115.731 50.7572L115.75 50.7597Z" fill="#CB9D1D"/>
<path d="M113.247 50.501C113.38 50.5184 113.428 50.6669 113.391 50.9466C113.194 53.2874 113.145 54.4642 113.243 54.4771L113.428 54.4694L114.152 54.5777L114.401 54.5694C114.466 54.5778 114.522 54.6291 114.571 54.7232C114.512 54.8367 114.329 54.8732 114.02 54.8329L113.347 54.7357C113.296 54.729 113.197 54.7479 113.052 54.7925L112.956 54.7799C112.823 54.7625 112.78 54.4044 112.828 53.7055C112.835 53.2555 112.902 52.2096 113.029 50.5678C113.072 50.5098 113.144 50.4876 113.247 50.501Z" fill="#CB9D1D"/>
<path d="M129.496 33.4667C129.201 33.3678 128.893 33.4123 128.597 33.3428C128.708 33.1841 129.024 32.672 129.069 32.4552C129.204 31.8138 129.451 31.4913 129.672 30.8796C129.913 30.2158 130.174 29.7387 130.772 28.8224C131.371 27.9061 131.368 27.7297 131.75 27.1072C132.13 26.4881 132.427 25.818 132.778 25.1818C133.544 23.7903 134.075 22.3456 134.794 20.9395C135.329 19.8937 135.342 19.8131 135.801 18.7319C135.866 18.5781 136.248 17.5945 136.384 17.6722C137.789 18.4736 139.577 19.1105 140.978 19.8825L142.771 20.8701C142.976 20.9826 143.105 21.0542 143.465 21.178C143.471 21.3179 142.901 22.3551 142.841 22.4786C142.556 23.0628 140.98 25.6436 140.685 26.2243C139.745 28.073 139.642 28.3795 138.572 30.0596C137.85 31.1942 137.295 32.02 136.558 33.3573L135.599 35.0983C135.382 35.6289 135.067 36.0414 134.956 36.6017C134.945 36.6559 134.966 36.7366 134.899 36.7142C134.353 36.5309 133.953 35.9529 133.48 35.6505C132.518 35.0353 131.443 34.5305 130.446 33.9681C130.144 33.7977 129.826 33.5774 129.496 33.4667Z" fill="#FFC728"/>
<path d="M128.582 33.3393C128.883 33.4138 129.196 33.3662 129.496 33.4667C129.826 33.5774 130.144 33.7977 130.446 33.9681C131.443 34.5305 132.518 35.0353 133.48 35.6505C133.953 35.9529 134.353 36.5309 134.899 36.7142C134.966 36.7366 134.945 36.6559 134.956 36.6017C135.067 36.0414 135.382 35.6289 135.599 35.0983C136.183 34.0386 136.03 34.3161 136.558 33.3573C137.295 32.02 137.85 31.1942 138.572 30.0596C139.642 28.3795 139.745 28.073 140.685 26.2243C140.98 25.6436 142.556 23.0628 142.841 22.4786C142.901 22.3551 143.471 21.3179 143.465 21.1779C143.105 21.0542 142.976 20.9826 142.771 20.8701C142.174 20.5409 141.576 20.2117 140.978 19.8825C139.577 19.1105 137.789 18.4736 136.384 17.6722C136.248 17.5945 135.866 18.5781 135.801 18.7319C135.342 19.8131 135.329 19.8937 134.794 20.9395C134.075 22.3456 133.544 23.7903 132.778 25.1818C132.427 25.818 132.13 26.4881 131.75 27.1072C131.368 27.7297 131.371 27.9061 130.772 28.8224C130.174 29.7387 129.913 30.2158 129.672 30.8796C129.451 31.4913 129.204 31.8138 129.069 32.4552C129.007 32.7527 128.435 33.606 128.582 33.3398" stroke="#CB9D1D" stroke-width="0.299699" stroke-linecap="round"/>
<path d="M135.674 23.7591C135.717 23.6797 135.836 23.6512 136.029 23.6738L136.048 23.6397C136.05 23.4734 136.109 23.2712 136.223 23.0331C136.592 22.3633 137.259 22.1465 138.225 22.3828L138.931 22.6603C139.682 23.0744 139.959 23.7297 139.759 24.6262L139.62 24.9344L139.614 24.9458C139.568 25.029 139.48 25.1431 139.349 25.2879L139.384 25.3074L139.468 25.3316C139.505 25.3519 139.513 25.4252 139.491 25.5514C139.412 25.6952 139.265 25.7077 139.049 25.589C138.072 25.1792 137.479 24.9164 137.269 24.8005L136.141 24.1053C136.022 24.0401 135.869 24.0101 135.682 24.0151C135.621 23.9818 135.618 23.8965 135.674 23.7591ZM137.44 24.4513L138.792 25.085C139.07 25.1149 139.26 25.039 139.36 24.8574L139.441 24.7098C139.553 24.5054 139.57 24.2209 139.49 23.8562C139.369 23.5088 139.146 23.2453 138.82 23.0657L138.611 22.9506C138.086 22.661 137.557 22.5722 137.026 22.6842C136.776 22.7833 136.61 22.9085 136.526 23.0599L136.408 23.2756C136.274 23.5178 136.302 23.7131 136.491 23.8616L137.44 24.4513Z" fill="#CB9D1D"/>
<path d="M134.716 25.0225C134.748 24.9657 134.816 24.9318 134.922 24.9208L134.971 24.9704C136.664 25.4737 137.942 25.8771 138.806 26.1804C138.859 26.2588 138.864 26.3377 138.82 26.4172C138.747 26.5497 138.506 26.5205 138.097 26.3299L137.751 26.2207L137.591 26.5394C137.483 26.7362 137.302 27.0239 137.049 27.4024C137.56 28.0488 137.787 28.423 137.731 28.5252L137.724 28.5366C137.634 28.6446 137.559 28.682 137.498 28.6487C137.147 28.0555 136.439 27.2316 135.375 26.1772C135.072 25.8077 134.836 25.4928 134.668 25.2324C134.663 25.1605 134.679 25.0906 134.716 25.0225ZM136.862 27.1813C137.011 26.992 137.149 26.7819 137.276 26.551L137.445 26.2445C137.468 26.2029 137.476 26.1604 137.469 26.1171L135.325 25.476L135.319 25.4873C135.358 25.6079 135.584 25.8755 135.997 26.29L136.862 27.1813Z" fill="#CB9D1D"/>
<path d="M132.589 28.6226C132.641 28.5279 132.721 28.5006 132.83 28.5405L132.82 28.5575L132.869 28.5622C132.94 28.4335 133.109 28.0607 133.377 27.4437C133.453 27.3621 133.52 27.3373 133.578 27.3691C133.662 27.4155 133.575 27.7006 133.317 28.2245L133.089 28.7501L133.263 28.8457C133.386 28.9137 133.926 29.1176 134.884 29.4574L135.284 28.7308C135.338 28.6324 135.409 28.5929 135.498 28.6122C135.58 28.657 135.571 28.7684 135.473 28.9463L135.12 29.5877L135.136 29.5964L135.943 30.063C136.137 30.1702 136.295 30.22 136.415 30.2124L136.983 29.0602C137.06 28.9449 137.131 28.9047 137.194 28.9394C137.278 28.9857 137.247 29.1414 137.101 29.4063C136.752 30.1019 136.589 30.4563 136.613 30.4693C136.538 30.6055 136.341 30.6205 136.023 30.5142L135.708 30.3775L134.819 29.8732L133.075 29.1862L132.953 29.1189C132.627 28.9394 132.502 28.7796 132.58 28.6396L132.589 28.6226Z" fill="#CB9D1D"/>
<path d="M131.435 30.8579C131.5 30.7406 131.655 30.75 131.902 30.8861C134.01 31.9237 135.088 32.399 135.136 32.312L135.196 32.1378L135.561 31.5029L135.644 31.2677C135.675 31.2109 135.744 31.177 135.849 31.166C135.933 31.2618 135.901 31.4459 135.75 31.7184L135.414 32.3101C135.389 32.3555 135.371 32.4539 135.359 32.6054L135.312 32.6906C135.248 32.8079 134.899 32.7168 134.266 32.4173C133.849 32.247 132.9 31.8029 131.418 31.0852C131.379 31.0245 131.385 30.9487 131.435 30.8579Z" fill="#CB9D1D"/>
<path d="M121.906 46.0362C121.727 46.29 121.452 46.436 121.254 46.667C121.438 46.7293 121.995 46.9559 122.16 47.1041C122.647 47.5424 123.037 47.6567 123.577 48.0194C124.163 48.413 124.655 48.6439 125.68 49.0296C126.704 49.4154 126.806 49.5595 127.482 49.836C128.154 50.1111 128.79 50.4764 129.448 50.7828C130.889 51.4529 132.171 52.305 133.581 53.015C134.631 53.543 134.688 53.6006 135.697 54.2021C135.841 54.2876 136.73 54.8555 136.794 54.7123C137.454 53.236 138.521 51.6661 139.196 50.2153L140.059 48.3595C140.158 48.148 140.22 48.0135 140.437 47.7014C140.359 47.5851 139.287 47.0845 139.165 47.0204C138.59 46.7172 135.794 45.5656 135.213 45.2713C133.363 44.3345 133.098 44.1484 131.243 43.4244C129.99 42.9355 129.054 42.5969 127.67 41.9529L125.868 41.1145C125.379 40.8146 124.882 40.6676 124.461 40.2814C124.42 40.244 124.389 40.1663 124.349 40.2239C124.016 40.6946 124.035 41.3974 123.832 41.9206C123.419 42.9852 122.849 44.0276 122.377 45.0704C122.234 45.3863 122.107 45.7518 121.906 46.0362Z" fill="#FFC728"/>
<path d="M121.245 46.6783C121.443 46.4407 121.724 46.2942 121.906 46.0362C122.107 45.7518 122.234 45.3863 122.377 45.0704C122.849 44.0276 123.419 42.9852 123.832 41.9206C124.035 41.3974 124.016 40.6946 124.349 40.2239C124.389 40.1663 124.42 40.244 124.461 40.2814C124.882 40.6676 125.379 40.8146 125.868 41.1145C126.965 41.6249 126.678 41.4912 127.67 41.9529C129.054 42.5969 129.99 42.9355 131.243 43.4244C133.098 44.1484 133.363 44.3345 135.213 45.2713C135.794 45.5656 138.59 46.7172 139.165 47.0204C139.287 47.0845 140.359 47.5851 140.437 47.7014C140.22 48.0135 140.158 48.148 140.059 48.3595C139.771 48.9781 139.484 49.5967 139.196 50.2153C138.521 51.6661 137.454 53.236 136.794 54.7123C136.73 54.8555 135.841 54.2876 135.697 54.2021C134.688 53.6006 134.631 53.543 133.581 53.015C132.171 52.305 130.889 51.4529 129.448 50.7828C128.79 50.4764 128.154 50.1111 127.482 49.836C126.806 49.5595 126.704 49.4154 125.68 49.0296C124.655 48.6439 124.163 48.413 123.577 48.0194C123.037 47.6567 122.647 47.5424 122.16 47.1041C121.934 46.9008 120.969 46.5499 121.244 46.6781" stroke="#CB9D1D" stroke-width="0.299699" stroke-linecap="round"/>
<path d="M132.627 50.2209C132.709 50.2591 132.821 50.2121 132.964 50.0799L132.999 50.0963C133.099 50.229 133.266 50.3577 133.498 50.4825C134.192 50.805 134.859 50.5857 135.499 49.8244L135.904 49.1838C136.266 48.4057 136.102 47.7137 135.411 47.108L135.117 46.9414L135.105 46.9359C135.019 46.8958 134.881 46.8561 134.689 46.8167L134.706 46.78L134.76 46.7106C134.778 46.6725 134.741 46.6089 134.649 46.5198C134.5 46.4506 134.373 46.5275 134.27 46.7506C133.724 47.6582 133.4 48.2208 133.299 48.4385L132.799 49.6657C132.742 49.7881 132.636 49.9027 132.482 50.0096C132.453 50.0722 132.501 50.1426 132.627 50.2209ZM133.644 48.6188L134.36 47.309C134.567 47.1205 134.764 47.0701 134.952 47.1575L135.105 47.2286C135.317 47.327 135.498 47.547 135.649 47.8886C135.757 48.24 135.732 48.5844 135.575 48.9218L135.475 49.1381C135.222 49.6823 134.848 50.066 134.353 50.2893C134.093 50.3569 133.885 50.3543 133.728 50.2814L133.505 50.1775C133.254 50.0609 133.161 49.8869 133.226 49.6556L133.644 48.6188Z" fill="#CB9D1D"/>
<path d="M131.108 49.7677C131.167 49.7951 131.242 49.782 131.333 49.7286L131.344 49.6592C132.413 48.2533 133.206 47.1728 133.724 46.4176C133.72 46.3232 133.677 46.2569 133.595 46.2186C133.458 46.1549 133.281 46.3206 133.064 46.716L132.849 47.0083L132.531 46.8458C132.328 46.751 132.012 46.6256 131.584 46.4696C131.615 45.6464 131.577 45.2102 131.471 45.161L131.459 45.1556C131.323 45.1217 131.24 45.1361 131.211 45.1987C131.277 45.885 131.193 46.9677 130.958 48.4468C130.931 48.9242 130.926 49.3177 130.944 49.6272C130.983 49.6881 131.037 49.7349 131.108 49.7677ZM131.564 46.7582C131.796 46.8231 132.032 46.9111 132.271 47.0223L132.588 47.1699C132.631 47.1899 132.663 47.2195 132.682 47.2586L131.331 49.0424L131.319 49.037C131.28 48.9162 131.304 48.5668 131.392 47.9887L131.564 46.7582Z" fill="#CB9D1D"/>
<path d="M127.264 48.1181C127.362 48.1637 127.443 48.1384 127.506 48.0423L127.489 48.0341L127.525 48.0015C127.659 48.0635 128.016 48.2642 128.596 48.6038C128.705 48.6249 128.774 48.6055 128.802 48.5457C128.842 48.4586 128.604 48.2798 128.086 48.0093L127.592 47.7198L127.676 47.5402C127.735 47.4123 128.051 46.9287 128.622 46.0892L129.374 46.4391C129.476 46.4865 129.557 46.4762 129.618 46.4082C129.657 46.3239 129.584 46.2389 129.4 46.1532L128.736 45.8443L128.744 45.828L129.119 44.975C129.213 44.7737 129.311 44.6404 129.412 44.5752L130.551 45.1695C130.682 45.217 130.762 45.208 130.792 45.1427C130.833 45.0557 130.716 44.9484 130.442 44.8208C129.749 44.4656 129.409 44.2757 129.42 44.2512C129.279 44.1856 129.112 44.2897 128.918 44.5635L128.744 44.86L128.325 45.7918L127.323 47.3762L127.264 47.5027C127.107 47.8401 127.101 48.0425 127.246 48.1099L127.264 48.1181Z" fill="#CB9D1D"/>
<path d="M125.014 46.9967C125.135 47.0531 125.255 46.9535 125.374 46.6978C126.462 44.6157 127.051 43.5956 127.141 43.6375L127.292 43.7426L127.962 44.0393L128.168 44.1799C128.227 44.2072 128.302 44.1942 128.393 44.1408C128.405 44.0137 128.27 43.8846 127.988 43.7534L127.367 43.4745C127.32 43.4527 127.247 43.384 127.148 43.2686L127.06 43.2276C126.939 43.1711 126.711 43.4507 126.377 44.0664C126.141 44.4499 125.637 45.3689 124.865 46.8235C124.87 46.8952 124.92 46.9529 125.014 46.9967Z" fill="#CB9D1D"/>
<path d="M73.0751 29.4556C72.8626 29.6825 72.5704 29.7893 72.3427 29.991C72.5159 30.078 73.037 30.3789 73.1798 30.5483C73.6021 31.0492 73.9725 31.216 74.4578 31.6494C74.9844 32.1197 75.4403 32.4159 76.402 32.9386C77.3638 33.4613 77.4449 33.618 78.0766 33.9847C78.7049 34.3494 79.2841 34.7985 79.8945 35.1924C81.2293 36.0538 82.3821 37.0737 83.6819 37.9705C84.6487 38.6376 84.6981 38.7026 85.6148 39.4368C85.7452 39.5412 86.5484 40.2258 86.6315 40.0927C87.488 38.721 88.7599 37.3122 89.6274 35.9679L90.7373 34.2481C90.8638 34.052 90.9442 33.9275 91.2018 33.648C91.1406 33.5221 90.1471 32.8791 90.0355 32.7989C89.5077 32.4197 86.8961 30.8953 86.3609 30.524C84.6569 29.3422 84.4203 29.1215 82.6817 28.1498C81.5077 27.4936 80.6274 27.0298 79.3446 26.202L77.6744 25.1242C77.2318 24.76 76.7589 24.5461 76.395 24.1058C76.3598 24.0632 76.3402 23.9821 76.292 24.0336C75.8978 24.4541 75.8197 25.1528 75.5469 25.6432C74.9919 26.6411 74.2848 27.5955 73.6739 28.5636C73.4888 28.8568 73.3132 29.2016 73.0751 29.4556Z" fill="#FFC728"/>
<path d="M72.3316 30.0009C72.5609 29.7928 72.8591 29.6862 73.0751 29.4556C73.3132 29.2016 73.4888 28.8568 73.6739 28.5636C74.2848 27.5955 74.9919 26.6411 75.5469 25.6432C75.8197 25.1528 75.8978 24.4541 76.292 24.0336C76.3402 23.9821 76.3598 24.0632 76.395 24.1058C76.7589 24.5461 77.2318 24.76 77.6744 25.1242C78.6911 25.7802 78.4248 25.6084 79.3446 26.202C80.6274 27.0298 81.5077 27.4936 82.6817 28.1498C84.4203 29.1215 84.6569 29.3422 86.3609 30.524C86.8961 30.8953 89.5077 32.4197 90.0355 32.7989C90.1471 32.8791 91.1406 33.5221 91.2018 33.648C90.9442 33.9274 90.8638 34.052 90.7373 34.2481C90.3673 34.8213 89.9974 35.3946 89.6274 35.9679C88.7599 37.3122 87.488 38.721 86.6315 40.0927C86.5484 40.2258 85.7452 39.5412 85.6148 39.4368C84.6981 38.7026 84.6487 38.6376 83.6819 37.9705C82.3821 37.0737 81.2293 36.0538 79.8945 35.1924C79.2841 34.7985 78.7049 34.3494 78.0766 33.9847C77.4449 33.618 77.3638 33.4613 76.402 32.9386C75.4403 32.4159 74.9844 32.1197 74.4578 31.6494C73.9725 31.216 73.6021 31.0492 73.1798 30.5483C72.9839 30.3158 72.0758 29.8358 72.3312 30.0006" stroke="#CB9D1D" stroke-width="0.299699" stroke-linecap="round"/>
<path d="M83.1192 35.0716C83.1955 35.1208 83.3132 35.0897 83.4726 34.9782L83.5053 34.9993C83.5864 35.1445 83.7336 35.2949 83.9469 35.4504C84.5895 35.8651 85.28 35.7392 86.0185 35.073L86.5077 34.4941C86.9731 33.773 86.9054 33.0651 86.3048 32.3703L86.0363 32.1649L86.0254 32.1579C85.9455 32.1063 85.8135 32.0479 85.6294 31.9827L85.6513 31.9487L85.714 31.8873C85.7368 31.852 85.7088 31.7839 85.6299 31.683C85.492 31.594 85.3563 31.6529 85.2228 31.8596C84.5574 32.6837 84.1595 33.1966 84.0294 33.3983L83.3663 34.5454C83.2931 34.6588 83.1726 34.7579 83.0049 34.8425C82.9674 34.9005 83.0056 34.9768 83.1192 35.0716ZM84.3463 33.6243L85.2358 32.4252C85.4665 32.2669 85.669 32.244 85.8433 32.3564L85.9848 32.4478C86.1809 32.5743 86.3302 32.8171 86.4327 33.1761C86.4916 33.5391 86.4201 33.8769 86.2184 34.1895L86.089 34.39C85.7636 34.8942 85.3406 35.223 84.82 35.3763C84.553 35.4076 84.3469 35.3764 84.2017 35.2827L83.9948 35.1491C83.7624 34.9992 83.6942 34.8141 83.7901 34.5938L84.3463 33.6243Z" fill="#CB9D1D"/>
<path d="M81.6774 34.4144C81.7318 34.4495 81.8081 34.4469 81.9061 34.4066L81.9264 34.3393C83.1778 33.0934 84.1119 32.132 84.7287 31.455C84.7379 31.361 84.7044 31.2894 84.6282 31.2402C84.5011 31.1582 84.3029 31.2981 84.0334 31.6599L83.7807 31.92L83.4885 31.7154C83.2997 31.5936 83.0042 31.4261 82.6019 31.2129C82.7449 30.4016 82.7674 29.9644 82.6694 29.9011L82.6585 29.8941C82.5277 29.8418 82.4435 29.8447 82.4061 29.9027C82.378 30.5916 82.1459 31.6525 81.7098 33.0853C81.6178 33.5545 81.5595 33.9437 81.5349 34.2528C81.5645 34.3184 81.612 34.3722 81.6774 34.4144ZM82.5426 31.496C82.7634 31.5921 82.9845 31.7116 83.206 31.8545L83.5 32.0442C83.5399 32.07 83.5671 32.1036 83.5815 32.145L81.9978 33.7266L81.987 33.7195C81.9648 33.5945 82.0369 33.2518 82.2032 32.6913L82.5426 31.496Z" fill="#CB9D1D"/>
<path d="M78.0968 32.2534C78.1876 32.3119 78.2712 32.298 78.3475 32.2115L78.3312 32.201L78.3719 32.1737C78.4953 32.2534 78.8213 32.5012 79.3498 32.9173C79.4552 32.9532 79.5258 32.9434 79.5616 32.8879C79.6137 32.8072 79.402 32.5974 78.9266 32.2585L78.4767 31.9038L78.584 31.7374C78.6605 31.6189 79.0395 31.1831 79.7208 30.43L80.4178 30.8798C80.5122 30.9407 80.5939 30.9416 80.6629 30.8826C80.7133 30.8044 80.6532 30.7103 80.4826 30.6002L79.8673 30.2031L79.877 30.188L80.3659 29.3946C80.4863 29.208 80.6014 29.0894 80.7112 29.0388L81.7576 29.7838C81.8803 29.8486 81.9612 29.8508 82.0002 29.7903C82.0523 29.7096 81.9513 29.5873 81.6971 29.4233C81.06 28.9764 80.7487 28.7416 80.7634 28.7189C80.6327 28.6346 80.4524 28.7147 80.2226 28.9592L80.0099 29.2291L79.4668 30.0946L78.2573 31.5266L78.1817 31.6438C77.9799 31.9565 77.9462 32.1561 78.0805 32.2428L78.0968 32.2534Z" fill="#CB9D1D"/>
<path d="M76.0206 30.8336C76.1331 30.9063 76.2658 30.8241 76.4188 30.5871C77.7819 28.674 78.5052 27.7443 78.5887 27.7982L78.7241 27.9231L79.3468 28.3088L79.5317 28.4764C79.5862 28.5115 79.6624 28.5089 79.7604 28.4686C79.7892 28.3443 79.6729 28.1979 79.4115 28.0292L78.8349 27.6678C78.7913 27.6397 78.7285 27.5617 78.6465 27.4337L78.5648 27.381C78.4523 27.3084 78.1883 27.5541 77.7729 28.1182C77.4869 28.4657 76.8618 29.3069 75.8976 30.6418C75.8924 30.7135 75.9334 30.7774 76.0206 30.8336Z" fill="#CB9D1D"/>
<path d="M95.8347 51.3927C95.54 51.4916 95.2322 51.4471 94.936 51.5166C95.0473 51.6753 95.3633 52.1874 95.4086 52.4042C95.5427 53.0455 95.7897 53.3681 96.0114 53.9798C96.2519 54.6436 96.5127 55.1206 97.1115 56.0369C97.7102 56.9533 97.7073 57.1297 98.0895 57.7521C98.4697 58.3713 98.7665 59.0413 99.117 59.6776C99.8836 61.0691 100.415 62.5138 101.134 63.9198C101.668 64.9656 101.681 65.0463 102.14 66.1275C102.205 66.2813 102.587 67.2649 102.724 67.1872C104.128 66.3858 105.916 65.7489 107.318 64.9769L109.11 63.9893C109.315 63.8767 109.445 63.8052 109.804 63.6814C109.81 63.5415 109.24 62.5043 109.18 62.3807C108.895 61.7965 107.319 59.2157 107.024 58.635C106.085 56.7864 105.981 56.4799 104.911 54.7998C104.189 53.6652 103.634 52.8394 102.897 51.5021L101.938 49.7611C101.721 49.2305 101.406 48.8179 101.295 48.2577C101.284 48.2035 101.305 48.1228 101.238 48.1452C100.692 48.3285 100.292 48.9065 99.8191 49.2088C98.8572 49.824 97.782 50.3289 96.785 50.8913C96.4829 51.0617 96.1648 51.2819 95.8347 51.3927Z" fill="#FFC728"/>
<path d="M94.9216 51.5201C95.2221 51.4456 95.5352 51.4932 95.8347 51.3927C96.1648 51.2819 96.4829 51.0617 96.785 50.8913C97.782 50.3289 98.8572 49.824 99.8191 49.2088C100.292 48.9065 100.692 48.3285 101.238 48.1452C101.305 48.1228 101.284 48.2035 101.295 48.2577C101.406 48.8179 101.721 49.2305 101.938 49.7611C102.522 50.8208 102.369 50.5433 102.897 51.5021C103.634 52.8394 104.189 53.6652 104.911 54.7998C105.981 56.4799 106.085 56.7864 107.024 58.635C107.319 59.2157 108.895 61.7965 109.18 62.3807C109.24 62.5043 109.81 63.5415 109.804 63.6814C109.445 63.8052 109.315 63.8767 109.11 63.9893C108.513 64.3185 107.915 64.6477 107.318 64.9769C105.916 65.7489 104.128 66.3858 102.724 67.1872C102.587 67.2649 102.205 66.2813 102.14 66.1275C101.681 65.0463 101.668 64.9656 101.134 63.9198C100.415 62.5138 99.8836 61.0691 99.117 59.6776C98.7665 59.0413 98.4697 58.3713 98.0895 57.7521C97.7073 57.1297 97.7102 56.9533 97.1115 56.0369C96.5127 55.1206 96.2519 54.6436 96.0114 53.9798C95.7897 53.3681 95.5427 53.0455 95.4086 52.4042C95.3464 52.1067 94.7746 51.2534 94.9213 51.5196" stroke="#CB9D1D" stroke-width="0.299699" stroke-linecap="round"/>
<path d="M102.012 61.1007C102.056 61.1802 102.174 61.2086 102.367 61.1861L102.386 61.2202C102.389 61.3865 102.447 61.5887 102.561 61.8268C102.93 62.4966 103.598 62.7134 104.564 62.4771L105.269 62.1995C106.021 61.7855 106.297 61.1301 106.098 60.2336L105.959 59.9254L105.952 59.9141C105.907 59.8308 105.818 59.7168 105.687 59.572L105.722 59.5525L105.807 59.5282C105.843 59.508 105.851 59.4347 105.83 59.3085C105.75 59.1647 105.603 59.1521 105.387 59.2709C104.411 59.6807 103.817 59.9435 103.607 60.0593L102.479 60.7546C102.361 60.8198 102.208 60.8498 102.02 60.8447C101.96 60.878 101.957 60.9634 102.012 61.1007ZM103.779 60.4086L105.131 59.7749C105.409 59.745 105.598 59.8208 105.698 60.0025L105.779 60.1501C105.892 60.3544 105.908 60.6389 105.828 61.0036C105.708 61.3511 105.485 61.6146 105.159 61.7941L104.95 61.9093C104.424 62.1988 103.896 62.2876 103.365 62.1757C103.115 62.0766 102.948 61.9513 102.865 61.8L102.746 61.5843C102.613 61.3421 102.64 61.1467 102.829 60.9983L103.779 60.4086Z" fill="#CB9D1D"/>
<path d="M101.055 59.8379C101.086 59.8946 101.154 59.9285 101.26 59.9395L101.31 59.8899C103.002 59.3866 104.281 58.9833 105.145 58.6799C105.198 58.6015 105.202 58.5226 105.158 58.4431C105.085 58.3107 104.844 58.3398 104.436 58.5305L104.09 58.6396L103.929 58.3209C103.821 58.1241 103.64 57.8365 103.387 57.4579C103.898 56.8116 104.125 56.4373 104.069 56.3352L104.063 56.3238C103.972 56.2157 103.897 56.1783 103.836 56.2116C103.485 56.8049 102.777 57.6287 101.714 58.6832C101.41 59.0526 101.174 59.3676 101.006 59.628C101.001 59.6998 101.017 59.7698 101.055 59.8379ZM103.201 57.6791C103.35 57.8684 103.488 58.0785 103.615 58.3093L103.784 58.6158C103.807 58.6575 103.815 58.6999 103.808 58.7432L101.663 59.3844L101.657 59.373C101.697 59.2524 101.923 58.9849 102.335 58.5703L103.201 57.6791Z" fill="#CB9D1D"/>
<path d="M98.9274 56.2373C98.9795 56.3319 99.0597 56.3593 99.1679 56.3194L99.1585 56.3024L99.2073 56.2977C99.2782 56.4263 99.4476 56.7992 99.7155 57.4161C99.7913 57.4977 99.8581 57.5226 99.9159 57.4907C100 57.4444 99.9132 57.1593 99.6554 56.6354L99.4275 56.1098L99.601 56.0142C99.7245 55.9462 100.265 55.7422 101.222 55.4024L101.622 56.129C101.676 56.2274 101.748 56.267 101.837 56.2477C101.918 56.2028 101.91 56.0914 101.812 55.9136L101.458 55.2721L101.474 55.2635L102.281 54.7969C102.475 54.6897 102.633 54.6399 102.754 54.6474L103.322 55.7996C103.399 55.9149 103.469 55.9552 103.532 55.9205C103.616 55.8741 103.585 55.7185 103.439 55.4536C103.09 54.7579 102.928 54.4036 102.951 54.3906C102.876 54.2543 102.68 54.2394 102.361 54.3457L102.046 54.4823L101.157 54.9867L99.4134 55.6736L99.2912 55.7409C98.9653 55.9205 98.8409 56.0803 98.918 56.2203L98.9274 56.2373Z" fill="#CB9D1D"/>
<path d="M97.7733 54.0024C97.838 54.1198 97.9938 54.1104 98.2409 53.9743C100.348 52.9366 101.426 52.4613 101.474 52.5484L101.534 52.7225L101.899 53.3574L101.982 53.5927C102.014 53.6495 102.082 53.6833 102.188 53.6943C102.272 53.5986 102.239 53.4144 102.089 53.142L101.753 52.5503C101.728 52.5049 101.709 52.4064 101.698 52.2549L101.651 52.1698C101.586 52.0525 101.237 52.1436 100.604 52.4431C100.187 52.6134 99.2381 53.0574 97.7561 53.7752C97.7176 53.8359 97.7233 53.9116 97.7733 54.0024Z" fill="#CB9D1D"/>
<path d="M144.898 59.1033C144.676 59.4169 144.337 59.5972 144.093 59.8826C144.319 59.9596 145.008 60.2395 145.211 60.4226C145.813 60.964 146.295 61.1053 146.962 61.5534C147.686 62.0396 148.294 62.3249 149.56 62.8014C150.825 63.278 150.951 63.4561 151.786 63.7976C152.617 64.1374 153.402 64.5888 154.216 64.9673C155.995 65.7952 157.579 66.8479 159.321 67.7249C160.618 68.3773 160.689 68.4485 161.935 69.1915C162.113 69.2972 163.212 69.9987 163.291 69.8219C164.106 67.998 165.424 66.0585 166.258 64.2663L167.324 61.9736C167.446 61.7122 167.523 61.5461 167.791 61.1605C167.695 61.0168 166.37 60.3984 166.22 60.3192C165.51 59.9446 162.055 58.5219 161.337 58.1583C159.052 57.001 158.725 56.771 156.433 55.8766C154.885 55.2727 153.729 54.8544 152.019 54.0588L149.792 53.023C149.189 52.6524 148.574 52.4708 148.054 51.9937C148.003 51.9476 147.966 51.8516 147.915 51.9228C147.504 52.5042 147.527 53.3724 147.277 54.0188C146.766 55.334 146.063 56.6219 145.48 57.9101C145.303 58.3004 145.146 58.752 144.898 59.1033Z" fill="#FFC728"/>
<path d="M144.081 59.8966C144.326 59.603 144.673 59.422 144.898 59.1033C145.146 58.752 145.303 58.3004 145.48 57.9101C146.063 56.6219 146.766 55.334 147.277 54.0188C147.527 53.3724 147.504 52.5042 147.915 51.9228C147.966 51.8516 148.003 51.9476 148.054 51.9937C148.574 52.4708 149.189 52.6524 149.792 53.023C151.147 53.6535 150.792 53.4884 152.019 54.0588C153.729 54.8544 154.885 55.2727 156.433 55.8766C158.725 56.771 159.052 57.001 161.337 58.1583C162.055 58.5219 165.51 59.9446 166.22 60.3192C166.37 60.3984 167.695 61.0168 167.791 61.1605C167.523 61.5461 167.446 61.7122 167.324 61.9736C166.969 62.7378 166.613 63.502 166.258 64.2663C165.424 66.0585 164.106 67.998 163.291 69.8219C163.212 69.9987 162.113 69.2972 161.935 69.1915C160.689 68.4485 160.618 68.3773 159.321 67.7249C157.579 66.8479 155.995 65.7952 154.216 64.9673C153.402 64.5888 152.617 64.1374 151.786 63.7976C150.951 63.4561 150.825 63.278 149.56 62.8014C148.294 62.3249 147.686 62.0396 146.962 61.5534C146.295 61.1053 145.813 60.964 145.211 60.4226C144.932 60.1714 143.74 59.7379 144.08 59.8963" stroke="#CB9D1D" stroke-width="0.299699" stroke-linecap="round"/>
<path d="M158.142 64.273C158.243 64.3203 158.382 64.2622 158.558 64.0988L158.602 64.1191C158.726 64.283 158.931 64.4421 159.219 64.5962C160.075 64.9947 160.899 64.7237 161.69 63.7832L162.19 62.9918C162.638 62.0305 162.435 61.1757 161.582 60.4273L161.219 60.2215L161.204 60.2147C161.098 60.1652 160.926 60.1161 160.69 60.0675L160.711 60.0221L160.777 59.9364C160.799 59.8894 160.753 59.8108 160.64 59.7007C160.456 59.6151 160.3 59.7102 160.171 59.9858C159.497 61.1071 159.097 61.8022 158.972 62.0711L158.355 63.5871C158.285 63.7384 158.154 63.88 157.963 64.012C157.927 64.0893 157.987 64.1763 158.142 64.273ZM159.398 62.2938L160.283 60.6756C160.539 60.4429 160.783 60.3805 161.015 60.4886L161.204 60.5764C161.465 60.6979 161.689 60.9697 161.875 61.3917C162.009 61.8259 161.979 62.2514 161.785 62.6682L161.66 62.9354C161.348 63.6076 160.886 64.0817 160.275 64.3576C159.953 64.4411 159.696 64.4378 159.502 64.3478L159.226 64.2195C158.917 64.0754 158.802 63.8604 158.882 63.5746L159.398 62.2938Z" fill="#CB9D1D"/>
<path d="M156.266 63.7125C156.338 63.7463 156.431 63.7302 156.544 63.6643L156.558 63.5785C157.878 61.8416 158.858 60.5067 159.498 59.5738C159.493 59.4572 159.44 59.3752 159.339 59.3279C159.169 59.2491 158.95 59.454 158.682 59.9424L158.417 60.3036L158.024 60.1027C157.773 59.9856 157.383 59.8307 156.854 59.638C156.892 58.621 156.845 58.0822 156.714 58.0214L156.7 58.0146C156.531 57.9728 156.429 57.9906 156.393 58.0679C156.475 58.9158 156.371 60.2534 156.08 62.0806C156.047 62.6704 156.042 63.1565 156.064 63.5389C156.111 63.6141 156.179 63.672 156.266 63.7125ZM156.83 59.9946C157.116 60.0747 157.407 60.1834 157.702 60.3208L158.094 60.5031C158.147 60.5279 158.186 60.5644 158.211 60.6127L156.541 62.8165L156.527 62.8098C156.478 62.6605 156.508 62.2289 156.617 61.5148L156.83 59.9946Z" fill="#CB9D1D"/>
<path d="M151.516 61.6756C151.637 61.7319 151.737 61.7007 151.816 61.582L151.794 61.5718L151.839 61.5315C152.004 61.6081 152.444 61.8561 153.162 62.2757C153.297 62.3017 153.382 62.2777 153.416 62.2038C153.466 62.0962 153.171 61.8754 152.532 61.5412L151.921 61.1835L152.025 60.9617C152.098 60.8037 152.488 60.2061 153.194 59.169L154.123 59.6013C154.249 59.6598 154.349 59.6471 154.424 59.5631C154.472 59.4589 154.383 59.3539 154.155 59.2481L153.335 58.8665L153.344 58.8463L153.808 57.7925C153.924 57.5438 154.044 57.3792 154.17 57.2987L155.577 58.0329C155.738 58.0915 155.837 58.0804 155.875 57.9998C155.925 57.8922 155.781 57.7596 155.442 57.602C154.586 57.1632 154.166 56.9286 154.18 56.8984C154.006 56.8173 153.799 56.9459 153.559 57.2841L153.344 57.6504L152.826 58.8017L151.589 60.759L151.516 60.9153C151.322 61.3321 151.315 61.5822 151.494 61.6655L151.516 61.6756Z" fill="#CB9D1D"/>
<path d="M148.736 60.2897C148.886 60.3595 149.034 60.2364 149.181 59.9205C150.525 57.3482 151.253 56.088 151.364 56.1398L151.551 56.2697L152.378 56.6361L152.633 56.8098C152.706 56.8436 152.798 56.8275 152.911 56.7616C152.926 56.6046 152.758 56.4451 152.41 56.283L151.643 55.9385C151.585 55.9114 151.495 55.8266 151.373 55.684L151.264 55.6333C151.114 55.5635 150.833 55.909 150.42 56.6696C150.129 57.1434 149.507 58.2788 148.553 60.0758C148.559 60.1644 148.62 60.2357 148.736 60.2897Z" fill="#CB9D1D"/>
<path d="M91.7351 21.1791C91.7159 20.7955 91.526 20.4615 91.4724 20.0895C91.7051 20.1459 92.4366 20.2786 92.7065 20.233C93.5046 20.0981 93.9869 20.2369 94.7905 20.2161C95.6624 20.1935 96.3287 20.2784 97.6526 20.5541C98.9765 20.8297 99.1781 20.7467 100.066 20.9058C100.95 21.064 101.854 21.1034 102.744 21.2197C104.69 21.4741 106.592 21.4337 108.533 21.6268C109.977 21.7704 110.075 21.7486 111.526 21.7889C111.732 21.7946 113.036 21.7911 113.008 21.9828C112.719 23.9597 112.793 26.3033 112.536 28.2633L112.209 30.7706C112.171 31.0564 112.148 31.2381 112.167 31.7072C112.009 31.7769 110.559 31.5894 110.39 31.5758C109.589 31.5116 105.91 30.8622 105.109 30.7845C102.56 30.5373 102.16 30.5562 99.7457 30.0833C98.115 29.764 96.915 29.4979 95.0447 29.2534L92.6098 28.9351C91.9017 28.9247 91.2852 28.7486 90.5906 28.8729C90.5234 28.8849 90.44 28.9457 90.4357 28.8586C90.4002 28.1475 90.8846 27.4266 91.0193 26.7465C91.2933 25.3628 91.3893 23.8984 91.5867 22.4981C91.6466 22.0738 91.7565 21.6087 91.7351 21.1791Z" fill="#FFC728"/>
<path d="M91.4699 20.0713C91.5198 20.4506 91.7156 20.7893 91.7351 21.1791C91.7565 21.6087 91.6466 22.0738 91.5867 22.4981C91.3893 23.8984 91.2933 25.3628 91.0193 26.7465C90.8846 27.4266 90.4002 28.1475 90.4357 28.8586C90.44 28.9457 90.5234 28.8849 90.5906 28.8729C91.2852 28.7486 91.9017 28.9247 92.6098 28.9351C94.0919 29.1288 93.7037 29.0781 95.0447 29.2534C96.915 29.4979 98.115 29.764 99.7457 30.0833C102.16 30.5562 102.56 30.5373 105.109 30.7845C105.91 30.8622 109.589 31.5116 110.39 31.5758C110.559 31.5894 112.009 31.7769 112.167 31.7072C112.148 31.2381 112.171 31.0564 112.209 30.7706C112.318 29.9349 112.427 29.0991 112.536 28.2633C112.793 26.3033 112.719 23.9597 113.008 21.9828C113.036 21.7911 111.732 21.7946 111.526 21.7889C110.075 21.7486 109.977 21.7704 108.533 21.6268C106.592 21.4337 104.69 21.4741 102.744 21.2197C101.854 21.1034 100.95 21.064 100.066 20.9058C99.1781 20.7467 98.9765 20.8297 97.6526 20.5541C96.3287 20.2784 95.6624 20.1935 94.7905 20.2161C93.9869 20.2369 93.5046 20.0981 92.7065 20.233C92.3362 20.2955 91.0969 20.0226 91.4693 20.0712" stroke="#CB9D1D" stroke-width="0.299699" stroke-linecap="round"/>
<path d="M105.688 23.9098C105.799 23.9243 105.885 24.0478 105.946 24.2801L105.994 24.2863C106.186 24.2142 106.445 24.1901 106.77 24.214C107.707 24.3364 108.257 25.0066 108.421 26.2244L108.42 27.1607C108.282 28.212 107.653 28.8252 106.532 29.0001L106.115 28.9793L106.099 28.9772C105.983 28.962 105.812 28.9116 105.586 28.826L105.579 28.8756L105.59 28.9835C105.583 29.0349 105.502 29.0767 105.347 29.1088C105.146 29.0825 105.065 28.9187 105.105 28.6172C105.136 27.309 105.17 26.5079 105.209 26.2138L105.5 24.6031C105.522 24.4377 105.487 24.2481 105.397 24.0344C105.408 23.9499 105.505 23.9083 105.688 23.9098ZM105.688 26.254L105.568 28.0947C105.659 28.4281 105.832 28.6114 106.086 28.6446L106.292 28.6716C106.578 28.709 106.913 28.5994 107.296 28.343C107.642 28.0479 107.844 27.6725 107.904 27.2167L107.942 26.9244C108.038 26.1892 107.902 25.5415 107.534 24.9812C107.307 24.7384 107.088 24.6032 106.876 24.5755L106.575 24.5361C106.236 24.4918 106.024 24.6118 105.938 24.8959L105.688 26.254Z" fill="#CB9D1D"/>
<path d="M103.803 23.3777C103.883 23.3881 103.952 23.4514 104.013 23.5677L103.978 23.6473C104.162 25.8211 104.274 27.4734 104.315 28.604C104.249 28.7 104.16 28.7408 104.049 28.7262C103.864 28.702 103.788 28.4118 103.823 27.8556L103.793 27.4086L103.354 27.368C103.079 27.332 102.667 27.2538 102.117 27.1334C101.604 28.0122 101.276 28.4422 101.133 28.4236L101.117 28.4215C100.952 28.3663 100.875 28.2964 100.886 28.2118C101.41 27.5401 102.039 26.3548 102.772 24.6561C103.06 24.1405 103.316 23.7271 103.54 23.4162C103.62 23.3781 103.708 23.3652 103.803 23.3777ZM102.288 26.8192C102.572 26.905 102.876 26.969 103.199 27.0112L103.628 27.0673C103.686 27.0749 103.738 27.0649 103.785 27.0374L103.556 24.2819L103.54 24.2798C103.419 24.3799 103.213 24.7605 102.922 25.4216L102.288 26.8192Z" fill="#CB9D1D"/>
<path d="M98.7018 22.5542C98.8341 22.5715 98.9018 22.6514 98.9047 22.7938L98.8809 22.7907L98.8975 22.849C99.0774 22.8725 99.5826 22.8993 100.413 22.9293C100.541 22.9797 100.6 23.0453 100.589 23.1262C100.574 23.2438 100.207 23.2725 99.4879 23.2122L98.7806 23.187L98.7489 23.4296C98.7263 23.6024 98.7353 24.3158 98.7759 25.5698L99.7921 25.7027C99.9297 25.7206 100.007 25.785 100.025 25.8958C100.01 26.0097 99.8785 26.0504 99.6298 26.0179L98.7327 25.9006L98.7298 25.9227L98.5568 27.0609C98.5212 27.333 98.5349 27.5366 98.598 27.672L100.179 27.8058C100.347 27.8427 100.425 27.9052 100.413 27.9934C100.398 28.111 100.205 28.1456 99.8343 28.0972C98.8769 28.0094 98.396 27.9821 98.3916 28.0152C98.2011 27.9902 98.0952 27.7708 98.074 27.3567L98.0891 26.9325L98.2686 25.6829L98.2725 23.3673L98.2949 23.1964C98.3545 22.7406 98.4822 22.5255 98.678 22.5511L98.7018 22.5542Z" fill="#CB9D1D"/>
<path d="M95.6096 22.2339C95.7736 22.2553 95.8331 22.4388 95.7879 22.7844C95.5444 25.6762 95.4836 27.1301 95.6053 27.146L95.8326 27.1365L96.7276 27.2703L97.0357 27.2601C97.1151 27.2705 97.1849 27.3338 97.245 27.4501C97.1729 27.5902 96.9463 27.6354 96.5652 27.5855L95.7331 27.4655C95.6696 27.4572 95.5481 27.4806 95.3686 27.5357L95.2496 27.5201C95.0855 27.4986 95.033 27.0562 95.092 26.1928C95.1001 25.6368 95.1829 24.3447 95.3404 22.3165C95.3928 22.2448 95.4826 22.2173 95.6096 22.2339Z" fill="#CB9D1D"/>
<path d="M130.464 69.3821C130.1 69.5043 129.719 69.4493 129.354 69.5352C129.491 69.7313 129.881 70.3639 129.937 70.6318C130.103 71.4241 130.408 71.8226 130.682 72.5783C130.979 73.3983 131.302 73.9877 132.041 75.1197C132.781 76.2517 132.777 76.4697 133.249 77.2387C133.719 78.0035 134.086 78.8314 134.519 79.6174C135.466 81.3365 136.122 83.1213 137.01 84.8583C137.671 86.1503 137.686 86.25 138.253 87.5857C138.334 87.7757 138.806 88.9908 138.974 88.8948C140.71 87.9048 142.919 87.118 144.65 86.1643L146.865 84.9442C147.117 84.8051 147.278 84.7167 147.722 84.5638C147.729 84.391 147.025 83.1095 146.951 82.9569C146.599 82.2352 144.652 79.0468 144.287 78.3294C143.127 76.0456 142.999 75.6669 141.677 73.5913C140.785 72.1896 140.099 71.1694 139.189 69.5173L138.004 67.3664C137.736 66.711 137.347 66.2013 137.21 65.5092C137.196 65.4422 137.222 65.3424 137.14 65.3701C136.465 65.5966 135.97 66.3107 135.386 66.6842C134.198 67.4442 132.87 68.0679 131.638 68.7628C131.265 68.9733 130.872 69.2453 130.464 69.3821Z" fill="#FFC728"/>
<path d="M129.336 69.5395C129.707 69.4475 130.094 69.5063 130.464 69.3821C130.872 69.2453 131.265 68.9733 131.638 68.7628C132.87 68.0679 134.198 67.4442 135.386 66.6842C135.97 66.3107 136.465 65.5966 137.14 65.3701C137.222 65.3424 137.196 65.4422 137.21 65.5092C137.347 66.2013 137.736 66.711 138.004 67.3664C138.726 68.6757 138.537 68.3328 139.189 69.5173C140.099 71.1694 140.785 72.1896 141.677 73.5913C142.999 75.6669 143.127 76.0456 144.287 78.3294C144.652 79.0468 146.599 82.2352 146.951 82.9569C147.025 83.1095 147.729 84.391 147.722 84.5638C147.278 84.7167 147.117 84.8051 146.865 84.9442C146.127 85.3509 145.388 85.7576 144.65 86.1643C142.919 87.118 140.71 87.9048 138.974 88.8948C138.806 88.9908 138.334 87.7757 138.253 87.5857C137.686 86.25 137.671 86.1503 137.01 84.8583C136.122 83.1213 135.466 81.3365 134.519 79.6174C134.086 78.8314 133.719 78.0035 133.249 77.2387C132.777 76.4697 132.781 76.2517 132.041 75.1197C131.302 73.9877 130.979 73.3983 130.682 72.5783C130.408 71.8226 130.103 71.4241 129.937 70.6318C129.861 70.2642 129.154 69.21 129.335 69.5389" stroke="#CB9D1D" stroke-width="0.299699" stroke-linecap="round"/>
<path d="M138.096 81.3756C138.151 81.4738 138.297 81.509 138.536 81.4811L138.559 81.5232C138.562 81.7287 138.634 81.9785 138.775 82.2726C139.231 83.1001 140.055 83.3679 141.249 83.076L142.12 82.7331C143.049 82.2216 143.39 81.412 143.144 80.3044L142.972 79.9237L142.965 79.9096C142.908 79.8068 142.799 79.6659 142.637 79.4871L142.68 79.4629L142.785 79.433C142.83 79.4079 142.839 79.3174 142.813 79.1615C142.715 78.9838 142.533 78.9683 142.267 79.115C141.06 79.6213 140.327 79.946 140.067 80.0891L138.674 80.9481C138.527 81.0285 138.338 81.0657 138.106 81.0594C138.032 81.1005 138.028 81.206 138.096 81.3756ZM140.279 80.5206L141.949 79.7377C142.293 79.7007 142.527 79.7945 142.65 80.0189L142.751 80.2012C142.89 80.4537 142.91 80.8052 142.811 81.2557C142.662 81.685 142.387 82.0105 141.984 82.2323L141.726 82.3745C141.076 82.7323 140.424 82.842 139.768 82.7037C139.459 82.5812 139.253 82.4265 139.15 82.2395L139.003 81.973C138.838 81.6738 138.873 81.4325 139.106 81.2491L140.279 80.5206Z" fill="#CB9D1D"/>
<path d="M136.915 79.8157C136.954 79.8858 137.038 79.9276 137.168 79.9412L137.23 79.8799C139.321 79.2582 140.9 78.7599 141.968 78.3851C142.033 78.2883 142.038 78.1908 141.984 78.0926C141.894 77.929 141.596 77.9649 141.091 78.2005L140.664 78.3353L140.466 77.9416C140.332 77.6985 140.109 77.3431 139.796 76.8755C140.427 76.077 140.708 75.6146 140.639 75.4884L140.631 75.4743C140.519 75.3408 140.426 75.2946 140.351 75.3358C139.917 76.0686 139.043 77.0864 137.729 78.3892C137.354 78.8456 137.063 79.2346 136.855 79.5564C136.848 79.6451 136.869 79.7315 136.915 79.8157ZM139.566 77.1487C139.75 77.3825 139.92 77.6421 140.077 77.9273L140.286 78.3059C140.314 78.3574 140.324 78.4098 140.316 78.4633L137.667 79.2554L137.659 79.2414C137.708 79.0924 137.987 78.7619 138.497 78.2497L139.566 77.1487Z" fill="#CB9D1D"/>
<path d="M134.286 75.3674C134.35 75.4843 134.449 75.5181 134.583 75.4688L134.571 75.4478L134.631 75.442C134.719 75.601 134.928 76.0615 135.259 76.8238C135.353 76.9245 135.435 76.9553 135.507 76.9159C135.611 76.8587 135.503 76.5064 135.185 75.8592L134.904 75.2099L135.118 75.0918C135.27 75.0077 135.938 74.7558 137.12 74.336L137.615 75.2337C137.682 75.3552 137.77 75.4041 137.88 75.3803C137.98 75.3248 137.97 75.1872 137.849 74.9675L137.413 74.175L137.432 74.1643L138.429 73.5879C138.669 73.4555 138.864 73.394 139.013 73.4033L139.714 74.8267C139.81 74.9691 139.896 75.0189 139.974 74.976C140.078 74.9187 140.04 74.7265 139.86 74.3992C139.429 73.5398 139.228 73.102 139.257 73.0859C139.164 72.9176 138.921 72.8991 138.528 73.0304L138.138 73.1993L137.041 73.8224L134.886 74.671L134.735 74.7542C134.332 74.976 134.179 75.1734 134.274 75.3464L134.286 75.3674Z" fill="#CB9D1D"/>
<path d="M132.861 72.6062C132.941 72.7512 133.133 72.7396 133.438 72.5714C136.042 71.2895 137.373 70.7023 137.433 70.8099L137.507 71.025L137.958 71.8094L138.061 72.1C138.099 72.1701 138.184 72.212 138.314 72.2256C138.418 72.1073 138.378 71.8798 138.192 71.5432L137.777 70.8122C137.746 70.7561 137.723 70.6345 137.709 70.4473L137.651 70.3421C137.571 70.1972 137.14 70.3098 136.358 70.6798C135.843 70.8902 134.67 71.4388 132.839 72.3255C132.792 72.4005 132.799 72.494 132.861 72.6062Z" fill="#CB9D1D"/>
<path d="M103.783 76.4275C103.561 76.1139 103.222 75.9336 102.977 75.6482C103.204 75.5712 103.892 75.2913 104.096 75.1082C104.698 74.5667 105.179 74.4254 105.846 73.9773C106.571 73.4912 107.179 73.2059 108.444 72.7293C109.71 72.2528 109.836 72.0747 110.671 71.7331C111.501 71.3933 112.286 70.9419 113.1 70.5634C114.88 69.7356 116.463 68.6829 118.206 67.8058C119.502 67.1535 119.574 67.0823 120.82 66.3392C120.997 66.2335 122.096 65.532 122.175 65.7089C122.991 67.5327 124.308 69.4723 125.142 71.2645L126.209 73.5572C126.33 73.8185 126.407 73.9846 126.675 74.3702C126.579 74.5139 125.254 75.1323 125.104 75.2116C124.394 75.5861 120.94 77.0089 120.222 77.3724C117.936 78.5298 117.609 78.7597 115.317 79.6541C113.769 80.2581 112.613 80.6764 110.903 81.472L108.677 82.5077C108.073 82.8783 107.458 83.0599 106.938 83.537C106.888 83.5832 106.85 83.6792 106.8 83.608C106.389 83.0265 106.412 82.1583 106.161 81.5119C105.651 80.1967 104.947 78.9089 104.364 77.6207C104.187 77.2304 104.031 76.7788 103.783 76.4275Z" fill="#FFC728"/>
<path d="M102.965 75.6342C103.21 75.9278 103.557 76.1088 103.783 76.4275C104.031 76.7788 104.187 77.2304 104.364 77.6207C104.947 78.9089 105.651 80.1967 106.161 81.5119C106.412 82.1583 106.389 83.0265 106.8 83.608C106.85 83.6792 106.888 83.5832 106.938 83.537C107.458 83.0599 108.073 82.8783 108.677 82.5077C110.032 81.8773 109.677 82.0424 110.903 81.472C112.613 80.6764 113.769 80.2581 115.317 79.6541C117.609 78.7597 117.936 78.5298 120.222 77.3724C120.94 77.0089 124.394 75.5861 125.104 75.2116C125.254 75.1323 126.579 74.5139 126.675 74.3702C126.407 73.9846 126.33 73.8185 126.209 73.5572C125.853 72.793 125.498 72.0287 125.142 71.2645C124.308 69.4723 122.991 67.5327 122.175 65.7089C122.096 65.532 120.997 66.2335 120.82 66.3392C119.574 67.0823 119.502 67.1535 118.206 67.8058C116.463 68.6829 114.88 69.7356 113.1 70.5634C112.286 70.9419 111.501 71.3933 110.671 71.7331C109.836 72.0747 109.71 72.2528 108.444 72.7293C107.179 73.2059 106.571 73.4912 105.846 73.9773C105.179 74.4254 104.698 74.5667 104.096 75.1082C103.817 75.3594 102.624 75.7929 102.965 75.6345" stroke="#CB9D1D" stroke-width="0.299699" stroke-linecap="round"/>
<path d="M117.026 71.2573C117.128 71.21 117.267 71.268 117.443 71.4314L117.486 71.4112C117.61 71.2472 117.816 71.0882 118.103 70.9341C118.96 70.5356 119.784 70.8066 120.574 71.7471L121.075 72.5384C121.522 73.4998 121.319 74.3546 120.467 75.1029L120.103 75.3088L120.089 75.3155C119.982 75.3651 119.811 75.4142 119.574 75.4628L119.596 75.5082L119.662 75.5938C119.684 75.6409 119.638 75.7195 119.524 75.8296C119.34 75.9151 119.184 75.8201 119.056 75.5445C118.381 74.4232 117.982 73.7281 117.856 73.4592L117.239 71.9431C117.169 71.7919 117.038 71.6503 116.848 71.5183C116.812 71.441 116.871 71.354 117.026 71.2573ZM118.283 73.2364L119.168 74.8546C119.423 75.0874 119.667 75.1498 119.9 75.0417L120.088 74.9539C120.35 74.8323 120.573 74.5606 120.76 74.1386C120.893 73.7044 120.863 73.2789 120.669 72.8621L120.545 72.5949C120.232 71.9226 119.77 71.4486 119.159 71.1727C118.838 71.0892 118.58 71.0924 118.387 71.1825L118.111 71.3108C117.801 71.4549 117.686 71.6698 117.766 71.9557L118.283 73.2364Z" fill="#CB9D1D"/>
<path d="M115.15 71.8172C115.223 71.7835 115.316 71.7996 115.429 71.8655L115.442 71.9513C116.762 73.6881 117.742 75.023 118.382 75.956C118.378 76.0726 118.325 76.1546 118.223 76.2018C118.054 76.2806 117.835 76.0758 117.566 75.5874L117.301 75.2262L116.909 75.4271C116.657 75.5442 116.267 75.699 115.739 75.8917C115.776 76.9087 115.73 77.4476 115.599 77.5084L115.585 77.5152C115.416 77.557 115.313 77.5392 115.277 77.4619C115.36 76.614 115.255 75.2764 114.965 73.4491C114.932 72.8594 114.926 72.3733 114.948 71.9909C114.996 71.9156 115.063 71.8578 115.15 71.8172ZM115.714 75.5352C116.001 75.4551 116.292 75.3463 116.587 75.209L116.979 75.0266C117.032 75.0019 117.071 74.9654 117.096 74.9171L115.426 72.7133L115.411 72.72C115.363 72.8693 115.393 73.3009 115.502 74.015L115.714 75.5352Z" fill="#CB9D1D"/>
<path d="M110.4 73.8542C110.521 73.7979 110.621 73.8291 110.7 73.9478L110.678 73.958L110.724 73.9983C110.888 73.9217 111.329 73.6737 112.046 73.2541C112.181 73.2281 112.266 73.252 112.301 73.326C112.351 73.4335 112.056 73.6544 111.417 73.9886L110.806 74.3463L110.909 74.5681C110.983 74.7261 111.373 75.3236 112.079 76.3608L113.008 75.9285C113.134 75.87 113.234 75.8827 113.308 75.9666C113.357 76.0708 113.267 76.1759 113.04 76.2817L112.219 76.6633L112.229 76.6834L112.693 77.7372C112.808 77.986 112.929 78.1506 113.055 78.2311L114.462 77.4969C114.623 77.4383 114.722 77.4493 114.76 77.53C114.81 77.6376 114.665 77.7702 114.326 77.9278C113.471 78.3666 113.05 78.6012 113.064 78.6314C112.89 78.7125 112.683 78.5839 112.443 78.2457L112.229 77.8794L111.711 76.7281L110.474 74.7707L110.401 74.6145C110.207 74.1977 110.2 73.9476 110.379 73.8643L110.4 73.8542Z" fill="#CB9D1D"/>
<path d="M107.62 75.2406C107.771 75.1708 107.919 75.2939 108.066 75.6098C109.41 78.182 110.137 79.4423 110.249 79.3905L110.435 79.2606L111.263 78.8941L111.518 78.7204C111.59 78.6867 111.683 78.7028 111.796 78.7687C111.81 78.9257 111.643 79.0852 111.295 79.2473L110.528 79.5918C110.47 79.6188 110.38 79.7037 110.258 79.8463L110.149 79.8969C109.999 79.9667 109.717 79.6213 109.305 78.8606C109.013 78.3868 108.391 77.2515 107.437 75.4545C107.443 75.3659 107.504 75.2946 107.62 75.2406Z" fill="#CB9D1D"/>
<path d="M75.1136 69.2919C75.0945 68.9083 74.9045 68.5743 74.851 68.2023C75.0837 68.2587 75.8151 68.3914 76.085 68.3458C76.8831 68.2109 77.3655 68.3496 78.169 68.3289C79.0409 68.3063 79.7072 68.3912 81.0311 68.6668C82.355 68.9425 82.5566 68.8595 83.4449 69.0186C84.3284 69.1768 85.233 69.2162 86.1228 69.3325C88.0689 69.5869 89.97 69.5465 91.9114 69.7396C93.3553 69.8832 93.4538 69.8614 94.9042 69.9017C95.1106 69.9074 96.4143 69.9039 96.3863 70.0956C96.0978 72.0725 96.1712 74.4161 95.915 76.3761L95.5872 78.8834C95.5498 79.1692 95.5261 79.3509 95.5457 79.82C95.3874 79.8897 93.9376 79.7022 93.7683 79.6886C92.968 79.6244 89.289 78.975 88.488 78.8973C85.9382 78.6501 85.5389 78.669 83.1242 78.1961C81.4936 77.8767 80.2935 77.6107 78.4232 77.3662L75.9883 77.0479C75.2802 77.0375 74.6638 76.8614 73.9691 76.9856C73.9019 76.9977 73.8186 77.0584 73.8142 76.9714C73.7787 76.2602 74.2631 75.5394 74.3978 74.8593C74.6718 73.4755 74.7678 72.0112 74.9653 70.6109C75.0251 70.1866 75.135 69.7215 75.1136 69.2919Z" fill="#FFC728"/>
<path d="M74.8485 68.1841C74.8983 68.5634 75.0941 68.9021 75.1136 69.2919C75.135 69.7215 75.0251 70.1866 74.9653 70.6109C74.7678 72.0112 74.6718 73.4755 74.3978 74.8593C74.2631 75.5394 73.7787 76.2603 73.8142 76.9714C73.8186 77.0584 73.9019 76.9977 73.9691 76.9856C74.6638 76.8614 75.2802 77.0375 75.9883 77.0479C77.4704 77.2416 77.0823 77.1909 78.4232 77.3662C80.2935 77.6107 81.4936 77.8768 83.1242 78.1961C85.5389 78.669 85.9382 78.6501 88.488 78.8973C89.289 78.975 92.968 79.6244 93.7683 79.6886C93.9376 79.7022 95.3874 79.8897 95.5457 79.82C95.5261 79.3509 95.5498 79.1692 95.5872 78.8834C95.6965 78.0477 95.8057 77.2119 95.915 76.3761C96.1712 74.4161 96.0978 72.0725 96.3863 70.0956C96.4143 69.9039 95.1106 69.9074 94.9042 69.9017C93.4538 69.8614 93.3553 69.8832 91.9114 69.7396C89.97 69.5465 88.0689 69.5869 86.1228 69.3325C85.233 69.2162 84.3284 69.1768 83.4449 69.0186C82.5566 68.8595 82.355 68.9425 81.0311 68.6668C79.7072 68.3912 79.0409 68.3063 78.169 68.3289C77.3655 68.3496 76.8831 68.2109 76.085 68.3458C75.7147 68.4083 74.4755 68.1354 74.8478 68.184" stroke="#CB9D1D" stroke-width="0.299699" stroke-linecap="round"/>
<path d="M89.0666 72.0231C89.1777 72.0376 89.2638 72.161 89.325 72.3933L89.3726 72.3996C89.5651 72.3275 89.8239 72.3034 90.1491 72.3272C91.0859 72.4497 91.6362 73.1198 91.8 74.3376L91.7987 75.274C91.6613 76.3253 91.032 76.9385 89.911 77.1134L89.4939 77.0925L89.478 77.0905C89.3616 77.0752 89.1905 77.0248 88.9648 76.9393L88.9584 76.9889L88.9685 77.0968C88.9617 77.1482 88.8809 77.19 88.726 77.2221C88.5249 77.1958 88.444 77.0319 88.4834 76.7305C88.5145 75.4223 88.5493 74.6211 88.5877 74.3271L88.879 72.7164C88.9006 72.551 88.8662 72.3614 88.7757 72.1477C88.7868 72.0631 88.8837 72.0216 89.0666 72.0231ZM89.0669 74.3673L88.9474 76.2079C89.0384 76.5414 89.2109 76.7247 89.4649 76.7579L89.6714 76.7849C89.9572 76.8222 90.2918 76.7127 90.6752 76.4562C91.0206 76.1612 91.2231 75.7857 91.2827 75.3299L91.3209 75.0377C91.417 74.3025 91.281 73.6548 90.9128 73.0944C90.6862 72.8517 90.467 72.7165 90.2553 72.6888L89.9536 72.6494C89.6149 72.6051 89.4027 72.725 89.3171 73.0092L89.0669 74.3673Z" fill="#CB9D1D"/>
<path d="M87.1822 71.491C87.2616 71.5014 87.3313 71.5647 87.3915 71.681L87.3569 71.7606C87.541 73.9344 87.6534 75.5866 87.694 76.7173C87.6276 76.8133 87.5388 76.854 87.4277 76.8395C87.2424 76.8153 87.1673 76.5251 87.2024 75.9688L87.172 75.5218L86.7332 75.4813C86.458 75.4453 86.0456 75.3671 85.4962 75.2467C84.9829 76.1255 84.6549 76.5555 84.512 76.5368L84.4961 76.5348C84.331 76.4795 84.2541 76.4097 84.2651 76.3251C84.789 75.6533 85.4176 74.4681 86.1511 72.7694C86.4392 72.2538 86.6951 71.8404 86.9188 71.5295C86.9991 71.4914 87.0869 71.4785 87.1822 71.491ZM85.6664 74.9325C85.9513 75.0183 86.2551 75.0823 86.578 75.1245L87.0067 75.1806C87.0649 75.1882 87.1173 75.1782 87.164 75.1507L86.9348 72.3952L86.9189 72.3931C86.7982 72.4932 86.5923 72.8738 86.3013 73.5349L85.6664 74.9325Z" fill="#CB9D1D"/>
<path d="M82.0807 70.6675C82.2131 70.6848 82.2807 70.7647 82.2836 70.9071L82.2598 70.904L82.2764 70.9623C82.4563 70.9858 82.9615 71.0126 83.7919 71.0426C83.9199 71.093 83.9786 71.1586 83.9681 71.2395C83.9527 71.3571 83.5856 71.3858 82.8668 71.3254L82.1595 71.3003L82.1278 71.5429C82.1052 71.7157 82.1142 72.4291 82.1548 73.6831L83.171 73.8159C83.3086 73.8339 83.3863 73.8983 83.4041 74.0091C83.3892 74.123 83.2574 74.1637 83.0087 74.1312L82.1116 74.0139L82.1087 74.036L81.9357 75.1742C81.9001 75.4462 81.9138 75.6499 81.9769 75.7853L83.5582 75.9191C83.7256 75.9559 83.8036 76.0185 83.792 76.1067C83.7766 76.2243 83.5837 76.2589 83.2132 76.2105C82.2558 76.1227 81.7749 76.0954 81.7705 76.1284C81.58 76.1035 81.4741 75.8841 81.4529 75.47L81.468 75.0458L81.6475 73.7962L81.6515 71.4806L81.6738 71.3097C81.7334 70.8539 81.8611 70.6388 82.0569 70.6644L82.0807 70.6675Z" fill="#CB9D1D"/>
<path d="M78.9885 70.3472C79.1525 70.3686 79.212 70.5521 79.1668 70.8976C78.9233 73.7895 78.8625 75.2434 78.9842 75.2593L79.2115 75.2497L80.1065 75.3836L80.4146 75.3734C80.494 75.3837 80.5638 75.4471 80.6239 75.5634C80.5518 75.7035 80.3252 75.7486 79.9441 75.6988L79.112 75.5788C79.0485 75.5705 78.927 75.5939 78.7475 75.6489L78.6285 75.6334C78.4644 75.6119 78.4119 75.1695 78.4709 74.3061C78.479 73.7501 78.5618 72.458 78.7193 70.4298C78.7717 70.3581 78.8615 70.3306 78.9885 70.3472Z" fill="#CB9D1D"/>
<path d="M76.8115 62.9245C76.4474 62.8024 76.0671 62.8573 75.7012 62.7714C75.8387 62.5754 76.2291 61.9427 76.2851 61.6749C76.4508 60.8825 76.7559 60.4841 77.0298 59.7283C77.3269 58.9083 77.6491 58.319 78.3888 57.1869C79.1285 56.0549 79.1249 55.8369 79.5971 55.068C80.0667 54.3031 80.4335 53.4753 80.8665 52.6892C81.8135 50.9702 82.4696 49.1853 83.3578 47.4483C84.0184 46.1563 84.034 46.0567 84.6008 44.721C84.6814 44.531 85.1538 43.3158 85.3221 43.4118C87.0574 44.4018 89.2662 45.1886 90.9976 46.1424L93.2124 47.3625C93.4649 47.5016 93.6253 47.5899 94.0693 47.7428C94.0764 47.9157 93.3728 49.1971 93.2984 49.3497C92.9466 50.0715 90.9995 53.2598 90.6349 53.9772C89.4742 56.261 89.3462 56.6397 88.0248 58.7153C87.1324 60.117 86.4468 61.1372 85.5367 62.7893L84.3519 64.9402C84.0838 65.5957 83.6949 66.1054 83.5572 66.7975C83.5438 66.8644 83.57 66.9642 83.4874 66.9365C82.8123 66.71 82.3179 65.996 81.7338 65.6224C80.5455 64.8624 79.2172 64.2387 77.9854 63.5439C77.6123 63.3334 77.2193 63.0613 76.8115 62.9245Z" fill="#FFC728"/>
<path d="M75.6834 62.7671C76.0547 62.8592 76.4415 62.8004 76.8115 62.9245C77.2193 63.0613 77.6123 63.3334 77.9854 63.5439C79.2172 64.2387 80.5455 64.8624 81.7338 65.6224C82.3179 65.996 82.8123 66.71 83.4874 66.9365C83.57 66.9642 83.5438 66.8644 83.5572 66.7975C83.6949 66.1054 84.0838 65.5957 84.3519 64.9402C85.0731 63.631 84.8842 63.9739 85.5367 62.7893C86.4468 61.1372 87.1324 60.117 88.0248 58.7153C89.3462 56.6397 89.4742 56.261 90.6349 53.9772C90.9995 53.2598 92.9466 50.0715 93.2984 49.3497C93.3728 49.1971 94.0764 47.9157 94.0693 47.7428C93.6253 47.5899 93.4649 47.5015 93.2124 47.3625C92.4741 46.9558 91.7359 46.5491 90.9976 46.1424C89.2662 45.1886 87.0574 44.4018 85.3221 43.4118C85.1538 43.3158 84.6814 44.531 84.6008 44.721C84.034 46.0567 84.0184 46.1563 83.3578 47.4483C82.4696 49.1853 81.8135 50.9702 80.8665 52.6892C80.4335 53.4753 80.0667 54.3031 79.5971 55.068C79.1249 55.8369 79.1285 56.0549 78.3888 57.1869C77.6491 58.319 77.3269 58.9083 77.0298 59.7283C76.7559 60.4841 76.4508 60.8825 76.2851 61.6748C76.2082 62.0424 75.5019 63.0966 75.6831 62.7677" stroke="#CB9D1D" stroke-width="0.299699" stroke-linecap="round"/>
<path d="M84.4428 50.9315C84.4969 50.8333 84.6432 50.7981 84.8818 50.826L84.905 50.7839C84.9082 50.5785 84.9802 50.3287 85.121 50.0345C85.5769 49.207 86.4016 48.9392 87.5952 49.2311L88.4665 49.574C89.3952 50.0856 89.7365 50.8951 89.4903 52.0027L89.3187 52.3835L89.3109 52.3975C89.2543 52.5003 89.1449 52.6412 88.9829 52.8201L89.0267 52.8442L89.1309 52.8742C89.1763 52.8992 89.1857 52.9897 89.1591 53.1456C89.0612 53.3233 88.8791 53.3388 88.6129 53.1921C87.4062 52.6858 86.673 52.3611 86.4132 52.218L85.0199 51.3591C84.8738 51.2786 84.6847 51.2415 84.4527 51.2477C84.378 51.2066 84.3747 51.1012 84.4428 50.9315ZM86.6255 51.7865L88.2956 52.5695C88.6393 52.6064 88.8729 52.5127 88.9965 52.2883L89.097 52.1059C89.236 51.8535 89.2561 51.502 89.1573 51.0514C89.0086 50.6221 88.7329 50.2966 88.3303 50.0748L88.0722 49.9326C87.4228 49.5749 86.77 49.4651 86.114 49.6034C85.8053 49.7259 85.5994 49.8806 85.4964 50.0676L85.3496 50.3341C85.1848 50.6333 85.219 50.8746 85.4524 51.058L86.6255 51.7865Z" fill="#CB9D1D"/>
<path d="M83.2616 52.491C83.3002 52.4208 83.3847 52.379 83.5149 52.3654L83.5764 52.4267C85.6675 53.0485 87.2468 53.5468 88.3143 53.9215C88.3795 54.0184 88.385 54.1159 88.3309 54.2141C88.2408 54.3777 87.9432 54.3417 87.4381 54.1061L87.0108 53.9713L86.813 54.3651C86.679 54.6082 86.4558 54.9635 86.1431 55.4312C86.774 56.2297 87.0547 56.6921 86.9852 56.8183L86.9775 56.8323C86.8658 56.9658 86.7727 57.012 86.698 56.9709C86.2637 56.238 85.3896 55.2202 84.0756 53.9175C83.7007 53.4611 83.4092 53.072 83.2013 52.7503C83.1951 52.6616 83.2152 52.5751 83.2616 52.491ZM85.9127 55.158C86.0966 54.9241 86.267 54.6646 86.4241 54.3794L86.6327 54.0007C86.6611 53.9493 86.6709 53.8968 86.6623 53.8433L84.0132 53.0513L84.0055 53.0653C84.0546 53.2142 84.3339 53.5448 84.8432 54.0569L85.9127 55.158Z" fill="#CB9D1D"/>
<path d="M80.6323 56.9397C80.6967 56.8228 80.7957 56.789 80.9294 56.8383L80.9178 56.8593L80.9781 56.8651C81.0657 56.7062 81.275 56.2456 81.606 55.4834C81.6996 55.3826 81.7821 55.3519 81.8536 55.3912C81.9575 55.4485 81.8502 55.8007 81.5317 56.448L81.2502 57.0973L81.4645 57.2153C81.6171 57.2994 82.2846 57.5513 83.467 57.9711L83.9615 57.0735C84.0285 56.9519 84.1168 56.9031 84.2264 56.9269C84.327 56.9823 84.3168 57.1199 84.1958 57.3396L83.7593 58.1321L83.7787 58.1428L84.7754 58.7193C85.0156 58.8516 85.2103 58.9132 85.3593 58.9038L86.0609 57.4804C86.1563 57.338 86.243 57.2882 86.3209 57.3312C86.4248 57.3884 86.3866 57.5806 86.2064 57.9079C85.7752 58.7673 85.5743 59.2051 85.6035 59.2212C85.5108 59.3895 85.2678 59.408 84.8746 59.2767L84.4851 59.1078L83.3872 58.4847L81.2327 57.6361L81.0817 57.5529C80.6791 57.3311 80.5254 57.1337 80.6207 56.9607L80.6323 56.9397Z" fill="#CB9D1D"/>
<path d="M79.2075 59.7009C79.2873 59.556 79.4799 59.5676 79.7851 59.7357C82.3887 61.0176 83.7201 61.6048 83.7793 61.4973L83.8534 61.2821L84.3045 60.4977L84.4075 60.2071C84.4461 60.137 84.5306 60.0951 84.6608 60.0815C84.7649 60.1998 84.7243 60.4273 84.5388 60.7639L84.1235 61.4949C84.0926 61.551 84.07 61.6726 84.0558 61.8598L83.9978 61.965C83.918 62.1099 83.4869 61.9974 82.7046 61.6273C82.1899 61.4169 81.017 60.8684 79.1861 59.9816C79.1386 59.9067 79.1457 59.8131 79.2075 59.7009Z" fill="#CB9D1D"/>
<path d="M149.81 41.4557C150.123 41.142 148.564 39.2664 148.464 39.1229C146.865 36.8184 145.272 34.7256 143.021 33.0156C140.364 30.9967 137.616 28.5915 134.629 27.0958C127.83 23.6914 120.027 26.2646 113.524 29.1238C110.953 30.2545 107.32 31.698 106.267 34.6333C105.009 38.1408 107.828 43.287 110.645 45.3006C113.293 47.1936 118.119 45.6829 120.945 45.1013C123.871 44.4993 128.061 43.6607 128.39 40.0021C128.695 36.6067 125.754 33.3174 123.38 31.2807C117.886 26.5665 110.718 26.4223 105.003 30.9056C102.027 33.2397 100.886 36.1328 102.568 39.6153C104.419 43.4484 108.243 45.175 112.377 45.0896C115.483 45.0255 120.352 43.891 121.905 40.7523C122.965 38.6103 120.682 36.582 119.283 35.4538C115.455 32.3669 110.72 30.5017 105.939 29.4989C97.9885 27.8309 89.1092 28.1989 81.9086 32.2653C76.7027 35.2054 75.0553 40.1966 75.1665 45.9571C75.3984 57.978 88.0611 62.687 98.2022 63.6813C101.276 63.9827 105.911 64.4019 107.718 61.1492C109.629 57.7129 107.287 54.0174 104.254 52.2871C100.615 50.2116 94.1816 49.0026 90.7577 52.1582C88.9707 53.8051 88.6084 56.7383 88.6625 59.0158C88.7438 62.4348 89.7946 65.5821 92.0336 68.1944C96.7265 73.6697 104.569 75.8752 111.464 76.6227C120.658 77.6194 129.631 74.586 136.49 68.3467C140.242 64.9333 142.563 60.5335 140.165 55.6514C137.571 50.369 130.951 47.2613 126.025 44.7145C119.78 41.4848 113.015 39.0309 105.869 39.205C99.3764 39.3631 94.566 43.7059 91.3781 49.0752C89.9419 51.4942 90.5586 53.4516 93.169 54.5964C99.1566 57.2223 106.227 56.1059 112.073 53.7407C116.564 51.9239 121.262 49.2782 123.684 44.8786C124.309 43.7436 124.604 42.5208 123.895 41.4557" stroke="#2D2D2D" stroke-width="0.599398" stroke-linecap="round"/>
<path d="M264.819 357.541H320.09L397.601 172.327H181.518L264.819 357.541Z" fill="#0F172A"/>
<path d="M264.739 357.541H320.049L369.729 239.459H209.989L264.739 357.541Z" fill="#468A70"/>
</g>
<defs>
<clipPath id="clip0_2265_2109">
<rect width="398" height="359.639" fill="white" transform="translate(0.5)"/>
</clipPath>
</defs>
</svg>
