<svg width="471" height="470" viewBox="0 0 471 470" fill="none" xmlns="http://www.w3.org/2000/svg">
<g clip-path="url(#clip0_2265_1798)">
<rect x="0.5" width="470" height="470" rx="8" fill="#064D47" fill-opacity="0.5"/>
<path d="M376.014 326.279C420.486 336.133 433.98 406.881 435.169 441.024H36.8035C36.8035 208.163 189.689 100.571 266.131 75.8823C395.397 31.5402 393.247 224.337 376.014 326.279Z" fill="#D9D9D9"/>
<mask id="path-3-inside-1_2265_1798" fill="white">
<path d="M0.5 440.504H470.5V470H0.5V440.504Z"/>
</mask>
<path d="M0.5 440.504H470.5V470H0.5V440.504Z" fill="white"/>
<path d="M0.5 440.828H470.5V440.18H0.5V440.828Z" fill="black" mask="url(#path-3-inside-1_2265_1798)"/>
<rect x="21.2446" y="53.1589" width="240.51" height="332.89" rx="3.88966" fill="#36454C"/>
<rect x="21.2446" y="53.1589" width="240.51" height="323.814" rx="3.88966" fill="#636F73"/>
<rect x="29.9963" y="66.1245" width="223.007" height="266.441" rx="1.94483" fill="#EFF2F7"/>
<rect x="37.7755" y="298.531" width="147.483" height="24.9586" rx="1.94483" fill="#99D7BF"/>
<rect x="188.176" y="298.531" width="55.1034" height="24.9586" rx="1.94483" fill="#54BD95"/>
<rect x="37.7755" y="76.821" width="110.531" height="51.3151" rx="1.94483" fill="#54BD95"/>
<rect x="43.934" y="86.2212" width="98.2138" height="5.45463" fill="white"/>
<rect x="43.934" y="95.2412" width="100.654" height="5.45463" fill="white"/>
<rect x="43.934" y="104.261" width="89.3655" height="5.45463" fill="white"/>
<rect x="43.934" y="113.281" width="79.0179" height="5.45463" fill="white"/>
<rect x="37.7755" y="226.897" width="110.531" height="51.3151" rx="1.94483" fill="#54BD95"/>
<rect x="43.934" y="236.297" width="98.2138" height="5.45463" fill="white"/>
<rect x="43.934" y="245.317" width="100.654" height="5.45463" fill="white"/>
<rect x="43.934" y="254.337" width="89.3655" height="5.45463" fill="white"/>
<rect x="43.934" y="263.357" width="79.0179" height="5.45463" fill="white"/>
<rect width="110.531" height="51.3151" rx="1.94483" transform="matrix(-1 0 0 1 243.279 156.883)" fill="#A5E2B4"/>
<rect width="98.2138" height="5.45463" transform="matrix(-1 0 0 1 237.12 166.283)" fill="#EEEEEE"/>
<rect width="100.654" height="5.45463" transform="matrix(-1 0 0 1 237.12 175.303)" fill="#EEEEEE"/>
<rect width="89.3655" height="5.45463" transform="matrix(-1 0 0 1 237.12 184.323)" fill="#EEEEEE"/>
<rect width="79.0179" height="5.45463" transform="matrix(-1 0 0 1 237.12 193.344)" fill="#EEEEEE"/>
<circle cx="141.5" cy="354.931" r="13.2897" fill="#36454C"/>
<path fill-rule="evenodd" clip-rule="evenodd" d="M326.913 278.261L326.909 278.425L323.322 423.398L323.318 423.564L323.484 423.564L353.375 423.581L353.535 423.581L353.537 423.421L355.211 279.541L355.213 279.384L355.056 279.377L327.077 278.267L326.913 278.261ZM354.885 279.695L353.215 423.257L323.65 423.24L327.229 278.598L354.885 279.695Z" fill="#0F172A"/>
<path fill-rule="evenodd" clip-rule="evenodd" d="M326.913 278.261L326.909 278.425L323.322 423.398L323.318 423.564L323.484 423.564L353.375 423.581L353.535 423.581L353.537 423.421L355.211 279.541L355.213 279.384L355.056 279.377L327.077 278.267L326.913 278.261ZM354.885 279.695L353.215 423.257L323.65 423.24L327.229 278.598L354.885 279.695Z" fill="#064D47"/>
<path d="M326.909 278.425L326.747 278.421L326.747 278.421L326.909 278.425ZM326.913 278.261L326.751 278.257L326.755 278.092L326.919 278.099L326.913 278.261ZM323.322 423.398L323.16 423.394L323.322 423.398ZM323.318 423.564L323.318 423.726L323.152 423.726L323.156 423.56L323.318 423.564ZM323.484 423.564L323.484 423.726L323.484 423.564ZM353.375 423.581L353.375 423.419L353.375 423.581ZM353.535 423.581L353.697 423.583L353.695 423.743L353.535 423.743L353.535 423.581ZM353.537 423.421L353.699 423.423L353.699 423.423L353.537 423.421ZM355.211 279.541L355.373 279.543L355.373 279.543L355.211 279.541ZM355.213 279.384L355.22 279.222L355.377 279.228L355.375 279.385L355.213 279.384ZM355.056 279.377L355.049 279.539L355.049 279.539L355.056 279.377ZM327.077 278.267L327.071 278.429L327.071 278.429L327.077 278.267ZM353.215 423.257L353.377 423.259L353.375 423.419L353.214 423.419L353.215 423.257ZM354.885 279.695L354.892 279.533L355.049 279.539L355.047 279.697L354.885 279.695ZM323.65 423.24L323.65 423.402L323.484 423.402L323.488 423.236L323.65 423.24ZM327.229 278.598L327.067 278.594L327.071 278.429L327.235 278.436L327.229 278.598ZM326.747 278.421L326.751 278.257L327.075 278.265L327.071 278.429L326.747 278.421ZM323.16 423.394L326.747 278.421L327.071 278.429L323.484 423.402L323.16 423.394ZM323.156 423.56L323.16 423.394L323.484 423.402L323.48 423.568L323.156 423.56ZM323.484 423.726L323.318 423.726L323.318 423.402L323.484 423.402L323.484 423.726ZM353.375 423.743L323.484 423.726L323.484 423.402L353.375 423.419L353.375 423.743ZM353.535 423.743L353.375 423.743L353.375 423.419L353.535 423.419L353.535 423.743ZM353.699 423.423L353.697 423.583L353.373 423.579L353.375 423.419L353.699 423.423ZM355.373 279.543L353.699 423.423L353.375 423.419L355.049 279.539L355.373 279.543ZM355.375 279.385L355.373 279.543L355.049 279.539L355.051 279.382L355.375 279.385ZM355.062 279.215L355.22 279.222L355.207 279.546L355.049 279.539L355.062 279.215ZM327.083 278.105L355.062 279.215L355.049 279.539L327.071 278.429L327.083 278.105ZM326.919 278.099L327.083 278.105L327.071 278.429L326.906 278.423L326.919 278.099ZM353.053 423.255L354.723 279.693L355.047 279.697L353.377 423.259L353.053 423.255ZM323.65 423.078L353.215 423.095L353.214 423.419L323.65 423.402L323.65 423.078ZM327.391 278.602L323.812 423.244L323.488 423.236L327.067 278.594L327.391 278.602ZM354.879 279.857L327.222 278.76L327.235 278.436L354.892 279.533L354.879 279.857Z" fill="black"/>
<path d="M328.274 431.613L328.31 423.367L345.998 423.444L345.941 436.664L345.924 440.591L342.091 440.575C336.572 435.315 334.387 438.36 333.984 440.54L318.802 440.474L318.819 436.547C319.191 432.464 325.278 431.557 328.274 431.613Z" fill="#D9D9D9"/>
<path d="M328.31 423.367L328.274 431.613M328.31 423.367L345.998 423.444L345.941 436.664M328.31 423.367C330.079 423.505 332.137 424.692 332.126 427.179C332.118 429.182 330.043 431.621 328.274 431.613M328.274 431.613C325.278 431.557 319.191 432.464 318.819 436.547M318.819 436.547L345.941 436.664M318.819 436.547L318.802 440.474L333.984 440.54C334.387 438.36 336.572 435.315 342.091 440.575L345.924 440.591L345.941 436.664" stroke="black" stroke-width="0.648276"/>
<path d="M327.879 423.325L332.417 283.621" stroke="#A6A6A6" stroke-width="0.324138"/>
<path d="M340.845 287.835L336.955 423.001" stroke="#A6A6A6" stroke-width="0.324138"/>
<path d="M318.683 258.061C318.627 262.249 319.397 266.408 320.948 270.299C322.5 274.19 324.802 277.737 327.725 280.738C330.647 283.739 334.132 286.136 337.98 287.79C341.829 289.444 345.965 290.325 350.154 290.38C354.342 290.436 358.501 289.666 362.392 288.115C366.283 286.563 369.83 284.261 372.831 281.338C375.832 278.416 378.228 274.931 379.883 271.083C381.537 267.234 382.417 263.098 382.473 258.909L350.578 258.485L318.683 258.061Z" fill="#0F172A"/>
<path d="M318.683 258.061C318.627 262.249 319.397 266.408 320.948 270.299C322.5 274.19 324.802 277.737 327.725 280.738C330.647 283.739 334.132 286.136 337.98 287.79C341.829 289.444 345.965 290.325 350.154 290.38C354.342 290.436 358.501 289.666 362.392 288.115C366.283 286.563 369.83 284.261 372.831 281.338C375.832 278.416 378.228 274.931 379.883 271.083C381.537 267.234 382.417 263.098 382.473 258.909L350.578 258.485L318.683 258.061Z" fill="#0F172A"/>
<path d="M318.683 258.061L318.521 258.059L318.523 257.897L318.685 257.899L318.683 258.061ZM320.948 270.299L321.099 270.239L320.948 270.299ZM327.725 280.738L327.841 280.625L327.725 280.738ZM337.98 287.79L338.044 287.641L337.98 287.79ZM350.154 290.38L350.156 290.218L350.154 290.38ZM362.392 288.115L362.332 287.964L362.392 288.115ZM372.831 281.338L372.718 281.222L372.831 281.338ZM379.883 271.083L379.734 271.019L379.883 271.083ZM382.473 258.909L382.475 258.747L382.637 258.749L382.635 258.911L382.473 258.909ZM350.578 258.485L350.576 258.647L350.578 258.485ZM318.845 258.063C318.789 262.23 319.555 266.368 321.099 270.239L320.798 270.359C319.238 266.448 318.465 262.268 318.521 258.059L318.845 258.063ZM321.099 270.239C322.642 274.11 324.933 277.639 327.841 280.625L327.608 280.851C324.671 277.835 322.357 274.27 320.798 270.359L321.099 270.239ZM327.841 280.625C330.748 283.611 334.215 285.995 338.044 287.641L337.916 287.939C334.048 286.276 330.546 283.868 327.608 280.851L327.841 280.625ZM338.044 287.641C341.873 289.287 345.989 290.163 350.156 290.218L350.151 290.542C345.942 290.486 341.784 289.602 337.916 287.939L338.044 287.641ZM350.156 290.218C354.323 290.274 358.46 289.508 362.332 287.964L362.452 288.265C358.541 289.825 354.361 290.598 350.151 290.542L350.156 290.218ZM362.332 287.964C366.203 286.421 369.732 284.13 372.718 281.222L372.944 281.454C369.928 284.392 366.363 286.706 362.452 288.265L362.332 287.964ZM372.718 281.222C375.704 278.315 378.088 274.848 379.734 271.019L380.032 271.147C378.369 275.015 375.961 278.517 372.944 281.454L372.718 281.222ZM379.734 271.019C381.38 267.19 382.256 263.074 382.311 258.907L382.635 258.911C382.579 263.121 381.694 267.279 380.032 271.147L379.734 271.019ZM382.471 259.071L350.576 258.647L350.58 258.323L382.475 258.747L382.471 259.071ZM350.576 258.647L318.681 258.223L318.685 257.899L350.58 258.323L350.576 258.647Z" fill="black"/>
<path d="M356.589 430.395L352.773 423.085L368.453 414.899L374.571 426.619L376.389 430.1L372.991 431.873C365.655 429.797 365.143 433.51 365.805 435.625L352.346 442.652L350.529 439.171C348.952 435.386 353.912 431.744 356.589 430.395Z" fill="#D9D9D9"/>
<path d="M352.773 423.085L356.589 430.395M352.773 423.085L368.453 414.899L374.571 426.619M352.773 423.085C354.401 422.382 356.776 422.472 357.927 424.676C358.854 426.451 358.157 429.577 356.589 430.395M356.589 430.395C353.912 431.744 348.952 435.386 350.529 439.171M350.529 439.171L374.571 426.619M350.529 439.171L352.346 442.652L365.805 435.625C365.143 433.51 365.655 429.797 372.991 431.873L376.389 430.1L374.571 426.619" stroke="black" stroke-width="0.648276"/>
<path d="M347.013 277.9L374.991 279.01L373.317 422.89L343.426 422.873L347.013 277.9Z" fill="#0F172A"/>
<path d="M347.013 277.9L374.991 279.01L373.317 422.89L343.426 422.873L347.013 277.9Z" fill="#0F172A"/>
<ellipse cx="11.4154" cy="8.07068" rx="11.4154" ry="8.07068" transform="matrix(-0.964158 -0.265329 -0.265329 0.964158 373.946 161.968)" fill="#0F172A"/>
<path d="M344.537 200.704H358.324L356.366 183.246H344.537V200.704Z" fill="white" stroke="#0F172A" stroke-width="0.648276"/>
<path d="M282.088 229.81C302.235 243.401 309.383 229.714 310.115 222.009L331.118 230.124C321.219 253.936 299.786 257.346 290.631 255.237C270.297 250.46 246.597 230.295 237.289 220.81L244.175 198.458C248.419 203.246 261.942 216.219 282.088 229.81Z" fill="white" stroke="#0F172A" stroke-width="0.648276"/>
<path d="M339.472 218.916C342.54 210.975 338.589 202.05 330.648 198.982C323.543 196.237 315.558 199.772 312.813 206.877L306.435 223.386L333.678 233.911L339.472 218.916Z" fill="#0F172A"/>
<path d="M385.491 233.663C385.491 215.055 370.406 199.97 351.798 199.97C333.19 199.97 318.105 215.055 318.105 233.663V270.292H385.491V233.663Z" fill="#A9A7B6"/>
<path d="M357.018 210.086C370.659 198.078 362.702 191.595 357.018 189.854C358.65 197.033 353.782 199.59 351.145 199.97C346.25 200.677 344.727 195.103 344.455 191.894C341.583 192.09 339.148 195.973 339.071 198.42C338.94 202.532 341.518 207.911 342.823 210.086L349.595 204.457L357.018 210.086Z" fill="#064D47" stroke="#064D47" stroke-width="0.324138"/>
<path d="M364.605 198.991C364.089 201.384 361.815 206.986 356.855 210.249L349.758 204.457L342.66 210.249C341.654 208.536 339.495 203.886 338.907 198.991" stroke="#0F172A" stroke-width="1.29655"/>
<path d="M366.076 228.197C368.17 235.648 366.435 250.99 342.744 245.573C319.053 240.156 301.763 232.928 296.08 229.991C295.502 229.714 294.541 229.411 293.762 229.463C291.557 229.61 293.89 232.688 295.837 233.732L301.79 236.926C300.543 236.926 299.406 237.639 298.864 238.762L294.477 247.845C293.388 250.101 292.562 252.862 294.154 254.796C295.632 256.59 298.478 257.657 303.422 255.737L303.422 255.737C317.503 261.325 341.95 268.701 359.876 266.213C369.176 264.88 387.939 253.976 388.592 228.197H366.076Z" fill="white" stroke="#0F172A" stroke-width="0.648276"/>
<path d="M392.344 214.731C392.344 206.218 385.443 199.317 376.93 199.317C369.313 199.317 363.139 205.492 363.139 213.109V230.807H392.344V214.731Z" fill="#0F172A"/>
<mask id="path-46-inside-2_2265_1798" fill="white">
<path fill-rule="evenodd" clip-rule="evenodd" d="M337.485 181.69C339.297 187.043 344.362 190.896 350.328 190.896C356.293 190.896 361.358 187.043 363.17 181.69C365.368 181.355 367.052 179.457 367.052 177.165C367.052 174.828 365.301 172.901 363.039 172.623C361.123 167.462 356.155 163.785 350.328 163.785C344.5 163.785 339.532 167.462 337.616 172.622C335.354 172.901 333.603 174.828 333.603 177.165C333.603 179.457 335.287 181.355 337.485 181.69ZM337.493 172.967C337.026 174.339 336.772 175.81 336.772 177.341C336.772 178.733 336.982 180.077 337.372 181.341C335.41 180.964 333.927 179.238 333.927 177.165C333.927 175.05 335.471 173.296 337.493 172.967Z"/>
</mask>
<path fill-rule="evenodd" clip-rule="evenodd" d="M337.485 181.69C339.297 187.043 344.362 190.896 350.328 190.896C356.293 190.896 361.358 187.043 363.17 181.69C365.368 181.355 367.052 179.457 367.052 177.165C367.052 174.828 365.301 172.901 363.039 172.623C361.123 167.462 356.155 163.785 350.328 163.785C344.5 163.785 339.532 167.462 337.616 172.622C335.354 172.901 333.603 174.828 333.603 177.165C333.603 179.457 335.287 181.355 337.485 181.69ZM337.493 172.967C337.026 174.339 336.772 175.81 336.772 177.341C336.772 178.733 336.982 180.077 337.372 181.341C335.41 180.964 333.927 179.238 333.927 177.165C333.927 175.05 335.471 173.296 337.493 172.967Z" fill="white"/>
<path d="M337.485 181.69L337.534 181.369L337.729 181.399L337.792 181.586L337.485 181.69ZM363.17 181.69L362.863 181.586L362.926 181.399L363.121 181.369L363.17 181.69ZM363.039 172.623L363 172.944L362.804 172.92L362.735 172.735L363.039 172.623ZM337.616 172.622L337.92 172.735L337.851 172.92L337.656 172.944L337.616 172.622ZM337.493 172.967L337.441 172.647L337.974 172.561L337.8 173.072L337.493 172.967ZM337.372 181.341L337.682 181.246L337.841 181.762L337.311 181.66L337.372 181.341ZM350.328 191.22C344.219 191.22 339.033 187.274 337.178 181.794L337.792 181.586C339.561 186.811 344.506 190.572 350.328 190.572V191.22ZM363.477 181.794C361.622 187.274 356.436 191.22 350.328 191.22V190.572C356.15 190.572 361.094 186.811 362.863 181.586L363.477 181.794ZM367.376 177.165C367.376 179.619 365.573 181.651 363.219 182.01L363.121 181.369C365.163 181.058 366.727 179.294 366.727 177.165H367.376ZM363.079 172.301C365.501 172.599 367.376 174.663 367.376 177.165H366.727C366.727 174.994 365.101 173.203 363 172.944L363.079 172.301ZM350.328 163.461C356.295 163.461 361.381 167.227 363.343 172.51L362.735 172.735C360.865 167.698 356.015 164.11 350.328 164.11V163.461ZM337.312 172.51C339.274 167.227 344.361 163.461 350.328 163.461V164.11C344.64 164.11 339.79 167.698 337.92 172.735L337.312 172.51ZM333.279 177.165C333.279 174.663 335.154 172.599 337.576 172.301L337.656 172.944C335.554 173.203 333.927 174.994 333.927 177.165H333.279ZM337.436 182.01C335.082 181.652 333.279 179.619 333.279 177.165H333.927C333.927 179.294 335.492 181.058 337.534 181.369L337.436 182.01ZM336.448 177.341C336.448 175.774 336.708 174.268 337.186 172.863L337.8 173.072C337.344 174.411 337.096 175.846 337.096 177.341H336.448ZM337.063 181.437C336.663 180.142 336.448 178.766 336.448 177.341H337.096C337.096 178.701 337.301 180.012 337.682 181.246L337.063 181.437ZM337.311 181.66C335.199 181.254 333.603 179.396 333.603 177.165H334.251C334.251 179.079 335.621 180.675 337.434 181.023L337.311 181.66ZM333.603 177.165C333.603 174.889 335.265 173.001 337.441 172.647L337.545 173.287C335.677 173.591 334.251 175.212 334.251 177.165H333.603Z" fill="black" mask="url(#path-46-inside-2_2265_1798)"/>
<path fill-rule="evenodd" clip-rule="evenodd" d="M343.818 169.763C338.656 169.763 334.471 166.919 334.471 163.411C334.471 159.902 338.656 157.058 343.818 157.058C348.155 157.058 351.801 159.065 352.857 161.787C353.723 161.319 354.727 161.052 355.797 161.052C359.055 161.052 361.696 163.53 361.696 166.587C361.696 169.645 359.055 172.123 355.797 172.123C353.099 172.123 350.824 170.423 350.122 168.101C348.46 169.134 346.247 169.763 343.818 169.763Z" fill="#0F172A"/>
<path d="M353.676 175.552C353.148 174.378 351.598 172.735 349.627 175.552M346.458 175.554C345.93 174.381 344.381 172.738 342.409 175.554" stroke="black" stroke-width="0.324138"/>
<ellipse cx="4.37586" cy="2.43103" rx="4.37586" ry="2.43103" transform="matrix(-1 0 0 1 353.81 182.166)" fill="#0F172A"/>
<rect x="198.87" y="191.034" width="92.0552" height="22.8877" rx="1.94483" transform="rotate(2.42844 198.87 191.034)" fill="#EDEDED"/>
<line x1="217.264" y1="201" x2="283.652" y2="203.816" stroke="#54BD95" stroke-width="2.5931"/>
<line x1="217.058" y1="205.858" x2="261.749" y2="207.753" stroke="#54BD95" stroke-width="1.94483"/>
<circle cx="209.719" cy="202.951" r="4.53793" transform="rotate(2.42844 209.719 202.951)" fill="#54BD95"/>
<path d="M229.137 215.349C230.295 214.189 231.037 212.856 231.313 211.65C231.589 210.439 231.389 209.409 230.747 208.768C230.105 208.127 229.074 207.928 227.864 208.207C226.658 208.485 225.326 209.229 224.169 210.389C223.011 211.549 222.269 212.882 221.994 214.088C221.717 215.299 221.918 216.329 222.56 216.97C223.202 217.611 224.233 217.809 225.443 217.53C226.648 217.253 227.98 216.508 229.137 215.349Z" fill="white" stroke="black" stroke-width="0.648276"/>
<path d="M234.087 216.895C235.093 215.867 235.742 214.704 235.992 213.667C236.243 212.622 236.078 211.767 235.557 211.258C235.037 210.749 234.178 210.603 233.14 210.878C232.108 211.15 230.96 211.825 229.955 212.853C228.95 213.881 228.3 215.044 228.051 216.081C227.8 217.126 227.964 217.981 228.485 218.49C229.006 218.999 229.864 219.145 230.903 218.87C231.934 218.598 233.082 217.923 234.087 216.895Z" fill="white" stroke="black" stroke-width="0.648276"/>
<path d="M239.195 217.067C238.695 218.233 238.55 219.404 238.704 220.348C238.859 221.296 239.304 221.966 239.94 222.239C240.576 222.511 241.368 222.371 242.162 221.829C242.951 221.29 243.699 220.377 244.199 219.211C244.699 218.045 244.844 216.873 244.689 215.93C244.534 214.982 244.09 214.312 243.453 214.039C242.817 213.767 242.025 213.907 241.232 214.449C240.443 214.988 239.695 215.9 239.195 217.067Z" fill="white" stroke="black" stroke-width="0.648276"/>
<path d="M233.651 216.171C233.152 217.337 233.007 218.508 233.161 219.452C233.316 220.399 233.761 221.07 234.397 221.342C235.033 221.615 235.825 221.474 236.618 220.933C237.408 220.394 238.156 219.481 238.656 218.315C239.155 217.148 239.3 215.977 239.146 215.034C238.991 214.086 238.546 213.416 237.91 213.143C237.274 212.871 236.482 213.011 235.689 213.552C234.899 214.091 234.151 215.004 233.651 216.171Z" fill="white" stroke="black" stroke-width="0.648276"/>
<path d="M554.983 246.211C476.742 227.668 333.326 140.925 385.594 -57.6966" stroke="url(#paint0_linear_2265_1798)" stroke-width="43.1103"/>
</g>
<defs>
<linearGradient id="paint0_linear_2265_1798" x1="392.963" y1="-76.6885" x2="529.191" y2="135.597" gradientUnits="userSpaceOnUse">
<stop stop-color="#064D47"/>
<stop offset="1" stop-color="#4DC66B"/>
</linearGradient>
<clipPath id="clip0_2265_1798">
<rect x="0.5" width="470" height="470" rx="8" fill="white"/>
</clipPath>
</defs>
</svg>
