<svg width="472" height="472" viewBox="0 0 472 472" fill="none" xmlns="http://www.w3.org/2000/svg">
<g clip-path="url(#clip0_2265_1876)">
<rect width="472" height="472" rx="8" fill="#74C9A9" fill-opacity="0.5"/>
<path d="M-131.367 179.935C-19.2693 171.439 208.316 227.477 221.871 519.6" stroke="#064D47" stroke-width="43.2938"/>
<rect x="212.726" y="64.6152" width="134.439" height="123.046" rx="1.79034" fill="white" stroke="#064D47" stroke-width="0.325517"/>
<rect x="373.151" y="18.0115" width="89.3893" height="81.8139" rx="1.19041" fill="white" stroke="#064D47" stroke-width="0.216439"/>
<rect x="367.292" y="143.661" width="89.3893" height="81.8139" rx="1.19041" fill="white" stroke="#064D47" stroke-width="0.216439"/>
<rect x="376.506" y="21.5828" width="82.8961" height="74.6714" fill="#F5FAFA"/>
<rect x="217.771" y="69.9861" width="124.673" height="112.303" fill="#F5FAFA"/>
<rect x="378.454" y="23.3145" width="73.8057" height="3.64226" fill="#A6A6A6"/>
<rect x="378.453" y="29.3848" width="67.2103" height="3.64226" fill="#A6A6A6"/>
<rect x="378.453" y="35.4553" width="59.6727" height="3.64226" fill="#A6A6A6"/>
<rect x="378.453" y="41.5256" width="52.7632" height="3.64226" fill="#A6A6A6"/>
<rect x="378.454" y="84.1338" width="78.7838" height="10.3891" rx="2.59727" fill="#A6A6A6"/>
<rect x="378.454" y="71.3638" width="78.7838" height="10.3891" rx="2.59727" fill="#A6A6A6"/>
<rect x="370.647" y="147.233" width="82.8961" height="74.6714" fill="#F5FAFA"/>
<rect x="220.701" y="72.5903" width="111.001" height="5.47784" fill="#A6A6A6"/>
<rect x="220.701" y="81.7202" width="101.082" height="5.47784" fill="#A6A6A6"/>
<rect x="220.701" y="90.8499" width="89.7458" height="5.47784" fill="#A6A6A6"/>
<rect x="220.701" y="99.9795" width="79.3542" height="5.47784" fill="#A6A6A6"/>
<rect x="220.701" y="164.061" width="118.488" height="15.6248" rx="3.90621" fill="#A6A6A6"/>
<rect x="220.701" y="144.855" width="118.488" height="15.6248" rx="3.90621" fill="#A6A6A6"/>
<rect x="372.594" y="148.964" width="73.8057" height="3.64226" fill="#A6A6A6"/>
<rect x="372.594" y="155.035" width="67.2103" height="3.64226" fill="#A6A6A6"/>
<rect x="372.594" y="161.105" width="59.6727" height="3.64226" fill="#A6A6A6"/>
<rect x="372.594" y="167.175" width="52.7632" height="3.64226" fill="#A6A6A6"/>
<rect x="372.594" y="209.783" width="78.7838" height="10.3891" rx="2.59727" fill="#A6A6A6"/>
<rect x="372.594" y="197.013" width="78.7838" height="10.3891" rx="2.59727" fill="#A6A6A6"/>
<path d="M198.077 445.47H-1.79034V474.93H57.7793H471.186V445.47C477.859 410.966 442.541 401.851 403.967 401.851C349.525 401.851 283.2 402.99 249.997 420.568C239.866 425.932 212.617 445.199 198.077 445.47Z" fill="#A6A6A6"/>
<path d="M412.085 360.506L421.33 357.379M412.085 360.506L404.756 338.839L419.577 333.826M412.085 360.506C411.499 358.29 411.964 355.315 414.752 354.372C416.997 353.613 420.597 355.213 421.33 357.379M421.33 357.379C422.522 361.067 426.09 368.164 430.814 367.049M430.814 367.049L419.577 333.826M430.814 367.049L435.217 365.56L428.926 346.962C426.317 347.308 421.994 345.806 425.567 337.031L423.979 332.337L419.577 333.826" stroke="black" stroke-width="0.619781"/>
<path d="M337.954 283.768C352.539 343.823 385.854 350.155 415.603 327.843V367.044C369.894 383.004 335.302 360.67 312.683 299.678L337.954 283.768Z" fill="white" stroke="black" stroke-width="0.619781"/>
<path d="M415.448 343.803C369.894 356.198 341.632 347.099 328.75 291.879M415.448 356.353C364.781 380.37 318.86 336.242 326.722 291.879" stroke="#A6A6A6" stroke-width="0.619781"/>
<path fill-rule="evenodd" clip-rule="evenodd" d="M296.841 294.692C294.022 291.847 291.791 288.475 290.275 284.768L318.501 273.225L346.728 261.682C348.244 265.388 349.015 269.358 348.997 273.362C348.979 277.367 348.172 281.329 346.623 285.022C345.074 288.715 342.813 292.067 339.968 294.886C337.768 297.066 335.252 298.895 332.509 300.314L313.389 433.396L285.059 429.645L305.309 300.72C302.165 299.211 299.3 297.173 296.841 294.692Z" fill="#0F172A"/>
<path fill-rule="evenodd" clip-rule="evenodd" d="M296.841 294.692C294.022 291.847 291.791 288.475 290.275 284.768L318.501 273.225L346.728 261.682C348.244 265.388 349.015 269.358 348.997 273.362C348.979 277.367 348.172 281.329 346.623 285.022C345.074 288.715 342.813 292.067 339.968 294.886C337.768 297.066 335.252 298.895 332.509 300.314L313.389 433.396L285.059 429.645L305.309 300.72C302.165 299.211 299.3 297.173 296.841 294.692Z" fill="#36454C"/>
<path d="M290.275 284.768L290.131 284.827L290.073 284.684L290.216 284.625L290.275 284.768ZM296.841 294.692L296.951 294.583L296.951 294.583L296.841 294.692ZM318.501 273.225L318.56 273.368L318.501 273.225ZM346.728 261.682L346.67 261.538L346.813 261.48L346.872 261.623L346.728 261.682ZM348.997 273.362L349.152 273.363L348.997 273.362ZM339.968 294.886L339.859 294.776L339.968 294.886ZM332.509 300.314L332.356 300.291L332.367 300.213L332.438 300.176L332.509 300.314ZM313.389 433.396L313.543 433.418L313.521 433.569L313.369 433.549L313.389 433.396ZM285.059 429.645L285.039 429.799L284.882 429.778L284.906 429.621L285.059 429.645ZM305.309 300.72L305.376 300.58L305.48 300.63L305.462 300.744L305.309 300.72ZM290.418 284.71C291.926 288.398 294.146 291.752 296.951 294.583L296.731 294.801C293.897 291.942 291.655 288.553 290.131 284.827L290.418 284.71ZM318.56 273.368L290.333 284.912L290.216 284.625L318.443 273.082L318.56 273.368ZM346.787 261.825L318.56 273.368L318.443 273.082L346.67 261.538L346.787 261.825ZM348.842 273.362C348.86 269.377 348.093 265.428 346.585 261.74L346.872 261.623C348.395 265.349 349.17 269.338 349.152 273.363L348.842 273.362ZM346.48 284.962C348.022 281.288 348.824 277.346 348.842 273.362L349.152 273.363C349.134 277.388 348.323 281.37 346.766 285.082L346.48 284.962ZM339.859 294.776C342.689 291.971 344.939 288.636 346.48 284.962L346.766 285.082C345.209 288.794 342.936 292.162 340.077 294.996L339.859 294.776ZM332.438 300.176C335.167 298.765 337.67 296.945 339.859 294.776L340.077 294.996C337.866 297.188 335.337 299.026 332.58 300.451L332.438 300.176ZM332.662 300.336L313.543 433.418L313.236 433.374L332.356 300.291L332.662 300.336ZM313.369 433.549L285.039 429.799L285.08 429.492L313.41 433.242L313.369 433.549ZM284.906 429.621L305.156 300.696L305.462 300.744L285.213 429.669L284.906 429.621ZM296.951 294.583C299.398 297.052 302.248 299.079 305.376 300.58L305.242 300.859C302.082 299.343 299.203 297.295 296.731 294.801L296.951 294.583Z" fill="black"/>
<path d="M290.978 438.209L292.043 430.397L308.798 432.68L307.092 445.204L306.585 448.924L302.955 448.429C298.381 442.754 295.929 445.367 295.275 447.383L280.893 445.424L281.4 441.704C282.262 437.88 288.145 437.781 290.978 438.209Z" fill="#0F172A"/>
<path d="M290.978 438.209L292.043 430.397L308.798 432.68L307.092 445.204L306.585 448.924L302.955 448.429C298.381 442.754 295.929 445.367 295.275 447.383L280.893 445.424L281.4 441.704C282.262 437.88 288.145 437.781 290.978 438.209Z" fill="#36454C"/>
<path d="M292.043 430.397L290.978 438.209M292.043 430.397L308.798 432.68L307.092 445.204M292.043 430.397C293.701 430.749 295.504 432.131 295.183 434.488C294.925 436.384 292.654 438.437 290.978 438.209M290.978 438.209C288.145 437.781 282.262 437.88 281.4 441.704M281.4 441.704L307.092 445.204M281.4 441.704L280.893 445.424L295.275 447.383C295.929 445.367 298.381 442.754 302.955 448.429L306.585 448.924L307.092 445.204" stroke="black" stroke-width="0.619781"/>
<ellipse cx="10.0216" cy="9.28075" rx="10.0216" ry="9.28075" transform="matrix(-0.964158 -0.265329 -0.265329 0.964158 340.378 182.399)" fill="#0F172A"/>
<path d="M313.93 222.074H327.112L325.24 205.383H313.93V222.074Z" fill="white" stroke="#0F172A" stroke-width="0.619781"/>
<path d="M254.226 249.9C273.488 262.893 280.321 249.808 281.021 242.442L301.101 250.2C291.637 272.965 271.146 276.225 262.393 274.209C242.953 269.642 220.295 250.364 211.396 241.296L217.98 219.926C222.036 224.503 234.965 236.906 254.226 249.9Z" fill="white" stroke="#0F172A" stroke-width="0.619781"/>
<path d="M309.087 239.484C312.02 231.892 308.243 223.36 300.651 220.427C293.858 217.803 286.224 221.182 283.6 227.975L277.502 243.758L303.548 253.821L309.087 239.484Z" fill="#0F172A"/>
<path d="M353.084 253.584C353.084 235.794 338.662 221.372 320.872 221.372C303.082 221.372 288.66 235.794 288.66 253.584V288.603H353.084V253.584Z" fill="#54BD95"/>
<path d="M325.863 231.043C338.904 219.563 331.297 213.365 325.863 211.701C327.423 218.564 322.769 221.008 320.247 221.372C315.568 222.047 314.112 216.718 313.852 213.651C311.106 213.838 308.778 217.55 308.704 219.89C308.579 223.821 311.044 228.964 312.292 231.043L318.765 225.662L325.863 231.043Z" fill="#54BD95" stroke="#064D47" stroke-width="0.30989"/>
<path d="M333.116 220.436C332.622 222.724 330.449 228.08 325.707 231.199L318.921 225.662L312.136 231.199C311.174 229.561 309.11 225.116 308.548 220.436" stroke="#0F172A" stroke-width="1.23956"/>
<path d="M334.521 248.358C336.523 255.481 334.864 270.149 312.215 264.971C289.565 259.792 273.035 252.881 267.602 250.074C267.049 249.809 266.13 249.519 265.386 249.569C263.278 249.709 265.509 252.652 267.37 253.651L273.061 256.703C271.869 256.703 270.782 257.386 270.264 258.459L266.07 267.142C265.028 269.299 264.239 271.939 265.761 273.788C267.174 275.503 269.895 276.524 274.621 274.688C288.084 280.03 311.456 287.082 328.594 284.703C337.485 283.429 355.424 273.004 356.048 248.358H334.521Z" fill="white" stroke="#0F172A" stroke-width="0.619781"/>
<path d="M359.635 235.484C359.635 227.346 353.037 220.748 344.899 220.748C337.617 220.748 331.713 226.651 331.713 233.933V250.854H359.635V235.484Z" fill="#0F172A"/>
<mask id="path-44-inside-1_2265_1876" fill="white">
<path fill-rule="evenodd" clip-rule="evenodd" d="M307.189 203.895C308.921 209.013 313.764 212.697 319.467 212.697C325.17 212.697 330.012 209.013 331.745 203.895C333.846 203.574 335.456 201.76 335.456 199.569C335.456 197.335 333.782 195.492 331.619 195.226C329.788 190.293 325.038 186.778 319.467 186.778C313.896 186.778 309.146 190.293 307.314 195.226C305.152 195.492 303.477 197.335 303.477 199.569C303.477 201.76 305.087 203.575 307.189 203.895ZM307.197 195.556C306.75 196.868 306.507 198.274 306.507 199.737C306.507 201.068 306.708 202.353 307.081 203.562C305.205 203.201 303.787 201.551 303.787 199.569C303.787 197.547 305.263 195.87 307.197 195.556Z"/>
</mask>
<path fill-rule="evenodd" clip-rule="evenodd" d="M307.189 203.895C308.921 209.013 313.764 212.697 319.467 212.697C325.17 212.697 330.012 209.013 331.745 203.895C333.846 203.574 335.456 201.76 335.456 199.569C335.456 197.335 333.782 195.492 331.619 195.226C329.788 190.293 325.038 186.778 319.467 186.778C313.896 186.778 309.146 190.293 307.314 195.226C305.152 195.492 303.477 197.335 303.477 199.569C303.477 201.76 305.087 203.575 307.189 203.895ZM307.197 195.556C306.75 196.868 306.507 198.274 306.507 199.737C306.507 201.068 306.708 202.353 307.081 203.562C305.205 203.201 303.787 201.551 303.787 199.569C303.787 197.547 305.263 195.87 307.197 195.556Z" fill="white"/>
<path d="M307.189 203.895L307.235 203.588L307.422 203.617L307.482 203.795L307.189 203.895ZM331.745 203.895L331.451 203.795L331.512 203.617L331.698 203.588L331.745 203.895ZM331.619 195.226L331.582 195.534L331.395 195.511L331.329 195.334L331.619 195.226ZM307.314 195.226L307.604 195.334L307.539 195.511L307.352 195.534L307.314 195.226ZM307.197 195.556L307.147 195.25L307.656 195.167L307.49 195.656L307.197 195.556ZM307.081 203.562L307.377 203.47L307.529 203.964L307.022 203.866L307.081 203.562ZM319.467 213.006C313.627 213.006 308.669 209.234 306.895 203.994L307.482 203.795C309.173 208.791 313.901 212.387 319.467 212.387V213.006ZM332.038 203.994C330.265 209.234 325.307 213.006 319.467 213.006V212.387C325.033 212.387 329.76 208.791 331.451 203.795L332.038 203.994ZM335.766 199.569C335.766 201.915 334.042 203.858 331.792 204.201L331.698 203.588C333.65 203.291 335.146 201.604 335.146 199.569H335.766ZM331.657 194.918C333.973 195.203 335.766 197.176 335.766 199.569H335.146C335.146 197.493 333.59 195.781 331.582 195.534L331.657 194.918ZM319.467 186.468C325.171 186.468 330.034 190.067 331.91 195.118L331.329 195.334C329.541 190.518 324.904 187.087 319.467 187.087V186.468ZM307.023 195.118C308.899 190.067 313.762 186.468 319.467 186.468V187.087C314.029 187.087 309.393 190.518 307.604 195.334L307.023 195.118ZM303.167 199.569C303.167 197.176 304.96 195.203 307.276 194.918L307.352 195.534C305.343 195.78 303.787 197.493 303.787 199.569H303.167ZM307.142 204.201C304.891 203.858 303.167 201.915 303.167 199.569H303.787C303.787 201.604 305.283 203.291 307.235 203.588L307.142 204.201ZM306.197 199.737C306.197 198.24 306.446 196.799 306.903 195.456L307.49 195.656C307.054 196.936 306.817 198.308 306.817 199.737H306.197ZM306.785 203.653C306.403 202.415 306.197 201.1 306.197 199.737H306.817C306.817 201.037 307.013 202.291 307.377 203.47L306.785 203.653ZM307.022 203.866C305.003 203.478 303.477 201.702 303.477 199.569H304.097C304.097 201.399 305.406 202.924 307.139 203.257L307.022 203.866ZM303.477 199.569C303.477 197.392 305.066 195.588 307.147 195.25L307.246 195.862C305.46 196.151 304.097 197.701 304.097 199.569H303.477Z" fill="black" mask="url(#path-44-inside-1_2265_1876)"/>
<path fill-rule="evenodd" clip-rule="evenodd" d="M313.244 192.493C308.309 192.493 304.308 189.774 304.308 186.42C304.308 183.066 308.309 180.346 313.244 180.346C317.39 180.346 320.876 182.265 321.886 184.867C322.713 184.42 323.673 184.164 324.696 184.164C327.811 184.164 330.336 186.534 330.336 189.457C330.336 192.379 327.811 194.749 324.696 194.749C322.117 194.749 319.941 193.123 319.27 190.904C317.681 191.891 315.566 192.493 313.244 192.493Z" fill="#0F172A"/>
<ellipse cx="5.6394" cy="5.29237" rx="5.6394" ry="5.29237" transform="matrix(-1 0 0 1 325.858 177.082)" fill="#0F172A"/>
<path d="M322.667 198.026C322.162 196.904 320.681 195.334 318.796 198.026M315.766 198.029C315.261 196.907 313.78 195.336 311.895 198.029" stroke="black" stroke-width="0.30989"/>
<path d="M314.554 206.67C314.554 207.029 314.64 207.384 314.804 207.707C314.969 208.029 315.209 208.311 315.504 208.529C315.799 208.747 316.143 208.897 316.508 208.966C316.872 209.035 317.249 209.022 317.607 208.927C317.966 208.833 318.297 208.659 318.575 208.421C318.854 208.182 319.071 207.885 319.211 207.551C319.351 207.218 319.41 206.858 319.383 206.499C319.356 206.141 319.244 205.793 319.055 205.483L316.972 206.67H314.554Z" fill="#0F172A"/>
<path d="M220.425 244.254L202.414 258.425L205.49 205.748L241.493 244.268L220.425 244.254Z" fill="#FFC728" stroke="#0F172A" stroke-width="0.619781"/>
<path d="M200.186 225.171C201.075 226.219 202.125 226.941 203.09 227.27C204.062 227.601 204.89 227.52 205.421 227.07C205.952 226.619 206.167 225.815 205.997 224.802C205.83 223.796 205.288 222.643 204.399 221.595C203.509 220.547 202.459 219.826 201.494 219.497C200.522 219.165 199.694 219.246 199.163 219.697C198.632 220.148 198.418 220.952 198.587 221.965C198.755 222.97 199.296 224.123 200.186 225.171Z" fill="white" stroke="black" stroke-width="0.619781"/>
<path d="M203.451 234.258C202.322 234.703 201.429 235.393 200.892 236.132C200.353 236.875 200.197 237.628 200.439 238.244C200.682 238.859 201.311 239.303 202.212 239.477C203.109 239.651 204.232 239.545 205.361 239.1C206.49 238.655 207.383 237.965 207.92 237.226C208.459 236.483 208.615 235.73 208.372 235.114C208.13 234.499 207.501 234.055 206.6 233.881C205.703 233.707 204.579 233.813 203.451 234.258Z" fill="white" stroke="black" stroke-width="0.619781"/>
<path d="M200.33 229.89C199.202 230.335 198.309 231.025 197.772 231.764C197.232 232.507 197.076 233.26 197.319 233.876C197.562 234.491 198.19 234.935 199.091 235.109C199.988 235.283 201.112 235.177 202.24 234.732C203.369 234.286 204.262 233.597 204.799 232.857C205.338 232.114 205.495 231.361 205.252 230.746C205.009 230.13 204.381 229.687 203.479 229.512C202.582 229.339 201.459 229.445 200.33 229.89Z" fill="white" stroke="black" stroke-width="0.619781"/>
<path d="M214.809 219.143C214.34 220.208 214.221 221.292 214.393 222.177C214.565 223.063 215.019 223.718 215.672 224.005C216.325 224.292 217.115 224.183 217.883 223.711C218.651 223.239 219.369 222.418 219.837 221.352C220.306 220.287 220.425 219.203 220.253 218.318C220.081 217.432 219.627 216.777 218.974 216.49C218.321 216.203 217.531 216.312 216.763 216.784C215.995 217.256 215.277 218.077 214.809 219.143Z" fill="white" stroke="black" stroke-width="0.619781"/>
<path d="M203.396 221.74C204.527 222.823 205.816 223.506 206.974 223.745C208.137 223.985 209.118 223.773 209.718 223.147C210.318 222.52 210.487 221.531 210.196 220.38C209.907 219.233 209.169 217.975 208.037 216.892C206.906 215.809 205.617 215.126 204.459 214.886C203.296 214.646 202.315 214.858 201.715 215.485C201.115 216.111 200.946 217.1 201.237 218.252C201.526 219.398 202.264 220.656 203.396 221.74Z" fill="white" stroke="black" stroke-width="0.619781"/>
<rect x="31.5752" y="30.9241" width="129.881" height="84.96" rx="1.9531" fill="#C4C4C4"/>
<path d="M162.809 122.255L159.472 127.502L155.525 113.741L168.203 120.366L162.809 122.255Z" fill="#636F73" stroke="white" stroke-width="0.651034"/>
<rect x="36.1324" y="38.4109" width="116.317" height="5.47784" fill="white"/>
<rect x="36.1326" y="47.5408" width="105.923" height="5.47784" fill="white"/>
<rect x="36.1326" y="56.6704" width="94.0435" height="5.47784" fill="white"/>
<rect x="36.1326" y="65.8003" width="83.1542" height="5.47784" fill="white"/>
<rect x="31.7379" y="121.255" width="45.5724" height="5.85931" rx="2.92966" fill="#636F73" stroke="#54BD95" stroke-width="0.325517"/>
<rect x="31.7379" y="131.672" width="120.767" height="15.2993" rx="3.74345" fill="#636F73" stroke="#54BD95" stroke-width="0.325517"/>
<path d="M158.31 85.1226C158.31 87.0402 159.864 88.5947 161.782 88.5947C163.7 88.5947 165.254 87.0402 165.254 85.1226C165.254 83.2049 163.7 81.6504 161.782 81.6504C159.864 81.6504 158.31 83.2049 158.31 85.1226ZM182.29 85.1226H182.941V84.4715H182.29V85.1226ZM182.29 152.179H181.639V152.83H182.29V152.179ZM206.975 152.179C206.975 154.097 208.529 155.651 210.447 155.651C212.365 155.651 213.919 154.097 213.919 152.179C213.919 150.261 212.365 148.707 210.447 148.707C208.529 148.707 206.975 150.261 206.975 152.179ZM161.782 85.7736H182.29V84.4715H161.782V85.7736ZM181.639 85.1226V152.179H182.941V85.1226H181.639ZM182.29 152.83H210.447V151.528H182.29V152.83Z" fill="#FFC728"/>
<path d="M345.237 121.744C345.237 122.898 346.172 123.834 347.327 123.834C348.481 123.834 349.417 122.898 349.417 121.744C349.417 120.589 348.481 119.653 347.327 119.653C346.172 119.653 345.237 120.589 345.237 121.744ZM355.695 121.744H356.086V121.352H355.695V121.744ZM355.695 187.824H355.303V188.216H355.695V187.824ZM365.093 187.824C365.093 188.978 366.029 189.914 367.183 189.914C368.338 189.914 369.274 188.978 369.274 187.824C369.274 186.669 368.338 185.733 367.183 185.733C366.029 185.733 365.093 186.669 365.093 187.824ZM347.327 122.136H355.695V121.352H347.327V122.136ZM355.303 121.744V187.824H356.086V121.744H355.303ZM355.695 188.216H367.183V187.432H355.695V188.216Z" fill="#FFC728"/>
<path d="M345.237 110.025C345.237 108.87 346.172 107.935 347.327 107.935C348.481 107.935 349.417 108.87 349.417 110.025C349.417 111.179 348.481 112.115 347.327 112.115C346.172 112.115 345.237 111.179 345.237 110.025ZM358.164 110.025H358.556V110.417H358.164V110.025ZM358.164 55.0125H357.772V54.6206H358.164V55.0125ZM370.952 55.0125C370.952 53.8581 371.888 52.9222 373.043 52.9222C374.197 52.9222 375.133 53.8581 375.133 55.0125C375.133 56.1669 374.197 57.1028 373.043 57.1028C371.888 57.1028 370.952 56.1669 370.952 55.0125ZM347.327 109.633H358.164V110.417H347.327V109.633ZM357.772 110.025V55.0125H358.556V110.025H357.772ZM358.164 54.6206H373.043V55.4044H358.164V54.6206Z" fill="#FFC728"/>
</g>
<defs>
<clipPath id="clip0_2265_1876">
<rect width="472" height="472" rx="8" fill="white"/>
</clipPath>
</defs>
</svg>
