<svg width="1328" height="1200" viewBox="0 0 1328 1200" fill="none" xmlns="http://www.w3.org/2000/svg">
<path d="M452.081 1106H718.868L1093 212H50L452.081 1106Z" fill="#F0F0F0"/>
<path d="M452.081 1106H718.868L958.499 536.5H187.999L452.081 1106Z" fill="#468A70"/>
<path d="M968.962 810.458C986.696 815.798 996.305 832.374 1016.04 834.881C1023.52 832.768 1038.8 821.645 1047.04 821.752C1064.22 821.976 1087.19 822.067 1103.58 826.386C1123.04 831.513 1145.76 841.252 1157.72 850.809C1169.69 860.365 1187.75 877.907 1189.98 893.187C1193 913.854 1177.81 930.192 1169.69 948.21C1164.83 959.008 1166.38 975.04 1179.5 981.707C1209.62 997.015 1247.16 997.184 1271.71 1021.29C1283.41 1032.77 1274.98 1045.79 1270.34 1059.03C1267.33 1067.65 1263.07 1075.86 1259.51 1084.32C1253.7 1098.18 1235.57 1102.76 1220.19 1107.1C1202 1112.24 1180.26 1116.58 1161.03 1112.51C1158.43 1111.96 1158.17 1111.08 1154.87 1111.16C1122.9 1111.92 1102 1136.36 1083.86 1156.24C1070.18 1171.23 1051.21 1183.33 1032.34 1193.4C1009.39 1205.66 974.236 1198.39 950.611 1191.28C918.794 1181.71 888.764 1165.14 856.229 1158.07C824.154 1151.11 803.647 1132.88 774.387 1121C761.014 1115.58 753.403 1113.83 740.647 1114.63C723.283 1115.72 706.18 1116.37 688.669 1116.37C664.979 1116.37 654.231 1083.1 655.043 1066.95C655.712 1053.63 659.261 1039.27 665.871 1027.17C675.702 1009.18 708.762 1012.24 717.393 993.967C720.951 986.434 720.585 979.356 720.585 971.378C720.585 962.986 704.105 951.703 698.13 946.183C686.788 935.705 671.727 924.596 666.555 910.659C660.267 893.715 680.824 874.722 688.327 860.365C693.702 850.082 697.163 842.671 708.275 835.653C715.913 830.829 724.465 827.112 732.44 822.718C778.219 797.494 833.173 795.725 886.436 796.75C914.286 797.286 942.725 802.558 968.962 810.458Z" fill="#FFF2CE"/>
<path d="M795.164 801.233C831.628 782.389 872.873 770.007 913.437 784.03C937.971 792.511 957.77 811.881 975.187 830.412C987.656 843.679 1001.86 858.996 1007.22 876.856C1013.96 899.334 1004.47 917.915 986.492 930.594C980.277 934.977 974.531 939.667 967.772 943.239C959.816 947.443 964.102 942.459 967.894 938.619C975.443 930.974 983.357 923.689 990.99 916.126C994.598 912.552 996.05 910.808 996.338 905.488C998.823 859.504 961.842 820.333 920.244 805.245C902.726 798.891 880.218 794.516 861.472 796.735C841.552 799.093 834.161 820.691 825.553 835.884C799.688 881.531 833.981 820.847 809.021 863.969C803.59 873.351 798.305 881.727 800.512 892.965C804.377 912.645 819.825 935.327 836.614 946.278C845.894 952.332 872.162 960.201 881.772 948.892C882.977 947.474 882.684 945.208 882.684 943.482C882.684 940.088 886.5 936.348 888.336 934.06C897.779 922.288 906.681 911.511 912.222 897.16C919.889 877.301 928.656 844.172 909.912 827.373C893.863 812.989 864.494 807.118 843.968 811.811C821.419 816.966 800.438 835.937 791.639 857.282C786.611 869.479 786.089 885.016 790.301 897.525C793.613 907.358 804.186 919.737 815.889 918.376C829.881 916.748 833.746 896.723 833.575 885.61C833.199 861.178 813.745 849.193 791.882 844.09C764.692 837.745 739.916 841.605 720.164 862.388C708.99 874.145 700.384 888.202 692.753 902.388C684.526 917.682 675.257 935.79 680.537 953.816C687.016 975.936 709.786 997.297 728.065 1010.11C733.997 1014.27 740.366 1017.41 747.028 1020.08" stroke="#2D2D2D" stroke-linecap="round"/>
<path d="M1028.34 833.582C1045.3 830.056 1061.2 823.174 1078.02 819.132C1093.15 815.495 1100.94 825.011 1109.23 836.617C1118.34 849.37 1124.98 864.963 1124.53 880.937C1124.14 895.152 1106.74 902.219 1102.79 885.672C1099.21 870.678 1113.24 855.916 1125.75 850.095C1144.43 841.399 1177.38 838.023 1192.18 855.316C1212.19 878.692 1198.81 904.347 1178.21 921.25C1159.75 936.401 1137.38 948.11 1114.45 954.763C1093.98 960.702 1067.92 965.878 1051.42 948.206C1044.42 940.713 1035.62 924.811 1042.67 914.571C1049.95 904.011 1072.98 903.218 1084.15 903.218C1111.77 903.218 1138.99 918.23 1148.09 945.17C1155.15 966.075 1163.01 1002.35 1137.71 1014.5C1125.19 1020.52 1112.29 1015.99 1100.67 1010.25C1090.01 1004.99 1076.65 998.18 1070.49 987.426C1055.88 961.922 1100.89 953.342 1116.15 950.999C1142.66 946.929 1167.58 950.862 1189.39 967.391C1207.45 981.083 1220.67 1001.32 1227.52 1022.76C1229.72 1029.63 1231.98 1038.75 1229.1 1045.83C1224.38 1057.44 1207.34 1064.29 1197.1 1069.14C1188.59 1073.18 1170.77 1083.15 1161.51 1074.97C1155.85 1069.97 1157.87 1061.4 1163.58 1057.49C1187.8 1040.89 1221.49 1061.07 1235.17 1081.77C1252.88 1108.57 1245.74 1138.71 1220.11 1156.63C1209.35 1164.16 1195.2 1172.16 1181.61 1172.72C1166.84 1173.33 1159.65 1159.68 1156.35 1147.34C1147.73 1115.1 1180.86 1098.23 1207 1091.97C1221.7 1088.45 1248.86 1080.52 1252.24 1102.6C1258.15 1141.24 1181.02 1122.32 1166.31 1117.59C1138.77 1108.74 1113.48 1094.35 1089.92 1077.83C1075.09 1067.43 1052.14 1052.87 1045.23 1034.78C1040.79 1023.19 1047.08 1010.38 1052.88 1000.54C1053.17 1000.05 1063.62 987.044 1063.02 985.847C1062.81 985.441 1062.2 985.334 1061.74 985.362C1058.75 985.547 1050.53 987.952 1048.87 988.519C1021.24 997.957 995.688 1013.22 971.504 1029.32C946.613 1045.89 867.621 1093.08 903.006 1132.1C933.286 1165.49 983.992 1148.78 1013.28 1124.03C1027.56 1111.97 1049.78 1090.13 1040.85 1068.9C1032.94 1050.09 1011.77 1034.36 993.851 1026.16C974.817 1017.45 946.75 1014.87 938.713 1039.15C933.644 1054.46 929.276 1103.98 958.631 1096.59C969.671 1093.81 980.723 1085.22 987.779 1076.55C1002.41 1058.57 996.877 1041.03 982.435 1024.7C961.369 1000.89 932.444 981.337 903.492 968.484C887.425 961.351 872.566 959.487 855.641 957.07" stroke="#2D2D2D" stroke-linecap="round"/>
<path d="M1094.84 901.668C1099.2 910.388 1099.12 910.662 1088.05 909.414C1072.87 907.705 1057.83 905.049 1042.7 903C1027.22 900.901 1005.65 895.951 990.328 901.789C977.333 906.741 961.51 928.326 969.232 942.275C975.493 953.585 988.881 960.484 1000.03 965.695C1022.46 976.185 1046.83 980.338 1069.62 989.539C1084.95 995.726 1090.4 1007.31 1085.87 1022.94C1083.03 1032.73 1068.13 1045.33 1070.1 1055.56C1071.25 1061.51 1080.39 1062.76 1084.9 1063.13C1099.49 1064.33 1115.21 1062.04 1128.97 1057.2C1150.73 1049.54 1190.66 1022.39 1178.25 993.775C1169.14 972.768 1145.58 958.049 1126.6 947.298C1097.55 930.843 1061.49 919.619 1032.28 943.183C1020.65 952.565 1009.86 971.017 1022.4 983.669C1029.03 990.36 1037.21 995.488 1044.76 1001.04C1049.03 1004.17 1056.51 1007.38 1052.89 1013.75C1047.16 1023.83 1037.19 1032.37 1028.82 1040.01C1015.63 1052.05 1001.35 1063.03 988.752 1075.72C983.227 1081.28 973.92 1089.87 976.325 1099.01C979.326 1110.42 996.989 1115.24 1006.33 1118.38C1038.36 1129.14 1073.22 1134.37 1101.87 1112.27C1128.99 1091.35 1139.41 1053.59 1107.51 1032.2C1095.1 1023.89 1079.73 1020.64 1064.95 1020.64C1062.6 1020.64 1057.87 1020.35 1055.8 1022.34C1054.4 1023.68 1053.25 1024.64 1051.19 1022.82C1045.86 1018.12 1042.48 1010.07 1037.98 1004.73C1026.76 991.442 1012.89 980.402 996.632 973.804C983.469 968.463 967.229 965.274 953.956 972.11C938.814 979.909 935.325 1000.57 932.739 1015.5C930.41 1028.94 927.16 1046.75 932.86 1059.98C938.6 1073.3 953.795 1078.93 966.686 1081.95C984.711 1086.17 1003.89 1086.05 1021.85 1081.4C1037.24 1077.42 1064.09 1066.47 1063.92 1046.42C1063.8 1031.3 1046.54 1017.31 1036.4 1009.15C1019.15 995.257 999.691 984.366 978.083 978.888C933.377 967.555 889.88 983.499 857.084 1014.05C835.681 1033.99 802.053 1069.45 809.922 1102.28C820.279 1145.5 880.137 1147.97 912.976 1132.84C923.078 1128.19 929.046 1121.01 924.858 1110.03C922.043 1102.65 914.886 1094.9 906.672 1093.51C883.071 1089.5 846.755 1140.31 873.997 1154.27C897.244 1166.17 935.03 1142.72 943.044 1120.26C946.302 1111.12 940.186 1103.35 933.345 1097.99C917.569 1085.61 895.909 1081.69 876.604 1079.1C867.659 1077.91 852.755 1074.97 843.869 1079.35C837.328 1082.57 840.478 1092.37 842.475 1097.32C845.386 1104.54 849.774 1108.63 855.872 1104.28" stroke="#2D2D2D" stroke-width="2" stroke-linecap="round"/>
<path d="M1156.58 1113.03C1170.89 1097.43 1181.15 1077.17 1191.68 1058.88C1202.16 1040.69 1216.79 1021.81 1219.39 1000.37C1219.97 995.592 1220.55 988.947 1217.33 984.863C1211.3 977.213 1199.64 971.693 1190.65 968.812C1181.05 965.732 1163.3 960.519 1157 971.78C1152.49 979.846 1151.52 993.869 1156.64 1001.82C1162.31 1010.63 1171.7 1015.85 1181.19 1019.51C1185.9 1021.32 1193.9 1021.85 1192.11 1028.47C1187.16 1046.73 1167.03 1056.76 1150.39 1061.42C1128.92 1067.44 1108.9 1067.61 1089.27 1056.7C1049.76 1034.74 1022.82 995.088 981.396 975.535C973.811 971.955 964.967 971.365 956.717 971.053C939.014 970.383 921.439 971.528 904.388 976.686C886.792 982.008 859.816 993.545 856.728 1014.48C855.642 1021.84 853.213 1033.93 855.454 1041.19C860.537 1057.66 889.708 1030.03 893.17 1025.56C906.949 1007.79 914.094 981.094 900.932 960.998C891.567 946.702 875.054 938.15 860.548 930.229C842.932 920.61 824.64 911.472 806.096 903.761C789.278 896.767 773.259 892.678 757.102 903.458C737.048 916.837 719.874 941.143 712.473 963.906C706.703 981.655 713.599 996.613 728.481 1007.15C730.345 1008.47 753.074 1020.73 748.006 1009.45C742.409 996.997 727.964 991.522 715.02 993.706C694.952 997.092 689.646 1020.86 686.582 1037.8C682.327 1061.32 691.193 1078.64 709.866 1093.16C725.356 1105.2 743.419 1113.47 762.802 1117.02C774.013 1119.08 793.733 1121.22 803.671 1112.78C812.895 1104.95 795.597 1097.64 789.846 1097.88C775.304 1098.5 771.2 1111.19 770.563 1123.57C769.018 1153.62 786.466 1180.35 816.768 1187.65C856.016 1197.1 903.543 1179.43 927.005 1146.82C938.93 1130.25 946.783 1105.66 929.734 1089.89C919.575 1080.49 905.969 1073.91 894.262 1066.75C883.104 1059.93 871.582 1051.68 858.668 1048.46C843.554 1044.69 840.935 1056.43 842.842 1068.81C844.693 1080.83 848.86 1094.34 857.577 1103.27C868.68 1114.65 884.446 1116.01 899.476 1114.96C933.658 1112.58 964.159 1094.74 993.099 1078.02C1002.33 1072.68 1013.8 1067.19 1022.08 1060.09C1023.8 1058.61 1021.3 1057.38 1019.17 1062.21C1011.52 1079.6 1016.28 1111.16 1032.63 1122.54C1053.11 1136.77 1083.24 1133.48 1106.49 1139.62C1122.3 1143.79 1134.55 1155.63 1150.51 1159.3C1170.76 1163.96 1190.39 1154.05 1196.35 1133.62C1204.06 1107.2 1186.4 1084.7 1169.55 1066.51C1158.33 1054.4 1140.45 1032.65 1121.28 1036.1C1116.61 1036.95 1102.05 1049.27 1111.1 1054.09C1114.28 1055.79 1121.85 1045.52 1122.5 1044.7C1130.78 1034.38 1137.19 1022.97 1140.63 1010.12C1148.44 980.905 1130.97 961.554 1105.09 950.52C1099.81 948.264 1089.48 946.858 1085.15 942.222C1082.47 939.358 1081.92 932.55 1080.72 929.139C1074.67 911.975 1063.81 896.066 1048.76 885.529C1035.88 876.509 1008.1 867.595 1004.62 891.465C1002.55 905.68 1021.52 912.152 1032.27 913.633C1038.03 914.427 1048.19 914.276 1050.7 907.092C1054.36 896.643 1037.44 890.285 1031.66 888.194C969.878 865.811 870.258 875.28 842.721 945.614C839.836 952.983 839.094 960.568 834.11 966.813C826.099 976.853 823.449 992.829 822.226 1005.21C821.311 1014.47 825.64 1020.95 832.898 1026.41C839.926 1031.71 850.129 1025.62 843.933 1017.21C838.86 1010.31 826.408 1008.31 818.83 1007.15C808.184 1005.53 794.806 1004.36 785.722 1011.63C768.919 1025.09 774.417 1053.38 789.967 1064.93C827.547 1092.86 898.973 1032.35 858.486 996.734C844.484 984.417 824.094 978.887 806.096 976.625C794.33 975.146 775.629 973.533 767.531 985.347C758.417 998.645 767.531 1016.44 774.565 1027.99" stroke="#2D2D2D" stroke-linecap="round"/>
<path d="M749.61 818.346C750.326 822.741 752.009 825.916 754.22 829.865C761.51 842.884 769.024 855.861 776.785 868.604C790.099 890.464 805.138 913.728 823.433 931.776C836.783 944.947 853.362 958.86 871.778 964.09C885.53 967.995 900.021 963.275 911.692 955.845C929.865 944.275 940.104 920.192 928.131 900.433C922.725 891.511 917.525 898.175 913.512 904.737C905.701 917.512 899.761 938.651 905.808 952.753C920.804 987.723 977.278 982.252 986.182 945.053C991.956 920.932 967.906 902.396 949.423 892.855C923.752 879.603 890.61 872.759 865.409 890.975C847.45 903.957 837.43 926.657 832.592 947.6C825.521 978.211 831.248 1008.04 857.22 1027.99C887.651 1051.37 931.542 1057.67 968.712 1055.27C1000.1 1053.24 1038.46 1043.81 1061.64 1020.71C1076 1006.4 1064.46 991.45 1051.45 981.55C1026.93 962.888 994.738 953.916 964.102 958.391C925.261 964.064 885.871 986.606 857.584 1013.2C834.914 1034.51 820.316 1062.13 825.798 1093.83C831.075 1124.34 853.241 1165.53 889.976 1151.3C905.018 1145.48 916.322 1132.96 910.722 1115.9C900.688 1085.32 869.92 1060.99 842.298 1047.27C808.533 1030.5 768.719 1024.8 731.412 1028.84C711.557 1030.99 680.769 1036.9 671.359 1057.94C662.482 1077.78 682.594 1098.63 697.2 1108.62" stroke="#2D2D2D" stroke-linecap="round"/>
<path d="M1085.1 922.3C1084.17 920.984 1082.75 920.228 1081.72 919.03C1082.67 918.707 1085.56 917.533 1086.42 916.765C1088.94 914.493 1090.96 913.9 1093.76 912.021C1096.8 909.981 1099.35 908.784 1104.66 906.785C1109.97 904.786 1110.5 904.039 1114 902.606C1117.48 901.18 1120.78 899.287 1124.19 897.699C1131.66 894.226 1138.3 889.809 1145.61 886.13C1151.05 883.393 1151.35 883.094 1156.58 879.977C1157.32 879.534 1161.93 876.591 1162.26 877.333C1165.68 884.984 1171.21 893.121 1174.71 900.64L1179.18 910.258C1179.69 911.354 1180.02 912.051 1181.14 913.669C1180.74 914.272 1175.18 916.866 1174.55 917.198C1171.57 918.77 1157.08 924.739 1154.07 926.264C1144.48 931.119 1143.11 932.084 1133.49 935.836C1127 938.37 1122.15 940.125 1114.97 943.462L1105.63 947.807C1103.1 949.362 1100.52 950.124 1098.34 952.125C1098.13 952.319 1097.97 952.722 1097.76 952.423C1096.04 949.984 1096.13 946.342 1095.08 943.63C1092.94 938.112 1089.99 932.709 1087.54 927.305C1086.8 925.668 1086.14 923.773 1085.1 922.3Z" fill="#FFC728"/>
<path d="M1081.67 918.971C1082.7 920.203 1084.16 920.962 1085.1 922.3C1086.14 923.773 1086.8 925.668 1087.54 927.305C1089.99 932.709 1092.94 938.112 1095.08 943.63C1096.13 946.342 1096.04 949.984 1097.76 952.423C1097.97 952.722 1098.13 952.319 1098.34 952.125C1100.52 950.124 1103.1 949.362 1105.63 947.807C1111.32 945.162 1109.83 945.855 1114.97 943.462C1122.15 940.125 1127 938.37 1133.49 935.836C1143.11 932.084 1144.48 931.119 1154.07 926.264C1157.08 924.739 1171.57 918.77 1174.55 917.198C1175.18 916.866 1180.74 914.272 1181.14 913.669C1180.02 912.051 1179.69 911.354 1179.18 910.258C1177.69 907.052 1176.2 903.846 1174.71 900.64C1171.21 893.121 1165.68 884.984 1162.26 877.333C1161.93 876.591 1157.32 879.534 1156.58 879.977C1151.35 883.094 1151.05 883.393 1145.61 886.13C1138.3 889.809 1131.66 894.226 1124.19 897.699C1120.78 899.287 1117.48 901.18 1114 902.606C1110.5 904.039 1109.97 904.786 1104.66 906.785C1099.35 908.784 1096.8 909.981 1093.76 912.021C1090.96 913.9 1088.94 914.493 1086.42 916.765C1085.25 917.819 1080.24 919.637 1081.67 918.973" stroke="#CB9D1D" stroke-linecap="round"/>
<path d="M1140.66 900.608C1141.09 900.41 1141.67 900.653 1142.41 901.339L1142.59 901.254C1143.11 900.566 1143.97 899.899 1145.18 899.252C1148.77 897.581 1152.23 898.718 1155.55 902.663L1157.65 905.983C1159.52 910.016 1158.67 913.602 1155.09 916.742L1153.57 917.605L1153.51 917.634C1153.06 917.841 1152.34 918.047 1151.35 918.251L1151.44 918.442L1151.72 918.801C1151.81 918.998 1151.62 919.328 1151.14 919.79C1150.37 920.149 1149.71 919.75 1149.18 918.594C1146.35 913.89 1144.67 910.974 1144.14 909.846L1141.56 903.486C1141.26 902.851 1140.71 902.257 1139.91 901.703C1139.76 901.379 1140.01 901.014 1140.66 900.608ZM1145.93 908.911L1149.65 915.7C1150.72 916.677 1151.74 916.938 1152.72 916.485L1153.51 916.116C1154.6 915.606 1155.54 914.466 1156.32 912.696C1156.88 910.874 1156.76 909.089 1155.94 907.341L1155.42 906.22C1154.11 903.4 1152.17 901.411 1149.61 900.253C1148.26 899.903 1147.18 899.917 1146.37 900.295L1145.21 900.833C1143.91 901.437 1143.43 902.339 1143.77 903.538L1145.93 908.911Z" fill="#CB9D1D"/>
<path d="M1132.79 902.957C1133.1 902.816 1133.49 902.883 1133.96 903.16L1134.02 903.52C1139.55 910.806 1143.67 916.406 1146.35 920.32C1146.33 920.81 1146.11 921.153 1145.68 921.352C1144.97 921.682 1144.05 920.823 1142.93 918.774L1141.82 917.259L1140.17 918.101C1139.11 918.593 1137.48 919.242 1135.26 920.051C1135.42 924.317 1135.22 926.578 1134.67 926.833L1134.61 926.861C1133.9 927.037 1133.47 926.962 1133.32 926.638C1133.67 923.081 1133.23 917.469 1132.01 909.804C1131.87 907.329 1131.85 905.29 1131.94 903.686C1132.14 903.37 1132.43 903.127 1132.79 902.957ZM1135.16 918.555C1136.36 918.219 1137.58 917.763 1138.82 917.187L1140.46 916.422C1140.69 916.318 1140.85 916.164 1140.95 915.962L1133.95 906.716L1133.89 906.745C1133.68 907.371 1133.81 909.182 1134.27 912.178L1135.16 918.555Z" fill="#CB9D1D"/>
<path d="M1112.87 911.506C1113.38 911.269 1113.79 911.4 1114.13 911.898L1114.03 911.941L1114.22 912.11C1114.91 911.789 1116.76 910.748 1119.77 908.988C1120.34 908.879 1120.69 908.979 1120.84 909.29C1121.05 909.741 1119.81 910.668 1117.13 912.07L1114.57 913.57L1115 914.501C1115.31 915.163 1116.95 917.67 1119.91 922.021L1123.81 920.208C1124.33 919.962 1124.75 920.016 1125.07 920.368C1125.27 920.805 1124.89 921.245 1123.94 921.689L1120.5 923.29L1120.54 923.375L1122.48 927.796C1122.97 928.839 1123.48 929.53 1124 929.868L1129.91 926.788C1130.58 926.542 1131 926.588 1131.16 926.926C1131.37 927.378 1130.76 927.934 1129.34 928.595C1125.75 930.436 1123.98 931.42 1124.04 931.547C1123.31 931.887 1122.44 931.348 1121.44 929.929L1120.54 928.392L1118.37 923.562L1113.18 915.351L1112.87 914.695C1112.06 912.947 1112.03 911.898 1112.78 911.548L1112.87 911.506Z" fill="#CB9D1D"/>
<path d="M1101.2 917.318C1101.83 917.025 1102.46 917.542 1103.07 918.867C1108.71 929.658 1111.76 934.945 1112.23 934.728L1113.01 934.183L1116.48 932.646L1117.55 931.917C1117.86 931.775 1118.25 931.843 1118.72 932.119C1118.78 932.778 1118.08 933.447 1116.62 934.127L1113.4 935.573C1113.16 935.686 1112.78 936.042 1112.27 936.64L1111.81 936.853C1111.18 937.145 1110 935.696 1108.27 932.505C1107.05 930.517 1104.44 925.754 1100.44 918.216C1100.46 917.844 1100.72 917.545 1101.2 917.318Z" fill="#CB9D1D"/>
<path d="M901.562 954.544C901.482 952.934 900.685 951.533 900.46 949.972C901.437 950.209 904.505 950.766 905.637 950.574C908.986 950.009 911.009 950.591 914.38 950.503C918.038 950.409 920.833 950.765 926.387 951.921C931.941 953.078 932.787 952.73 936.513 953.397C940.22 954.061 944.015 954.226 947.748 954.714C955.912 955.781 963.888 955.612 972.032 956.422C978.09 957.024 978.503 956.933 984.588 957.102C985.453 957.126 990.923 957.111 990.805 957.915C989.595 966.209 989.903 976.041 988.828 984.263L987.453 994.782C987.296 995.981 987.197 996.743 987.279 998.711C986.615 999.004 980.532 998.217 979.822 998.16C976.465 997.891 961.031 995.166 957.671 994.84C946.973 993.803 945.298 993.883 935.168 991.899C928.327 990.559 923.293 989.443 915.447 988.417L905.232 987.081C902.261 987.038 899.675 986.299 896.761 986.82C896.479 986.871 896.129 987.126 896.111 986.761C895.962 983.777 897.994 980.753 898.559 977.9C899.709 972.095 900.111 965.952 900.94 960.077C901.191 958.297 901.652 956.346 901.562 954.544Z" fill="#FFC728"/>
<path d="M900.45 949.896C900.659 951.488 901.48 952.908 901.562 954.544C901.652 956.346 901.191 958.297 900.94 960.077C900.111 965.952 899.709 972.095 898.559 977.9C897.994 980.753 895.962 983.777 896.111 986.761C896.129 987.126 896.479 986.871 896.761 986.82C899.675 986.299 902.261 987.038 905.232 987.081C911.449 987.894 909.821 987.681 915.447 988.417C923.293 989.443 928.327 990.559 935.168 991.899C945.298 993.883 946.973 993.803 957.671 994.84C961.031 995.166 976.465 997.891 979.822 998.16C980.532 998.217 986.615 999.004 987.279 998.711C987.197 996.743 987.296 995.981 987.453 994.782C987.911 991.276 988.37 987.77 988.828 984.263C989.903 976.041 989.595 966.209 990.805 957.915C990.923 957.111 985.453 957.126 984.588 957.102C978.503 956.933 978.09 957.024 972.032 956.422C963.888 955.612 955.912 955.781 947.748 954.714C944.015 954.226 940.22 954.061 936.513 953.397C932.787 952.73 931.941 953.078 926.387 951.921C920.833 950.765 918.038 950.409 914.38 950.503C911.009 950.591 908.986 950.009 905.637 950.574C904.084 950.837 898.885 949.692 900.447 949.896" stroke="#CB9D1D" stroke-linecap="round"/>
<path d="M960.094 965.998C960.561 966.059 960.922 966.576 961.178 967.551L961.378 967.577C962.186 967.275 963.272 967.174 964.636 967.274C968.566 967.787 970.875 970.599 971.562 975.708L971.556 979.636C970.98 984.046 968.34 986.619 963.637 987.353L961.887 987.265L961.82 987.256C961.332 987.193 960.614 986.981 959.668 986.622L959.64 986.83L959.683 987.283C959.655 987.499 959.316 987.674 958.666 987.809C957.822 987.698 957.483 987.011 957.648 985.746C957.778 980.258 957.924 976.897 958.085 975.663L959.308 968.906C959.398 968.212 959.254 967.417 958.874 966.52C958.921 966.166 959.327 965.991 960.094 965.998ZM960.096 975.832L959.594 983.554C959.976 984.953 960.7 985.722 961.766 985.861L962.632 985.974C963.831 986.131 965.234 985.672 966.843 984.596C968.292 983.358 969.141 981.783 969.391 979.871L969.552 978.645C969.955 975.56 969.384 972.843 967.84 970.492C966.889 969.474 965.969 968.907 965.081 968.791L963.816 968.625C962.395 968.439 961.505 968.943 961.146 970.135L960.096 975.832Z" fill="#CB9D1D"/>
<path d="M952.188 963.763C952.521 963.807 952.814 964.073 953.066 964.561L952.921 964.894C953.693 974.014 954.165 980.946 954.335 985.689C954.057 986.092 953.684 986.263 953.218 986.202C952.441 986.1 952.126 984.882 952.273 982.549L952.145 980.674L950.304 980.504C949.15 980.353 947.42 980.025 945.115 979.519C942.962 983.206 941.585 985.01 940.986 984.932L940.919 984.923C940.227 984.691 939.904 984.398 939.95 984.044C942.148 981.225 944.785 976.253 947.862 969.127C949.071 966.963 950.145 965.229 951.083 963.925C951.42 963.765 951.788 963.711 952.188 963.763ZM945.829 978.201C947.024 978.561 948.299 978.83 949.653 979.007L951.452 979.242C951.696 979.274 951.916 979.232 952.112 979.117L951.15 967.557L951.084 967.548C950.577 967.968 949.713 969.565 948.493 972.338L945.829 978.201Z" fill="#CB9D1D"/>
<path d="M930.788 960.309C931.343 960.381 931.627 960.717 931.639 961.314L931.539 961.301L931.609 961.546C932.364 961.644 934.483 961.757 937.967 961.883C938.504 962.094 938.75 962.369 938.706 962.709C938.641 963.202 937.101 963.322 934.086 963.069L931.119 962.964L930.986 963.981C930.891 964.706 930.929 967.699 931.099 972.96L935.362 973.517C935.939 973.593 936.265 973.863 936.34 974.327C936.278 974.806 935.725 974.976 934.681 974.84L930.918 974.348L930.906 974.44L930.18 979.216C930.03 980.357 930.088 981.211 930.353 981.779L936.986 982.341C937.689 982.495 938.016 982.757 937.967 983.128C937.903 983.621 937.094 983.766 935.539 983.563C931.523 983.195 929.505 983.08 929.487 983.219C928.688 983.114 928.243 982.193 928.154 980.457L928.218 978.677L928.971 973.435L928.987 963.72L929.081 963.003C929.331 961.091 929.867 960.188 930.688 960.296L930.788 960.309Z" fill="#CB9D1D"/>
<path d="M917.816 958.967C918.504 959.057 918.753 959.827 918.564 961.277C917.543 973.409 917.287 979.508 917.798 979.575L918.752 979.535L922.506 980.096L923.799 980.053C924.132 980.097 924.424 980.363 924.677 980.85C924.374 981.438 923.424 981.628 921.825 981.419L918.334 980.915C918.067 980.88 917.558 980.978 916.805 981.209L916.305 981.144C915.617 981.054 915.397 979.198 915.644 975.576C915.678 973.243 916.026 967.823 916.686 959.314C916.906 959.013 917.283 958.898 917.816 958.967Z" fill="#CB9D1D"/>
<path d="M1002.03 870.681C1000.5 870.169 998.905 870.399 997.37 870.039C997.946 869.216 999.584 866.562 999.819 865.438C1000.51 862.114 1001.79 860.443 1002.94 857.272C1004.19 853.832 1005.54 851.36 1008.64 846.611C1011.75 841.862 1011.73 840.947 1013.71 837.721C1015.68 834.512 1017.22 831.039 1019.04 827.742C1023.01 820.53 1025.76 813.042 1029.49 805.755C1032.26 800.335 1032.33 799.917 1034.71 794.313C1035.04 793.516 1037.03 788.418 1037.73 788.821C1045.01 792.974 1054.28 796.275 1061.54 800.277L1070.83 805.395C1071.89 805.979 1072.56 806.349 1074.43 806.991C1074.46 807.716 1071.51 813.092 1071.19 813.732C1069.72 816.76 1061.55 830.136 1060.02 833.145C1055.15 842.726 1054.61 844.315 1049.07 853.023C1045.33 858.903 1042.45 863.183 1038.63 870.114L1033.66 879.137C1032.54 881.887 1030.9 884.025 1030.33 886.929C1030.27 887.21 1030.38 887.628 1030.03 887.512C1027.2 886.562 1025.13 883.566 1022.68 881.999C1017.69 878.811 1012.12 876.194 1006.95 873.279C1005.39 872.396 1003.74 871.255 1002.03 870.681Z" fill="#FFC728"/>
<path d="M997.295 870.021C998.853 870.407 1000.48 870.16 1002.03 870.681C1003.74 871.255 1005.39 872.396 1006.95 873.279C1012.12 876.194 1017.69 878.811 1022.68 881.999C1025.13 883.566 1027.2 886.562 1030.03 887.512C1030.38 887.628 1030.27 887.21 1030.33 886.929C1030.9 884.025 1032.54 881.887 1033.66 879.137C1036.69 873.645 1035.89 875.083 1038.63 870.114C1042.45 863.183 1045.33 858.903 1049.07 853.023C1054.61 844.315 1055.15 842.726 1060.02 833.145C1061.55 830.136 1069.72 816.76 1071.19 813.732C1071.51 813.092 1074.46 807.716 1074.43 806.991C1072.56 806.349 1071.89 805.979 1070.83 805.395C1067.74 803.689 1064.64 801.983 1061.54 800.277C1054.28 796.275 1045.01 792.974 1037.73 788.821C1037.03 788.418 1035.04 793.516 1034.71 794.313C1032.33 799.917 1032.26 800.335 1029.49 805.755C1025.76 813.042 1023.01 820.53 1019.04 827.742C1017.22 831.039 1015.68 834.512 1013.71 837.721C1011.73 840.947 1011.75 841.862 1008.64 846.611C1005.54 851.36 1004.19 853.832 1002.94 857.272C1001.79 860.443 1000.51 862.114 999.819 865.438C999.497 866.98 996.533 871.403 997.294 870.023" stroke="#CB9D1D" stroke-linecap="round"/>
<path d="M1034.05 820.369C1034.27 819.957 1034.89 819.809 1035.89 819.926L1035.99 819.75C1036 818.888 1036.3 817.84 1036.89 816.606C1038.81 813.134 1042.27 812.011 1047.27 813.235L1050.93 814.674C1054.82 816.82 1056.26 820.216 1055.22 824.863L1054.5 826.46L1054.47 826.519C1054.23 826.95 1053.77 827.541 1053.09 828.292L1053.28 828.393L1053.71 828.519C1053.91 828.624 1053.95 829.003 1053.83 829.658C1053.42 830.403 1052.66 830.468 1051.54 829.853C1046.48 827.729 1043.4 826.367 1042.31 825.766L1036.47 822.163C1035.86 821.825 1035.06 821.669 1034.09 821.696C1033.78 821.523 1033.76 821.081 1034.05 820.369ZM1043.2 823.956L1050.21 827.24C1051.65 827.395 1052.63 827.002 1053.15 826.061L1053.57 825.296C1054.16 824.237 1054.24 822.762 1053.83 820.872C1053.2 819.071 1052.05 817.705 1050.36 816.775L1049.27 816.178C1046.55 814.678 1043.81 814.217 1041.06 814.797C1039.76 815.311 1038.9 815.96 1038.47 816.745L1037.85 817.863C1037.16 819.118 1037.3 820.13 1038.28 820.9L1043.2 823.956Z" fill="#CB9D1D"/>
<path d="M1029.09 826.914C1029.25 826.62 1029.6 826.445 1030.15 826.388L1030.41 826.645C1039.18 829.253 1045.81 831.344 1050.28 832.916C1050.56 833.322 1050.58 833.731 1050.35 834.143C1049.98 834.83 1048.73 834.679 1046.61 833.69L1044.82 833.125L1043.99 834.777C1043.42 835.796 1042.49 837.287 1041.18 839.249C1043.82 842.599 1045 844.539 1044.71 845.068L1044.68 845.127C1044.21 845.687 1043.82 845.881 1043.5 845.708C1041.68 842.634 1038.01 838.364 1032.5 832.899C1030.93 830.984 1029.71 829.352 1028.83 828.002C1028.81 827.63 1028.89 827.267 1029.09 826.914ZM1040.21 838.103C1040.98 837.122 1041.7 836.033 1042.35 834.837L1043.23 833.248C1043.35 833.032 1043.39 832.812 1043.35 832.588L1032.24 829.265L1032.21 829.324C1032.41 829.949 1033.59 831.335 1035.72 833.484L1040.21 838.103Z" fill="#CB9D1D"/>
<path d="M1018.06 845.575C1018.33 845.085 1018.75 844.943 1019.31 845.15L1019.26 845.238L1019.51 845.262C1019.88 844.595 1020.76 842.663 1022.15 839.466C1022.54 839.043 1022.88 838.914 1023.18 839.079C1023.62 839.319 1023.17 840.797 1021.83 843.512L1020.65 846.236L1021.55 846.731C1022.19 847.084 1024.99 848.141 1029.95 849.902L1032.03 846.136C1032.31 845.626 1032.68 845.421 1033.14 845.521C1033.56 845.754 1033.52 846.331 1033.01 847.253L1031.18 850.577L1031.26 850.622L1035.44 853.041C1036.45 853.596 1037.27 853.854 1037.89 853.815L1040.83 847.844C1041.24 847.246 1041.6 847.037 1041.93 847.217C1042.36 847.458 1042.2 848.264 1041.45 849.637C1039.64 853.242 1038.79 855.079 1038.92 855.146C1038.53 855.853 1037.51 855.93 1035.86 855.379L1034.22 854.671L1029.62 852.057L1020.58 848.497L1019.95 848.148C1018.26 847.217 1017.61 846.389 1018.01 845.663L1018.06 845.575Z" fill="#CB9D1D"/>
<path d="M1012.08 857.158C1012.41 856.55 1013.22 856.599 1014.5 857.304C1025.42 862.682 1031.01 865.145 1031.26 864.694L1031.57 863.792L1033.46 860.501L1033.89 859.282C1034.06 858.988 1034.41 858.812 1034.96 858.755C1035.39 859.251 1035.22 860.206 1034.44 861.618L1032.7 864.684C1032.57 864.92 1032.48 865.43 1032.42 866.215L1032.18 866.657C1031.84 867.265 1030.03 866.792 1026.75 865.24C1024.59 864.357 1019.67 862.056 1011.99 858.336C1011.79 858.021 1011.82 857.629 1012.08 857.158Z" fill="#CB9D1D"/>
<path d="M962.695 935.825C961.765 937.141 960.342 937.897 959.316 939.095C960.267 939.418 963.156 940.592 964.01 941.36C966.534 943.632 968.554 944.225 971.354 946.104C974.392 948.144 976.943 949.341 982.252 951.34C987.561 953.339 988.089 954.086 991.593 955.519C995.078 956.945 998.371 958.838 1001.78 960.426C1009.25 963.899 1015.89 968.316 1023.2 971.995C1028.64 974.732 1028.94 975.031 1034.17 978.148C1034.91 978.591 1039.52 981.534 1039.86 980.792C1043.28 973.141 1048.81 965.004 1052.3 957.485L1056.78 947.867C1057.29 946.771 1057.61 946.074 1058.74 944.456C1058.33 943.853 1052.77 941.259 1052.14 940.927C1049.16 939.355 1034.67 933.386 1031.66 931.861C1022.07 927.006 1020.7 926.041 1011.08 922.289C1004.59 919.755 999.742 918 992.567 914.663L983.227 910.318C980.695 908.763 978.115 908.001 975.934 906C975.723 905.806 975.564 905.403 975.353 905.702C973.629 908.141 973.725 911.783 972.673 914.495C970.534 920.013 967.583 925.416 965.135 930.82C964.393 932.457 963.737 934.352 962.695 935.825Z" fill="#FFC728"/>
<path d="M959.266 939.154C960.295 937.922 961.75 937.163 962.695 935.825C963.737 934.352 964.393 932.457 965.135 930.82C967.583 925.416 970.534 920.013 972.673 914.495C973.725 911.783 973.629 908.141 975.353 905.702C975.564 905.403 975.723 905.806 975.934 906C978.115 908.001 980.695 908.763 983.227 910.318C988.912 912.963 987.423 912.27 992.567 914.663C999.742 918 1004.59 919.755 1011.08 922.289C1020.7 926.041 1022.07 927.006 1031.66 931.861C1034.67 933.386 1049.16 939.355 1052.14 940.927C1052.77 941.259 1058.33 943.853 1058.74 944.456C1057.61 946.074 1057.29 946.771 1056.78 947.867C1055.29 951.073 1053.79 954.279 1052.3 957.485C1048.81 965.004 1043.28 973.141 1039.86 980.792C1039.52 981.534 1034.91 978.591 1034.17 978.148C1028.94 975.031 1028.64 974.732 1023.2 971.995C1015.89 968.316 1009.25 963.899 1001.78 960.426C998.371 958.838 995.078 956.945 991.593 955.519C988.089 954.086 987.561 953.339 982.252 951.34C976.943 949.341 974.392 948.144 971.354 946.104C968.554 944.225 966.534 943.632 964.01 941.36C962.839 940.306 957.835 938.488 959.264 939.152" stroke="#CB9D1D" stroke-linecap="round"/>
<path d="M1018.26 957.513C1018.68 957.711 1019.26 957.468 1020 956.782L1020.19 956.867C1020.71 957.555 1021.57 958.222 1022.77 958.869C1026.37 960.541 1029.82 959.404 1033.14 955.458L1035.24 952.138C1037.12 948.105 1036.27 944.519 1032.69 941.379L1031.16 940.516L1031.1 940.488C1030.66 940.28 1029.94 940.074 1028.94 939.87L1029.03 939.679L1029.31 939.32C1029.4 939.123 1029.21 938.793 1028.73 938.331C1027.96 937.972 1027.31 938.371 1026.77 939.527C1023.94 944.231 1022.26 947.147 1021.74 948.275L1019.15 954.636C1018.85 955.27 1018.31 955.864 1017.51 956.418C1017.35 956.742 1017.6 957.107 1018.26 957.513ZM1023.53 949.21L1027.24 942.421C1028.31 941.445 1029.33 941.183 1030.31 941.636L1031.1 942.005C1032.2 942.515 1033.14 943.655 1033.92 945.425C1034.48 947.247 1034.35 949.032 1033.54 950.78L1033.02 951.901C1031.7 954.721 1029.77 956.71 1027.2 957.868C1025.85 958.218 1024.77 958.204 1023.96 957.827L1022.81 957.288C1021.51 956.684 1021.02 955.782 1021.36 954.583L1023.53 949.21Z" fill="#CB9D1D"/>
<path d="M1010.38 955.164C1010.69 955.305 1011.08 955.238 1011.55 954.961L1011.61 954.601C1017.15 947.315 1021.26 941.715 1023.94 937.801C1023.93 937.312 1023.7 936.968 1023.28 936.769C1022.57 936.439 1021.65 937.298 1020.52 939.347L1019.41 940.862L1017.76 940.02C1016.71 939.528 1015.07 938.879 1012.85 938.07C1013.01 933.804 1012.82 931.543 1012.27 931.288L1012.21 931.26C1011.5 931.084 1011.07 931.159 1010.92 931.483C1011.26 935.04 1010.83 940.652 1009.61 948.318C1009.47 950.792 1009.44 952.831 1009.54 954.435C1009.74 954.751 1010.02 954.994 1010.38 955.164ZM1012.75 939.566C1013.95 939.902 1015.17 940.358 1016.41 940.935L1018.06 941.7C1018.28 941.803 1018.44 941.957 1018.55 942.159L1011.54 951.405L1011.48 951.376C1011.28 950.75 1011.4 948.939 1011.86 945.944L1012.75 939.566Z" fill="#CB9D1D"/>
<path d="M990.461 946.616C990.969 946.852 991.388 946.721 991.718 946.223L991.627 946.18L991.817 946.011C992.507 946.332 994.357 947.373 997.366 949.133C997.933 949.242 998.288 949.142 998.432 948.831C998.642 948.38 997.406 947.454 994.725 946.052L992.163 944.551L992.596 943.62C992.904 942.958 994.539 940.451 997.502 936.1L1001.4 937.913C1001.93 938.159 1002.35 938.106 1002.66 937.753C1002.86 937.316 1002.49 936.876 1001.53 936.432L998.092 934.831L998.132 934.746L1000.08 930.325C1000.56 929.282 1001.07 928.591 1001.6 928.253L1007.5 931.334C1008.17 931.579 1008.59 931.533 1008.75 931.195C1008.96 930.743 1008.35 930.187 1006.93 929.526C1003.34 927.685 1001.58 926.701 1001.64 926.574C1000.91 926.234 1000.04 926.773 999.032 928.192L998.132 929.729L995.959 934.559L990.768 942.77L990.463 943.426C989.65 945.175 989.619 946.224 990.37 946.573L990.461 946.616Z" fill="#CB9D1D"/>
<path d="M978.798 940.803C979.427 941.096 980.05 940.579 980.667 939.254C986.304 928.463 989.356 923.176 989.823 923.393L990.607 923.938L994.078 925.475L995.147 926.204C995.451 926.346 995.841 926.278 996.315 926.002C996.375 925.343 995.673 924.674 994.212 923.994L990.994 922.549C990.751 922.435 990.373 922.079 989.861 921.481L989.404 921.269C988.775 920.976 987.594 922.425 985.863 925.616C984.642 927.604 982.031 932.367 978.03 939.905C978.055 940.277 978.311 940.576 978.798 940.803Z" fill="#CB9D1D"/>
<path d="M709.614 849.892C708.512 851.068 706.998 851.621 705.818 852.667C706.715 853.117 709.416 854.677 710.156 855.555C712.345 858.151 714.265 859.016 716.78 861.262C719.509 863.699 721.872 865.235 726.856 867.943C731.841 870.652 732.261 871.465 735.535 873.365C738.792 875.255 741.794 877.583 744.957 879.624C751.875 884.089 757.85 889.375 764.587 894.023C769.597 897.48 769.853 897.817 774.604 901.622C775.28 902.163 779.443 905.711 779.874 905.022C784.313 897.912 790.905 890.611 795.401 883.643L801.153 874.73C801.809 873.714 802.225 873.068 803.561 871.62C803.243 870.968 798.094 867.635 797.516 867.22C794.781 865.254 781.245 857.353 778.471 855.429C769.64 849.304 768.413 848.16 759.403 843.124C753.318 839.723 748.756 837.319 742.107 833.029L733.451 827.443C731.157 825.555 728.706 824.447 726.82 822.165C726.638 821.944 726.536 821.524 726.286 821.79C724.243 823.97 723.838 827.591 722.424 830.133C719.548 835.304 715.883 840.251 712.717 845.268C711.757 846.788 710.848 848.575 709.614 849.892Z" fill="#FFC728"/>
<path d="M705.76 852.718C706.949 851.639 708.494 851.087 709.614 849.892C710.848 848.575 711.757 846.788 712.717 845.268C715.883 840.251 719.548 835.304 722.424 830.133C723.838 827.591 724.243 823.97 726.286 821.79C726.536 821.524 726.638 821.944 726.82 822.165C728.706 824.447 731.157 825.555 733.451 827.443C738.72 830.843 737.34 829.952 742.107 833.029C748.756 837.319 753.318 839.723 759.403 843.124C768.413 848.16 769.64 849.304 778.471 855.429C781.245 857.353 794.781 865.254 797.516 867.22C798.094 867.635 803.243 870.968 803.561 871.62C802.225 873.068 801.809 873.714 801.153 874.73C799.236 877.701 797.318 880.672 795.401 883.643C790.905 890.611 784.313 897.912 779.874 905.022C779.443 905.711 775.28 902.163 774.604 901.622C769.853 897.817 769.597 897.48 764.587 894.023C757.85 889.375 751.875 884.089 744.957 879.624C741.794 877.583 738.792 875.255 735.535 873.365C732.261 871.465 731.841 870.652 726.856 867.943C721.872 865.235 719.509 863.699 716.78 861.262C714.265 859.016 712.345 858.151 710.156 855.555C709.141 854.35 704.434 851.862 705.758 852.716" stroke="#CB9D1D" stroke-linecap="round"/>
<path d="M761.669 878.998C762.064 879.253 762.675 879.092 763.501 878.514L763.67 878.623C764.09 879.376 764.853 880.155 765.959 880.961C769.289 883.11 772.868 882.458 776.695 879.005L779.231 876.005C781.643 872.268 781.292 868.599 778.179 864.998L776.788 863.933L776.731 863.897C776.317 863.63 775.633 863.327 774.679 862.989L774.793 862.812L775.118 862.495C775.236 862.312 775.09 861.959 774.682 861.436C773.967 860.974 773.263 861.279 772.572 862.351C769.123 866.622 767.061 869.28 766.386 870.326L762.95 876.271C762.57 876.859 761.946 877.372 761.077 877.81C760.883 878.111 761.08 878.507 761.669 878.998ZM768.029 871.497L772.639 865.282C773.835 864.462 774.884 864.343 775.787 864.926L776.521 865.399C777.537 866.055 778.311 867.313 778.842 869.174C779.147 871.055 778.777 872.806 777.731 874.426L777.061 875.465C775.374 878.079 773.182 879.783 770.484 880.577C769.1 880.739 768.032 880.578 767.279 880.092L766.207 879.4C765.003 878.623 764.649 877.664 765.146 876.522L768.029 871.497Z" fill="#CB9D1D"/>
<path d="M754.197 875.592C754.479 875.774 754.874 875.76 755.382 875.551L755.487 875.203C761.973 868.745 766.814 863.762 770.011 860.254C770.059 859.767 769.886 859.395 769.491 859.14C768.832 858.715 767.804 859.441 766.408 861.316L765.098 862.664L763.584 861.603C762.605 860.972 761.074 860.104 758.989 858.999C759.73 854.794 759.846 852.528 759.338 852.2L759.282 852.164C758.604 851.893 758.168 851.908 757.974 852.208C757.828 855.779 756.625 861.277 754.365 868.703C753.888 871.135 753.586 873.152 753.458 874.754C753.612 875.094 753.858 875.373 754.197 875.592ZM758.681 860.466C759.826 860.964 760.972 861.584 762.119 862.324L763.643 863.308C763.85 863.441 763.991 863.615 764.066 863.83L755.858 872.027L755.802 871.99C755.687 871.342 756.06 869.566 756.922 866.661L758.681 860.466Z" fill="#CB9D1D"/>
<path d="M735.638 864.393C736.109 864.696 736.542 864.624 736.937 864.176L736.853 864.121L737.064 863.98C737.703 864.393 739.393 865.677 742.132 867.834C742.678 868.02 743.044 867.969 743.23 867.681C743.5 867.263 742.403 866.176 739.938 864.419L737.607 862.581L738.163 861.719C738.56 861.104 740.524 858.846 744.055 854.943L747.667 857.274C748.157 857.589 748.58 857.594 748.937 857.288C749.199 856.883 748.887 856.395 748.003 855.824L744.814 853.766L744.865 853.688L747.398 849.576C748.022 848.609 748.619 847.994 749.188 847.732L754.611 851.593C755.247 851.929 755.666 851.941 755.869 851.627C756.138 851.209 755.615 850.575 754.298 849.725C750.995 847.409 749.382 846.192 749.458 846.074C748.781 845.637 747.847 846.052 746.656 847.32L745.553 848.718L742.738 853.204L736.47 860.626L736.078 861.233C735.032 862.854 734.857 863.889 735.554 864.338L735.638 864.393Z" fill="#CB9D1D"/>
<path d="M724.879 857.032C725.462 857.408 726.15 856.982 726.943 855.754C734.007 845.839 737.756 841.021 738.189 841.3L738.891 841.947L742.118 843.946L743.076 844.815C743.359 844.997 743.754 844.984 744.262 844.775C744.411 844.13 743.808 843.371 742.453 842.497L739.465 840.624C739.239 840.478 738.914 840.074 738.489 839.411L738.065 839.138C737.482 838.761 736.114 840.035 733.961 842.958C732.479 844.76 729.239 849.119 724.241 856.038C724.215 856.409 724.427 856.741 724.879 857.032Z" fill="#CB9D1D"/>
<path d="M827.574 963.587C826.046 964.099 824.451 963.868 822.916 964.229C823.493 965.051 825.131 967.705 825.366 968.829C826.061 972.153 827.341 973.825 828.49 976.995C829.736 980.435 831.088 982.908 834.191 987.657C837.294 992.406 837.279 993.321 839.26 996.546C841.23 999.755 842.769 1003.23 844.586 1006.53C848.558 1013.74 851.311 1021.23 855.037 1028.51C857.808 1033.93 857.874 1034.35 860.252 1039.95C860.59 1040.75 862.572 1045.85 863.278 1045.45C870.558 1041.29 879.824 1037.99 887.088 1033.99L896.379 1028.87C897.438 1028.29 898.111 1027.92 899.974 1027.28C900.004 1026.55 897.052 1021.18 896.74 1020.54C895.264 1017.51 887.096 1004.13 885.566 1001.12C880.697 991.541 880.16 989.953 874.616 981.245C870.872 975.365 867.996 971.085 864.178 964.154L859.207 955.13C858.083 952.38 856.451 950.242 855.873 947.339C855.817 947.058 855.927 946.639 855.581 946.755C852.749 947.706 850.675 950.701 848.224 952.268C843.239 955.457 837.666 958.073 832.499 960.988C830.933 961.871 829.285 963.013 827.574 963.587Z" fill="#FFC728"/>
<path d="M822.841 964.247C824.399 963.861 826.022 964.107 827.574 963.587C829.285 963.013 830.933 961.871 832.499 960.988C837.666 958.073 843.239 955.457 848.224 952.268C850.675 950.701 852.749 947.706 855.581 946.755C855.927 946.639 855.817 947.058 855.873 947.339C856.451 950.242 858.083 952.38 859.207 955.13C862.233 960.623 861.441 959.184 864.178 964.154C867.996 971.085 870.872 975.365 874.616 981.245C880.16 989.953 880.697 991.541 885.566 1001.12C887.096 1004.13 895.264 1017.51 896.74 1020.54C897.052 1021.18 900.004 1026.55 899.974 1027.28C898.111 1027.92 897.438 1028.29 896.379 1028.87C893.282 1030.58 890.185 1032.28 887.088 1033.99C879.824 1037.99 870.558 1041.29 863.278 1045.45C862.572 1045.85 860.59 1040.75 860.252 1039.95C857.874 1034.35 857.808 1033.93 855.037 1028.51C851.311 1021.23 848.558 1013.74 844.586 1006.53C842.769 1003.23 841.23 999.755 839.26 996.546C837.279 993.321 837.294 992.406 834.191 987.657C831.088 982.908 829.736 980.435 828.49 976.995C827.341 973.825 826.061 972.153 825.366 968.829C825.043 967.287 822.08 962.865 822.84 964.244" stroke="#CB9D1D" stroke-linecap="round"/>
<path d="M859.589 1013.9C859.816 1014.31 860.43 1014.46 861.431 1014.35L861.528 1014.52C861.541 1015.38 861.843 1016.43 862.434 1017.67C864.347 1021.14 867.807 1022.26 872.814 1021.04L876.469 1019.6C880.365 1017.45 881.797 1014.06 880.764 1009.41L880.044 1007.81L880.012 1007.75C879.774 1007.32 879.315 1006.73 878.636 1005.98L878.82 1005.88L879.256 1005.75C879.447 1005.65 879.487 1005.27 879.375 1004.61C878.964 1003.87 878.2 1003.8 877.083 1004.42C872.021 1006.54 868.945 1007.9 867.855 1008.51L862.01 1012.11C861.397 1012.45 860.604 1012.6 859.631 1012.58C859.317 1012.75 859.303 1013.19 859.589 1013.9ZM868.746 1010.32L875.753 1007.03C877.194 1006.88 878.174 1007.27 878.693 1008.21L879.114 1008.98C879.698 1010.03 879.782 1011.51 879.367 1013.4C878.744 1015.2 877.587 1016.57 875.898 1017.5L874.815 1018.09C872.091 1019.59 869.352 1020.05 866.6 1019.47C865.305 1018.96 864.441 1018.31 864.009 1017.53L863.393 1016.41C862.702 1015.15 862.846 1014.14 863.824 1013.37L868.746 1010.32Z" fill="#CB9D1D"/>
<path d="M854.628 1007.36C854.791 1007.65 855.145 1007.83 855.691 1007.88L855.949 1007.63C864.722 1005.02 871.347 1002.93 875.826 1001.36C876.099 1000.95 876.122 1000.54 875.895 1000.13C875.517 999.442 874.269 999.593 872.15 1000.58L870.357 1001.15L869.527 999.495C868.965 998.475 868.029 996.984 866.717 995.022C869.364 991.672 870.541 989.733 870.25 989.203L870.217 989.144C869.749 988.584 869.358 988.39 869.045 988.563C867.223 991.638 863.556 995.907 858.044 1001.37C856.47 1003.29 855.248 1004.92 854.376 1006.27C854.35 1006.64 854.434 1007 854.628 1007.36ZM865.75 996.168C866.522 997.15 867.237 998.238 867.896 999.435L868.771 1001.02C868.89 1001.24 868.931 1001.46 868.895 1001.68L857.782 1005.01L857.749 1004.95C857.955 1004.32 859.127 1002.94 861.264 1000.79L865.75 996.168Z" fill="#CB9D1D"/>
<path d="M843.602 988.696C843.872 989.187 844.288 989.328 844.849 989.122L844.8 989.034L845.053 989.009C845.421 989.676 846.299 991.608 847.687 994.806C848.08 995.229 848.426 995.358 848.726 995.193C849.162 994.952 848.712 993.475 847.376 990.759L846.195 988.035L847.094 987.54C847.734 987.187 850.534 986.13 855.495 984.369L857.569 988.135C857.85 988.645 858.22 988.85 858.68 988.75C859.102 988.518 859.06 987.94 858.552 987.018L856.721 983.694L856.802 983.649L860.983 981.231C861.991 980.675 862.808 980.417 863.433 980.456L866.376 986.428C866.777 987.025 867.14 987.234 867.467 987.054C867.903 986.814 867.743 986.007 866.987 984.635C865.178 981.029 864.335 979.193 864.458 979.125C864.069 978.419 863.049 978.341 861.4 978.892L859.766 979.601L855.16 982.215L846.121 985.775L845.488 986.124C843.799 987.054 843.154 987.882 843.554 988.608L843.602 988.696Z" fill="#CB9D1D"/>
<path d="M837.62 977.113C837.955 977.721 838.763 977.673 840.043 976.967C850.966 971.589 856.551 969.126 856.8 969.577L857.111 970.48L859.003 973.77L859.435 974.99C859.597 975.284 859.952 975.459 860.498 975.516C860.935 975.02 860.764 974.066 859.986 972.654L858.244 969.587C858.114 969.352 858.019 968.841 857.96 968.056L857.717 967.615C857.382 967.007 855.573 967.479 852.291 969.031C850.132 969.914 845.212 972.216 837.531 975.935C837.331 976.25 837.361 976.643 837.62 977.113Z" fill="#CB9D1D"/>
<path d="M1081.86 1003.55C1080.71 1005.17 1078.95 1006.11 1077.68 1007.59C1078.86 1007.99 1082.43 1009.44 1083.48 1010.39C1086.6 1013.19 1089.1 1013.92 1092.56 1016.25C1096.31 1018.77 1099.46 1020.24 1106.02 1022.71C1112.58 1025.18 1113.23 1026.11 1117.56 1027.88C1121.86 1029.64 1125.93 1031.98 1130.15 1033.94C1139.37 1038.23 1147.58 1043.69 1156.61 1048.23C1163.33 1051.61 1163.7 1051.98 1170.16 1055.83C1171.08 1056.38 1176.77 1060.02 1177.18 1059.1C1181.41 1049.65 1188.24 1039.6 1192.56 1030.31L1198.09 1018.42C1198.72 1017.07 1199.12 1016.21 1200.51 1014.21C1200.01 1013.47 1193.14 1010.26 1192.36 1009.85C1188.68 1007.91 1170.78 1000.53 1167.06 998.65C1155.21 992.652 1153.52 991.46 1141.64 986.825C1133.62 983.695 1127.63 981.527 1118.76 977.403L1107.22 972.035C1104.1 970.115 1100.91 969.173 1098.21 966.701C1097.95 966.461 1097.76 965.964 1097.5 966.333C1095.37 969.346 1095.48 973.846 1094.19 977.196C1091.54 984.013 1087.9 990.687 1084.87 997.364C1083.96 999.387 1083.14 1001.73 1081.86 1003.55Z" fill="#FFC728"/>
<path d="M1077.62 1007.66C1078.89 1006.14 1080.69 1005.2 1081.86 1003.55C1083.14 1001.73 1083.96 999.387 1084.87 997.364C1087.9 990.687 1091.54 984.013 1094.19 977.196C1095.48 973.846 1095.37 969.346 1097.5 966.333C1097.76 965.964 1097.95 966.461 1098.21 966.701C1100.91 969.173 1104.1 970.115 1107.22 972.035C1114.25 975.303 1112.41 974.447 1118.76 977.403C1127.63 981.527 1133.62 983.695 1141.64 986.825C1153.52 991.46 1155.21 992.652 1167.06 998.65C1170.78 1000.53 1188.68 1007.91 1192.36 1009.85C1193.14 1010.26 1200.01 1013.47 1200.51 1014.21C1199.12 1016.21 1198.72 1017.07 1198.09 1018.42C1196.25 1022.38 1194.4 1026.35 1192.56 1030.31C1188.24 1039.6 1181.41 1049.65 1177.18 1059.1C1176.77 1060.02 1171.08 1056.38 1170.16 1055.83C1163.7 1051.98 1163.33 1051.61 1156.61 1048.23C1147.58 1043.69 1139.37 1038.23 1130.15 1033.94C1125.93 1031.98 1121.86 1029.64 1117.56 1027.88C1113.23 1026.11 1112.58 1025.18 1106.02 1022.71C1099.46 1020.24 1096.31 1018.77 1092.56 1016.25C1089.1 1013.92 1086.6 1013.19 1083.48 1010.39C1082.04 1009.08 1075.85 1006.84 1077.62 1007.66" stroke="#CB9D1D" stroke-linecap="round"/>
<path d="M1150.5 1030.34C1151.02 1030.59 1151.74 1030.29 1152.66 1029.44L1152.88 1029.54C1153.52 1030.39 1154.59 1031.22 1156.08 1032.02C1160.52 1034.08 1164.79 1032.68 1168.89 1027.8L1171.48 1023.7C1173.8 1018.72 1172.75 1014.29 1168.33 1010.41L1166.44 1009.34L1166.37 1009.31C1165.82 1009.05 1164.93 1008.8 1163.7 1008.54L1163.81 1008.31L1164.16 1007.87C1164.27 1007.62 1164.03 1007.21 1163.44 1006.64C1162.49 1006.2 1161.68 1006.69 1161.02 1008.12C1157.52 1013.93 1155.45 1017.54 1154.8 1018.93L1151.6 1026.79C1151.24 1027.57 1150.56 1028.3 1149.57 1028.99C1149.38 1029.39 1149.69 1029.84 1150.5 1030.34ZM1157.01 1020.08L1161.6 1011.7C1162.92 1010.49 1164.18 1010.17 1165.39 1010.73L1166.37 1011.18C1167.72 1011.81 1168.88 1013.22 1169.85 1015.41C1170.54 1017.66 1170.38 1019.86 1169.38 1022.02L1168.73 1023.41C1167.11 1026.89 1164.72 1029.35 1161.55 1030.78C1159.89 1031.21 1158.55 1031.2 1157.55 1030.73L1156.12 1030.06C1154.51 1029.32 1153.92 1028.2 1154.33 1026.72L1157.01 1020.08Z" fill="#CB9D1D"/>
<path d="M1140.77 1027.44C1141.15 1027.61 1141.63 1027.53 1142.22 1027.19L1142.29 1026.74C1149.13 1017.74 1154.21 1010.82 1157.53 1005.99C1157.5 1005.38 1157.23 1004.96 1156.7 1004.71C1155.82 1004.3 1154.69 1005.37 1153.3 1007.9L1151.92 1009.77L1149.89 1008.73C1148.58 1008.12 1146.56 1007.32 1143.82 1006.32C1144.02 1001.05 1143.78 998.256 1143.1 997.941L1143.02 997.906C1142.15 997.69 1141.62 997.782 1141.43 998.182C1141.86 1002.58 1141.32 1009.51 1139.81 1018.98C1139.64 1022.04 1139.61 1024.56 1139.73 1026.54C1139.97 1026.93 1140.32 1027.23 1140.77 1027.44ZM1143.7 1008.17C1145.18 1008.58 1146.69 1009.15 1148.22 1009.86L1150.25 1010.8C1150.53 1010.93 1150.73 1011.12 1150.86 1011.37L1142.2 1022.79L1142.13 1022.76C1141.88 1021.99 1142.03 1019.75 1142.59 1016.05L1143.7 1008.17Z" fill="#CB9D1D"/>
<path d="M1116.16 1016.88C1116.78 1017.17 1117.3 1017.01 1117.71 1016.39L1117.6 1016.34L1117.83 1016.13C1118.68 1016.53 1120.97 1017.82 1124.69 1019.99C1125.39 1020.12 1125.83 1020 1126 1019.62C1126.26 1019.06 1124.74 1017.92 1121.42 1016.18L1118.26 1014.33L1118.79 1013.18C1119.17 1012.36 1121.19 1009.26 1124.85 1003.89L1129.67 1006.13C1130.32 1006.43 1130.84 1006.37 1131.23 1005.93C1131.48 1005.39 1131.01 1004.85 1129.83 1004.3L1125.58 1002.32L1125.63 1002.22L1128.04 996.755C1128.63 995.466 1129.26 994.612 1129.91 994.195L1137.2 998C1138.04 998.304 1138.55 998.247 1138.75 997.829C1139.01 997.271 1138.26 996.584 1136.5 995.767C1132.07 993.493 1129.89 992.277 1129.96 992.12C1129.06 991.7 1127.99 992.367 1126.74 994.12L1125.63 996.018L1122.95 1001.98L1116.54 1012.13L1116.16 1012.94C1115.15 1015.1 1115.11 1016.4 1116.04 1016.83L1116.16 1016.88Z" fill="#CB9D1D"/>
<path d="M1101.75 1009.7C1102.52 1010.06 1103.29 1009.42 1104.06 1007.78C1111.02 994.452 1114.79 987.92 1115.37 988.189L1116.34 988.862L1120.62 990.761L1121.95 991.661C1122.32 991.836 1122.8 991.753 1123.39 991.411C1123.46 990.598 1122.6 989.771 1120.79 988.931L1116.81 987.145C1116.51 987.005 1116.05 986.565 1115.41 985.826L1114.85 985.564C1114.07 985.202 1112.61 986.992 1110.48 990.935C1108.97 993.39 1105.74 999.275 1100.8 1008.59C1100.83 1009.05 1101.15 1009.42 1101.75 1009.7Z" fill="#CB9D1D"/>
<path d="M806.324 806.998C806.225 805.01 805.241 803.279 804.963 801.351C806.169 801.644 809.96 802.331 811.359 802.095C815.495 801.396 817.995 802.115 822.16 802.007C826.679 801.89 830.132 802.33 836.994 803.759C843.855 805.188 844.9 804.758 849.503 805.582C854.082 806.402 858.771 806.606 863.383 807.209C873.469 808.527 883.322 808.318 893.384 809.319C900.868 810.063 901.378 809.95 908.895 810.159C909.965 810.189 916.722 810.17 916.577 811.164C915.081 821.41 915.462 833.556 914.134 843.715L912.435 856.709C912.241 858.191 912.118 859.132 912.22 861.564C911.399 861.925 903.885 860.953 903.008 860.883C898.86 860.55 879.793 857.184 875.641 856.782C862.426 855.5 860.356 855.598 847.842 853.147C839.39 851.492 833.171 850.113 823.477 848.846L810.858 847.196C807.188 847.142 803.993 846.229 800.393 846.874C800.044 846.936 799.612 847.251 799.59 846.8C799.406 843.114 801.916 839.378 802.614 835.853C804.034 828.681 804.532 821.092 805.555 813.834C805.866 811.636 806.435 809.225 806.324 806.998Z" fill="#FFC728"/>
<path d="M804.95 801.257C805.208 803.223 806.223 804.978 806.324 806.998C806.435 809.225 805.866 811.636 805.555 813.834C804.532 821.092 804.034 828.681 802.614 835.853C801.916 839.378 799.406 843.114 799.59 846.8C799.612 847.251 800.044 846.936 800.393 846.874C803.993 846.229 807.188 847.142 810.858 847.196C818.539 848.2 816.527 847.937 823.477 848.846C833.171 850.113 839.39 851.492 847.842 853.147C860.356 855.598 862.426 855.5 875.641 856.782C879.793 857.184 898.86 860.55 903.008 860.883C903.885 860.953 911.399 861.925 912.22 861.564C912.118 859.132 912.241 858.191 912.435 856.709C913.001 852.378 913.567 848.046 914.134 843.715C915.462 833.556 915.081 821.41 916.577 811.164C916.722 810.17 909.965 810.189 908.895 810.159C901.378 809.95 900.868 810.063 893.384 809.319C883.322 808.318 873.469 808.527 863.383 807.209C858.771 806.606 854.082 806.402 849.503 805.582C844.9 804.758 843.855 805.188 836.994 803.759C830.132 802.33 826.679 801.89 822.16 802.007C817.995 802.115 815.495 801.396 811.359 802.095C809.44 802.419 803.017 801.004 804.947 801.257" stroke="#CB9D1D" stroke-linecap="round"/>
<path d="M878.639 821.152C879.215 821.227 879.662 821.867 879.979 823.071L880.225 823.103C881.223 822.73 882.564 822.605 884.25 822.728C889.105 823.363 891.957 826.836 892.806 833.148L892.799 838.001C892.087 843.449 888.826 846.627 883.016 847.534L880.854 847.426L880.772 847.415C880.168 847.336 879.282 847.075 878.112 846.631L878.078 846.888L878.131 847.448C878.096 847.714 877.677 847.931 876.874 848.097C875.832 847.961 875.413 847.112 875.617 845.549C875.778 838.769 875.958 834.617 876.157 833.093L877.667 824.745C877.779 823.888 877.601 822.905 877.132 821.797C877.189 821.359 877.692 821.144 878.639 821.152ZM878.641 833.301L878.022 842.841C878.493 844.569 879.387 845.519 880.704 845.691L881.774 845.831C883.255 846.025 884.989 845.457 886.976 844.128C888.767 842.599 889.816 840.653 890.125 838.29L890.323 836.776C890.821 832.966 890.116 829.608 888.208 826.704C887.033 825.446 885.897 824.745 884.8 824.602L883.237 824.398C881.481 824.168 880.382 824.79 879.938 826.263L878.641 833.301Z" fill="#CB9D1D"/>
<path d="M868.873 818.393C869.285 818.447 869.646 818.775 869.958 819.378L869.779 819.791C870.733 831.057 871.315 839.62 871.526 845.48C871.182 845.978 870.722 846.189 870.146 846.114C869.185 845.988 868.796 844.484 868.978 841.601L868.82 839.285L866.546 839.074C865.12 838.888 862.983 838.483 860.135 837.858C857.475 842.413 855.775 844.642 855.034 844.545L854.952 844.534C854.096 844.248 853.697 843.886 853.755 843.448C856.47 839.966 859.728 833.823 863.529 825.019C865.022 822.347 866.349 820.204 867.508 818.593C867.924 818.395 868.379 818.329 868.873 818.393ZM861.017 836.23C862.494 836.675 864.068 837.007 865.742 837.225L867.964 837.516C868.265 837.555 868.537 837.504 868.779 837.361L867.591 823.08L867.509 823.069C866.883 823.588 865.816 825.56 864.308 828.987L861.017 836.23Z" fill="#CB9D1D"/>
<path d="M842.433 814.125C843.119 814.215 843.469 814.629 843.484 815.367L843.361 815.351L843.447 815.653C844.379 815.775 846.998 815.914 851.302 816.07C851.965 816.331 852.269 816.671 852.215 817.09C852.135 817.7 850.232 817.848 846.507 817.535L842.841 817.405L842.677 818.662C842.56 819.558 842.606 823.255 842.817 829.755L848.084 830.443C848.797 830.536 849.199 830.87 849.292 831.444C849.215 832.035 848.531 832.246 847.242 832.077L842.593 831.469L842.578 831.584L841.681 837.483C841.497 838.893 841.568 839.948 841.895 840.65L850.09 841.343C850.958 841.534 851.362 841.858 851.302 842.316C851.222 842.925 850.223 843.105 848.302 842.854C843.34 842.399 840.848 842.257 840.825 842.428C839.838 842.299 839.289 841.162 839.179 839.016L839.257 836.817L840.187 830.341L840.208 818.34L840.324 817.454C840.633 815.091 841.295 813.976 842.309 814.109L842.433 814.125Z" fill="#CB9D1D"/>
<path d="M826.407 812.465C827.258 812.576 827.566 813.527 827.332 815.318C826.07 830.306 825.754 837.841 826.385 837.924L827.564 837.874L832.202 838.568L833.799 838.515C834.21 838.569 834.572 838.897 834.884 839.5C834.51 840.226 833.335 840.46 831.36 840.202L827.048 839.58C826.718 839.537 826.089 839.658 825.159 839.943L824.542 839.862C823.691 839.751 823.419 837.458 823.725 832.983C823.767 830.102 824.196 823.405 825.012 812.893C825.284 812.522 825.749 812.379 826.407 812.465Z" fill="#CB9D1D"/>
<path d="M1007.05 1056.82C1005.16 1057.46 1003.19 1057.17 1001.29 1057.62C1002.01 1058.63 1004.03 1061.91 1004.32 1063.3C1005.18 1067.41 1006.76 1069.47 1008.18 1073.39C1009.72 1077.64 1011.39 1080.69 1015.22 1086.56C1019.06 1092.43 1019.04 1093.56 1021.49 1097.54C1023.92 1101.51 1025.82 1105.8 1028.07 1109.87C1032.97 1118.78 1036.37 1128.03 1040.98 1137.03C1044.4 1143.73 1044.48 1144.25 1047.42 1151.17C1047.84 1152.15 1050.29 1158.45 1051.16 1157.95C1060.15 1152.82 1071.6 1148.75 1080.57 1143.8L1092.05 1137.48C1093.36 1136.76 1094.19 1136.3 1096.49 1135.51C1096.53 1134.61 1092.88 1127.97 1092.5 1127.18C1090.67 1123.44 1080.58 1106.91 1078.69 1103.2C1072.68 1091.36 1072.01 1089.4 1065.17 1078.64C1060.54 1071.37 1056.99 1066.09 1052.27 1057.52L1046.13 1046.38C1044.74 1042.98 1042.72 1040.34 1042.01 1036.75C1041.94 1036.4 1042.08 1035.89 1041.65 1036.03C1038.15 1037.2 1035.59 1040.9 1032.56 1042.84C1026.4 1046.78 1019.52 1050.01 1013.13 1053.61C1011.2 1054.7 1009.16 1056.11 1007.05 1056.82Z" fill="#FFC728"/>
<path d="M1001.2 1057.64C1003.13 1057.16 1005.13 1057.47 1007.05 1056.82C1009.16 1056.11 1011.2 1054.7 1013.13 1053.61C1019.52 1050.01 1026.4 1046.78 1032.56 1042.84C1035.59 1040.9 1038.15 1037.2 1041.65 1036.03C1042.08 1035.89 1041.94 1036.4 1042.01 1036.75C1042.72 1040.34 1044.74 1042.98 1046.13 1046.38C1049.87 1053.16 1048.89 1051.38 1052.27 1057.52C1056.99 1066.09 1060.54 1071.37 1065.17 1078.64C1072.01 1089.4 1072.68 1091.36 1078.69 1103.2C1080.58 1106.91 1090.67 1123.44 1092.5 1127.18C1092.88 1127.97 1096.53 1134.61 1096.49 1135.51C1094.19 1136.3 1093.36 1136.76 1092.05 1137.48C1088.23 1139.59 1084.4 1141.69 1080.57 1143.8C1071.6 1148.75 1060.15 1152.82 1051.16 1157.95C1050.29 1158.45 1047.84 1152.15 1047.42 1151.17C1044.48 1144.25 1044.4 1143.73 1040.98 1137.03C1036.37 1128.03 1032.97 1118.78 1028.07 1109.87C1025.82 1105.8 1023.92 1101.51 1021.49 1097.54C1019.04 1093.56 1019.06 1092.43 1015.22 1086.56C1011.39 1080.69 1009.72 1077.64 1008.18 1073.39C1006.76 1069.47 1005.18 1067.41 1004.32 1063.3C1003.92 1061.4 1000.26 1055.93 1001.2 1057.64" stroke="#CB9D1D" stroke-linecap="round"/>
<path d="M1046.61 1118.98C1046.89 1119.49 1047.64 1119.67 1048.88 1119.53L1049 1119.75C1049.02 1120.81 1049.39 1122.11 1050.12 1123.63C1052.48 1127.92 1056.76 1129.31 1062.94 1127.8L1067.46 1126.02C1072.27 1123.37 1074.04 1119.17 1072.77 1113.43L1071.88 1111.46L1071.84 1111.39C1071.54 1110.85 1070.98 1110.12 1070.14 1109.2L1070.36 1109.07L1070.9 1108.92C1071.14 1108.79 1071.19 1108.32 1071.05 1107.51C1070.54 1106.59 1069.6 1106.51 1068.22 1107.27C1061.96 1109.89 1058.16 1111.57 1056.82 1112.32L1049.6 1116.77C1048.84 1117.18 1047.86 1117.38 1046.66 1117.34C1046.27 1117.56 1046.25 1118.1 1046.61 1118.98ZM1057.92 1114.55L1066.57 1110.49C1068.36 1110.3 1069.57 1110.79 1070.21 1111.95L1070.73 1112.9C1071.45 1114.21 1071.55 1116.03 1071.04 1118.36C1070.27 1120.59 1068.84 1122.27 1066.75 1123.42L1065.42 1124.16C1062.05 1126.01 1058.67 1126.58 1055.27 1125.87C1053.67 1125.23 1052.6 1124.43 1052.07 1123.46L1051.31 1122.08C1050.45 1120.53 1050.63 1119.28 1051.84 1118.33L1057.92 1114.55Z" fill="#CB9D1D"/>
<path d="M1040.48 1110.9C1040.68 1111.26 1041.12 1111.48 1041.8 1111.55L1042.11 1111.23C1052.95 1108.01 1061.14 1105.43 1066.67 1103.48C1067.01 1102.98 1067.04 1102.48 1066.76 1101.97C1066.29 1101.12 1064.75 1101.31 1062.13 1102.53L1059.91 1103.23L1058.89 1101.19C1058.19 1099.93 1057.04 1098.08 1055.42 1095.66C1058.69 1091.52 1060.14 1089.13 1059.78 1088.47L1059.74 1088.4C1059.16 1087.71 1058.68 1087.47 1058.29 1087.68C1056.04 1091.48 1051.51 1096.75 1044.7 1103.51C1042.76 1105.87 1041.25 1107.89 1040.17 1109.56C1040.14 1110.02 1040.24 1110.46 1040.48 1110.9ZM1054.22 1097.08C1055.18 1098.29 1056.06 1099.63 1056.87 1101.11L1057.95 1103.07C1058.1 1103.34 1058.15 1103.61 1058.11 1103.89L1044.38 1108L1044.34 1107.92C1044.59 1107.15 1046.04 1105.44 1048.68 1102.78L1054.22 1097.08Z" fill="#CB9D1D"/>
<path d="M1026.86 1087.84C1027.19 1088.45 1027.7 1088.63 1028.39 1088.37L1028.33 1088.26L1028.65 1088.23C1029.1 1089.05 1030.19 1091.44 1031.9 1095.39C1032.39 1095.91 1032.81 1096.07 1033.18 1095.87C1033.72 1095.57 1033.17 1093.75 1031.52 1090.39L1030.06 1087.03L1031.17 1086.42C1031.96 1085.98 1035.42 1084.67 1041.55 1082.5L1044.11 1087.15C1044.46 1087.78 1044.91 1088.03 1045.48 1087.91C1046 1087.62 1045.95 1086.91 1045.32 1085.77L1043.06 1081.66L1043.16 1081.61L1048.33 1078.62C1049.57 1077.94 1050.58 1077.62 1051.35 1077.66L1054.99 1085.04C1055.48 1085.78 1055.93 1086.04 1056.34 1085.82C1056.88 1085.52 1056.68 1084.52 1055.74 1082.83C1053.51 1078.37 1052.47 1076.1 1052.62 1076.02C1052.14 1075.15 1050.88 1075.05 1048.84 1075.73L1046.82 1076.61L1041.13 1079.84L1029.97 1084.24L1029.18 1084.67C1027.1 1085.82 1026.3 1086.84 1026.8 1087.74L1026.86 1087.84Z" fill="#CB9D1D"/>
<path d="M1019.47 1073.53C1019.88 1074.29 1020.88 1074.23 1022.46 1073.35C1035.96 1066.71 1042.86 1063.67 1043.17 1064.22L1043.55 1065.34L1045.89 1069.4L1046.42 1070.91C1046.62 1071.27 1047.06 1071.49 1047.73 1071.56C1048.27 1070.95 1048.06 1069.77 1047.1 1068.02L1044.95 1064.24C1044.79 1063.95 1044.67 1063.32 1044.6 1062.34L1044.3 1061.8C1043.88 1061.05 1041.65 1061.63 1037.6 1063.55C1034.93 1064.64 1028.85 1067.48 1019.36 1072.08C1019.11 1072.47 1019.15 1072.95 1019.47 1073.53Z" fill="#CB9D1D"/>
<path d="M868.765 1093.34C867.616 1091.71 865.858 1090.78 864.59 1089.3C865.766 1088.9 869.335 1087.45 870.389 1086.5C873.508 1083.69 876.004 1082.96 879.462 1080.64C883.215 1078.12 886.367 1076.64 892.926 1074.17C899.485 1071.7 900.137 1070.78 904.466 1069.01C908.771 1067.25 912.839 1064.91 917.056 1062.95C926.279 1058.66 934.487 1053.2 943.519 1048.65C950.237 1045.27 950.607 1044.9 957.066 1041.05C957.985 1040.51 963.681 1036.87 964.09 1037.79C968.317 1047.24 975.146 1057.29 979.467 1066.58L984.995 1078.46C985.625 1079.82 986.026 1080.68 987.414 1082.68C986.915 1083.42 980.05 1086.63 979.271 1087.04C975.591 1088.98 957.687 1096.35 953.967 1098.24C942.121 1104.23 940.427 1105.43 928.546 1110.06C920.523 1113.19 914.533 1115.36 905.669 1119.48L894.13 1124.85C891.002 1126.77 887.815 1127.71 885.121 1130.19C884.86 1130.43 884.664 1130.92 884.403 1130.55C882.273 1127.54 882.392 1123.04 881.092 1119.69C878.449 1112.87 874.803 1106.2 871.779 1099.52C870.863 1097.5 870.052 1095.16 868.765 1093.34Z" fill="#FFC728"/>
<path d="M864.529 1089.23C865.8 1090.75 867.598 1091.69 868.765 1093.34C870.052 1095.16 870.863 1097.5 871.779 1099.52C874.803 1106.2 878.449 1112.87 881.092 1119.69C882.392 1123.04 882.273 1127.54 884.403 1130.55C884.664 1130.92 884.86 1130.43 885.121 1130.19C887.815 1127.71 891.002 1126.77 894.13 1124.85C901.154 1121.58 899.314 1122.44 905.669 1119.48C914.533 1115.36 920.523 1113.19 928.546 1110.06C940.427 1105.43 942.121 1104.23 953.967 1098.24C957.687 1096.35 975.591 1088.98 979.271 1087.04C980.05 1086.63 986.915 1083.42 987.414 1082.68C986.026 1080.68 985.625 1079.82 984.995 1078.46C983.153 1074.5 981.31 1070.54 979.467 1066.58C975.146 1057.29 968.317 1047.24 964.09 1037.79C963.681 1036.87 957.985 1040.51 957.066 1041.05C950.607 1044.9 950.237 1045.27 943.519 1048.65C934.487 1053.2 926.279 1058.66 917.056 1062.95C912.839 1064.91 908.771 1067.25 904.466 1069.01C900.137 1070.78 899.485 1071.7 892.926 1074.17C886.367 1076.64 883.215 1078.12 879.462 1080.64C876.004 1082.96 873.508 1083.69 870.389 1086.5C868.943 1087.8 862.761 1090.05 864.526 1089.23" stroke="#CB9D1D" stroke-linecap="round"/>
<path d="M937.407 1066.54C937.934 1066.3 938.654 1066.6 939.566 1067.45L939.792 1067.34C940.434 1066.49 941.5 1065.67 942.989 1064.87C947.429 1062.8 951.698 1064.21 955.796 1069.08L958.391 1073.18C960.708 1078.17 959.657 1082.6 955.237 1086.48L953.354 1087.54L953.279 1087.58C952.727 1087.83 951.838 1088.09 950.613 1088.34L950.723 1088.58L951.066 1089.02C951.18 1089.26 950.942 1089.67 950.353 1090.24C949.4 1090.68 948.591 1090.19 947.927 1088.76C944.43 1082.95 942.358 1079.35 941.709 1077.96L938.512 1070.1C938.147 1069.31 937.47 1068.58 936.48 1067.9C936.294 1067.5 936.603 1067.04 937.407 1066.54ZM943.918 1076.8L948.506 1085.19C949.83 1086.39 951.094 1086.72 952.298 1086.16L953.276 1085.7C954.631 1085.07 955.791 1083.66 956.757 1081.48C957.449 1079.23 957.293 1077.02 956.288 1074.86L955.643 1073.48C954.023 1069.99 951.629 1067.54 948.462 1066.11C946.796 1065.67 945.461 1065.69 944.458 1066.16L943.028 1066.82C941.423 1067.57 940.828 1068.68 941.242 1070.16L943.918 1076.8Z" fill="#CB9D1D"/>
<path d="M927.684 1069.45C928.06 1069.27 928.542 1069.36 929.128 1069.7L929.197 1070.14C936.039 1079.14 941.119 1086.06 944.436 1090.9C944.412 1091.5 944.137 1091.93 943.61 1092.17C942.732 1092.58 941.598 1091.52 940.207 1088.99L938.832 1087.12L936.799 1088.16C935.495 1088.76 933.474 1089.57 930.735 1090.56C930.929 1095.84 930.687 1098.63 930.01 1098.94L929.935 1098.98C929.059 1099.2 928.528 1099.1 928.342 1098.7C928.769 1094.31 928.229 1087.38 926.722 1077.9C926.551 1074.85 926.523 1072.33 926.638 1070.35C926.884 1069.96 927.233 1069.66 927.684 1069.45ZM930.607 1088.72C932.092 1088.3 933.599 1087.74 935.13 1087.03L937.161 1086.08C937.437 1085.95 937.639 1085.76 937.767 1085.51L929.112 1074.09L929.037 1074.13C928.787 1074.9 928.943 1077.14 929.505 1080.84L930.607 1088.72Z" fill="#CB9D1D"/>
<path d="M903.066 1080C903.694 1079.71 904.211 1079.88 904.619 1080.49L904.507 1080.54L904.741 1080.75C905.594 1080.35 907.879 1079.07 911.597 1076.89C912.297 1076.76 912.736 1076.88 912.914 1077.27C913.173 1077.82 911.647 1078.97 908.333 1080.7L905.168 1082.56L905.703 1083.71C906.084 1084.52 908.104 1087.62 911.764 1093L916.58 1090.76C917.232 1090.45 917.751 1090.52 918.137 1090.95C918.388 1091.49 917.924 1092.04 916.745 1092.59L912.494 1094.56L912.542 1094.67L914.946 1100.13C915.545 1101.42 916.171 1102.27 916.823 1102.69L924.114 1098.88C924.95 1098.58 925.464 1098.64 925.659 1099.06C925.918 1099.61 925.17 1100.3 923.414 1101.12C918.98 1103.39 916.8 1104.61 916.873 1104.76C915.97 1105.18 914.897 1104.52 913.654 1102.77L912.542 1100.87L909.858 1094.9L903.446 1084.76L903.069 1083.95C902.064 1081.79 902.026 1080.49 902.954 1080.06L903.066 1080Z" fill="#CB9D1D"/>
<path d="M888.658 1087.19C889.436 1086.83 890.205 1087.46 890.967 1089.1C897.932 1102.43 901.702 1108.96 902.279 1108.7L903.247 1108.02L907.535 1106.12L908.856 1105.22C909.232 1105.05 909.713 1105.13 910.299 1105.47C910.373 1106.29 909.506 1107.11 907.7 1107.95L903.726 1109.74C903.425 1109.88 902.958 1110.32 902.325 1111.06L901.761 1111.32C900.984 1111.68 899.525 1109.89 897.386 1105.95C895.878 1103.49 892.652 1097.61 887.709 1088.3C887.74 1087.84 888.056 1087.47 888.658 1087.19Z" fill="#CB9D1D"/>
<path d="M720.179 1056.36C720.08 1054.37 719.095 1052.64 718.818 1050.71C720.024 1051 723.815 1051.69 725.214 1051.45C729.35 1050.76 731.85 1051.47 736.015 1051.37C740.534 1051.25 743.987 1051.69 750.848 1053.12C757.71 1054.55 758.755 1054.12 763.358 1054.94C767.937 1055.76 772.626 1055.97 777.238 1056.57C787.324 1057.89 797.177 1057.68 807.239 1058.68C814.723 1059.42 815.233 1059.31 822.75 1059.52C823.82 1059.55 830.577 1059.53 830.432 1060.52C828.936 1070.77 829.317 1082.92 827.989 1093.07L826.29 1106.07C826.096 1107.55 825.973 1108.49 826.075 1110.92C825.254 1111.28 817.74 1110.31 816.863 1110.24C812.715 1109.91 793.648 1106.54 789.496 1106.14C776.281 1104.86 774.211 1104.96 761.697 1102.51C753.245 1100.85 747.026 1099.47 737.332 1098.21L724.713 1096.56C721.043 1096.5 717.848 1095.59 714.248 1096.23C713.899 1096.3 713.467 1096.61 713.445 1096.16C713.261 1092.47 715.771 1088.74 716.469 1085.21C717.889 1078.04 718.387 1070.45 719.41 1063.19C719.721 1061 720.29 1058.58 720.179 1056.36Z" fill="#FFC728"/>
<path d="M718.805 1050.62C719.063 1052.58 720.078 1054.34 720.179 1056.36C720.29 1058.58 719.721 1061 719.41 1063.19C718.387 1070.45 717.889 1078.04 716.469 1085.21C715.771 1088.74 713.261 1092.47 713.445 1096.16C713.467 1096.61 713.899 1096.3 714.248 1096.23C717.848 1095.59 721.043 1096.5 724.713 1096.56C732.394 1097.56 730.382 1097.3 737.332 1098.21C747.026 1099.47 753.245 1100.85 761.697 1102.51C774.211 1104.96 776.281 1104.86 789.496 1106.14C793.648 1106.54 812.715 1109.91 816.863 1110.24C817.74 1110.31 825.254 1111.28 826.075 1110.92C825.973 1108.49 826.096 1107.55 826.29 1106.07C826.856 1101.74 827.422 1097.41 827.989 1093.07C829.317 1082.92 828.936 1070.77 830.432 1060.52C830.577 1059.53 823.82 1059.55 822.75 1059.52C815.233 1059.31 814.723 1059.42 807.239 1058.68C797.177 1057.68 787.324 1057.89 777.238 1056.57C772.626 1055.97 767.937 1055.76 763.358 1054.94C758.755 1054.12 757.71 1054.55 750.848 1053.12C743.987 1051.69 740.534 1051.25 736.015 1051.37C731.85 1051.47 729.35 1050.76 725.214 1051.45C723.295 1051.78 716.872 1050.36 718.802 1050.62" stroke="#CB9D1D" stroke-linecap="round"/>
<path d="M792.493 1070.51C793.069 1070.59 793.516 1071.23 793.833 1072.43L794.079 1072.46C795.077 1072.09 796.418 1071.96 798.104 1072.09C802.959 1072.72 805.811 1076.2 806.66 1082.51L806.653 1087.36C805.941 1092.81 802.68 1095.99 796.87 1096.89L794.708 1096.79L794.626 1096.77C794.022 1096.7 793.136 1096.43 791.966 1095.99L791.932 1096.25L791.985 1096.81C791.95 1097.07 791.531 1097.29 790.728 1097.46C789.686 1097.32 789.267 1096.47 789.471 1094.91C789.632 1088.13 789.812 1083.98 790.011 1082.45L791.521 1074.1C791.633 1073.25 791.455 1072.26 790.986 1071.16C791.043 1070.72 791.546 1070.5 792.493 1070.51ZM792.495 1082.66L791.876 1092.2C792.347 1093.93 793.241 1094.88 794.558 1095.05L795.628 1095.19C797.109 1095.38 798.843 1094.82 800.83 1093.49C802.621 1091.96 803.67 1090.01 803.979 1087.65L804.177 1086.14C804.675 1082.32 803.97 1078.97 802.062 1076.06C800.887 1074.81 799.751 1074.1 798.654 1073.96L797.091 1073.76C795.335 1073.53 794.236 1074.15 793.792 1075.62L792.495 1082.66Z" fill="#CB9D1D"/>
<path d="M782.727 1067.75C783.139 1067.81 783.501 1068.13 783.812 1068.74L783.633 1069.15C784.587 1080.42 785.17 1088.98 785.38 1094.84C785.036 1095.34 784.576 1095.55 784 1095.47C783.04 1095.35 782.65 1093.84 782.832 1090.96L782.675 1088.64L780.4 1088.43C778.974 1088.25 776.837 1087.84 773.989 1087.22C771.329 1091.77 769.629 1094 768.888 1093.9L768.806 1093.89C767.951 1093.61 767.552 1093.25 767.609 1092.81C770.324 1089.33 773.582 1083.18 777.383 1074.38C778.877 1071.71 780.203 1069.56 781.362 1067.95C781.779 1067.75 782.234 1067.69 782.727 1067.75ZM774.872 1085.59C776.348 1086.03 777.923 1086.37 779.596 1086.58L781.818 1086.88C782.12 1086.91 782.391 1086.86 782.633 1086.72L781.445 1072.44L781.363 1072.43C780.737 1072.95 779.67 1074.92 778.162 1078.35L774.872 1085.59Z" fill="#CB9D1D"/>
<path d="M756.287 1063.48C756.973 1063.57 757.323 1063.99 757.338 1064.73L757.215 1064.71L757.301 1065.01C758.234 1065.13 760.852 1065.27 765.156 1065.43C765.819 1065.69 766.124 1066.03 766.069 1066.45C765.989 1067.06 764.087 1067.21 760.361 1066.89L756.695 1066.76L756.531 1068.02C756.414 1068.92 756.461 1072.61 756.671 1079.11L761.938 1079.8C762.651 1079.9 763.054 1080.23 763.146 1080.8C763.069 1081.39 762.386 1081.6 761.096 1081.44L756.447 1080.83L756.432 1080.94L755.535 1086.84C755.351 1088.25 755.422 1089.31 755.749 1090.01L763.944 1090.7C764.812 1090.89 765.216 1091.22 765.156 1091.68C765.077 1092.28 764.077 1092.46 762.157 1092.21C757.194 1091.76 754.702 1091.62 754.679 1091.79C753.692 1091.66 753.143 1090.52 753.033 1088.38L753.111 1086.18L754.042 1079.7L754.062 1067.7L754.178 1066.81C754.487 1064.45 755.149 1063.34 756.164 1063.47L756.287 1063.48Z" fill="#CB9D1D"/>
<path d="M740.262 1061.82C741.112 1061.94 741.42 1062.89 741.186 1064.68C739.924 1079.67 739.609 1087.2 740.24 1087.28L741.418 1087.23L746.056 1087.93L747.653 1087.87C748.065 1087.93 748.426 1088.26 748.738 1088.86C748.364 1089.59 747.19 1089.82 745.215 1089.56L740.902 1088.94C740.573 1088.9 739.943 1089.02 739.013 1089.3L738.396 1089.22C737.545 1089.11 737.273 1086.82 737.579 1082.34C737.621 1079.46 738.05 1072.76 738.867 1062.25C739.138 1061.88 739.603 1061.74 740.262 1061.82Z" fill="#CB9D1D"/>
<path d="M728.979 1023.36C727.092 1022.72 725.121 1023.01 723.224 1022.56C723.937 1021.55 725.96 1018.27 726.25 1016.88C727.109 1012.77 728.691 1010.71 730.11 1006.79C731.65 1002.54 733.32 999.486 737.154 993.619C740.988 987.752 740.969 986.622 743.416 982.637C745.85 978.673 747.751 974.383 749.995 970.309C754.903 961.399 758.303 952.149 762.907 943.146C766.331 936.45 766.411 935.933 769.349 929.011C769.767 928.026 772.215 921.728 773.087 922.226C782.081 927.357 793.529 931.435 802.502 936.378L813.981 942.701C815.29 943.422 816.121 943.88 818.422 944.673C818.459 945.568 814.812 952.21 814.427 953.001C812.604 956.741 802.512 973.266 800.623 976.984C794.607 988.821 793.944 990.783 787.095 1001.54C782.47 1008.81 778.917 1014.09 774.2 1022.66L768.059 1033.8C766.67 1037.2 764.654 1039.84 763.94 1043.43C763.871 1043.78 764.007 1044.29 763.579 1044.15C760.08 1042.98 757.517 1039.28 754.49 1037.34C748.331 1033.4 741.447 1030.17 735.063 1026.57C733.129 1025.48 731.092 1024.07 728.979 1023.36Z" fill="#FFC728"/>
<path d="M723.132 1022.54C725.056 1023.02 727.061 1022.71 728.979 1023.36C731.092 1024.07 733.129 1025.48 735.063 1026.57C741.447 1030.17 748.331 1033.4 754.49 1037.34C757.517 1039.28 760.08 1042.98 763.579 1044.15C764.007 1044.29 763.871 1043.78 763.94 1043.43C764.654 1039.84 766.67 1037.2 768.059 1033.8C771.797 1027.02 770.818 1028.79 774.2 1022.66C778.917 1014.09 782.47 1008.81 787.095 1001.54C793.944 990.783 794.607 988.821 800.623 976.984C802.512 973.266 812.604 956.741 814.427 953.001C814.812 952.21 818.459 945.568 818.422 944.673C816.121 943.88 815.29 943.422 813.981 942.701C810.155 940.593 806.329 938.486 802.502 936.378C793.529 931.435 782.081 927.357 773.087 922.226C772.215 921.728 769.767 928.026 769.349 929.011C766.411 935.933 766.331 936.45 762.907 943.146C758.303 952.149 754.903 961.399 749.995 970.309C747.751 974.383 745.85 978.673 743.416 982.637C740.969 986.622 740.988 987.752 737.154 993.619C733.32 999.486 731.65 1002.54 730.11 1006.79C728.691 1010.71 727.109 1012.77 726.25 1016.88C725.852 1018.78 722.191 1024.25 723.13 1022.54" stroke="#CB9D1D" stroke-linecap="round"/>
<path d="M768.53 961.198C768.81 960.689 769.569 960.507 770.806 960.651L770.926 960.433C770.942 959.368 771.315 958.073 772.045 956.549C774.408 952.26 778.682 950.872 784.868 952.385L789.384 954.162C794.197 956.814 795.966 961.009 794.69 966.75L793.801 968.723L793.761 968.796C793.467 969.329 792.9 970.059 792.061 970.986L792.288 971.111L792.827 971.266C793.063 971.396 793.112 971.865 792.974 972.673C792.466 973.594 791.523 973.674 790.143 972.914C783.889 970.29 780.089 968.607 778.742 967.866L771.521 963.414C770.764 962.997 769.784 962.804 768.581 962.837C768.194 962.624 768.177 962.077 768.53 961.198ZM779.843 965.629L788.499 969.687C790.28 969.879 791.49 969.393 792.131 968.23L792.652 967.285C793.372 965.976 793.477 964.155 792.964 961.819C792.194 959.595 790.765 957.907 788.678 956.758L787.34 956.021C783.975 954.167 780.592 953.598 777.192 954.315C775.592 954.95 774.525 955.751 773.991 956.721L773.23 958.102C772.376 959.653 772.553 960.903 773.763 961.854L779.843 965.629Z" fill="#CB9D1D"/>
<path d="M762.407 969.283C762.607 968.919 763.045 968.702 763.72 968.632L764.038 968.949C774.876 972.172 783.061 974.754 788.594 976.697C788.932 977.199 788.961 977.704 788.68 978.213C788.213 979.061 786.671 978.875 784.053 977.654L781.838 976.955L780.813 978.996C780.119 980.255 778.962 982.097 777.341 984.521C780.611 988.66 782.066 991.056 781.706 991.71L781.666 991.783C781.087 992.475 780.604 992.714 780.217 992.501C777.966 988.703 773.436 983.428 766.626 976.676C764.683 974.31 763.172 972.294 762.094 970.626C762.062 970.167 762.167 969.719 762.407 969.283ZM776.147 983.105C777.1 981.893 777.983 980.548 778.798 979.07L779.879 977.107C780.026 976.841 780.077 976.569 780.032 976.291L766.302 972.186L766.262 972.259C766.517 973.031 767.964 974.744 770.604 977.399L776.147 983.105Z" fill="#CB9D1D"/>
<path d="M748.78 992.337C749.113 991.731 749.627 991.556 750.32 991.812L750.259 991.921L750.572 991.951C751.026 991.127 752.11 988.74 753.826 984.789C754.311 984.267 754.739 984.108 755.109 984.312C755.648 984.608 755.092 986.434 753.441 989.789L751.982 993.154L753.093 993.766C753.884 994.201 757.343 995.507 763.471 997.683L766.034 993.03C766.381 992.4 766.839 992.147 767.407 992.271C767.929 992.558 767.876 993.271 767.248 994.41L764.986 998.517L765.087 998.573L770.252 1001.56C771.498 1002.25 772.506 1002.57 773.279 1002.52L776.915 995.14C777.41 994.401 777.859 994.144 778.263 994.366C778.801 994.663 778.603 995.659 777.669 997.355C775.434 1001.81 774.393 1004.08 774.544 1004.16C774.064 1005.03 772.805 1005.13 770.767 1004.45L768.748 1003.57L763.058 1000.34L751.891 995.946L751.109 995.515C749.022 994.366 748.226 993.343 748.72 992.446L748.78 992.337Z" fill="#CB9D1D"/>
<path d="M741.395 1006.65C741.809 1005.9 742.807 1005.96 744.389 1006.83C757.883 1013.47 764.783 1016.52 765.09 1015.96L765.474 1014.84L767.812 1010.78L768.346 1009.27C768.546 1008.91 768.984 1008.69 769.659 1008.62C770.198 1009.23 769.988 1010.41 769.027 1012.16L766.874 1015.95C766.714 1016.24 766.597 1016.87 766.523 1017.84L766.223 1018.38C765.809 1019.13 763.575 1018.55 759.52 1016.63C756.852 1015.54 750.774 1012.7 741.285 1008.1C741.038 1007.71 741.075 1007.23 741.395 1006.65Z" fill="#CB9D1D"/>
<path d="M1107.32 912.087C1108.94 910.461 1100.86 900.74 1100.34 899.997C1092.05 888.053 1083.79 877.206 1072.13 868.343C1058.36 857.88 1044.12 845.415 1028.63 837.662C993.398 820.018 952.958 833.355 919.254 848.173C905.925 854.033 887.1 861.515 881.642 876.728C875.119 894.907 889.729 921.578 904.33 932.014C918.057 941.826 943.069 933.996 957.716 930.982C972.878 927.862 994.594 923.515 996.299 904.553C997.882 886.956 982.638 869.908 970.334 859.352C941.859 834.919 904.712 834.172 875.09 857.408C859.667 869.505 853.754 884.499 862.471 902.548C872.066 922.415 891.884 931.363 913.309 930.921C929.405 930.588 954.639 924.709 962.691 908.442C968.186 897.34 956.354 886.828 949.102 880.98C929.258 864.981 904.718 855.314 879.943 850.117C838.735 841.472 792.716 843.38 755.397 864.455C728.415 879.693 719.877 905.561 720.453 935.417C721.655 997.719 787.284 1022.12 839.843 1027.28C855.775 1028.84 879.794 1031.01 889.164 1014.15C899.063 996.345 886.928 977.192 871.207 968.224C852.349 957.467 819.005 951.201 801.26 967.556C791.998 976.092 790.12 991.294 790.401 1003.1C790.822 1020.82 796.268 1037.13 807.872 1050.67C832.195 1079.05 872.838 1090.48 908.577 1094.35C956.227 1099.52 1002.73 1083.79 1038.28 1051.46C1057.73 1033.77 1069.75 1010.96 1057.33 985.661C1043.88 958.283 1009.57 942.176 984.045 928.977C951.674 912.238 916.613 899.52 879.579 900.422C845.928 901.242 820.997 923.75 804.475 951.577C797.031 964.115 800.228 974.26 813.757 980.193C844.79 993.802 881.431 988.016 911.732 975.758C935.006 966.342 959.36 952.629 971.912 929.827C975.15 923.945 976.678 917.607 973.004 912.087" stroke="#2D2D2D" stroke-width="2" stroke-linecap="round"/>
<mask id="path-82-inside-1_2189_401" fill="white">
<path d="M0 1109H1328V1200H0V1109Z"/>
</mask>
<path d="M0 1109H1328V1200H0V1109Z" fill="white"/>
<path d="M0 1110H1328V1108H0V1110Z" fill="black" mask="url(#path-82-inside-1_2189_401)"/>
<mask id="path-84-inside-2_2189_401" fill="white">
<path fill-rule="evenodd" clip-rule="evenodd" d="M452.321 386.803C445.935 405.669 428.084 419.249 407.061 419.249C386.038 419.249 368.186 405.669 361.8 386.803C354.055 385.622 348.121 378.933 348.121 370.857C348.121 362.622 354.292 355.828 362.263 354.848C369.016 336.663 386.525 323.705 407.061 323.705C427.597 323.705 445.106 336.663 451.859 354.848C459.829 355.828 466 362.622 466 370.857C466 378.933 460.066 385.622 452.321 386.803ZM452.239 355.911C453.92 360.79 454.833 366.027 454.833 371.477C454.833 376.441 454.076 381.228 452.671 385.729C459.689 384.416 465 378.257 465 370.857C465 363.307 459.47 357.049 452.239 355.911Z"/>
</mask>
<path fill-rule="evenodd" clip-rule="evenodd" d="M452.321 386.803C445.935 405.669 428.084 419.249 407.061 419.249C386.038 419.249 368.186 405.669 361.8 386.803C354.055 385.622 348.121 378.933 348.121 370.857C348.121 362.622 354.292 355.828 362.263 354.848C369.016 336.663 386.525 323.705 407.061 323.705C427.597 323.705 445.106 336.663 451.859 354.848C459.829 355.828 466 362.622 466 370.857C466 378.933 460.066 385.622 452.321 386.803ZM452.239 355.911C453.92 360.79 454.833 366.027 454.833 371.477C454.833 376.441 454.076 381.228 452.671 385.729C459.689 384.416 465 378.257 465 370.857C465 363.307 459.47 357.049 452.239 355.911Z" fill="white"/>
<path d="M452.321 386.803L452.171 385.814L451.569 385.906L451.374 386.482L452.321 386.803ZM361.8 386.803L362.747 386.482L362.552 385.906L361.951 385.814L361.8 386.803ZM362.263 354.848L362.385 355.841L362.988 355.766L363.2 355.196L362.263 354.848ZM451.859 354.848L450.921 355.196L451.133 355.766L451.737 355.841L451.859 354.848ZM452.239 355.911L452.395 354.923L450.752 354.665L451.294 356.237L452.239 355.911ZM452.671 385.729L451.716 385.431L451.221 387.018L452.854 386.712L452.671 385.729ZM407.061 420.249C428.525 420.249 446.749 406.384 453.268 387.124L451.374 386.482C445.121 404.955 427.642 418.249 407.061 418.249V420.249ZM360.853 387.124C367.373 406.384 385.596 420.249 407.061 420.249V418.249C386.479 418.249 369 404.955 362.747 386.482L360.853 387.124ZM347.121 370.857C347.121 379.434 353.423 386.537 361.649 387.792L361.951 385.814C354.687 384.707 349.121 378.431 349.121 370.857H347.121ZM362.141 353.856C353.675 354.897 347.121 362.111 347.121 370.857H349.121C349.121 363.133 354.91 356.76 362.385 355.841L362.141 353.856ZM407.061 322.705C386.093 322.705 368.219 335.935 361.325 354.5L363.2 355.196C369.812 337.39 386.956 324.705 407.061 324.705V322.705ZM452.796 354.5C445.903 335.935 428.028 322.705 407.061 322.705V324.705C427.165 324.705 444.309 337.39 450.921 355.196L452.796 354.5ZM467 370.857C467 362.111 460.446 354.897 451.981 353.856L451.737 355.841C459.212 356.76 465 363.133 465 370.857H467ZM452.472 387.792C460.698 386.537 467 379.434 467 370.857H465C465 378.431 459.435 384.707 452.171 385.814L452.472 387.792ZM455.833 371.477C455.833 365.915 454.901 360.568 453.185 355.585L451.294 356.237C452.939 361.013 453.833 366.139 453.833 371.477H455.833ZM453.625 386.027C455.06 381.431 455.833 376.543 455.833 371.477H453.833C453.833 376.339 453.091 381.026 451.716 385.431L453.625 386.027ZM452.854 386.712C460.337 385.312 466 378.747 466 370.857H464C464 377.767 459.04 383.52 452.487 384.746L452.854 386.712ZM466 370.857C466 362.807 460.104 356.136 452.395 354.923L452.084 356.899C458.836 357.961 464 363.807 464 370.857H466Z" fill="black" mask="url(#path-84-inside-2_2189_401)"/>
<path d="M395.272 365.172C397.133 361.036 402.593 355.246 409.542 365.172M420.709 365.182C422.57 361.046 428.03 355.255 434.979 365.182" stroke="black"/>
<path d="M452.353 287.395L452.353 357.501C436.222 334.216 420.091 323.087 403.685 327.245C389.532 330.832 368.769 346.967 369.001 357.501C355.501 354.108 353.6 358.739 348.501 366.501C337.933 321.926 361.15 300.131 380.741 296.409L452.353 287.395Z" fill="#0F172A" stroke="black"/>
<circle cx="416.367" cy="396.916" r="8.68581" fill="#0F172A"/>
<path d="M257.466 1039.61H162.164C162.164 672.489 317.087 646.201 394.774 646.203V730.665C247.078 730.665 241.357 934.369 257.466 1039.61Z" fill="#D9D9D9"/>
<path d="M532.534 1039.61H627.836C627.836 672.489 491.883 646.201 395.226 646.203V730.665C543.826 730.665 548.643 934.369 532.534 1039.61Z" fill="#2D2D2D"/>
<path d="M178.306 1039.25V1071.83M178.306 1039.25H240.754V1091.49M178.306 1039.25C184.551 1039.77 191.836 1044.42 191.836 1054.25C191.836 1062.16 184.551 1071.83 178.306 1071.83M178.306 1071.83C167.724 1071.66 146.249 1075.35 145 1091.49M145 1091.49H240.754M145 1091.49V1107H198.602C199.989 1098.38 207.657 1086.31 227.224 1107H240.754V1091.49" stroke="black"/>
<path d="M610.339 1039.25V1071.83M610.339 1039.25H547.891V1091.49M610.339 1039.25C604.094 1039.77 596.809 1044.42 596.809 1054.25C596.809 1062.16 604.094 1071.83 610.339 1071.83M610.339 1071.83C620.921 1071.66 642.396 1075.35 643.645 1091.49M643.645 1091.49H547.891M643.645 1091.49V1107H590.043C588.656 1098.38 580.988 1086.31 561.421 1107H547.891V1091.49" stroke="black"/>
<path d="M480.536 431.265L543.194 474.065C596.664 407.318 643.939 279.598 660.893 224.082C668.629 198.748 682.94 192.424 675.262 172.099C672.165 163.903 657.721 164.664 654.294 164.876C659.474 133.259 643.878 125.672 641.907 130.159C635.7 120.668 629.538 127.18 627.233 131.623C616.55 119.075 612.477 129.201 611.776 135.833C602.266 117.084 596.775 129.233 595.219 137.651C595.219 205.702 521.996 368.968 480.536 431.265Z" fill="white"/>
<path d="M611.776 135.833C602.266 117.084 596.775 129.233 595.219 137.651C595.219 205.702 521.996 368.968 480.536 431.265L543.194 474.065C596.664 407.318 643.939 279.598 660.893 224.082C668.629 198.748 682.94 192.424 675.262 172.099C672.165 163.903 657.721 164.664 654.294 164.876C659.474 133.259 643.878 125.672 641.907 130.159M611.776 135.833L609.552 177.526M611.776 135.833C612.477 129.201 616.55 119.074 627.233 131.623M627.233 131.623L626.611 164.564M627.233 131.623C629.538 127.18 635.7 120.668 641.907 130.159M641.907 130.159L640.029 163.337" stroke="black"/>
<path d="M489.881 415.936L547.611 471.391C513.882 531.029 475.586 514.142 460.654 498.243C432.513 476.601 468.413 434.354 489.881 415.936Z" fill="#0F172A"/>
<path d="M506.787 659.915H290.437V483.312C290.437 434.981 324.312 438.596 355.478 438.596C365.866 438.596 398.419 438.596 444.909 438.596C492.786 438.597 506.787 469.304 506.787 492.797V659.915Z" fill="#064D47"/>
<path d="M367.154 514.016H291.273C284.769 599.291 317.771 731.42 335.085 786.825C344.119 812.841 365.648 849.156 375.284 864.061C381.427 869.12 388.382 866.169 391.092 864.061C403.378 867.313 404.643 858.49 403.739 853.672C414.218 858.008 415.633 849.156 415.031 844.187C430.93 848.523 428.581 837.864 425.42 831.992L412.773 810.764C431.201 820.881 428.882 807.752 425.42 799.923C380.975 750.782 368.057 588.842 367.154 514.016Z" fill="white"/>
<path d="M412.773 810.764C431.201 820.881 428.882 807.752 425.42 799.923C380.975 750.782 368.057 588.842 367.154 514.016H291.273C284.769 599.291 317.771 731.42 335.085 786.825C344.119 812.841 365.648 849.156 375.284 864.061C381.427 869.12 388.382 866.169 391.093 864.061M412.773 810.764L403.739 796.31M412.773 810.764L425.42 831.992C428.581 837.864 430.93 848.523 415.031 844.187M415.031 844.187L396.964 816.635M415.031 844.187C415.633 849.156 414.218 858.008 403.739 853.672M403.739 853.672L386.576 825.217M403.739 853.672C404.643 858.49 403.378 867.313 391.093 864.061M391.093 864.061L373.929 831.992" stroke="black"/>
<path d="M371.805 534.576H283.278C264.488 454.359 307.969 437.015 332.058 438.37C371.083 433.672 374.817 500.55 371.805 534.576Z" fill="#D9D9D9"/>
<path d="M395.5 703C453.667 692.833 569.2 745.7 566 1038.5M395.5 686.5C467.5 647.333 609 662.9 599 1038.5" stroke="white" stroke-width="0.8"/>
<path d="M593.327 159.849C592.244 158.357 590.604 157.511 589.413 156.156C590.497 155.772 593.787 154.387 594.753 153.496C597.609 150.86 599.913 150.153 603.091 147.961C606.539 145.583 609.441 144.177 615.489 141.813C621.538 139.449 622.131 138.587 626.121 136.896C630.089 135.215 633.831 133.001 637.715 131.135C646.21 127.053 653.751 121.904 662.066 117.588C668.251 114.378 668.59 114.032 674.53 110.39C675.375 109.872 680.609 106.438 681 107.282C685.025 115.991 691.467 125.225 695.578 133.78L700.836 144.725C701.436 145.973 701.817 146.766 703.126 148.601C702.672 149.297 696.349 152.345 695.632 152.735C692.245 154.576 675.744 161.614 672.318 163.403C661.413 169.097 659.857 170.22 648.904 174.652C641.508 177.645 635.983 179.722 627.819 183.645L617.19 188.751C614.315 190.567 611.373 191.476 608.905 193.798C608.666 194.022 608.491 194.485 608.245 194.147C606.237 191.379 606.294 187.209 605.052 184.12C602.524 177.836 599.069 171.694 596.191 165.544C595.318 163.68 594.54 161.521 593.327 159.849Z" fill="#FFC728"/>
<path d="M589.355 156.089C590.55 157.484 592.227 158.332 593.327 159.849C594.54 161.521 595.318 163.68 596.191 165.544C599.069 171.694 602.524 177.836 605.052 184.12C606.294 187.209 606.237 191.379 608.245 194.147C608.491 194.485 608.666 194.022 608.905 193.798C611.373 191.476 614.315 190.567 617.19 188.751C623.66 185.643 621.965 186.457 627.819 183.645C635.983 179.722 641.508 177.645 648.904 174.652C659.857 170.22 661.413 169.097 672.318 163.403C675.744 161.614 692.245 154.576 695.632 152.735C696.349 152.345 702.672 149.297 703.126 148.601C701.817 146.766 701.436 145.973 700.836 144.725C699.084 141.077 697.331 137.429 695.578 133.78C691.467 125.225 685.025 115.991 681 107.282C680.609 106.438 675.375 109.872 674.53 110.39C668.59 114.032 668.251 114.378 662.066 117.588C653.751 121.904 646.21 127.053 637.715 131.135C633.831 133.001 630.089 135.215 626.121 136.896C622.131 138.587 621.538 139.449 615.489 141.813C609.441 144.177 606.539 145.583 603.091 147.961C599.913 150.153 597.609 150.86 594.753 153.496C593.428 154.719 587.727 156.871 589.352 156.09" stroke="#CB9D1D" stroke-width="3" stroke-linecap="round"/>
<path d="M656.607 134.235C657.092 134.002 657.763 134.272 658.618 135.046L658.826 134.946C659.411 134.152 660.389 133.376 661.76 132.618C665.849 130.654 669.82 131.906 673.673 136.374L676.124 140.144C678.329 144.733 677.406 148.85 673.356 152.494L671.624 153.504L671.554 153.538C671.046 153.782 670.226 154.028 669.094 154.276L669.198 154.492L669.521 154.9C669.629 155.124 669.414 155.504 668.875 156.04C667.997 156.461 667.242 156.014 666.61 154.699C663.303 149.355 661.341 146.042 660.725 144.758L657.672 137.515C657.325 136.793 656.689 136.121 655.764 135.499C655.587 135.13 655.868 134.708 656.607 134.235ZM662.758 143.663L667.105 151.38C668.346 152.482 669.52 152.767 670.629 152.234L671.53 151.801C672.778 151.202 673.837 149.884 674.706 147.846C675.321 145.754 675.151 143.712 674.195 141.723L673.582 140.447C672.04 137.238 669.794 134.989 666.844 133.701C665.295 133.319 664.059 133.35 663.135 133.794L661.818 134.427C660.339 135.137 659.801 136.176 660.202 137.544L662.758 143.663Z" fill="#CB9D1D"/>
<path d="M647.631 137.036C647.978 136.87 648.424 136.941 648.972 137.251L649.041 137.662C655.484 145.923 660.27 152.274 663.399 156.715C663.383 157.276 663.133 157.672 662.648 157.905C661.84 158.294 660.776 157.324 659.458 154.994L658.163 153.276L656.292 154.264C655.091 154.841 653.227 155.608 650.701 156.565C650.942 161.446 650.75 164.036 650.127 164.336L650.057 164.369C649.249 164.58 648.756 164.501 648.578 164.132C648.923 160.056 648.343 153.64 646.837 144.883C646.643 142.053 646.589 139.719 646.673 137.882C646.896 137.518 647.215 137.236 647.631 137.036ZM650.562 154.855C651.933 154.453 653.323 153.913 654.732 153.236L656.603 152.337C656.857 152.215 657.042 152.037 657.158 151.804L649.008 141.322L648.939 141.355C648.715 142.075 648.886 144.146 649.449 147.568L650.562 154.855Z" fill="#CB9D1D"/>
<path d="M624.955 147.102C625.533 146.824 626.014 146.968 626.4 147.533L626.296 147.583L626.515 147.774C627.301 147.397 629.403 146.179 632.822 144.122C633.469 143.989 633.877 144.099 634.047 144.452C634.294 144.965 632.892 146.043 629.843 147.686L626.932 149.44L627.441 150.499C627.803 151.253 629.711 154.099 633.163 159.037L637.599 156.906C638.2 156.617 638.681 156.672 639.043 157.071C639.282 157.568 638.859 158.078 637.773 158.599L633.857 160.481L633.903 160.577L636.193 165.609C636.764 166.797 637.353 167.58 637.962 167.959L644.673 164.349C645.443 164.058 645.921 164.106 646.106 164.491C646.353 165.004 645.667 165.649 644.05 166.426C639.969 168.585 637.963 169.736 638.032 169.881C637.2 170.28 636.199 169.675 635.027 168.065L633.975 166.319L631.42 160.823L625.361 151.498L625.003 150.752C624.047 148.762 623.996 147.562 624.851 147.152L624.955 147.102Z" fill="#CB9D1D"/>
<path d="M611.682 153.922C612.398 153.578 613.119 154.16 613.843 155.669C620.45 167.939 624.018 173.946 624.55 173.691L625.439 173.057L629.39 171.247L630.603 170.398C630.949 170.232 631.396 170.303 631.943 170.613C632.02 171.366 631.227 172.142 629.564 172.941L625.902 174.641C625.625 174.774 625.197 175.187 624.62 175.879L624.1 176.129C623.384 176.473 622.012 174.831 619.985 171.204C618.559 168.946 615.503 163.532 610.816 154.961C610.839 154.535 611.128 154.189 611.682 153.922Z" fill="#CB9D1D"/>
<path d="M671 167.5C663.002 161.999 627.599 165.898 629.999 183.498C630.498 187.666 636.298 192.002 651.499 184.002" stroke="black" stroke-width="0.8"/>
<path d="M422.686 416.621C419 452.595 384.878 436.03 382 424.5L379.569 418.741C370.739 423.411 355.896 435.07 363.256 452.595C366.666 460.635 380.563 475.365 408.875 469.96C437.186 464.554 442.531 443.976 441.665 434.363C441.087 427.464 441.784 415.41 422.686 416.621Z" fill="#0F172A"/>
<path d="M422.686 416.621C419 452.595 384.878 436.03 382 424.5L379.569 418.741M422.686 416.621C412 420 392.867 421.144 382 411.5L379.569 418.741M422.686 416.621C441.784 415.41 441.087 427.464 441.665 434.363C442.531 443.976 437.186 464.554 408.875 469.96C380.563 475.365 366.666 460.635 363.256 452.595C355.896 435.07 370.739 423.411 379.569 418.741" stroke="black" stroke-width="0.5"/>
</svg>
