<svg width="103" height="102" viewBox="0 0 103 102" fill="none" xmlns="http://www.w3.org/2000/svg">
<path d="M51.5 3.1875C32.1355 3.1875 16.4375 18.8855 16.4375 38.25C16.4375 51.2158 23.4768 62.5337 33.9269 68.5969C36.8401 70.2872 38.6644 72.8808 38.7469 75.4909C38.7925 76.9306 39.7979 78.1608 41.1997 78.4921C42.6931 78.8451 44.2149 79.1229 45.7607 79.3215C47.1361 79.4982 48.3133 78.3965 48.3133 77.0099V57.2005C46.9563 57.0504 45.6266 56.8055 44.3313 56.4721C42.6264 56.0333 41.6001 54.2955 42.0389 52.5907C42.4777 50.8858 44.2154 49.8595 45.9203 50.2983C47.7002 50.7564 49.5695 51.0008 51.5008 51.0008C53.4321 51.0008 55.3013 50.7564 57.0813 50.2983C58.7861 49.8595 60.5239 50.8858 60.9627 52.5907C61.4015 54.2955 60.3751 56.0333 58.6703 56.4721C57.3749 56.8055 56.0452 57.0504 54.6883 57.2005V77.0097C54.6883 78.3964 55.8655 79.4981 57.2409 79.3213C58.7862 79.1227 60.3074 78.845 61.8003 78.4921C63.2021 78.1608 64.2075 76.9306 64.2531 75.4909C64.3356 72.8807 66.1599 70.2872 69.0731 68.5969C79.5232 62.5337 86.5625 51.2158 86.5625 38.25C86.5625 18.8855 70.8645 3.1875 51.5 3.1875Z" fill="white"/>
<path fill-rule="evenodd" clip-rule="evenodd" d="M38.8058 84.5735C39.1339 82.844 40.802 81.7078 42.5316 82.0359C45.4342 82.5865 48.4319 82.8751 51.5 82.8751C54.5681 82.8751 57.5658 82.5865 60.4685 82.0359C62.198 81.7078 63.8661 82.844 64.1942 84.5735C64.5223 86.3031 63.3861 87.9712 61.6566 88.2992C58.3643 88.9238 54.9688 89.2501 51.5 89.2501C48.0313 89.2501 44.6358 88.9238 41.3434 88.2992C39.6139 87.9712 38.4778 86.3031 38.8058 84.5735Z" fill="white"/>
<path fill-rule="evenodd" clip-rule="evenodd" d="M41.9548 94.9619C42.138 93.211 43.7058 91.9401 45.4566 92.1233C47.4417 92.331 49.4579 92.4375 51.5 92.4375C53.5421 92.4375 55.5583 92.331 57.5434 92.1233C59.2942 91.9401 60.862 93.211 61.0452 94.9619C61.2284 96.7127 59.9575 98.2805 58.2066 98.4637C56.0016 98.6944 53.7641 98.8125 51.5 98.8125C49.2359 98.8125 46.9984 98.6944 44.7934 98.4637C43.0425 98.2805 41.7716 96.7127 41.9548 94.9619Z" fill="white"/>
</svg>
