<svg width="255" height="44" viewBox="0 0 255 44" fill="none" xmlns="http://www.w3.org/2000/svg">
<mask id="mask0_2058_524" style="mask-type:alpha" maskUnits="userSpaceOnUse" x="0" y="0" width="44" height="44">
<circle cx="21.75" cy="22.25" r="21.75" fill="#191A15"/>
</mask>
<g mask="url(#mask0_2058_524)">
<circle cx="21.75" cy="22.2502" r="21.75" fill="#FEFEFE"/>
<path fill-rule="evenodd" clip-rule="evenodd" d="M40.071 -7.24976C41.8951 5.03001 42.6257 12.8756 41.8552 17.7277C40.8218 24.235 38.7698 28.6253 36.1715 31.3238C33.5504 34.0458 30.42 34.9937 27.417 34.6753C24.9149 34.41 22.5404 33.272 20.632 31.6253C20.0475 32.8327 19.3213 33.8041 18.4739 34.5438C16.0199 36.686 12.7979 36.6852 9.76626 35.2421C3.76243 32.3841 -2 23.7326 -2 12.5739H-0.241576C-0.241578 23.2183 5.26343 31.1639 10.527 33.6695C13.1292 34.9082 15.5408 34.7807 17.3122 33.2344C18.0732 32.5701 18.7581 31.6099 19.2988 30.3068C17.4263 28.1835 16.2064 25.4699 16.2064 22.6369V22.62L16.2071 22.6031C16.2875 20.5462 16.6035 19.0836 17.1322 18.168C17.4024 17.6999 17.7675 17.3076 18.2518 17.1047C18.7573 16.8928 19.2728 16.9377 19.7182 17.1294C20.5396 17.4829 21.1703 18.341 21.584 19.2535C22.0163 20.2071 22.2933 21.3937 22.2933 22.6369C22.2933 25.5158 21.9515 27.9289 21.3218 29.8873C23.0681 31.5604 25.3045 32.6971 27.6039 32.9409C30.0674 33.2021 32.658 32.4473 34.8999 30.1191C37.1644 27.7673 39.1172 23.7597 40.1182 17.4563C40.8391 12.9163 40.1649 5.3481 38.3314 -6.9955L40.071 -7.24976ZM19.9409 28.3104C20.3173 26.7631 20.5349 24.8855 20.5349 22.6369C20.5349 21.6393 20.3102 20.6966 19.9803 19.9689C19.6317 19.2 19.2395 18.8247 19.0182 18.7295C18.9747 18.7107 18.952 18.7091 18.947 18.7089C18.9443 18.7088 18.943 18.7085 18.936 18.7115C18.9192 18.7185 18.8084 18.7744 18.6581 19.0348C18.3464 19.5746 18.0433 20.6852 17.9649 22.6535C17.969 24.6428 18.7065 26.6188 19.9409 28.3104Z" fill="url(#paint0_linear_2058_524)"/>
</g>
<path d="M57.644 33.25L52.076 9.89H58.22L62.412 29.25L61.42 28.514H64.012L62.892 29.25L66.06 10.722H70.892L66.508 33.25H57.644ZM71.532 33.25L66.828 10.722H71.916L75.628 29.25L74.508 28.514H76.94L76.108 29.25L79.724 9.89H85.484L80.588 33.25H71.532ZM88.1745 33.25V9.89H93.9985V23.202H93.2305C93.2305 21.41 93.4545 19.906 93.9025 18.69C94.3505 17.474 95.0012 16.5567 95.8545 15.938C96.7292 15.3193 97.8065 15.01 99.0865 15.01H99.3425C101.263 15.01 102.724 15.7033 103.727 17.09C104.751 18.4767 105.263 20.514 105.263 23.202V33.25H99.4385V22.978C99.4385 22.1673 99.1932 21.506 98.7025 20.994C98.2118 20.4607 97.5612 20.194 96.7505 20.194C95.9398 20.194 95.2785 20.4607 94.7665 20.994C94.2545 21.506 93.9985 22.1887 93.9985 23.042V33.25H88.1745ZM117.463 33.89C115.969 33.89 114.647 33.634 113.495 33.122C112.343 32.61 111.372 31.9167 110.583 31.042C109.793 30.1673 109.185 29.186 108.759 28.098C108.353 27.01 108.151 25.89 108.151 24.738V24.098C108.151 22.9033 108.353 21.762 108.759 20.674C109.185 19.5647 109.783 18.5833 110.551 17.73C111.34 16.8767 112.3 16.2047 113.431 15.714C114.561 15.202 115.841 14.946 117.271 14.946C119.169 14.946 120.78 15.3727 122.103 16.226C123.425 17.0793 124.439 18.21 125.142 19.618C125.847 21.0047 126.199 22.5193 126.199 24.162V26.018H110.583V22.882H122.839L120.823 24.29C120.823 23.2873 120.684 22.4447 120.407 21.762C120.151 21.058 119.756 20.5247 119.223 20.162C118.711 19.7993 118.06 19.618 117.271 19.618C116.503 19.618 115.831 19.7993 115.255 20.162C114.7 20.5033 114.273 21.0367 113.975 21.762C113.676 22.466 113.527 23.362 113.527 24.45C113.527 25.4313 113.665 26.2847 113.943 27.01C114.22 27.714 114.647 28.258 115.223 28.642C115.799 29.026 116.545 29.218 117.463 29.218C118.273 29.218 118.935 29.0793 119.447 28.802C119.98 28.5247 120.353 28.1513 120.567 27.682H125.878C125.623 28.8767 125.111 29.9433 124.343 30.882C123.596 31.8207 122.636 32.5567 121.463 33.09C120.311 33.6233 118.977 33.89 117.463 33.89ZM139.956 33.25V28.066H138.996V22.53C138.996 21.7193 138.804 21.122 138.42 20.738C138.058 20.3327 137.45 20.13 136.596 20.13C136.191 20.13 135.594 20.1407 134.804 20.162C134.015 20.1833 133.183 20.2153 132.308 20.258C131.434 20.3007 130.634 20.3433 129.908 20.386V15.522C130.42 15.4793 131.028 15.4367 131.732 15.394C132.436 15.3513 133.162 15.3193 133.908 15.298C134.676 15.2767 135.38 15.266 136.02 15.266C137.834 15.266 139.37 15.5327 140.628 16.066C141.908 16.5993 142.879 17.3993 143.54 18.466C144.223 19.5327 144.564 20.8873 144.564 22.53V33.25H139.956ZM134.356 33.698C133.119 33.698 132.02 33.474 131.06 33.026C130.1 32.578 129.343 31.938 128.788 31.106C128.255 30.2527 127.988 29.2393 127.988 28.066C127.988 26.7433 128.34 25.6767 129.044 24.866C129.748 24.034 130.719 23.426 131.956 23.042C133.194 22.658 134.612 22.466 136.212 22.466H139.636V25.474H136.212C135.423 25.474 134.815 25.6767 134.388 26.082C133.962 26.466 133.748 26.9887 133.748 27.65C133.748 28.29 133.962 28.8127 134.388 29.218C134.815 29.602 135.423 29.794 136.212 29.794C136.724 29.794 137.172 29.7087 137.556 29.538C137.962 29.346 138.292 29.026 138.548 28.578C138.804 28.13 138.954 27.5113 138.996 26.722L140.34 28.002C140.234 29.218 139.935 30.2527 139.444 31.106C138.975 31.938 138.314 32.578 137.46 33.026C136.628 33.474 135.594 33.698 134.356 33.698ZM156.872 33.506C154.952 33.506 153.416 33.2713 152.264 32.802C151.133 32.3327 150.312 31.554 149.8 30.466C149.288 29.378 149.032 27.906 149.032 26.05L149.064 10.978H154.44L154.408 26.21C154.408 26.9993 154.61 27.6073 155.016 28.034C155.442 28.4393 156.05 28.642 156.84 28.642H159.272V33.506H156.872ZM146.472 19.81V15.586H159.272V19.81H146.472Z" fill="#EFEFEF"/>
<path d="M163.929 33.25V9.89H166.361V33.25H163.929ZM165.721 33.25V31.042H176.697V33.25H165.721ZM187.614 33.794C186.163 33.794 184.904 33.5487 183.838 33.058C182.771 32.546 181.896 31.874 181.214 31.042C180.531 30.1887 180.019 29.2393 179.678 28.194C179.358 27.1487 179.198 26.0713 179.198 24.962V24.514C179.198 23.426 179.358 22.3593 179.678 21.314C180.019 20.2687 180.531 19.33 181.214 18.498C181.896 17.666 182.75 17.0047 183.774 16.514C184.819 16.002 186.035 15.746 187.422 15.746C189.192 15.746 190.664 16.1407 191.838 16.93C193.032 17.7193 193.928 18.7327 194.526 19.97C195.123 21.186 195.422 22.498 195.422 23.906V25.154H180.286V23.298H193.758L193.15 24.226C193.15 22.9673 192.926 21.8687 192.478 20.93C192.051 19.97 191.411 19.2233 190.558 18.69C189.726 18.1353 188.68 17.858 187.422 17.858C186.099 17.858 185 18.1673 184.126 18.786C183.251 19.4047 182.59 20.226 182.141 21.25C181.715 22.274 181.502 23.4367 181.502 24.738C181.502 26.018 181.715 27.1913 182.141 28.258C182.59 29.3033 183.262 30.1353 184.158 30.754C185.075 31.3727 186.227 31.682 187.614 31.682C189.086 31.682 190.28 31.3513 191.198 30.69C192.115 30.0073 192.68 29.2073 192.894 28.29H195.134C194.92 29.4207 194.472 30.402 193.79 31.234C193.107 32.0447 192.243 32.674 191.198 33.122C190.152 33.57 188.958 33.794 187.614 33.794ZM210.346 33.25V28.162H209.962V22.146C209.962 20.8873 209.631 19.9273 208.97 19.266C208.308 18.5833 207.284 18.242 205.898 18.242C205.258 18.242 204.607 18.2527 203.946 18.274C203.306 18.2953 202.687 18.3273 202.09 18.37C201.514 18.3913 201.002 18.4233 200.554 18.466V16.354C201.023 16.3113 201.503 16.2687 201.994 16.226C202.484 16.1833 202.986 16.162 203.498 16.162C204.031 16.1407 204.543 16.13 205.034 16.13C206.762 16.13 208.148 16.3433 209.194 16.77C210.26 17.1967 211.039 17.8687 211.53 18.786C212.02 19.682 212.266 20.8767 212.266 22.37V33.25H210.346ZM204.618 33.698C203.423 33.698 202.367 33.4847 201.45 33.058C200.532 32.6313 199.818 32.0127 199.306 31.202C198.815 30.3913 198.57 29.41 198.57 28.258C198.57 27.1273 198.826 26.1673 199.338 25.378C199.871 24.5887 200.628 23.9913 201.61 23.586C202.612 23.1593 203.818 22.946 205.226 22.946H210.186V24.77H205.066C203.722 24.77 202.687 25.1007 201.962 25.762C201.258 26.402 200.906 27.2447 200.906 28.29C200.906 29.3567 201.279 30.21 202.026 30.85C202.772 31.4687 203.786 31.778 205.066 31.778C205.855 31.778 206.612 31.6393 207.338 31.362C208.063 31.0633 208.671 30.5727 209.162 29.89C209.652 29.186 209.919 28.226 209.962 27.01L210.666 28.002C210.58 29.2607 210.282 30.3167 209.77 31.17C209.258 32.002 208.564 32.6313 207.69 33.058C206.815 33.4847 205.791 33.698 204.618 33.698ZM225.204 33.794C223.967 33.794 222.836 33.57 221.812 33.122C220.81 32.6527 219.935 32.0127 219.188 31.202C218.463 30.37 217.898 29.4313 217.492 28.386C217.108 27.3193 216.916 26.1887 216.916 24.994V24.546C216.916 23.394 217.108 22.2953 217.492 21.25C217.876 20.1833 218.42 19.2447 219.124 18.434C219.85 17.602 220.714 16.9513 221.716 16.482C222.74 15.9913 223.882 15.746 225.14 15.746C226.57 15.746 227.828 16.0553 228.916 16.674C230.004 17.2927 230.879 18.1887 231.54 19.362C232.202 20.514 232.554 21.9327 232.596 23.618L231.54 21.634V9.89H233.94V33.25H232.02V25.73H232.788C232.746 27.5007 232.372 28.994 231.668 30.21C230.986 31.4047 230.079 32.3007 228.948 32.898C227.839 33.4953 226.591 33.794 225.204 33.794ZM225.524 31.682C226.676 31.682 227.711 31.426 228.628 30.914C229.567 30.402 230.303 29.6767 230.836 28.738C231.37 27.778 231.636 26.6793 231.636 25.442V23.906C231.636 22.7113 231.37 21.666 230.836 20.77C230.303 19.8527 229.567 19.138 228.628 18.626C227.711 18.114 226.666 17.858 225.492 17.858C224.234 17.858 223.135 18.1673 222.196 18.786C221.279 19.3833 220.564 20.2047 220.052 21.25C219.562 22.2953 219.316 23.4687 219.316 24.77C219.316 26.114 219.572 27.3087 220.084 28.354C220.596 29.3993 221.322 30.2207 222.26 30.818C223.199 31.394 224.287 31.682 225.524 31.682ZM245.479 33.73C243.303 33.73 241.629 33.2607 240.455 32.322C239.282 31.362 238.685 30.082 238.663 28.482H240.903C240.946 29.2927 241.309 30.0287 241.991 30.69C242.695 31.3513 243.858 31.682 245.479 31.682C246.994 31.682 248.125 31.3727 248.871 30.754C249.639 30.114 250.023 29.346 250.023 28.45C250.023 27.618 249.703 26.978 249.063 26.53C248.445 26.0607 247.538 25.762 246.343 25.634L244.423 25.442C242.887 25.2713 241.639 24.802 240.679 24.034C239.741 23.2447 239.271 22.1673 239.271 20.802C239.271 19.7993 239.527 18.9247 240.039 18.178C240.551 17.4313 241.266 16.8553 242.183 16.45C243.122 16.0233 244.221 15.81 245.479 15.81C247.293 15.81 248.765 16.2367 249.895 17.09C251.047 17.9433 251.634 19.1593 251.655 20.738H249.415C249.394 19.9273 249.053 19.2447 248.391 18.69C247.73 18.1353 246.759 17.858 245.479 17.858C244.157 17.858 243.165 18.146 242.503 18.722C241.863 19.298 241.543 20.002 241.543 20.834C241.543 21.538 241.789 22.1247 242.279 22.594C242.77 23.042 243.538 23.3193 244.583 23.426L246.503 23.618C248.21 23.81 249.597 24.3007 250.663 25.09C251.751 25.8793 252.295 27.01 252.295 28.482C252.295 29.4847 252.007 30.3913 251.431 31.202C250.877 31.9913 250.087 32.61 249.063 33.058C248.039 33.506 246.845 33.73 245.479 33.73Z" fill="white"/>
<defs>
<linearGradient id="paint0_linear_2058_524" x1="-2.12174" y1="10.7894" x2="41.5517" y2="0.606513" gradientUnits="userSpaceOnUse">
<stop offset="0.0372617" stop-color="#064D47" stop-opacity="0.5"/>
<stop offset="0.258638" stop-color="#C4C4C4"/>
<stop offset="0.883436" stop-color="#064D47"/>
</linearGradient>
</defs>
</svg>
