<svg width="44" height="45" viewBox="0 0 44 45" fill="none" xmlns="http://www.w3.org/2000/svg">
<circle cx="21.75" cy="22.5" r="21.75" fill="#233E34"/>
<path fill-rule="evenodd" clip-rule="evenodd" d="M40.071 -7C41.8951 5.27977 42.6257 13.1254 41.8552 17.9774C40.8218 24.4848 38.7698 28.8751 36.1715 31.5736C33.5504 34.2956 30.42 35.2434 27.417 34.925C24.9149 34.6597 22.5404 33.5218 20.632 31.8751C20.0475 33.0824 19.3213 34.0538 18.4739 34.7936C16.0199 36.9358 12.7979 36.9349 9.76626 35.4918C3.76243 32.6339 -2 23.9824 -2 12.8237H-0.241576C-0.241578 23.4681 5.26343 31.4137 10.527 33.9193C13.1292 35.158 15.5408 35.0305 17.3122 33.4842C18.0732 32.8198 18.7581 31.8596 19.2988 30.5566C17.4263 28.4333 16.2064 25.7196 16.2064 22.8866V22.8697L16.2071 22.8528C16.2875 20.7959 16.6035 19.3333 17.1322 18.4177C17.4024 17.9497 17.7675 17.5574 18.2518 17.3544C18.7573 17.1426 19.2728 17.1874 19.7182 17.3791C20.5396 17.7327 21.1703 18.5908 21.584 19.5033C22.0163 20.4568 22.2933 21.6435 22.2933 22.8866C22.2933 25.7656 21.9515 28.1786 21.3218 30.1371C23.0681 31.8102 25.3045 32.9469 27.6039 33.1907C30.0674 33.4519 32.658 32.6971 34.8999 30.3688C37.1644 28.0171 39.1172 24.0095 40.1182 17.706C40.8391 13.166 40.1649 5.59786 38.3314 -6.74575L40.071 -7ZM19.9409 28.5602C20.3173 27.0129 20.5349 25.1352 20.5349 22.8866C20.5349 21.8891 20.3102 20.9464 19.9803 20.2186C19.6317 19.4498 19.2395 19.0745 19.0182 18.9792C18.9747 18.9605 18.952 18.9588 18.947 18.9587C18.9443 18.9586 18.943 18.9583 18.936 18.9612C18.9192 18.9682 18.8084 19.0241 18.6581 19.2845C18.3464 19.8243 18.0433 20.935 17.9649 22.9033C17.969 24.8925 18.7065 26.8686 19.9409 28.5602Z" fill="url(#paint0_linear_2049_23)"/>
<defs>
<linearGradient id="paint0_linear_2049_23" x1="-2.12174" y1="11.0392" x2="41.5517" y2="0.856269" gradientUnits="userSpaceOnUse">
<stop stop-color="white"/>
<stop offset="0.456432" stop-color="#064D47"/>
<stop offset="0.883436" stop-color="#26FFA4" stop-opacity="0.5"/>
</linearGradient>
</defs>
</svg>
