<svg width="255" height="45" viewBox="0 0 255 45" fill="none" xmlns="http://www.w3.org/2000/svg">
<mask id="mask0_2049_28" style="mask-type:alpha" maskUnits="userSpaceOnUse" x="0" y="0" width="44" height="45">
<circle cx="21.75" cy="22.5" r="21.75" fill="#191A15"/>
</mask>
<g mask="url(#mask0_2049_28)">
<circle cx="21.75" cy="22.5" r="21.75" fill="#233E34"/>
<path fill-rule="evenodd" clip-rule="evenodd" d="M40.071 -7C41.8951 5.27977 42.6257 13.1254 41.8552 17.9774C40.8218 24.4848 38.7698 28.8751 36.1715 31.5736C33.5504 34.2956 30.42 35.2434 27.417 34.925C24.9149 34.6597 22.5404 33.5218 20.632 31.8751C20.0475 33.0824 19.3213 34.0538 18.4739 34.7936C16.0199 36.9358 12.7979 36.9349 9.76626 35.4918C3.76243 32.6339 -2 23.9824 -2 12.8237H-0.241576C-0.241578 23.4681 5.26343 31.4137 10.527 33.9193C13.1292 35.158 15.5408 35.0305 17.3122 33.4842C18.0732 32.8198 18.7581 31.8596 19.2988 30.5566C17.4263 28.4333 16.2064 25.7196 16.2064 22.8866V22.8697L16.2071 22.8528C16.2875 20.7959 16.6035 19.3333 17.1322 18.4177C17.4024 17.9497 17.7675 17.5574 18.2518 17.3544C18.7573 17.1426 19.2728 17.1874 19.7182 17.3791C20.5396 17.7327 21.1703 18.5908 21.584 19.5033C22.0163 20.4568 22.2933 21.6435 22.2933 22.8866C22.2933 25.7656 21.9515 28.1786 21.3218 30.1371C23.0681 31.8102 25.3045 32.9469 27.6039 33.1907C30.0674 33.4519 32.658 32.6971 34.8999 30.3688C37.1644 28.0171 39.1172 24.0095 40.1182 17.706C40.8391 13.166 40.1649 5.59786 38.3314 -6.74575L40.071 -7ZM19.9409 28.5602C20.3173 27.0129 20.5349 25.1352 20.5349 22.8866C20.5349 21.8891 20.3102 20.9464 19.9803 20.2186C19.6317 19.4498 19.2395 19.0745 19.0182 18.9792C18.9747 18.9605 18.952 18.9588 18.947 18.9587C18.9443 18.9586 18.943 18.9583 18.936 18.9612C18.9192 18.9682 18.8084 19.0241 18.6581 19.2845C18.3464 19.8243 18.0433 20.935 17.9649 22.9033C17.969 24.8925 18.7065 26.8686 19.9409 28.5602Z" fill="url(#paint0_linear_2049_28)"/>
</g>
<path d="M57.644 33.5L52.076 10.14H58.22L62.412 29.5L61.42 28.764H64.012L62.892 29.5L66.06 10.972H70.892L66.508 33.5H57.644ZM71.532 33.5L66.828 10.972H71.916L75.628 29.5L74.508 28.764H76.94L76.108 29.5L79.724 10.14H85.484L80.588 33.5H71.532ZM88.1745 33.5V10.14H93.9985V23.452H93.2305C93.2305 21.66 93.4545 20.156 93.9025 18.94C94.3505 17.724 95.0012 16.8067 95.8545 16.188C96.7292 15.5693 97.8065 15.26 99.0865 15.26H99.3425C101.263 15.26 102.724 15.9533 103.727 17.34C104.751 18.7267 105.263 20.764 105.263 23.452V33.5H99.4385V23.228C99.4385 22.4173 99.1932 21.756 98.7025 21.244C98.2118 20.7107 97.5612 20.444 96.7505 20.444C95.9398 20.444 95.2785 20.7107 94.7665 21.244C94.2545 21.756 93.9985 22.4387 93.9985 23.292V33.5H88.1745ZM117.463 34.14C115.969 34.14 114.647 33.884 113.495 33.372C112.343 32.86 111.372 32.1667 110.583 31.292C109.793 30.4173 109.185 29.436 108.759 28.348C108.353 27.26 108.151 26.14 108.151 24.988V24.348C108.151 23.1533 108.353 22.012 108.759 20.924C109.185 19.8147 109.783 18.8333 110.551 17.98C111.34 17.1267 112.3 16.4547 113.431 15.964C114.561 15.452 115.841 15.196 117.271 15.196C119.169 15.196 120.78 15.6227 122.103 16.476C123.425 17.3293 124.439 18.46 125.142 19.868C125.847 21.2547 126.199 22.7693 126.199 24.412V26.268H110.583V23.132H122.839L120.823 24.54C120.823 23.5373 120.684 22.6947 120.407 22.012C120.151 21.308 119.756 20.7747 119.223 20.412C118.711 20.0493 118.06 19.868 117.271 19.868C116.503 19.868 115.831 20.0493 115.255 20.412C114.7 20.7533 114.273 21.2867 113.975 22.012C113.676 22.716 113.527 23.612 113.527 24.7C113.527 25.6813 113.665 26.5347 113.943 27.26C114.22 27.964 114.647 28.508 115.223 28.892C115.799 29.276 116.545 29.468 117.463 29.468C118.273 29.468 118.935 29.3293 119.447 29.052C119.98 28.7747 120.353 28.4013 120.567 27.932H125.878C125.623 29.1267 125.111 30.1933 124.343 31.132C123.596 32.0707 122.636 32.8067 121.463 33.34C120.311 33.8733 118.977 34.14 117.463 34.14ZM139.956 33.5V28.316H138.996V22.78C138.996 21.9693 138.804 21.372 138.42 20.988C138.058 20.5827 137.45 20.38 136.596 20.38C136.191 20.38 135.594 20.3907 134.804 20.412C134.015 20.4333 133.183 20.4653 132.308 20.508C131.434 20.5507 130.634 20.5933 129.908 20.636V15.772C130.42 15.7293 131.028 15.6867 131.732 15.644C132.436 15.6013 133.162 15.5693 133.908 15.548C134.676 15.5267 135.38 15.516 136.02 15.516C137.834 15.516 139.37 15.7827 140.628 16.316C141.908 16.8493 142.879 17.6493 143.54 18.716C144.223 19.7827 144.564 21.1373 144.564 22.78V33.5H139.956ZM134.356 33.948C133.119 33.948 132.02 33.724 131.06 33.276C130.1 32.828 129.343 32.188 128.788 31.356C128.255 30.5027 127.988 29.4893 127.988 28.316C127.988 26.9933 128.34 25.9267 129.044 25.116C129.748 24.284 130.719 23.676 131.956 23.292C133.194 22.908 134.612 22.716 136.212 22.716H139.636V25.724H136.212C135.423 25.724 134.815 25.9267 134.388 26.332C133.962 26.716 133.748 27.2387 133.748 27.9C133.748 28.54 133.962 29.0627 134.388 29.468C134.815 29.852 135.423 30.044 136.212 30.044C136.724 30.044 137.172 29.9587 137.556 29.788C137.962 29.596 138.292 29.276 138.548 28.828C138.804 28.38 138.954 27.7613 138.996 26.972L140.34 28.252C140.234 29.468 139.935 30.5027 139.444 31.356C138.975 32.188 138.314 32.828 137.46 33.276C136.628 33.724 135.594 33.948 134.356 33.948ZM156.872 33.756C154.952 33.756 153.416 33.5213 152.264 33.052C151.133 32.5827 150.312 31.804 149.8 30.716C149.288 29.628 149.032 28.156 149.032 26.3L149.064 11.228H154.44L154.408 26.46C154.408 27.2493 154.61 27.8573 155.016 28.284C155.442 28.6893 156.05 28.892 156.84 28.892H159.272V33.756H156.872ZM146.472 20.06V15.836H159.272V20.06H146.472Z" fill="#064D47"/>
<path d="M163.929 33.5V10.14H166.361V33.5H163.929ZM165.721 33.5V31.292H176.697V33.5H165.721ZM187.614 34.044C186.163 34.044 184.904 33.7987 183.838 33.308C182.771 32.796 181.896 32.124 181.214 31.292C180.531 30.4387 180.019 29.4893 179.678 28.444C179.358 27.3987 179.198 26.3213 179.198 25.212V24.764C179.198 23.676 179.358 22.6093 179.678 21.564C180.019 20.5187 180.531 19.58 181.214 18.748C181.896 17.916 182.75 17.2547 183.774 16.764C184.819 16.252 186.035 15.996 187.422 15.996C189.192 15.996 190.664 16.3907 191.838 17.18C193.032 17.9693 193.928 18.9827 194.526 20.22C195.123 21.436 195.422 22.748 195.422 24.156V25.404H180.286V23.548H193.758L193.15 24.476C193.15 23.2173 192.926 22.1187 192.478 21.18C192.051 20.22 191.411 19.4733 190.558 18.94C189.726 18.3853 188.68 18.108 187.422 18.108C186.099 18.108 185 18.4173 184.126 19.036C183.251 19.6547 182.59 20.476 182.141 21.5C181.715 22.524 181.502 23.6867 181.502 24.988C181.502 26.268 181.715 27.4413 182.141 28.508C182.59 29.5533 183.262 30.3853 184.158 31.004C185.075 31.6227 186.227 31.932 187.614 31.932C189.086 31.932 190.28 31.6013 191.198 30.94C192.115 30.2573 192.68 29.4573 192.894 28.54H195.134C194.92 29.6707 194.472 30.652 193.79 31.484C193.107 32.2947 192.243 32.924 191.198 33.372C190.152 33.82 188.958 34.044 187.614 34.044ZM210.346 33.5V28.412H209.962V22.396C209.962 21.1373 209.631 20.1773 208.97 19.516C208.308 18.8333 207.284 18.492 205.898 18.492C205.258 18.492 204.607 18.5027 203.946 18.524C203.306 18.5453 202.687 18.5773 202.09 18.62C201.514 18.6413 201.002 18.6733 200.554 18.716V16.604C201.023 16.5613 201.503 16.5187 201.994 16.476C202.484 16.4333 202.986 16.412 203.498 16.412C204.031 16.3907 204.543 16.38 205.034 16.38C206.762 16.38 208.148 16.5933 209.194 17.02C210.26 17.4467 211.039 18.1187 211.53 19.036C212.02 19.932 212.266 21.1267 212.266 22.62V33.5H210.346ZM204.618 33.948C203.423 33.948 202.367 33.7347 201.45 33.308C200.532 32.8813 199.818 32.2627 199.306 31.452C198.815 30.6413 198.57 29.66 198.57 28.508C198.57 27.3773 198.826 26.4173 199.338 25.628C199.871 24.8387 200.628 24.2413 201.61 23.836C202.612 23.4093 203.818 23.196 205.226 23.196H210.186V25.02H205.066C203.722 25.02 202.687 25.3507 201.962 26.012C201.258 26.652 200.906 27.4947 200.906 28.54C200.906 29.6067 201.279 30.46 202.026 31.1C202.772 31.7187 203.786 32.028 205.066 32.028C205.855 32.028 206.612 31.8893 207.338 31.612C208.063 31.3133 208.671 30.8227 209.162 30.14C209.652 29.436 209.919 28.476 209.962 27.26L210.666 28.252C210.58 29.5107 210.282 30.5667 209.77 31.42C209.258 32.252 208.564 32.8813 207.69 33.308C206.815 33.7347 205.791 33.948 204.618 33.948ZM225.204 34.044C223.967 34.044 222.836 33.82 221.812 33.372C220.81 32.9027 219.935 32.2627 219.188 31.452C218.463 30.62 217.898 29.6813 217.492 28.636C217.108 27.5693 216.916 26.4387 216.916 25.244V24.796C216.916 23.644 217.108 22.5453 217.492 21.5C217.876 20.4333 218.42 19.4947 219.124 18.684C219.85 17.852 220.714 17.2013 221.716 16.732C222.74 16.2413 223.882 15.996 225.14 15.996C226.57 15.996 227.828 16.3053 228.916 16.924C230.004 17.5427 230.879 18.4387 231.54 19.612C232.202 20.764 232.554 22.1827 232.596 23.868L231.54 21.884V10.14H233.94V33.5H232.02V25.98H232.788C232.746 27.7507 232.372 29.244 231.668 30.46C230.986 31.6547 230.079 32.5507 228.948 33.148C227.839 33.7453 226.591 34.044 225.204 34.044ZM225.524 31.932C226.676 31.932 227.711 31.676 228.628 31.164C229.567 30.652 230.303 29.9267 230.836 28.988C231.37 28.028 231.636 26.9293 231.636 25.692V24.156C231.636 22.9613 231.37 21.916 230.836 21.02C230.303 20.1027 229.567 19.388 228.628 18.876C227.711 18.364 226.666 18.108 225.492 18.108C224.234 18.108 223.135 18.4173 222.196 19.036C221.279 19.6333 220.564 20.4547 220.052 21.5C219.562 22.5453 219.316 23.7187 219.316 25.02C219.316 26.364 219.572 27.5587 220.084 28.604C220.596 29.6493 221.322 30.4707 222.26 31.068C223.199 31.644 224.287 31.932 225.524 31.932ZM245.479 33.98C243.303 33.98 241.629 33.5107 240.455 32.572C239.282 31.612 238.685 30.332 238.663 28.732H240.903C240.946 29.5427 241.309 30.2787 241.991 30.94C242.695 31.6013 243.858 31.932 245.479 31.932C246.994 31.932 248.125 31.6227 248.871 31.004C249.639 30.364 250.023 29.596 250.023 28.7C250.023 27.868 249.703 27.228 249.063 26.78C248.445 26.3107 247.538 26.012 246.343 25.884L244.423 25.692C242.887 25.5213 241.639 25.052 240.679 24.284C239.741 23.4947 239.271 22.4173 239.271 21.052C239.271 20.0493 239.527 19.1747 240.039 18.428C240.551 17.6813 241.266 17.1053 242.183 16.7C243.122 16.2733 244.221 16.06 245.479 16.06C247.293 16.06 248.765 16.4867 249.895 17.34C251.047 18.1933 251.634 19.4093 251.655 20.988H249.415C249.394 20.1773 249.053 19.4947 248.391 18.94C247.73 18.3853 246.759 18.108 245.479 18.108C244.157 18.108 243.165 18.396 242.503 18.972C241.863 19.548 241.543 20.252 241.543 21.084C241.543 21.788 241.789 22.3747 242.279 22.844C242.77 23.292 243.538 23.5693 244.583 23.676L246.503 23.868C248.21 24.06 249.597 24.5507 250.663 25.34C251.751 26.1293 252.295 27.26 252.295 28.732C252.295 29.7347 252.007 30.6413 251.431 31.452C250.877 32.2413 250.087 32.86 249.063 33.308C248.039 33.756 246.845 33.98 245.479 33.98Z" fill="#191A15"/>
<defs>
<linearGradient id="paint0_linear_2049_28" x1="-2.12174" y1="11.0392" x2="41.5517" y2="0.856269" gradientUnits="userSpaceOnUse">
<stop stop-color="white"/>
<stop offset="0.456432" stop-color="#064D47"/>
<stop offset="0.883436" stop-color="#26FFA4" stop-opacity="0.5"/>
</linearGradient>
</defs>
</svg>
