<svg width="400" height="433" viewBox="0 0 400 433" fill="none" xmlns="http://www.w3.org/2000/svg">
<path d="M37.3127 282.244L23.0121 277.407M37.3127 282.244L48.6502 248.725L25.7238 240.971M37.3127 282.244C38.2194 278.815 37.4992 274.214 33.1863 272.755C29.714 271.58 24.1458 274.055 23.0121 277.407M23.0121 277.407C21.1667 283.112 15.6486 294.091 8.33966 292.365M8.33966 292.365L25.7238 240.971M8.33966 292.365L1.52985 290.062L11.2612 261.292C15.2963 261.827 21.9849 259.503 16.4575 245.929L18.9139 238.667L25.7238 240.971" stroke="white" stroke-width="0.958758"/>
<path d="M151.989 163.535C129.427 256.438 77.8909 266.232 31.8705 231.717V292.359C102.579 317.047 156.091 282.498 191.08 188.148L151.989 163.535Z" fill="white" stroke="black" stroke-width="0.958758"/>
<path d="M32.1099 256.406C102.579 275.581 146.297 261.505 166.226 176.083M32.1099 275.821C110.488 312.972 181.524 244.71 169.363 176.083" stroke="#A6A6A6" stroke-width="0.958758"/>
<path fill-rule="evenodd" clip-rule="evenodd" d="M215.589 180.435C219.95 176.035 223.402 170.819 225.747 165.085L182.082 147.228L138.417 129.371C136.072 135.105 134.879 141.245 134.907 147.44C134.935 153.635 136.183 159.764 138.579 165.477C140.976 171.19 144.474 176.375 148.874 180.736C152.278 184.109 156.17 186.938 160.412 189.132L189.989 395.001L233.814 389.199L202.489 189.761C207.352 187.427 211.784 184.275 215.589 180.435Z" fill="#0F172A"/>
<path fill-rule="evenodd" clip-rule="evenodd" d="M215.589 180.435C219.95 176.035 223.402 170.819 225.747 165.085L182.082 147.228L138.417 129.371C136.072 135.105 134.879 141.245 134.907 147.44C134.935 153.635 136.183 159.764 138.579 165.477C140.976 171.19 144.474 176.375 148.874 180.736C152.278 184.109 156.17 186.938 160.412 189.132L189.989 395.001L233.814 389.199L202.489 189.761C207.352 187.427 211.784 184.275 215.589 180.435Z" fill="#0F172A"/>
<path d="M225.747 165.085L225.968 165.175L226.059 164.954L225.837 164.863L225.747 165.085ZM215.589 180.435L215.76 180.604L215.589 180.435ZM182.082 147.228L181.991 147.45L182.082 147.228ZM138.417 129.371L138.507 129.149L138.286 129.059L138.195 129.28L138.417 129.371ZM134.907 147.44L135.147 147.439L134.907 147.44ZM138.579 165.477L138.8 165.384L138.579 165.477ZM148.874 180.736L148.706 180.906L148.874 180.736ZM160.412 189.132L160.65 189.098L160.632 188.975L160.522 188.919L160.412 189.132ZM189.989 395.001L189.752 395.035L189.786 395.27L190.021 395.239L189.989 395.001ZM233.814 389.199L233.845 389.437L234.089 389.405L234.051 389.162L233.814 389.199ZM202.489 189.761L202.386 189.544L202.225 189.622L202.252 189.798L202.489 189.761ZM225.525 164.994C223.192 170.699 219.758 175.889 215.419 180.267L215.76 180.604C220.143 176.181 223.612 170.939 225.968 165.175L225.525 164.994ZM181.991 147.45L225.656 165.307L225.837 164.863L182.172 147.006L181.991 147.45ZM138.326 129.593L181.991 147.45L182.172 147.006L138.507 129.149L138.326 129.593ZM135.147 147.439C135.119 141.276 136.306 135.167 138.639 129.462L138.195 129.28C135.838 135.044 134.639 141.215 134.667 147.441L135.147 147.439ZM138.8 165.384C136.416 159.7 135.174 153.603 135.147 147.439L134.667 147.441C134.695 153.668 135.95 159.828 138.358 165.57L138.8 165.384ZM149.043 180.565C144.665 176.227 141.185 171.068 138.8 165.384L138.358 165.57C140.767 171.312 144.283 176.523 148.706 180.906L149.043 180.565ZM160.522 188.919C156.302 186.736 152.43 183.921 149.043 180.565L148.706 180.906C152.127 184.296 156.038 187.14 160.302 189.345L160.522 188.919ZM160.175 189.166L189.752 395.035L190.226 394.967L160.65 189.098L160.175 189.166ZM190.021 395.239L233.845 389.437L233.782 388.962L189.958 394.764L190.021 395.239ZM234.051 389.162L202.726 189.723L202.252 189.798L233.577 389.236L234.051 389.162ZM215.419 180.267C211.633 184.086 207.224 187.223 202.386 189.544L202.593 189.977C207.481 187.631 211.935 184.463 215.76 180.604L215.419 180.267Z" fill="black"/>
<path d="M223.011 390.362L224.657 402.447M223.011 390.362L197.091 393.893L199.73 413.267M223.011 390.362C220.445 390.907 217.656 393.045 218.153 396.69C218.552 399.624 222.065 402.8 224.657 402.447M224.657 402.447C229.041 401.784 238.141 401.938 239.474 407.853M239.474 407.853L199.73 413.267M239.474 407.853L240.258 413.607L218.01 416.638C216.999 413.52 213.206 409.477 206.13 418.257L200.514 419.022L199.73 413.267" stroke="white" stroke-width="0.958758"/>
<ellipse cx="167.334" cy="27.1925" rx="16.4087" ry="22.7563" transform="rotate(-15.3865 167.334 27.1925)" fill="#0F172A"/>
<path d="M189.151 68.1009H168.761L171.657 42.2812H189.151V68.1009Z" fill="white" stroke="#0F172A" stroke-width="0.958758"/>
<path d="M281.51 111.147C251.714 131.247 241.143 111.006 240.06 99.6106L208.998 111.611C223.638 146.828 255.335 151.871 268.876 148.752C298.948 141.687 333.999 111.865 347.765 97.8374L337.581 64.7797C331.305 71.8605 311.306 91.0471 281.51 111.147Z" fill="white" stroke="#0F172A" stroke-width="0.958758"/>
<path d="M196.644 95.0343C192.107 83.2901 197.949 70.0913 209.693 65.554C220.201 61.4944 232.011 66.7217 236.07 77.2297L245.503 101.646L205.212 117.212L196.644 95.0343Z" fill="#0F172A"/>
<path d="M128.584 116.845C128.584 89.325 150.894 67.0156 178.414 67.0156C205.934 67.0156 228.243 89.325 228.243 116.845V171.018H128.584V116.845Z" fill="#064D47"/>
<path d="M170.691 81.9775C150.518 64.2174 162.286 54.6296 170.691 52.0557C168.278 62.6731 175.477 66.4535 179.378 67.0166C186.617 68.0614 188.869 59.8176 189.272 55.072C193.518 55.3615 197.12 61.1046 197.235 64.7242C197.428 70.8051 193.615 78.7601 191.685 81.9775L181.67 73.6525L170.691 81.9775Z" fill="#064D47" stroke="#064D47" stroke-width="0.479379"/>
<path d="M159.471 65.5684C160.235 69.1075 163.597 77.3923 170.933 82.2184L181.43 73.6521L191.927 82.2184C193.415 79.6847 196.608 72.8075 197.477 65.5684" stroke="#0F172A" stroke-width="1.91752"/>
<path d="M157.299 108.762C154.202 119.781 156.768 142.472 191.805 134.46C226.843 126.449 252.413 115.759 260.819 111.416C261.673 111.006 263.095 110.558 264.247 110.634C267.506 110.852 264.056 115.405 261.177 116.949L252.373 121.672C254.217 121.672 255.899 122.727 256.701 124.388L263.188 137.82C264.799 141.156 266.021 145.24 263.666 148.1C261.481 150.753 257.271 152.332 249.96 149.492L249.96 149.492C229.134 157.756 192.98 168.666 166.468 164.986C152.714 163.015 124.964 146.888 123.999 108.762H157.299Z" fill="white" stroke="#0F172A" stroke-width="0.958758"/>
<path d="M118.449 88.8484C118.449 76.2581 128.655 66.0518 141.245 66.0518C152.51 66.0518 161.642 75.1838 161.642 86.4487V112.624H118.449V88.8484Z" fill="#0F172A"/>
<path d="M351.261 42.6907C352.694 40.3009 356.347 41.1407 356.593 43.9162L358.503 65.499C358.612 66.7403 359.509 67.7696 360.723 68.0487L381.84 72.902C384.556 73.5261 384.886 77.2605 382.322 78.3517L362.386 86.8374C361.239 87.3254 360.537 88.4962 360.647 89.7374L362.557 111.32C362.802 114.096 359.353 115.564 357.523 113.463L343.292 97.1245C342.473 96.1848 341.143 95.8791 339.996 96.3671L320.06 104.853C317.496 105.944 315.034 103.117 316.467 100.727L327.608 82.1439C328.249 81.0751 328.128 79.7154 327.31 78.7758L313.079 62.4373C311.249 60.3363 313.176 57.1209 315.892 57.745L337.009 62.5983C338.223 62.8774 339.479 62.3428 340.12 61.2741L351.261 42.6907Z" fill="#FFC728"/>
<path d="M342.486 63.5679C343.211 65.2163 343.395 66.8933 343.129 68.2617C342.864 69.6323 342.162 70.646 341.151 71.0901C340.141 71.5341 338.919 71.3655 337.73 70.6342C336.542 69.9042 335.432 68.6344 334.707 66.9859C333.983 65.3375 333.799 63.6606 334.064 62.2921C334.33 60.9215 335.032 59.9078 336.042 59.4638C337.053 59.0197 338.274 59.1883 339.464 59.9196C340.651 60.6496 341.762 61.9194 342.486 63.5679Z" fill="white" stroke="black" stroke-width="0.958758"/>
<path d="M360.141 67.5841C358.391 69.2599 356.396 70.316 354.605 70.6863C352.806 71.0582 351.289 70.7299 350.361 69.7608C349.433 68.7918 349.171 67.2615 349.621 65.4805C350.069 63.707 351.21 61.7604 352.961 60.0847C354.711 58.4089 356.705 57.3528 358.497 56.9825C360.295 56.6106 361.813 56.9389 362.741 57.908C363.668 58.877 363.93 60.4073 363.481 62.1883C363.033 63.9618 361.891 65.9084 360.141 67.5841Z" fill="white" stroke="black" stroke-width="0.958758"/>
<path d="M365.106 72.8935C363.73 74.5146 362.106 75.6307 360.613 76.1397C359.11 76.6523 357.828 76.5269 357.007 75.8299C356.186 75.1329 355.854 73.889 356.116 72.3219C356.375 70.7662 357.213 68.9826 358.589 67.3615C359.965 65.7405 361.589 64.6244 363.082 64.1154C364.585 63.6027 365.867 63.7281 366.688 64.4251C367.509 65.1221 367.841 66.3661 367.579 67.9332C367.32 69.4889 366.482 71.2725 365.106 72.8935Z" fill="white" stroke="black" stroke-width="0.958758"/>
<path d="M360.056 86.95C361.801 87.6388 363.183 88.7055 364.014 89.8494C364.848 90.9987 365.09 92.1637 364.714 93.1157C364.339 94.0678 363.367 94.7539 361.972 95.0238C360.584 95.2925 358.847 95.1286 357.101 94.4399C355.355 93.7511 353.974 92.6844 353.143 91.5405C352.308 90.3912 352.067 89.2262 352.442 88.2741C352.818 87.3221 353.79 86.636 355.184 86.366C356.572 86.0974 358.31 86.2613 360.056 86.95Z" fill="white" stroke="black" stroke-width="0.958758"/>
<path d="M364.883 80.1922C366.629 80.881 368.01 81.9477 368.841 83.0916C369.675 84.2409 369.917 85.4059 369.542 86.3579C369.166 87.31 368.194 87.9961 366.799 88.266C365.412 88.5347 363.674 88.3708 361.928 87.6821C360.182 86.9933 358.801 85.9266 357.97 84.7827C357.136 83.6334 356.894 82.4684 357.27 81.5163C357.645 80.5643 358.617 79.8782 360.012 79.6082C361.4 79.3396 363.137 79.5035 364.883 80.1922Z" fill="white" stroke="black" stroke-width="0.958758"/>
<mask id="path-22-inside-1_2551_1566" fill="white">
<path fill-rule="evenodd" clip-rule="evenodd" d="M199.58 39.9815C196.9 47.8984 189.409 53.5968 180.587 53.5968C171.765 53.5968 164.274 47.8983 161.594 39.9814C158.343 39.4858 155.853 36.6786 155.853 33.2898C155.853 29.834 158.443 26.9831 161.787 26.5716C164.621 18.9399 171.969 13.502 180.587 13.502C189.205 13.502 196.553 18.9398 199.387 26.5715C202.731 26.9826 205.321 29.8337 205.321 33.2898C205.321 36.6789 202.831 39.4862 199.58 39.9815ZM199.568 27.0815C200.259 29.1107 200.634 31.2863 200.634 33.5494C200.634 35.609 200.324 37.5961 199.747 39.4664C202.649 38.9083 204.842 36.3551 204.842 33.2898C204.842 30.1619 202.559 27.5672 199.568 27.0815Z"/>
</mask>
<path fill-rule="evenodd" clip-rule="evenodd" d="M199.58 39.9815C196.9 47.8984 189.409 53.5968 180.587 53.5968C171.765 53.5968 164.274 47.8983 161.594 39.9814C158.343 39.4858 155.853 36.6786 155.853 33.2898C155.853 29.834 158.443 26.9831 161.787 26.5716C164.621 18.9399 171.969 13.502 180.587 13.502C189.205 13.502 196.553 18.9398 199.387 26.5715C202.731 26.9826 205.321 29.8337 205.321 33.2898C205.321 36.6789 202.831 39.4862 199.58 39.9815ZM199.568 27.0815C200.259 29.1107 200.634 31.2863 200.634 33.5494C200.634 35.609 200.324 37.5961 199.747 39.4664C202.649 38.9083 204.842 36.3551 204.842 33.2898C204.842 30.1619 202.559 27.5672 199.568 27.0815Z" fill="white"/>
<path d="M199.58 39.9815L199.508 39.5076L199.22 39.5515L199.126 39.8278L199.58 39.9815ZM161.594 39.9814L162.048 39.8277L161.954 39.5514L161.666 39.5075L161.594 39.9814ZM161.787 26.5716L161.846 27.0473L162.135 27.0117L162.237 26.7384L161.787 26.5716ZM199.387 26.5715L198.937 26.7383L199.039 27.0117L199.328 27.0473L199.387 26.5715ZM199.568 27.0815L199.645 26.6084L198.857 26.4804L199.114 27.2361L199.568 27.0815ZM199.747 39.4664L199.289 39.3251L199.053 40.0879L199.837 39.9371L199.747 39.4664ZM180.587 54.0762C189.621 54.0762 197.29 48.2408 200.034 40.1352L199.126 39.8278C196.51 47.5559 189.197 53.1174 180.587 53.1174V54.0762ZM161.14 40.1351C163.884 48.2408 171.553 54.0762 180.587 54.0762V53.1174C171.977 53.1174 164.664 47.5558 162.048 39.8277L161.14 40.1351ZM155.374 33.2898C155.374 36.919 158.04 39.9245 161.521 40.4553L161.666 39.5075C158.646 39.047 156.333 36.4382 156.333 33.2898H155.374ZM161.729 26.0958C158.147 26.5365 155.374 29.5889 155.374 33.2898H156.333C156.333 30.0791 158.739 27.4297 161.846 27.0473L161.729 26.0958ZM180.587 13.0226C171.762 13.0226 164.239 18.5912 161.338 26.4047L162.237 26.7384C165.003 19.2885 172.176 13.9813 180.587 13.9813V13.0226ZM199.836 26.4046C196.935 18.5912 189.412 13.0226 180.587 13.0226V13.9813C188.998 13.9813 196.171 19.2884 198.937 26.7383L199.836 26.4046ZM205.801 33.2898C205.801 29.5886 203.027 26.536 199.445 26.0957L199.328 27.0473C202.436 27.4292 204.842 30.0788 204.842 33.2898H205.801ZM199.652 40.4554C203.134 39.925 205.801 36.9193 205.801 33.2898H204.842C204.842 36.4384 202.528 39.0475 199.508 39.5076L199.652 40.4554ZM201.114 33.5494C201.114 31.233 200.73 29.0053 200.022 26.927L199.114 27.2361C199.789 29.2162 200.155 31.3395 200.155 33.5494H201.114ZM200.205 39.6077C200.796 37.6922 201.114 35.6575 201.114 33.5494H200.155C200.155 35.5606 199.852 37.5001 199.289 39.3251L200.205 39.6077ZM199.837 39.9371C202.961 39.3365 205.321 36.5893 205.321 33.2898H204.363C204.363 36.121 202.337 38.4802 199.656 38.9956L199.837 39.9371ZM205.321 33.2898C205.321 29.923 202.864 27.1311 199.645 26.6084L199.491 27.5547C202.254 28.0033 204.363 30.4007 204.363 33.2898H205.321Z" fill="black" mask="url(#path-22-inside-1_2551_1566)"/>
<path fill-rule="evenodd" clip-rule="evenodd" d="M190.214 22.3414C197.849 22.3414 204.038 18.1352 204.038 12.9466C204.038 7.75797 197.849 3.55176 190.214 3.55176C183.801 3.55176 178.407 6.51989 176.846 10.5452C175.566 9.85332 174.081 9.45755 172.498 9.45755C167.68 9.45755 163.774 13.123 163.774 17.6445C163.774 22.166 167.68 25.8314 172.498 25.8314C176.489 25.8314 179.854 23.3167 180.892 19.8837C183.35 21.4103 186.622 22.3414 190.214 22.3414Z" fill="#0F172A"/>
<path d="M175.637 30.9017C176.418 29.166 178.709 26.736 181.625 30.9017M186.311 30.9057C187.092 29.17 189.384 26.74 192.3 30.9057" stroke="black" stroke-width="0.479379"/>
<ellipse cx="184.447" cy="44.2729" rx="3.74023" ry="3.61957" fill="#0F172A"/>
</svg>
