<svg width="101" height="100" viewBox="0 0 101 100" fill="none" xmlns="http://www.w3.org/2000/svg">
<path fill-rule="evenodd" clip-rule="evenodd" d="M86.3274 6.25C84.7633 6.25 83.2342 6.71297 81.9328 7.58057L60.7703 21.6889C54.5158 25.8586 48.9176 30.8943 44.1328 36.6259C52.9282 40.5011 59.9987 47.5717 63.8739 56.3671C69.6055 51.5822 74.6413 45.984 78.8109 39.7295L92.9193 18.567C93.7868 17.2656 94.2498 15.7365 94.2498 14.1725C94.2498 9.797 90.7028 6.25 86.3274 6.25ZM51.7479 64.6871C55.4475 62.6317 58.9619 60.2859 62.2608 57.6777C58.5665 48.936 51.5638 41.9334 42.8221 38.2391C40.2139 41.5379 37.8681 45.0523 35.8128 48.752L34.6522 50.8409C41.8876 52.9104 47.5894 58.6122 49.6589 65.8476L51.7479 64.6871ZM28.6248 56.25C19.9953 56.25 12.9998 63.2455 12.9998 71.875C12.9998 75.3268 10.2016 78.125 6.74981 78.125C6.6083 78.125 6.46744 78.1203 6.3275 78.111C5.17686 78.0349 4.07784 78.5987 3.46841 79.5777C2.85898 80.5566 2.83819 81.7916 3.41434 82.7905C7.1885 89.3341 14.264 93.75 22.3748 93.75C34.4561 93.75 44.2498 83.9563 44.2498 71.875C44.2498 63.2455 37.2543 56.25 28.6248 56.25Z" fill="white"/>
</svg>
