<svg width="466" height="589" viewBox="0 0 466 589" fill="none" xmlns="http://www.w3.org/2000/svg">
<rect width="466" height="589" rx="20" fill="#F9F8FE"/>
<rect x="38" y="116" width="326" height="314" fill="#F5FAFA"/>
<rect x="150.359" y="40.3857" width="263.641" height="21.3857" fill="#DBE5FA"/>
<rect x="150.359" y="76.0288" width="240.081" height="21.3857" fill="#DBE5FA"/>
<rect x="150.359" y="111.671" width="213.156" height="21.3857" fill="#DBE5FA"/>
<rect x="150.359" y="147.314" width="188.475" height="21.3857" fill="#DBE5FA"/>
<rect x="150.359" y="211.471" width="263.641" height="21.3857" fill="#DBE5FA"/>
<rect x="150.359" y="247.114" width="240.081" height="21.3857" fill="#DBE5FA"/>
<rect x="150.359" y="282.757" width="213.156" height="21.3857" fill="#DBE5FA"/>
<rect x="150.359" y="318.4" width="188.475" height="21.3857" fill="#DBE5FA"/>
<rect x="55" y="40.3857" width="70.6781" height="128.314" rx="2" fill="#54BD95"/>
<rect x="55" y="218.6" width="70.6781" height="128.314" rx="2" fill="#0F8CE9"/>
<ellipse cx="243.475" cy="61.7712" rx="28.0469" ry="35.6429" transform="rotate(180 243.475 61.7712)" fill="#54BD95"/>
<path d="M302.373 47.8833L288.35 19L348.931 32.3849L299.569 78.88L302.373 47.8833Z" fill="#54BD95" stroke="white" stroke-width="2"/>
<ellipse cx="105.484" cy="453.843" rx="50.4844" ry="64.1571" fill="#DBE5FA"/>
<ellipse cx="234.5" cy="453.843" rx="50.4844" ry="64.1571" fill="#0F8CE9"/>
<ellipse cx="363.516" cy="453.843" rx="50.4844" ry="64.1571" fill="#54BD95"/>
<ellipse cx="385.953" cy="453.843" rx="4.4875" ry="5.70286" fill="white"/>
<ellipse cx="369.125" cy="453.843" rx="6.73125" ry="8.55429" fill="white"/>
<ellipse cx="346.687" cy="453.843" rx="10.0969" ry="12.8314" fill="white"/>
</svg>
