<svg width="484" height="430" viewBox="0 0 484 430" fill="none" xmlns="http://www.w3.org/2000/svg">
<g clip-path="url(#clip0_3_870)">
<rect width="484" height="430" rx="20" fill="#F9F8FE"/>
<rect x="33" y="80.6362" width="369.669" height="367.575" rx="10" fill="#E9EFFC"/>
<rect x="51.85" y="99.4863" width="341.394" height="328.828" fill="#F5FAFA"/>
<rect x="82.5" y="150.5" width="295" height="110" rx="9.5" stroke="#EFF2F7"/>
<g filter="url(#filter0_d_3_870)">
<rect x="101.069" y="168.603" width="73.3056" height="73.3056" rx="10" fill="#0F8CE9"/>
</g>
<path fill-rule="evenodd" clip-rule="evenodd" d="M148.808 205.257C149.09 204.329 149.242 203.35 149.242 202.339C149.242 196.431 144.084 191.642 137.722 191.642C131.36 191.642 126.203 196.431 126.203 202.339C126.203 203.35 126.354 204.329 126.637 205.257C122.919 205.305 119.919 208.334 119.919 212.063C119.919 215.822 122.967 218.87 126.726 218.87H148.718C152.477 218.87 155.525 215.822 155.525 212.063C155.525 208.334 152.526 205.305 148.808 205.257Z" fill="#DBE5FA"/>
<rect x="205.792" y="228.295" width="153.208" height="10.4722" rx="5.23611" fill="#DBE5FA"/>
<rect x="205.792" y="228.295" width="74.1851" height="10.4722" rx="5.23611" fill="#54BD95"/>
<rect x="205.792" y="205.256" width="83.8614" height="6.28333" rx="3.14167" fill="#DBE5FA"/>
<rect x="205.792" y="171.745" width="153.208" height="16.7556" rx="8.37778" fill="#DBE5FA"/>
<g filter="url(#filter1_d_3_870)">
<rect x="58.5" y="291.5" width="363.433" height="110.006" rx="9.5" fill="white" stroke="#EFF2F7"/>
<g filter="url(#filter2_d_3_870)">
<rect x="59.1805" y="306.836" width="73.3056" height="73.3056" rx="10" fill="white"/>
</g>
<rect x="163.903" y="366.528" width="238.767" height="10.4722" rx="5.23611" fill="#DBE5FA"/>
<rect x="163.903" y="366.528" width="170.907" height="10.4722" rx="5.23611" fill="#54BD95"/>
<rect x="163.903" y="343.489" width="130.693" height="6.28333" rx="3.14167" fill="#DBE5FA"/>
<rect x="163.903" y="309.978" width="238.767" height="16.7556" rx="8.37778" fill="#DBE5FA"/>
</g>
<path d="M106.951 339.553H93.0493C92.2605 339.553 91.6211 340.192 91.6211 340.981C91.6211 341.77 92.2605 342.409 93.0493 342.409V343.361C93.0493 344.15 93.6888 344.79 94.4775 344.79C95.2663 344.79 95.9057 344.15 95.9057 343.361V342.409H104.094V343.361C104.094 344.15 104.734 344.79 105.522 344.79C106.311 344.79 106.951 344.15 106.951 343.361V342.409C107.739 342.409 108.379 341.77 108.379 340.981C108.379 340.192 107.739 339.553 106.951 339.553Z" fill="#54BD95"/>
<path d="M100 332.888C98.4224 332.888 97.1436 334.167 97.1436 335.744H102.856C102.856 334.167 101.578 332.888 100 332.888Z" fill="#54BD95"/>
<path d="M100 323C88.9543 323 80 331.954 80 343C80 354.046 88.9543 363 100 363C111.046 363 120 354.046 120 343C120 331.954 111.046 323 100 323ZM112.188 351.55C112.188 353.127 110.909 354.406 109.331 354.406H90.6689C89.0914 354.406 87.8125 353.127 87.8125 351.55V338.601C87.8125 337.023 89.0914 335.744 90.6689 335.744H94.287C94.2871 332.589 96.8448 330.031 100 330.031C103.155 330.031 105.713 332.589 105.713 335.744H109.331C110.909 335.744 112.187 337.023 112.187 338.601V351.55H112.188Z" fill="#54BD95"/>
<mask id="path-20-inside-1_3_870" fill="white">
<path d="M300.042 99.4861C300.042 86.4214 297.468 73.4846 292.469 61.4144C287.469 49.3442 280.141 38.3769 270.903 29.1388C261.665 19.9007 250.697 12.5726 238.627 7.57293C226.557 2.57328 213.62 -5.71076e-07 200.556 0C187.491 5.71076e-07 174.554 2.57329 162.484 7.57293C150.414 12.5726 139.446 19.9007 130.208 29.1388C120.97 38.377 113.642 49.3442 108.642 61.4144C103.643 73.4846 101.069 86.4214 101.069 99.4861H136.689C136.689 91.099 138.341 82.794 141.55 75.0453C144.76 67.2967 149.464 60.256 155.395 54.3254C161.325 48.3949 168.366 43.6905 176.115 40.4808C183.863 37.2712 192.168 35.6193 200.556 35.6193C208.943 35.6193 217.248 37.2712 224.996 40.4808C232.745 43.6904 239.786 48.3948 245.716 54.3254C251.647 60.256 256.351 67.2966 259.561 75.0453C262.77 82.794 264.422 91.099 264.422 99.4861H300.042Z"/>
</mask>
<path d="M300.042 99.4861C300.042 86.4214 297.468 73.4846 292.469 61.4144C287.469 49.3442 280.141 38.3769 270.903 29.1388C261.665 19.9007 250.697 12.5726 238.627 7.57293C226.557 2.57328 213.62 -5.71076e-07 200.556 0C187.491 5.71076e-07 174.554 2.57329 162.484 7.57293C150.414 12.5726 139.446 19.9007 130.208 29.1388C120.97 38.377 113.642 49.3442 108.642 61.4144C103.643 73.4846 101.069 86.4214 101.069 99.4861H136.689C136.689 91.099 138.341 82.794 141.55 75.0453C144.76 67.2967 149.464 60.256 155.395 54.3254C161.325 48.3949 168.366 43.6905 176.115 40.4808C183.863 37.2712 192.168 35.6193 200.556 35.6193C208.943 35.6193 217.248 37.2712 224.996 40.4808C232.745 43.6904 239.786 48.3948 245.716 54.3254C251.647 60.256 256.351 67.2966 259.561 75.0453C262.77 82.794 264.422 91.099 264.422 99.4861H300.042Z" stroke="#52459F" stroke-width="68" mask="url(#path-20-inside-1_3_870)"/>
<mask id="path-21-inside-2_3_870" fill="white">
<path d="M300.042 99.4861C300.042 73.1008 289.56 47.7961 270.903 29.1388C252.246 10.4815 226.941 1.99204e-06 200.556 0C174.17 -1.99204e-06 148.866 10.4815 130.208 29.1388C111.551 47.7961 101.069 73.1007 101.069 99.4861L136.706 99.4861C136.706 82.5523 143.433 66.312 155.407 54.3379C167.381 42.3639 183.622 35.637 200.556 35.637C217.489 35.637 233.73 42.3639 245.704 54.3379C257.678 66.312 264.405 82.5523 264.405 99.4861H300.042Z"/>
</mask>
<path d="M300.042 99.4861C300.042 73.1008 289.56 47.7961 270.903 29.1388C252.246 10.4815 226.941 1.99204e-06 200.556 0C174.17 -1.99204e-06 148.866 10.4815 130.208 29.1388C111.551 47.7961 101.069 73.1007 101.069 99.4861L136.706 99.4861C136.706 82.5523 143.433 66.312 155.407 54.3379C167.381 42.3639 183.622 35.637 200.556 35.637C217.489 35.637 233.73 42.3639 245.704 54.3379C257.678 66.312 264.405 82.5523 264.405 99.4861H300.042Z" stroke="#0F8CE9" stroke-width="68" mask="url(#path-21-inside-2_3_870)"/>
<mask id="path-22-inside-3_3_870" fill="white">
<path d="M300.042 99.4861C300.042 78.9511 293.687 58.9192 281.85 42.1391C270.013 25.359 253.273 12.653 233.928 5.76447L221.974 39.3365C234.389 43.7575 245.133 51.9121 252.73 62.6814C260.326 73.4507 264.405 86.3069 264.405 99.4861H300.042Z"/>
</mask>
<path d="M300.042 99.4861C300.042 78.9511 293.687 58.9192 281.85 42.1391C270.013 25.359 253.273 12.653 233.928 5.76447L221.974 39.3365C234.389 43.7575 245.133 51.9121 252.73 62.6814C260.326 73.4507 264.405 86.3069 264.405 99.4861H300.042Z" stroke="#54BD95" stroke-width="68" mask="url(#path-22-inside-3_3_870)"/>
<mask id="path-23-inside-4_3_870" fill="white">
<path d="M300.042 99.4861C300.042 79.8471 294.229 60.6473 283.336 44.306C272.443 27.9647 256.958 15.2129 238.83 7.65729L225.12 40.5513C236.754 45.4004 246.692 53.5844 253.683 64.0721C260.674 74.5598 264.405 86.882 264.405 99.4861H300.042Z"/>
</mask>
<path d="M300.042 99.4861C300.042 79.8471 294.229 60.6473 283.336 44.306C272.443 27.9647 256.958 15.2129 238.83 7.65729L225.12 40.5513C236.754 45.4004 246.692 53.5844 253.683 64.0721C260.674 74.5598 264.405 86.882 264.405 99.4861H300.042Z" stroke="#FEE900" stroke-width="68" mask="url(#path-23-inside-4_3_870)"/>
<path d="M109.792 124.098C109.338 124.091 108.891 124.008 108.45 123.849C108.013 123.69 107.615 123.425 107.257 123.054C106.899 122.682 106.612 122.184 106.397 121.557C106.185 120.931 106.079 120.149 106.079 119.211C106.079 118.322 106.166 117.534 106.342 116.844C106.521 116.155 106.778 115.573 107.113 115.099C107.447 114.622 107.852 114.259 108.326 114.01C108.8 113.762 109.332 113.637 109.922 113.637C110.528 113.637 111.067 113.757 111.537 113.995C112.008 114.234 112.389 114.564 112.681 114.985C112.976 115.406 113.163 115.885 113.243 116.422H111.726C111.624 115.997 111.42 115.651 111.115 115.383C110.81 115.114 110.412 114.98 109.922 114.98C109.176 114.98 108.594 115.305 108.177 115.954C107.762 116.604 107.554 117.507 107.55 118.664H107.625C107.8 118.375 108.016 118.13 108.271 117.928C108.53 117.722 108.818 117.565 109.136 117.456C109.458 117.343 109.796 117.287 110.15 117.287C110.74 117.287 111.274 117.431 111.751 117.719C112.232 118.004 112.615 118.399 112.9 118.902C113.185 119.406 113.327 119.983 113.327 120.633C113.327 121.282 113.18 121.87 112.885 122.397C112.593 122.924 112.182 123.342 111.652 123.65C111.121 123.955 110.502 124.104 109.792 124.098ZM109.787 122.805C110.179 122.805 110.528 122.709 110.836 122.517C111.145 122.324 111.388 122.066 111.567 121.741C111.746 121.416 111.836 121.053 111.836 120.652C111.836 120.261 111.748 119.905 111.572 119.583C111.4 119.262 111.161 119.007 110.856 118.818C110.555 118.629 110.21 118.534 109.822 118.534C109.527 118.534 109.254 118.591 109.002 118.704C108.753 118.816 108.535 118.972 108.346 119.171C108.157 119.37 108.008 119.598 107.898 119.857C107.792 120.112 107.739 120.382 107.739 120.667C107.739 121.048 107.827 121.401 108.003 121.726C108.182 122.051 108.425 122.313 108.733 122.512C109.045 122.707 109.396 122.805 109.787 122.805ZM118.683 124.128C117.897 124.124 117.226 123.917 116.669 123.506C116.113 123.095 115.687 122.497 115.392 121.711C115.097 120.926 114.949 119.98 114.949 118.873C114.949 117.769 115.097 116.826 115.392 116.044C115.69 115.262 116.117 114.665 116.674 114.254C117.234 113.843 117.904 113.637 118.683 113.637C119.462 113.637 120.13 113.845 120.686 114.259C121.243 114.67 121.669 115.266 121.964 116.049C122.262 116.828 122.412 117.769 122.412 118.873C122.412 119.983 122.264 120.931 121.969 121.716C121.674 122.499 121.248 123.097 120.691 123.511C120.135 123.922 119.465 124.128 118.683 124.128ZM118.683 122.8C119.372 122.8 119.911 122.464 120.299 121.791C120.69 121.118 120.885 120.145 120.885 118.873C120.885 118.027 120.796 117.313 120.617 116.73C120.441 116.143 120.188 115.699 119.856 115.397C119.528 115.092 119.137 114.94 118.683 114.94C117.997 114.94 117.458 115.278 117.067 115.954C116.676 116.63 116.479 117.603 116.475 118.873C116.475 119.721 116.563 120.439 116.739 121.025C116.918 121.609 117.171 122.051 117.5 122.353C117.828 122.651 118.222 122.8 118.683 122.8ZM129.49 122.049V121.512C129.49 121.128 129.569 120.777 129.728 120.458C129.891 120.137 130.126 119.88 130.434 119.688C130.746 119.492 131.122 119.395 131.563 119.395C132.014 119.395 132.392 119.491 132.697 119.683C133.001 119.875 133.232 120.132 133.388 120.454C133.547 120.775 133.626 121.128 133.626 121.512V122.049C133.626 122.434 133.547 122.787 133.388 123.108C133.228 123.427 132.995 123.683 132.687 123.879C132.382 124.071 132.007 124.167 131.563 124.167C131.116 124.167 130.738 124.071 130.429 123.879C130.121 123.683 129.888 123.427 129.728 123.108C129.569 122.787 129.49 122.434 129.49 122.049ZM130.648 121.512V122.049C130.648 122.334 130.716 122.593 130.852 122.825C130.988 123.057 131.225 123.173 131.563 123.173C131.898 123.173 132.131 123.057 132.264 122.825C132.397 122.593 132.463 122.334 132.463 122.049V121.512C132.463 121.227 132.398 120.969 132.269 120.737C132.143 120.505 131.908 120.389 131.563 120.389C131.232 120.389 130.996 120.505 130.857 120.737C130.718 120.969 130.648 121.227 130.648 121.512ZM124.369 116.223V115.686C124.369 115.301 124.449 114.948 124.608 114.627C124.77 114.305 125.005 114.048 125.314 113.856C125.625 113.664 126.001 113.568 126.442 113.568C126.893 113.568 127.271 113.664 127.576 113.856C127.881 114.048 128.111 114.305 128.267 114.627C128.423 114.948 128.5 115.301 128.5 115.686V116.223C128.5 116.607 128.421 116.96 128.262 117.282C128.106 117.6 127.874 117.857 127.566 118.052C127.261 118.244 126.886 118.341 126.442 118.341C125.991 118.341 125.612 118.244 125.304 118.052C124.999 117.857 124.767 117.6 124.608 117.282C124.449 116.96 124.369 116.607 124.369 116.223ZM125.532 115.686V116.223C125.532 116.508 125.599 116.766 125.731 116.998C125.867 117.23 126.104 117.346 126.442 117.346C126.774 117.346 127.006 117.23 127.138 116.998C127.274 116.766 127.342 116.508 127.342 116.223V115.686C127.342 115.401 127.277 115.142 127.148 114.91C127.019 114.678 126.784 114.562 126.442 114.562C126.111 114.562 125.875 114.678 125.736 114.91C125.6 115.142 125.532 115.401 125.532 115.686ZM124.841 123.958L131.841 113.777H133.03L126.03 123.958H124.841Z" fill="black"/>
<path d="M269.391 121.97V120.727L273.79 113.777H274.77V115.606H274.148L271.001 120.588V120.667H277.032V121.97H269.391ZM274.218 123.958V121.592L274.228 121.025V113.777H275.685V123.958H274.218ZM282.309 124.128C281.524 124.124 280.853 123.917 280.296 123.506C279.739 123.095 279.313 122.497 279.018 121.711C278.723 120.926 278.576 119.98 278.576 118.873C278.576 117.769 278.723 116.826 279.018 116.044C279.316 115.262 279.744 114.665 280.301 114.254C280.861 113.843 281.53 113.637 282.309 113.637C283.088 113.637 283.756 113.845 284.313 114.259C284.87 114.67 285.296 115.266 285.591 116.049C285.889 116.828 286.038 117.769 286.038 118.873C286.038 119.983 285.891 120.931 285.596 121.716C285.301 122.499 284.875 123.097 284.318 123.511C283.761 123.922 283.092 124.128 282.309 124.128ZM282.309 122.8C282.999 122.8 283.537 122.464 283.925 121.791C284.316 121.118 284.512 120.145 284.512 118.873C284.512 118.027 284.422 117.313 284.243 116.73C284.068 116.143 283.814 115.699 283.483 115.397C283.154 115.092 282.763 114.94 282.309 114.94C281.623 114.94 281.085 115.278 280.694 115.954C280.302 116.63 280.105 117.603 280.102 118.873C280.102 119.721 280.19 120.439 280.365 121.025C280.544 121.609 280.798 122.051 281.126 122.353C281.454 122.651 281.849 122.8 282.309 122.8ZM293.116 122.049V121.512C293.116 121.128 293.196 120.777 293.355 120.458C293.517 120.137 293.753 119.88 294.061 119.688C294.372 119.492 294.749 119.395 295.189 119.395C295.64 119.395 296.018 119.491 296.323 119.683C296.628 119.875 296.858 120.132 297.014 120.454C297.173 120.775 297.253 121.128 297.253 121.512V122.049C297.253 122.434 297.173 122.787 297.014 123.108C296.855 123.427 296.621 123.683 296.313 123.879C296.008 124.071 295.634 124.167 295.189 124.167C294.742 124.167 294.364 124.071 294.056 123.879C293.748 123.683 293.514 123.427 293.355 123.108C293.196 122.787 293.116 122.434 293.116 122.049ZM294.275 121.512V122.049C294.275 122.334 294.343 122.593 294.479 122.825C294.614 123.057 294.851 123.173 295.189 123.173C295.524 123.173 295.758 123.057 295.89 122.825C296.023 122.593 296.089 122.334 296.089 122.049V121.512C296.089 121.227 296.025 120.969 295.895 120.737C295.769 120.505 295.534 120.389 295.189 120.389C294.858 120.389 294.623 120.505 294.483 120.737C294.344 120.969 294.275 121.227 294.275 121.512ZM287.996 116.223V115.686C287.996 115.301 288.075 114.948 288.234 114.627C288.397 114.305 288.632 114.048 288.94 113.856C289.252 113.664 289.628 113.568 290.069 113.568C290.519 113.568 290.897 113.664 291.202 113.856C291.507 114.048 291.738 114.305 291.893 114.627C292.049 114.948 292.127 115.301 292.127 115.686V116.223C292.127 116.607 292.047 116.96 291.888 117.282C291.733 117.6 291.501 117.857 291.192 118.052C290.887 118.244 290.513 118.341 290.069 118.341C289.618 118.341 289.238 118.244 288.93 118.052C288.625 117.857 288.393 117.6 288.234 117.282C288.075 116.96 287.996 116.607 287.996 116.223ZM289.159 115.686V116.223C289.159 116.508 289.225 116.766 289.358 116.998C289.494 117.23 289.731 117.346 290.069 117.346C290.4 117.346 290.632 117.23 290.765 116.998C290.901 116.766 290.969 116.508 290.969 116.223V115.686C290.969 115.401 290.904 115.142 290.775 114.91C290.645 114.678 290.41 114.562 290.069 114.562C289.737 114.562 289.502 114.678 289.363 114.91C289.227 115.142 289.159 115.401 289.159 115.686ZM288.468 123.958L295.468 113.777H296.656L289.656 123.958H288.468Z" fill="black"/>
<circle cx="200.556" cy="99.4862" r="40.8417" fill="#FEFEFD"/>
<circle cx="200.556" cy="99.4862" r="31.4167" fill="#E6F9FD"/>
<path d="M251.331 113.48C257.871 116.417 266.606 114.149 270.882 108.403C272.373 106.399 273.068 104.159 273.225 102.131L274.239 86.9562C274.325 85.9741 273.636 85.154 272.718 84.7415C271.799 84.329 270.588 84.2956 269.488 84.8225L253.071 93.0705C250.88 94.1841 248.761 95.7388 247.244 97.7771C242.968 103.523 244.791 110.542 251.331 113.48ZM261.344 100.025C263.719 101.092 264.39 103.668 262.837 105.755C261.284 107.842 258.076 108.675 255.701 107.608C253.325 106.541 252.654 103.966 254.207 101.879C255.765 99.7847 258.968 98.9585 261.344 100.025Z" fill="#0F8CE9"/>
</g>
<defs>
<filter id="filter0_d_3_870" x="92.0695" y="163.603" width="91.3055" height="91.3057" filterUnits="userSpaceOnUse" color-interpolation-filters="sRGB">
<feFlood flood-opacity="0" result="BackgroundImageFix"/>
<feColorMatrix in="SourceAlpha" type="matrix" values="0 0 0 0 0 0 0 0 0 0 0 0 0 0 0 0 0 0 127 0" result="hardAlpha"/>
<feOffset dy="4"/>
<feGaussianBlur stdDeviation="4.5"/>
<feComposite in2="hardAlpha" operator="out"/>
<feColorMatrix type="matrix" values="0 0 0 0 0 0 0 0 0 0 0 0 0 0 0 0 0 0 0.05 0"/>
<feBlend mode="normal" in2="BackgroundImageFix" result="effect1_dropShadow_3_870"/>
<feBlend mode="normal" in="SourceGraphic" in2="effect1_dropShadow_3_870" result="shape"/>
</filter>
<filter id="filter1_d_3_870" x="54" y="291" width="372.433" height="119.006" filterUnits="userSpaceOnUse" color-interpolation-filters="sRGB">
<feFlood flood-opacity="0" result="BackgroundImageFix"/>
<feColorMatrix in="SourceAlpha" type="matrix" values="0 0 0 0 0 0 0 0 0 0 0 0 0 0 0 0 0 0 127 0" result="hardAlpha"/>
<feOffset dy="4"/>
<feGaussianBlur stdDeviation="2"/>
<feComposite in2="hardAlpha" operator="out"/>
<feColorMatrix type="matrix" values="0 0 0 0 0 0 0 0 0 0 0 0 0 0 0 0 0 0 0.25 0"/>
<feBlend mode="normal" in2="BackgroundImageFix" result="effect1_dropShadow_3_870"/>
<feBlend mode="normal" in="SourceGraphic" in2="effect1_dropShadow_3_870" result="shape"/>
</filter>
<filter id="filter2_d_3_870" x="50.1805" y="301.836" width="91.3055" height="91.3057" filterUnits="userSpaceOnUse" color-interpolation-filters="sRGB">
<feFlood flood-opacity="0" result="BackgroundImageFix"/>
<feColorMatrix in="SourceAlpha" type="matrix" values="0 0 0 0 0 0 0 0 0 0 0 0 0 0 0 0 0 0 127 0" result="hardAlpha"/>
<feOffset dy="4"/>
<feGaussianBlur stdDeviation="4.5"/>
<feComposite in2="hardAlpha" operator="out"/>
<feColorMatrix type="matrix" values="0 0 0 0 0 0 0 0 0 0 0 0 0 0 0 0 0 0 0.05 0"/>
<feBlend mode="normal" in2="BackgroundImageFix" result="effect1_dropShadow_3_870"/>
<feBlend mode="normal" in="SourceGraphic" in2="effect1_dropShadow_3_870" result="shape"/>
</filter>
<clipPath id="clip0_3_870">
<rect width="484" height="430" rx="20" fill="white"/>
</clipPath>
</defs>
</svg>
