<svg width="377" height="468" viewBox="0 0 377 468" fill="none" xmlns="http://www.w3.org/2000/svg">
<path d="M223.048 20.291H274.703L274.619 77.4788H223.048V20.291Z" fill="#0F172A"/>
<path d="M205.856 422.202L205.8 435.193M205.856 422.202L233.72 422.323L233.629 443.15M205.856 422.202C208.642 422.421 211.884 424.291 211.867 428.208C211.854 431.363 208.586 435.205 205.8 435.193M205.8 435.193C201.079 435.104 191.491 436.533 190.905 442.964M190.905 442.964L233.629 443.15M190.905 442.964L190.878 449.15L214.795 449.254C215.429 445.82 218.871 441.024 227.565 449.31L233.602 449.336L233.629 443.15" stroke="white" stroke-width="1.02121"/>
<path fill-rule="evenodd" clip-rule="evenodd" d="M203.655 193.621L203.648 193.88L197.998 422.251L197.992 422.513L198.253 422.513L245.34 422.54L245.592 422.54L245.595 422.287L248.233 195.638L248.236 195.389L247.988 195.38L203.914 193.631L203.655 193.621ZM247.719 195.88L245.087 422.029L198.515 422.002L204.152 194.151L247.719 195.88Z" fill="#0F172A"/>
<path fill-rule="evenodd" clip-rule="evenodd" d="M203.655 193.621L203.648 193.88L197.998 422.251L197.992 422.513L198.253 422.513L245.34 422.54L245.592 422.54L245.595 422.287L248.233 195.638L248.236 195.389L247.988 195.38L203.914 193.631L203.655 193.621ZM247.719 195.88L245.087 422.029L198.515 422.002L204.152 194.151L247.719 195.88Z" fill="#064D47"/>
<path d="M203.648 193.88L203.393 193.873L203.393 193.873L203.648 193.88ZM203.655 193.621L203.399 193.614L203.406 193.355L203.665 193.365L203.655 193.621ZM197.998 422.251L198.253 422.257L197.998 422.251ZM197.992 422.513L197.991 422.768L197.73 422.768L197.736 422.506L197.992 422.513ZM198.253 422.513L198.253 422.257L198.253 422.257L198.253 422.513ZM245.34 422.54L245.34 422.284L245.34 422.284L245.34 422.54ZM245.592 422.54L245.847 422.543L245.844 422.795L245.592 422.795L245.592 422.54ZM245.595 422.287L245.34 422.284L245.595 422.287ZM248.233 195.638L248.488 195.641L248.488 195.641L248.233 195.638ZM248.236 195.389L248.246 195.134L248.494 195.144L248.491 195.392L248.236 195.389ZM247.988 195.38L247.977 195.635L247.977 195.635L247.988 195.38ZM203.914 193.631L203.903 193.886L203.903 193.886L203.914 193.631ZM245.087 422.029L245.343 422.032L245.34 422.284L245.087 422.284L245.087 422.029ZM247.719 195.88L247.729 195.625L247.977 195.635L247.975 195.883L247.719 195.88ZM198.515 422.002L198.515 422.258L198.253 422.257L198.26 421.996L198.515 422.002ZM204.152 194.151L203.897 194.145L203.903 193.886L204.162 193.896L204.152 194.151ZM203.393 193.873L203.399 193.614L203.91 193.627L203.903 193.886L203.393 193.873ZM197.743 422.245L203.393 193.873L203.903 193.886L198.253 422.257L197.743 422.245ZM197.736 422.506L197.743 422.245L198.253 422.257L198.247 422.519L197.736 422.506ZM198.253 422.768L197.991 422.768L197.992 422.257L198.253 422.257L198.253 422.768ZM245.339 422.795L198.253 422.768L198.253 422.257L245.34 422.284L245.339 422.795ZM245.592 422.795L245.339 422.795L245.34 422.284L245.592 422.284L245.592 422.795ZM245.85 422.29L245.847 422.543L245.337 422.537L245.34 422.284L245.85 422.29ZM248.488 195.641L245.85 422.29L245.34 422.284L247.977 195.635L248.488 195.641ZM248.491 195.392L248.488 195.641L247.977 195.635L247.98 195.386L248.491 195.392ZM247.998 195.124L248.246 195.134L248.226 195.644L247.977 195.635L247.998 195.124ZM203.924 193.376L247.998 195.124L247.977 195.635L203.903 193.886L203.924 193.376ZM203.665 193.365L203.924 193.376L203.903 193.886L203.645 193.876L203.665 193.365ZM244.832 422.026L247.464 195.877L247.975 195.883L245.343 422.032L244.832 422.026ZM198.515 421.747L245.088 421.773L245.087 422.284L198.515 422.258L198.515 421.747ZM204.408 194.158L198.77 422.009L198.26 421.996L203.897 194.145L204.408 194.158ZM247.709 196.135L204.142 194.406L204.162 193.896L247.729 195.625L247.709 196.135Z" fill="black"/>
<path d="M205.177 422.135L212.326 202.064" stroke="#A6A6A6" stroke-width="0.510605"/>
<path d="M225.602 208.703L219.474 421.625" stroke="#A6A6A6" stroke-width="0.510605"/>
<path d="M190.691 161.801C190.603 168.399 191.815 174.95 194.259 181.079C196.703 187.209 200.33 192.797 204.934 197.524C209.537 202.252 215.027 206.026 221.089 208.633C227.152 211.239 233.668 212.625 240.266 212.713C246.864 212.801 253.415 211.588 259.544 209.144C265.673 206.7 271.262 203.073 275.989 198.469C280.717 193.866 284.491 188.376 287.097 182.314C289.703 176.252 291.09 169.736 291.178 163.138L240.934 162.469L190.691 161.801Z" fill="#0F172A"/>
<path d="M190.691 161.801C190.603 168.399 191.815 174.95 194.259 181.079C196.703 187.209 200.33 192.797 204.934 197.524C209.537 202.252 215.027 206.026 221.089 208.633C227.152 211.239 233.668 212.625 240.266 212.713C246.864 212.801 253.415 211.588 259.544 209.144C265.673 206.7 271.262 203.073 275.989 198.469C280.717 193.866 284.491 188.376 287.097 182.314C289.703 176.252 291.09 169.736 291.178 163.138L240.934 162.469L190.691 161.801Z" fill="#0F172A"/>
<path d="M190.691 161.801L190.435 161.798L190.439 161.542L190.694 161.546L190.691 161.801ZM204.934 197.524L205.117 197.346L204.934 197.524ZM221.089 208.633L221.19 208.398L221.089 208.633ZM240.266 212.713L240.269 212.458L240.266 212.713ZM259.544 209.144L259.45 208.907L259.544 209.144ZM275.989 198.469L275.811 198.286L275.989 198.469ZM287.097 182.314L286.863 182.213L287.097 182.314ZM291.178 163.138L291.181 162.882L291.436 162.886L291.433 163.141L291.178 163.138ZM240.934 162.469L240.931 162.725L240.934 162.469ZM190.946 161.804C190.859 168.369 192.065 174.886 194.497 180.985L194.022 181.174C191.566 175.013 190.347 168.429 190.435 161.798L190.946 161.804ZM194.497 180.985C196.928 187.083 200.537 192.643 205.117 197.346L204.751 197.702C200.124 192.951 196.479 187.334 194.022 181.174L194.497 180.985ZM205.117 197.346C209.697 202.05 215.159 205.805 221.19 208.398L220.988 208.867C214.895 206.248 209.378 202.454 204.751 197.702L205.117 197.346ZM221.19 208.398C227.222 210.991 233.705 212.37 240.269 212.458L240.262 212.968C233.631 212.88 227.082 211.486 220.988 208.867L221.19 208.398ZM240.269 212.458C246.834 212.545 253.351 211.338 259.45 208.907L259.639 209.381C253.478 211.837 246.894 213.056 240.262 212.968L240.269 212.458ZM259.45 208.907C265.548 206.475 271.107 202.867 275.811 198.286L276.167 198.652C271.416 203.279 265.799 206.925 259.639 209.381L259.45 208.907ZM275.811 198.286C280.515 193.706 284.27 188.245 286.863 182.213L287.332 182.415C284.713 188.508 280.919 194.025 276.167 198.652L275.811 198.286ZM286.863 182.213C289.456 176.182 290.835 169.699 290.922 163.134L291.433 163.141C291.345 169.773 289.951 176.322 287.332 182.415L286.863 182.213ZM291.174 163.393L240.931 162.725L240.937 162.214L291.181 162.882L291.174 163.393ZM240.931 162.725L190.687 162.056L190.694 161.546L240.937 162.214L240.931 162.725Z" fill="black"/>
<path d="M244.392 421.757L250.404 433.273M244.392 421.757L269.092 408.862L278.73 427.324M244.392 421.757C246.957 420.651 250.698 420.791 252.511 424.264C253.971 427.061 252.874 431.984 250.404 433.273M250.404 433.273C246.187 435.397 238.373 441.136 240.857 447.097M240.857 447.097L278.73 427.324M240.857 447.097L243.72 452.581L264.921 441.512C263.879 438.179 264.685 432.331 276.241 435.602L281.593 432.808L278.73 427.324" stroke="white" stroke-width="1.02121"/>
<path d="M235.318 193.052L279.392 194.8L276.754 421.45L229.668 421.423L235.318 193.052Z" fill="#0F172A"/>
<path d="M235.318 193.052L279.392 194.8L276.754 421.45L229.668 421.423L235.318 193.052Z" fill="#0F172A"/>
<ellipse cx="17.9824" cy="12.7135" rx="17.9824" ry="12.7135" transform="matrix(-0.964158 -0.265329 -0.265329 0.964158 277.745 10.4287)" fill="#0F172A"/>
<path d="M231.418 71.4478H253.136L250.052 43.9463H231.418V71.4478Z" fill="white" stroke="#0F172A" stroke-width="1.02121"/>
<path d="M133.045 117.294C164.782 138.704 176.041 117.144 177.194 105.007L210.28 117.789C194.686 155.299 160.924 160.671 146.502 157.349C114.471 149.824 77.1368 118.059 62.4736 103.118L73.3218 67.9069C80.0059 75.4489 101.308 95.8853 133.045 117.294Z" fill="white" stroke="#0F172A" stroke-width="1.02121"/>
<path d="M223.439 100.134C228.272 87.6251 222.049 73.5666 209.54 68.7337C198.347 64.4096 185.769 69.9775 181.444 81.17L171.397 107.176L214.313 123.757L223.439 100.134Z" fill="#0F172A"/>
<path d="M295.931 123.366C295.931 94.0536 272.169 70.291 242.856 70.291C213.544 70.291 189.781 94.0536 189.781 123.366V181.068H295.931V123.366Z" fill="#A9A7B6"/>
<path d="M251.081 86.2273C272.568 67.3104 260.034 57.098 251.081 54.3564C253.651 65.6655 245.983 69.6922 241.828 70.2919C234.117 71.4047 231.718 62.624 231.29 57.5692C226.766 57.8777 222.93 63.9948 222.808 67.8502C222.602 74.3271 226.663 82.8003 228.72 86.2273L239.386 77.36L251.081 86.2273Z" fill="#064D47" stroke="#064D47" stroke-width="0.510605"/>
<path d="M263.031 68.75C262.218 72.5197 258.636 81.3441 250.823 86.4846L239.642 77.3603L228.462 86.4846C226.877 83.7858 223.476 76.4607 222.55 68.75" stroke="#0F172A" stroke-width="2.04242"/>
<path d="M265.348 114.755C268.646 126.492 265.913 150.661 228.593 142.128C191.274 133.594 164.038 122.208 155.085 117.582C154.175 117.146 152.66 116.668 151.433 116.75C147.961 116.981 151.636 121.831 154.703 123.476L164.081 128.506C162.116 128.506 160.325 129.63 159.471 131.399L152.561 145.706C150.844 149.26 149.543 153.609 152.052 156.655C154.379 159.482 158.863 161.163 166.651 158.139C188.833 166.941 227.343 178.561 255.581 174.641C270.231 172.542 299.789 155.364 300.817 114.755H265.348Z" fill="white" stroke="#0F172A" stroke-width="1.02121"/>
<path d="M306.728 93.5442C306.728 80.1339 295.857 69.2627 282.447 69.2627C270.448 69.2627 260.721 78.9896 260.721 90.9883V118.868H306.728V93.5442Z" fill="#0F172A"/>
<mask id="path-20-inside-1_2551_1606" fill="white">
<path fill-rule="evenodd" clip-rule="evenodd" d="M220.31 41.4944C223.164 49.927 231.143 55.9966 240.54 55.9966C249.937 55.9966 257.916 49.9269 260.771 41.4943C264.233 40.9665 266.885 37.9764 266.885 34.3669C266.885 30.686 264.127 27.6493 260.564 27.211C257.546 19.0822 249.719 13.29 240.54 13.29C231.361 13.29 223.534 19.0821 220.516 27.2109C216.953 27.649 214.195 30.6858 214.195 34.3669C214.195 37.9766 216.847 40.9668 220.31 41.4944ZM220.322 27.7543C219.586 29.9156 219.187 32.2328 219.187 34.6433C219.187 36.8371 219.518 38.9536 220.132 40.9457C217.041 40.3512 214.705 37.6318 214.705 34.3669C214.705 31.0353 217.137 28.2717 220.322 27.7543Z"/>
</mask>
<path fill-rule="evenodd" clip-rule="evenodd" d="M220.31 41.4944C223.164 49.927 231.143 55.9966 240.54 55.9966C249.937 55.9966 257.916 49.9269 260.771 41.4943C264.233 40.9665 266.885 37.9764 266.885 34.3669C266.885 30.686 264.127 27.6493 260.564 27.211C257.546 19.0822 249.719 13.29 240.54 13.29C231.361 13.29 223.534 19.0821 220.516 27.2109C216.953 27.649 214.195 30.6858 214.195 34.3669C214.195 37.9766 216.847 40.9668 220.31 41.4944ZM220.322 27.7543C219.586 29.9156 219.187 32.2328 219.187 34.6433C219.187 36.8371 219.518 38.9536 220.132 40.9457C217.041 40.3512 214.705 37.6318 214.705 34.3669C214.705 31.0353 217.137 28.2717 220.322 27.7543Z" fill="white"/>
<path d="M220.31 41.4944L220.386 40.9896L220.694 41.0364L220.793 41.3307L220.31 41.4944ZM260.771 41.4943L260.287 41.3306L260.387 41.0364L260.694 40.9896L260.771 41.4943ZM260.564 27.211L260.502 27.7178L260.194 27.6799L260.086 27.3887L260.564 27.211ZM220.516 27.2109L220.994 27.3887L220.886 27.6798L220.578 27.7177L220.516 27.2109ZM220.322 27.7543L220.241 27.2503L221.08 27.1139L220.806 27.9189L220.322 27.7543ZM220.132 40.9457L220.62 40.7952L220.871 41.6077L220.036 41.4471L220.132 40.9457ZM240.54 56.5072C230.918 56.5072 222.749 50.2917 219.826 41.6581L220.793 41.3307C223.58 49.5622 231.369 55.486 240.54 55.486V56.5072ZM261.254 41.6581C258.331 50.2917 250.162 56.5072 240.54 56.5072V55.486C249.711 55.486 257.5 49.5622 260.287 41.3306L261.254 41.6581ZM267.396 34.3669C267.396 38.2325 264.555 41.4338 260.848 41.9991L260.694 40.9896C263.91 40.4992 266.374 37.7203 266.374 34.3669H267.396ZM260.627 26.7042C264.442 27.1736 267.396 30.4249 267.396 34.3669H266.374C266.374 30.947 263.812 28.125 260.502 27.7178L260.627 26.7042ZM240.54 12.7794C249.94 12.7794 257.953 18.7108 261.043 27.0333L260.086 27.3887C257.139 19.4535 249.499 13.8006 240.54 13.8006V12.7794ZM220.037 27.0332C223.127 18.7108 231.14 12.7794 240.54 12.7794V13.8006C231.581 13.8006 223.941 19.4535 220.994 27.3887L220.037 27.0332ZM213.684 34.3669C213.684 30.4247 216.638 27.1733 220.454 26.7042L220.578 27.7177C217.268 28.1247 214.705 30.9468 214.705 34.3669H213.684ZM220.233 41.9992C216.525 41.4341 213.684 38.2327 213.684 34.3669H214.705C214.705 37.7205 217.17 40.4994 220.386 40.9896L220.233 41.9992ZM218.676 34.6433C218.676 32.1761 219.085 29.8033 219.839 27.5896L220.806 27.9189C220.087 30.0279 219.697 32.2896 219.697 34.6433H218.676ZM219.644 41.0962C219.015 39.0559 218.676 36.8887 218.676 34.6433H219.697C219.697 36.7855 220.02 38.8513 220.62 40.7952L219.644 41.0962ZM220.036 41.4471C216.708 40.8073 214.195 37.8812 214.195 34.3669H215.216C215.216 37.3824 217.373 39.8952 220.229 40.4443L220.036 41.4471ZM214.195 34.3669C214.195 30.7809 216.812 27.8072 220.241 27.2503L220.404 28.2583C217.462 28.7362 215.216 31.2897 215.216 34.3669H214.195Z" fill="black" mask="url(#path-20-inside-1_2551_1606)"/>
<path fill-rule="evenodd" clip-rule="evenodd" d="M230.286 22.7069C222.154 22.7069 215.562 18.2268 215.562 12.7002C215.562 7.17355 222.154 2.69336 230.286 2.69336C237.117 2.69336 242.862 5.85501 244.525 10.1427C245.888 9.40571 247.47 8.98414 249.156 8.98414C254.288 8.98414 258.448 12.8883 258.448 17.7043C258.448 22.5204 254.288 26.4246 249.156 26.4246C244.905 26.4246 241.321 23.7459 240.216 20.089C237.597 21.7151 234.112 22.7069 230.286 22.7069Z" fill="#0F172A"/>
<path d="M245.814 31.8249C244.982 29.9762 242.542 27.3879 239.436 31.8249M234.444 31.8293C233.612 29.9805 231.172 27.3922 228.066 31.8293" stroke="black" stroke-width="0.510605"/>
<ellipse cx="6.89317" cy="3.82954" rx="6.89317" ry="3.82954" transform="matrix(-1 0 0 1 246.025 42.2451)" fill="#0F172A"/>
<rect x="2.80383" y="36.1191" width="145.012" height="56.1666" rx="3.06363" transform="rotate(2.42844 2.80383 36.1191)" fill="#EDEDED"/>
<line x1="30.9274" y1="71.9135" x2="135.507" y2="76.3487" stroke="black" stroke-width="4.08484"/>
<line x1="30.6027" y1="79.5662" x2="101.003" y2="82.5519" stroke="#54BD95" stroke-width="3.06363"/>
<circle cx="19.0425" cy="74.9869" r="7.14847" transform="rotate(2.42844 19.0425 74.9869)" fill="#064D47"/>
<path d="M46.4379 50.1978C46.6105 49.7343 47.2754 49.7625 47.4082 50.2389L48.0174 52.4251C48.0768 52.6382 48.2667 52.7888 48.4877 52.7982L50.7551 52.8944C51.2493 52.9153 51.428 53.5564 51.0158 53.8299L49.1249 55.0849C48.9406 55.2072 48.856 55.4343 48.9154 55.6474L49.5246 57.8336C49.6574 58.3101 49.1029 58.6781 48.7154 58.3707L46.9375 56.9601C46.7642 56.8226 46.5221 56.8123 46.3378 56.9347L44.4469 58.1896C44.0348 58.4632 43.5134 58.0495 43.686 57.586L44.4782 55.4592C44.5554 55.2519 44.4903 55.0185 44.317 54.881L42.5392 53.4704C42.1517 53.163 42.384 52.5393 42.8782 52.5603L45.1456 52.6565C45.3666 52.6658 45.5685 52.5318 45.6457 52.3245L46.4379 50.1978Z" fill="#FFC728"/>
<path d="M32.4924 49.6457C32.6219 49.298 33.1206 49.3192 33.2202 49.6765L33.8294 51.8627C33.9036 52.1291 34.1409 52.3173 34.4172 52.3291L36.6846 52.4252C37.0553 52.4409 37.1893 52.9218 36.8802 53.1269L34.9893 54.3819C34.7589 54.5348 34.6531 54.8186 34.7274 55.085L35.3366 57.2712C35.4362 57.6285 35.0203 57.9046 34.7297 57.674L32.9518 56.2634C32.7352 56.0916 32.4325 56.0787 32.2022 56.2316L30.3112 57.4866C30.0021 57.6917 29.6111 57.3815 29.7406 57.0339L30.5327 54.9071C30.6292 54.648 30.5479 54.3562 30.3313 54.1843L28.5534 52.7738C28.2628 52.5432 28.437 52.0754 28.8077 52.0912L31.0751 52.1873C31.3514 52.199 31.6038 52.0315 31.7003 51.7724L32.4924 49.6457Z" stroke="#FFC728" stroke-width="0.255303"/>
<path d="M18.4261 49.049C18.5556 48.7013 19.0543 48.7225 19.1539 49.0798L19.7631 51.266C19.8374 51.5324 20.0747 51.7207 20.3509 51.7324L22.6184 51.8285C22.989 51.8443 23.123 52.3251 22.8139 52.5302L20.923 53.7852C20.6926 53.9381 20.5869 54.222 20.6611 54.4883L21.2703 56.6745C21.3699 57.0319 20.954 57.3079 20.6634 57.0773L18.8855 55.6667C18.6689 55.4949 18.3663 55.482 18.1359 55.6349L16.2449 56.8899C15.9359 57.0951 15.5448 56.7848 15.6743 56.4372L16.4664 54.3104C16.563 54.0513 16.4816 53.7595 16.265 53.5876L14.4872 52.1771C14.1965 51.9465 14.3708 51.4788 14.7414 51.4945L17.0088 51.5906C17.2851 51.6024 17.5375 51.4348 17.634 51.1757L18.4261 49.049Z" stroke="#FFC728" stroke-width="0.255303"/>
<path d="M60.5048 50.7945C60.6774 50.3309 61.3423 50.3591 61.4751 50.8356L62.0843 53.0218C62.1437 53.2349 62.3336 53.3855 62.5546 53.3949L64.822 53.491C65.3162 53.512 65.4949 54.1531 65.0827 54.4266L63.1918 55.6816C63.0075 55.8039 62.9229 56.031 62.9823 56.2441L63.5915 58.4303C63.7243 58.9068 63.1698 59.2748 62.7823 58.9673L61.0044 57.5568C60.8311 57.4193 60.589 57.409 60.4047 57.5313L58.5138 58.7863C58.1017 59.0598 57.5803 58.6462 57.7529 58.1827L58.5451 56.0559C58.6223 55.8486 58.5572 55.6152 58.3839 55.4777L56.6061 54.0671C56.2186 53.7597 56.4509 53.136 56.9451 53.157L59.2125 53.2531C59.4335 53.2625 59.6354 53.1285 59.7126 52.9212L60.5048 50.7945Z" fill="#FFC728"/>
<path d="M74.5717 51.3911C74.7443 50.9276 75.4092 50.9558 75.542 51.4323L76.1512 53.6185C76.2106 53.8316 76.4005 53.9822 76.6215 53.9916L78.8889 54.0877C79.3831 54.1087 79.5617 54.7498 79.1496 55.0233L77.2587 56.2783C77.0744 56.4006 76.9898 56.6277 77.0492 56.8408L77.6584 59.027C77.7912 59.5034 77.2367 59.8715 76.8492 59.564L75.0713 58.1535C74.898 58.016 74.6559 58.0057 74.4716 58.128L72.5807 59.383C72.1685 59.6565 71.6472 59.2429 71.8198 58.7793L72.612 56.6526C72.6892 56.4453 72.6241 56.2119 72.4508 56.0744L70.673 54.6638C70.2855 54.3564 70.5178 53.7327 71.0119 53.7537L73.2794 53.8498C73.5004 53.8592 73.7023 53.7252 73.7795 53.5179L74.5717 51.3911Z" fill="#FFC728"/>
<path d="M49.6325 94.5167C51.4558 92.6901 52.6247 90.5896 53.0587 88.6903C53.4947 86.7829 53.1787 85.1597 52.1673 84.1502C51.1559 83.1407 49.5322 82.8277 47.6256 83.2671C45.7271 83.7047 43.6288 84.8775 41.8055 86.7041C39.9822 88.5308 38.8133 90.6313 38.3792 92.5306C37.9433 94.438 38.2592 96.0612 39.2706 97.0707C40.282 98.0802 41.9058 98.3932 43.8124 97.9537C45.7109 97.5162 47.8092 96.3434 49.6325 94.5167Z" fill="white" stroke="black" stroke-width="1.02121"/>
<path d="M57.4298 96.9521C59.0133 95.3329 60.0368 93.5006 60.4293 91.8671C60.8247 90.2217 60.5653 88.875 59.7451 88.073C58.9249 87.2709 57.5728 87.0416 55.9366 87.4736C54.3123 87.9025 52.5033 88.9667 50.9199 90.5859C49.3364 92.2052 48.3129 94.0375 47.9204 95.6709C47.525 97.3164 47.7844 98.663 48.6046 99.4651C49.4248 100.267 50.7769 100.496 52.4131 100.064C54.0374 99.6355 55.8464 98.5713 57.4298 96.9521Z" fill="white" stroke="black" stroke-width="1.02121"/>
<path d="M65.4752 97.2234C64.6879 99.0609 64.4596 100.906 64.7027 102.392C64.947 103.885 65.6474 104.941 66.6495 105.37C67.6515 105.8 68.8993 105.578 70.1488 104.725C71.3924 103.876 72.5708 102.439 73.3581 100.601C74.1454 98.7638 74.3737 96.9188 74.1306 95.4328C73.8863 93.9398 73.1859 92.8837 72.1839 92.4543C71.1818 92.025 69.934 92.2463 68.6845 93.0993C67.441 93.9482 66.2625 95.386 65.4752 97.2234Z" fill="white" stroke="black" stroke-width="1.02121"/>
<path d="M56.743 95.8113C55.9557 97.6487 55.7275 99.4938 55.9706 100.98C56.2148 102.473 56.9153 103.529 57.9173 103.958C58.9193 104.388 60.1671 104.166 61.4166 103.313C62.6602 102.464 63.8386 101.027 64.626 99.1891C65.4133 97.3517 65.6415 95.5067 65.3984 94.0207C65.1541 92.5277 64.4537 91.4716 63.4517 91.0422C62.4497 90.6129 61.2018 90.8342 59.9524 91.6871C58.7088 92.5361 57.5303 93.9739 56.743 95.8113Z" fill="white" stroke="black" stroke-width="1.02121"/>
</svg>
